<?xml version="1.0" encoding="UTF-8" standalone="no"?>
<!-- Generator: Adobe Illustrator 27.5.0, SVG Export Plug-In . SVG Version: 6.00 Build 0)  -->

<svg
   version="1.1"
   x="0px"
   y="0px"
   viewBox="0 0 500 100"
   xml:space="preserve"
   id="svg20"
   sodipodi:docname="flowers-2.svg"
   width="500"
   height="100"
   inkscape:version="1.3.2 (091e20e, 2023-11-25)"
   xmlns:inkscape="http://www.inkscape.org/namespaces/inkscape"
   xmlns:sodipodi="http://sodipodi.sourceforge.net/DTD/sodipodi-0.dtd"
   xmlns="http://www.w3.org/2000/svg"
   xmlns:svg="http://www.w3.org/2000/svg"><defs
   id="defs20">
	
	
	
	
	
	
	
	
	
	
</defs><sodipodi:namedview
   id="namedview20"
   pagecolor="#ffffff"
   bordercolor="#000000"
   borderopacity="0.25"
   inkscape:showpageshadow="2"
   inkscape:pageopacity="0.0"
   inkscape:pagecheckerboard="0"
   inkscape:deskcolor="#d1d1d1"
   showguides="true"
   inkscape:zoom="0.71202631"
   inkscape:cx="-0.70222124"
   inkscape:cy="105.33319"
   inkscape:window-width="1696"
   inkscape:window-height="901"
   inkscape:window-x="0"
   inkscape:window-y="44"
   inkscape:window-maximized="0"
   inkscape:current-layer="svg20" />
<g
   id="BACKGROUND">
</g>


<g
   id="g19"
   transform="translate(0.19020049,-264.00932)">
		<path
   d="m 321.319,321.898 c -1.072,1.826 -3.936,7.25 -0.294,7.482 2.283,0.146 2.211,-2.421 1.708,-4.701 0.895,2.226 2.335,4.446 4.206,2.798 3.058,-2.693 -5.253,-6.185 -5.253,-6.185 0,0 -9.255,0.856 -6.77,4.474 1.908,2.78 5.291,-2.099 6.403,-3.868 z m 160.042,-15.441 c -0.277,-1.297 -1.59,-1.817 -2.796,-1.874 -2.619,-0.123 -4.337,2.002 -3.833,3.693 -2.329,-0.292 -4.666,-0.395 -7.001,-0.436 -2.715,-0.016 -5.433,0.043 -8.134,0.334 -2.702,0.287 -5.378,0.831 -8.07,1.126 -2.689,0.332 -5.395,0.476 -8.107,0.633 -2.717,0.108 -5.424,0.348 -8.118,0.679 -2.692,0.353 -5.393,0.663 -8.059,1.191 -1.122,0.212 -2.24,0.451 -3.355,0.698 0.314,-0.128 0.632,-0.244 0.946,-0.373 8.648,-3.667 17.156,-7.874 24.767,-13.399 0.254,0.248 0.519,0.487 0.842,0.629 0.531,0.234 1.145,0.19 1.711,0.06 1.534,-0.352 4.057,-1.845 4.223,-3.64 0.151,-1.638 -2.276,-3.063 -3.656,-3.403 -3.664,-0.903 -5.875,3.551 -3.326,6.155 -7.908,4.98 -16.456,8.789 -25.142,12.145 -2.283,0.851 -4.564,1.706 -6.862,2.512 -2.311,0.774 -4.603,1.597 -6.934,2.31 -1.246,0.404 -2.501,0.78 -3.751,1.167 2.198,-1.082 4.365,-2.236 6.451,-3.531 2.257,-1.356 4.426,-2.864 6.479,-4.518 4.108,-3.307 7.782,-7.144 10.879,-11.387 1.538,-2.126 2.944,-4.377 3.872,-6.872 0.463,-1.242 0.823,-2.55 0.868,-3.925 0.054,-1.358 -0.247,-2.832 -1.136,-4.002 -0.21,-0.295 -0.488,-0.534 -0.736,-0.802 -0.274,-0.234 -0.579,-0.429 -0.873,-0.643 -0.625,-0.319 -1.222,-0.686 -1.928,-0.86 -1.36,-0.448 -2.931,-0.413 -4.296,0.095 -2.73,1.073 -4.625,3.166 -6.309,5.207 -3.311,4.186 -5.959,8.691 -8.744,13.074 -2.749,4.401 -5.576,8.736 -8.805,12.759 -1.624,2 -3.289,3.98 -5.15,5.773 -0.446,0.469 -0.946,0.878 -1.407,1.333 -0.463,0.454 -0.947,0.883 -1.446,1.296 -0.352,0.292 -0.664,0.574 -1.019,0.867 -2.907,0.792 -5.821,1.55 -8.743,2.271 0.088,-0.064 0.189,-0.132 0.27,-0.193 0.947,-0.72 1.932,-1.398 2.84,-2.17 0.925,-0.752 1.852,-1.505 2.73,-2.314 0.9,-0.785 1.772,-1.602 2.621,-2.443 0.866,-0.824 1.674,-1.707 2.509,-2.564 0.784,-0.904 1.608,-1.774 2.358,-2.709 1.556,-1.822 2.952,-3.782 4.244,-5.802 2.536,-4.076 4.542,-8.482 5.871,-13.076 0.644,-2.299 1.145,-4.668 1.104,-7.098 -0.003,-1.211 -0.192,-2.442 -0.625,-3.62 -0.435,-1.169 -1.238,-2.284 -2.38,-2.963 -1.135,-0.711 -2.482,-0.878 -3.729,-0.914 -1.284,0.008 -2.624,0.343 -3.757,1.06 -1.151,0.699 -2.032,1.728 -2.694,2.804 -0.693,1.074 -1.176,2.228 -1.592,3.38 -1.608,4.633 -2.331,9.339 -3.252,13.965 -0.867,4.635 -1.836,9.227 -3.29,13.675 -0.739,2.216 -1.528,4.428 -2.56,6.534 -0.234,0.539 -0.536,1.041 -0.788,1.572 -0.253,0.531 -0.537,1.046 -0.835,1.553 -0.307,0.523 -0.545,0.994 -0.928,1.572 -0.055,0.089 -0.097,0.172 -0.148,0.26 -0.106,0.025 -0.211,0.054 -0.317,0.079 -1.888,0.432 -3.711,0.889 -5.569,1.203 0.253,-0.298 0.506,-0.612 0.704,-0.889 0.526,-0.742 1.091,-1.463 1.573,-2.237 0.494,-0.767 1.001,-1.529 1.441,-2.331 0.466,-0.787 0.91,-1.588 1.313,-2.411 0.43,-0.81 0.792,-1.653 1.181,-2.485 0.342,-0.852 0.708,-1.696 1.011,-2.565 0.655,-1.72 1.121,-3.513 1.475,-5.322 0.654,-3.635 0.703,-7.382 0.064,-11 -0.317,-1.807 -0.855,-3.6 -1.832,-5.207 -0.502,-0.788 -1.092,-1.549 -1.865,-2.145 -0.77,-0.591 -1.704,-1.005 -2.691,-1.151 -0.981,-0.165 -2.019,-0.055 -2.935,0.22 -0.938,0.213 -1.871,0.652 -2.693,1.29 -0.843,0.628 -1.454,1.593 -1.786,2.574 -0.346,0.99 -0.427,2.013 -0.399,2.978 0.04,1.95 0.443,3.77 0.853,5.558 0.419,1.787 0.939,3.521 1.412,5.256 1.003,3.452 1.895,6.896 2.357,10.409 0.222,1.754 0.375,3.527 0.294,5.303 0.006,0.447 -0.058,0.885 -0.076,1.331 -0.019,0.447 -0.057,0.892 -0.125,1.333 -0.07,0.464 -0.085,0.842 -0.202,1.383 -0.016,0.089 -0.021,0.167 -0.033,0.253 -0.187,0.026 -0.372,0.061 -0.56,0.083 -1.181,0.213 -2.387,0.263 -3.585,0.371 -1.197,0.126 -2.405,0.14 -3.612,0.168 -1.925,0.035 -3.852,-0.005 -5.78,-0.079 0.323,-1.754 0.322,-3.56 0.074,-5.346 -0.313,-2.092 -1.006,-4.202 -2.27,-5.982 -1.287,-1.773 -3.096,-3.076 -4.969,-3.994 -1.87,-0.953 -3.885,-1.57 -5.964,-1.932 -0.519,-0.113 -1.045,-0.153 -1.576,-0.187 -0.53,-0.043 -1.064,-0.077 -1.601,-0.103 -0.535,0.019 -1.07,0.097 -1.609,0.148 l -0.807,0.094 c -0.264,0.058 -0.525,0.136 -0.789,0.204 -2.134,0.453 -4.15,1.511 -5.814,2.92 -1.652,1.434 -2.977,3.195 -3.908,5.108 -0.87,1.784 -1.456,3.681 -1.68,5.623 -4.096,-0.572 -8.196,-1.125 -12.304,-1.626 0.181,-2.373 -0.147,-4.755 -0.776,-7.064 -0.663,-2.326 -1.675,-4.626 -3.263,-6.538 -0.798,-0.948 -1.732,-1.778 -2.727,-2.498 -1.007,-0.711 -2.096,-1.271 -3.195,-1.763 -2.218,-0.958 -4.597,-1.493 -7.027,-1.612 -0.609,-0.062 -1.214,-0.021 -1.823,0.007 -0.61,0.023 -1.222,0.057 -1.836,0.099 -0.605,0.108 -1.205,0.258 -1.81,0.391 l -0.906,0.213 -0.868,0.344 c -2.364,0.808 -4.506,2.298 -6.185,4.147 -1.667,1.87 -2.906,4.07 -3.684,6.384 -0.698,2.078 -1.084,4.236 -1.101,6.396 -1.13,0.09 -2.26,0.19 -3.389,0.308 l -3.658,0.541 c -0.609,0.095 -1.221,0.175 -1.828,0.283 l -1.809,0.388 c -1.205,0.265 -2.416,0.504 -3.615,0.791 l -3.563,1.006 c -1.196,0.309 -2.36,0.72 -3.522,1.136 -1.162,0.416 -2.335,0.8 -3.487,1.242 l -3.402,1.458 -1.696,0.737 -1.649,0.837 c -8.817,4.421 -16.872,10.269 -23.821,17.169 -0.037,0.036 -0.04,0.096 -0.006,0.136 0.036,0.042 0.099,0.047 0.141,0.011 7.435,-6.342 15.567,-11.825 24.358,-15.92 4.533,-2.178 9.257,-3.888 14.086,-5.242 0.056,1.841 0.429,3.675 1.047,5.439 0.73,2.077 1.872,4.062 3.453,5.722 1.604,1.635 3.716,2.816 5.945,3.315 2.225,0.574 4.526,0.38 6.641,-0.128 2.107,-0.595 4.173,-1.254 6.046,-2.365 1.874,-1.048 3.758,-2.332 5.121,-4.13 1.346,-1.793 2.174,-3.919 2.627,-6.063 0.398,-1.966 0.492,-4.02 0.133,-5.974 2.965,-0.018 5.933,0.063 8.897,0.241 -0.611,2.025 -0.788,4.179 -0.645,6.32 0.151,2.242 0.731,4.506 1.84,6.567 1.139,2.043 2.911,3.767 4.981,4.843 2.051,1.133 4.369,1.549 6.589,1.592 l 1.673,-0.061 c 0.555,-0.012 1.105,-0.039 1.653,-0.143 0.546,-0.094 1.098,-0.132 1.641,-0.227 0.533,-0.148 1.074,-0.262 1.612,-0.396 2.114,-0.599 4.266,-1.457 6.046,-2.909 1.772,-1.447 3.096,-3.362 4.051,-5.384 0.491,-1.009 0.864,-2.069 1.147,-3.148 0.26,-0.961 0.356,-1.926 0.438,-2.884 0.299,0.052 0.598,0.103 0.898,0.155 1.096,0.189 2.194,0.377 3.293,0.563 -0.424,1.977 -0.461,4.046 -0.202,6.081 0.292,2.239 0.997,4.48 2.241,6.478 1.252,1.985 3.121,3.631 5.267,4.586 2.122,1.04 4.486,1.287 6.714,1.191 0.561,-0.026 1.12,-0.113 1.675,-0.167 0.554,-0.07 1.109,-0.095 1.65,-0.244 0.543,-0.129 1.089,-0.225 1.633,-0.336 l 1.589,-0.509 c 2.084,-0.734 4.189,-1.738 5.876,-3.319 1.679,-1.575 2.873,-3.591 3.687,-5.688 0.418,-1.048 0.72,-2.137 0.926,-3.24 0.155,-0.792 0.201,-1.58 0.221,-2.363 0.704,-0.049 1.407,-0.109 2.107,-0.224 0.185,-0.019 0.37,-0.052 0.555,-0.074 0,10e-4 10e-4,10e-4 10e-4,0.002 0.238,0.325 0.405,0.608 0.61,0.911 0.373,0.61 0.716,1.232 1.038,1.865 0.65,1.263 1.153,2.593 1.63,3.93 0.916,2.694 1.646,5.457 2.377,8.259 0.78,2.789 1.542,5.619 2.941,8.368 0.355,0.683 0.778,1.362 1.328,1.98 0.525,0.624 1.273,1.18 2.126,1.454 0.425,0.161 0.876,0.182 1.313,0.21 0.429,-0.044 0.862,-0.071 1.247,-0.21 0.793,-0.218 1.481,-0.576 2.153,-1.059 1.351,-1.007 1.878,-2.723 1.824,-4.209 -0.015,-1.521 -0.403,-2.969 -0.897,-4.355 -0.995,-2.773 -2.362,-5.436 -4.114,-7.832 -1.773,-2.381 -3.954,-4.432 -6.319,-6.199 -1.191,-0.874 -2.437,-1.673 -3.732,-2.375 -0.651,-0.34 -1.304,-0.672 -1.979,-0.96 1.699,-0.287 3.38,-0.676 5.022,-1.03 0.076,0.048 0.15,0.098 0.228,0.142 l 1.34,0.936 1.277,1.016 1.233,1.065 c 1.621,1.447 3.095,3.05 4.534,4.68 2.863,3.279 5.499,6.768 8.185,10.253 2.727,3.452 5.453,6.963 8.896,9.966 0.853,0.753 1.808,1.431 2.831,2.019 1.056,0.545 2.228,0.982 3.498,1.042 1.278,0.096 2.554,-0.382 3.533,-1.072 1.004,-0.679 1.811,-1.514 2.465,-2.514 0.652,-0.984 1.066,-2.148 1.127,-3.327 0.058,-1.183 -0.22,-2.33 -0.633,-3.385 -0.847,-2.125 -2.302,-3.878 -3.835,-5.479 -3.116,-3.185 -6.766,-5.814 -10.626,-8.032 -3.898,-2.155 -8.04,-3.824 -12.259,-5.168 -1.051,-0.352 -2.115,-0.658 -3.182,-0.951 -1.061,-0.315 -2.139,-0.567 -3.213,-0.829 -1.07,-0.274 -2.162,-0.469 -3.242,-0.696 -0.123,-0.026 -0.267,-0.049 -0.401,-0.075 4.257,-0.991 8.474,-2.111 12.676,-3.295 0.516,-0.149 1.028,-0.314 1.543,-0.466 l 1.241,0.456 c 0.929,0.396 1.834,0.83 2.731,1.283 1.788,0.919 3.48,2.014 5.148,3.138 3.327,2.27 6.504,4.777 9.73,7.268 3.255,2.451 6.529,4.949 10.336,6.825 0.943,0.475 1.968,0.852 3.028,1.136 1.081,0.238 2.246,0.346 3.407,0.093 1.176,-0.223 2.22,-0.952 2.936,-1.81 0.743,-0.849 1.277,-1.787 1.63,-2.845 0.355,-1.041 0.452,-2.19 0.222,-3.266 -0.224,-1.081 -0.759,-2.043 -1.382,-2.888 -1.268,-1.704 -2.995,-2.92 -4.746,-3.996 -3.546,-2.118 -7.431,-3.626 -11.413,-4.716 -4.001,-1.019 -8.107,-1.537 -12.205,-1.742 -1.024,-0.067 -2.051,-0.088 -3.076,-0.098 -1.025,-0.031 -2.05,0 -3.074,0.02 -0.28,0.003 -0.559,0.02 -0.839,0.032 3.062,-0.944 6.113,-1.925 9.142,-2.973 0.938,0.055 1.871,0.087 2.8,0.124 0.817,0.055 1.63,0.089 2.442,0.112 0.406,0.019 0.811,0.02 1.216,0.021 l 1.214,0.072 c 3.245,0.003 6.462,0.225 9.749,0.28 1.631,0.109 3.273,0.27 4.843,0.738 0.393,0.112 0.784,0.233 1.172,0.362 l 1.14,0.468 2.249,0.972 c 1.506,0.6 3.031,1.117 4.558,1.659 l 4.236,1.489 c -0.198,0.36 -0.326,0.745 -0.344,1.152 -0.084,1.997 0.772,4.187 2.588,5.022 0.733,0.337 1.558,0.428 2.364,0.397 0.973,-0.037 1.995,-0.274 2.686,-0.958 1.963,-1.943 1.237,-6.505 -1.263,-7.7 -1.771,-0.846 -4.655,0.101 -5.839,1.777 -1.14,-1.06 -2.456,-1.877 -3.808,-2.599 -0.743,-0.387 -1.502,-0.743 -2.281,-1.042 -0.768,-0.334 -1.567,-0.581 -2.38,-0.779 -0.809,-0.212 -1.64,-0.336 -2.469,-0.453 l -2.46,-0.398 c -1.617,-0.34 -3.222,-0.704 -4.823,-1.189 -1.613,-0.393 -3.242,-0.819 -4.902,-0.964 -0.827,-0.1 -1.655,-0.215 -2.486,-0.281 -0.832,-0.053 -1.665,-0.065 -2.499,-0.086 -0.401,-10e-4 -0.801,0.002 -1.201,0.014 3.249,-0.483 6.478,-1.016 9.716,-1.513 l 7.96,-1.431 3.988,-0.691 3.985,-0.761 c 1.333,-0.219 2.662,-0.499 4.003,-0.664 1.34,-0.175 2.686,-0.307 4.033,-0.411 2.699,-0.172 5.416,-0.071 8.115,-0.111 2.699,-0.057 5.387,-0.241 8.079,-0.446 2.38,-0.178 4.76,-0.386 7.148,-0.665 0.379,0.652 1.139,1.193 2.405,1.431 2.2,0.414 4.581,-1.114 4.029,-3.697 z m -114.068,20.767 c -1.056,2.61 -2.402,4.966 -4.042,7.007 -0.872,1.103 -1.906,2.208 -3.278,2.791 -1.348,0.638 -2.917,0.626 -4.344,0.387 -0.711,-0.181 -1.413,-0.323 -2.044,-0.637 -0.666,-0.217 -1.231,-0.618 -1.815,-0.954 -1.096,-0.808 -1.95,-1.879 -2.671,-3.062 -1.35,-2.183 -2.185,-4.791 -2.808,-7.529 2.73,0.436 5.471,0.828 8.222,1.155 -2.266,0.656 -6.299,2.196 -4.345,4.448 2.039,2.35 4.634,-2.476 5.47,-4.213 -0.793,1.786 -2.857,7.058 0.507,6.893 2.109,-0.103 1.776,-2.45 1.078,-4.489 1.052,1.948 2.603,3.835 4.148,2.129 1.677,-1.851 -1.281,-3.504 -3.458,-4.406 3.11,0.294 6.235,0.47 9.38,0.48 z m -5.546,-1.966 c -1.095,-0.047 -2.191,-0.109 -3.286,-0.183 0.146,-0.944 0.146,-1.902 0.058,-2.857 0.457,0.183 0.914,0.237 1.371,0.249 0.456,-0.011 0.912,-0.064 1.367,-0.247 0.201,0.995 0.356,2.012 0.49,3.038 z m -0.596,-3.578 c -0.42,-0.15 -0.841,-0.203 -1.261,-0.213 -0.474,0.013 -0.948,0.07 -1.422,0.271 -0.014,-0.111 -0.02,-0.222 -0.036,-0.332 -0.104,-0.758 -0.305,-1.505 -0.552,-2.239 -0.057,-0.162 -0.13,-0.319 -0.195,-0.479 0.439,-0.028 0.856,-0.121 1.26,-0.25 0.382,-0.141 0.754,-0.313 1.105,-0.542 0.452,1.218 0.817,2.481 1.101,3.784 z m -2.915,-7.549 c 0.144,0.236 0.284,0.474 0.416,0.712 0.438,0.772 0.815,1.578 1.151,2.405 -0.409,0.035 -0.8,0.125 -1.18,0.244 -0.411,0.15 -0.809,0.336 -1.183,0.594 0,0 0,0 0,-0.001 -0.179,-0.35 -0.399,-0.678 -0.601,-1.012 -0.353,-0.503 -0.774,-0.941 -1.219,-1.35 0.65,-0.162 1.148,-0.439 1.633,-0.749 0.259,-0.186 0.504,-0.357 0.757,-0.599 0.076,-0.071 0.153,-0.154 0.226,-0.244 z m -3.15,-3.409 c 1.164,0.745 2.082,1.779 2.827,2.899 -0.102,0.028 -0.203,0.055 -0.306,0.09 -0.309,0.09 -0.626,0.254 -0.91,0.433 -0.512,0.358 -0.961,0.823 -1.196,1.47 -0.677,-0.604 -1.417,-1.128 -2.157,-1.59 -0.121,-0.061 -0.241,-0.125 -0.36,-0.188 0.643,-0.381 1.08,-0.896 1.446,-1.466 0.297,-0.503 0.548,-1.037 0.656,-1.648 z m -4.655,-1.543 c 1.524,0.145 3.032,0.546 4.343,1.344 10e-4,10e-4 0.003,0.002 0.004,0.003 -0.512,0.376 -0.878,0.83 -1.197,1.315 -0.337,0.575 -0.626,1.189 -0.71,1.937 -0.514,-0.273 -1.024,-0.547 -1.581,-0.727 -0.51,-0.239 -1.044,-0.379 -1.587,-0.521 0.202,-0.191 0.352,-0.429 0.458,-0.669 0.161,-0.348 0.232,-0.703 0.295,-1.043 0.071,-0.533 0.095,-1.075 -0.025,-1.639 z m -1.407,-0.067 c 0.315,0 0.631,0.013 0.948,0.033 -0.273,0.49 -0.408,1.002 -0.502,1.52 -0.047,0.35 -0.073,0.688 -0.068,1.021 l 0.007,0.766 c -0.103,-0.027 -0.206,-0.054 -0.31,-0.083 -0.375,-0.13 -0.76,-0.12 -1.146,-0.183 -0.387,-0.038 -0.779,-0.114 -1.172,-0.094 -0.348,0.023 -0.699,0.045 -1.049,0.082 0.08,-0.504 0.065,-0.992 0.024,-1.47 -0.053,-0.354 -0.114,-0.688 -0.239,-1.05 -0.025,-0.068 -0.053,-0.135 -0.081,-0.202 1.167,-0.218 2.367,-0.338 3.588,-0.34 z m -4.261,0.468 c -0.005,0.059 -0.014,0.12 -0.017,0.178 -0.038,0.346 -0.015,0.721 0.018,1.076 0.063,0.488 0.182,0.962 0.403,1.42 -0.251,0.044 -0.501,0.098 -0.746,0.179 -0.761,0.153 -1.458,0.503 -2.16,0.834 -0.013,-0.46 -0.103,-0.906 -0.245,-1.333 -0.157,-0.416 -0.364,-0.817 -0.638,-1.179 1.071,-0.512 2.203,-0.907 3.385,-1.175 z m -6.47,3.156 c 0.759,-0.652 1.585,-1.206 2.458,-1.676 0.078,0.419 0.193,0.814 0.322,1.206 0.172,0.459 0.361,0.909 0.626,1.353 -0.522,0.339 -1.025,0.704 -1.468,1.135 -0.42,0.418 -0.791,0.87 -1.139,1.335 -0.162,-0.51 -0.417,-0.986 -0.786,-1.41 -0.313,-0.318 -0.662,-0.576 -0.996,-0.814 -0.055,-0.04 -0.119,-0.075 -0.176,-0.113 0.373,-0.355 0.757,-0.697 1.159,-1.016 z m -1.637,1.503 c 0.039,0.061 0.071,0.125 0.112,0.184 0.239,0.367 0.539,0.639 0.798,0.928 0.366,0.388 0.709,0.835 1.142,1.26 -0.634,0.949 -1.123,1.974 -1.47,3.036 -0.475,-0.522 -1.022,-0.888 -1.598,-1.199 -0.562,-0.276 -1.147,-0.506 -1.81,-0.603 0.836,-1.314 1.774,-2.528 2.826,-3.606 z m -3.043,3.936 c 0.461,0.495 1.001,0.852 1.566,1.159 0.609,0.302 1.25,0.545 1.967,0.621 -0.255,0.857 -0.401,1.736 -0.47,2.616 -1.668,-0.232 -3.336,-0.464 -5.005,-0.697 0.582,-1.281 1.22,-2.528 1.942,-3.699 z m -1.474,4.654 c -1.077,2.828 -2.597,5.292 -4.37,7.472 -0.91,1.128 -1.946,2.323 -3.379,2.895 -1.412,0.57 -2.998,0.664 -4.475,0.327 -1.452,-0.387 -2.844,-0.856 -3.942,-1.732 -1.107,-0.852 -1.965,-1.963 -2.642,-3.217 -1.382,-2.505 -2.054,-5.518 -2.473,-8.632 7.133,0.615 14.214,1.694 21.281,2.887 z m -13.342,-2.657 c -1.598,-0.194 -3.199,-0.366 -4.8,-0.538 0.169,-1.6 -0.009,-3.202 -0.372,-4.768 0.579,0.185 1.141,0.2 1.697,0.156 0.6,-0.076 1.191,-0.223 1.761,-0.585 0.677,1.852 1.235,3.774 1.714,5.735 z m -3.699,-10.191 c 0.729,1.351 1.357,2.768 1.903,4.234 -0.61,-0.215 -1.2,-0.235 -1.783,-0.187 -0.57,0.074 -1.133,0.212 -1.677,0.534 -0.295,-1.138 -0.698,-2.269 -1.296,-3.307 0.569,-0.071 1.088,-0.252 1.589,-0.472 0.444,-0.217 0.872,-0.471 1.264,-0.802 z m -6.3,-7.055 c 1.362,0.679 2.494,1.679 3.462,2.807 -0.122,0.052 -0.243,0.102 -0.366,0.162 -0.321,0.138 -0.642,0.351 -0.926,0.577 -0.555,0.479 -1.033,1.071 -1.205,1.868 0.765,-0.27 1.307,-0.671 1.844,-1.099 0.259,-0.23 0.508,-0.442 0.757,-0.726 0.091,-0.101 0.179,-0.22 0.259,-0.346 0.371,0.465 0.719,0.946 1.043,1.433 0.406,0.595 0.778,1.213 1.135,1.84 -0.489,0.086 -0.945,0.242 -1.385,0.434 -0.516,0.25 -1.013,0.539 -1.452,0.957 -0.143,-0.222 -0.278,-0.45 -0.441,-0.661 -1.079,-1.384 -2.513,-2.448 -4.005,-3.251 -0.224,-0.13 -0.465,-0.23 -0.705,-0.329 0.648,-0.458 1.046,-1.042 1.368,-1.675 0.29,-0.626 0.514,-1.286 0.502,-2.043 0.038,0.018 0.078,0.032 0.115,0.052 z m -5.01,-1.172 c 0.581,-0.031 1.149,0.073 1.725,0.128 1.059,0.19 2.108,0.48 3.079,0.95 -0.616,0.473 -0.995,1.041 -1.309,1.645 -0.29,0.632 -0.53,1.3 -0.519,2.094 -0.137,-0.057 -0.275,-0.111 -0.406,-0.178 -0.195,-0.082 -0.379,-0.198 -0.584,-0.253 -0.206,-0.051 -0.409,-0.112 -0.613,-0.174 -0.411,-0.099 -0.814,-0.286 -1.236,-0.34 l -0.78,-0.119 c 0.197,-0.222 0.352,-0.477 0.44,-0.745 0.13,-0.374 0.166,-0.75 0.194,-1.107 0.018,-0.627 -0.032,-1.258 -0.274,-1.898 0.095,0 0.189,-0.004 0.283,-0.003 z m -1.724,0.068 c 0.392,-0.043 0.784,-0.059 1.176,-0.064 -0.301,0.607 -0.413,1.224 -0.459,1.845 -0.027,0.654 0.042,1.2 0.107,1.865 l -0.24,-0.036 c -0.433,-0.097 -0.861,-0.063 -1.297,-0.069 -0.434,0.008 -0.878,-0.019 -1.312,0.044 -0.394,0.074 -0.792,0.147 -1.186,0.238 0.03,-0.584 -0.053,-1.137 -0.158,-1.677 -0.096,-0.376 -0.198,-0.732 -0.367,-1.109 -0.046,-0.099 -0.096,-0.197 -0.15,-0.293 1.258,-0.36 2.558,-0.616 3.886,-0.744 z m -4.495,0.927 c 0.003,0.094 -0.001,0.201 0.005,0.293 0.005,0.378 0.074,0.779 0.15,1.158 0.13,0.551 0.316,1.082 0.625,1.579 -0.297,0.087 -0.592,0.185 -0.876,0.318 -0.784,0.305 -1.532,0.715 -2.227,1.201 -0.059,-0.553 -0.222,-1.079 -0.447,-1.574 -0.242,-0.484 -0.545,-0.942 -0.934,-1.337 1.155,-0.681 2.401,-1.221 3.704,-1.638 z m -7.384,4.626 c 0.928,-1.039 2.003,-1.911 3.167,-2.657 0.146,0.506 0.338,0.973 0.546,1.435 0.255,0.514 0.522,1.017 0.884,1.504 -0.593,0.467 -1.146,0.983 -1.613,1.566 -0.366,0.458 -0.688,0.942 -0.989,1.436 -0.241,-0.573 -0.589,-1.094 -1.066,-1.537 -0.372,-0.307 -0.775,-0.547 -1.159,-0.772 -0.135,-0.08 -0.281,-0.152 -0.426,-0.225 0.216,-0.253 0.426,-0.511 0.656,-0.75 z m -1.032,1.176 c 0.103,0.138 0.206,0.277 0.32,0.408 0.303,0.364 0.66,0.623 0.974,0.906 0.462,0.4 0.896,0.872 1.431,1.308 -0.47,0.85 -0.858,1.736 -1.141,2.647 -0.078,0.25 -0.139,0.503 -0.205,0.755 -0.576,-0.485 -1.206,-0.809 -1.859,-1.078 -0.73,-0.27 -1.485,-0.474 -2.331,-0.477 0.783,-1.61 1.712,-3.117 2.811,-4.469 z m -2.888,4.635 c 0.611,0.57 1.314,0.939 2.042,1.241 0.677,0.253 1.379,0.447 2.135,0.476 -0.276,1.143 -0.419,2.307 -0.408,3.474 -1.933,0.057 -3.865,0.15 -5.796,0.297 0.533,-1.9 1.195,-3.751 2.027,-5.488 z m -5.603,7.48 c 0.054,-0.008 0.108,-0.013 0.162,-0.021 -2.084,0.896 -7.254,3.451 -4.554,5.751 2.559,2.179 4.549,-3.372 5.168,-5.385 -0.563,2.07 -1.888,8.003 1.672,7.282 2.242,-0.454 1.503,-2.914 0.424,-4.984 1.444,1.915 3.413,3.684 4.79,1.605 1.837,-2.773 -3.779,-4.085 -5.903,-4.474 3.259,-0.418 6.537,-0.712 9.828,-0.876 -0.155,0.612 -0.277,1.232 -0.396,1.803 -0.173,0.74 -0.336,1.475 -0.554,2.189 -0.413,1.437 -0.951,2.792 -1.571,4.102 -0.601,1.306 -1.347,2.657 -2.56,3.581 -1.223,0.897 -2.742,1.301 -4.229,1.383 -0.372,0.009 -0.744,-0.034 -1.108,-0.046 -0.366,-0.013 -0.725,-0.03 -1.073,-0.125 -0.347,-0.086 -0.7,-0.112 -1.037,-0.203 l -0.983,-0.345 c -1.267,-0.559 -2.36,-1.417 -3.323,-2.45 -1.794,-1.887 -3.137,-4.324 -4.28,-6.932 3.149,-0.745 6.33,-1.363 9.527,-1.855 z m -13.223,2.799 c 1.061,-0.292 2.126,-0.571 3.197,-0.829 0.05,1.207 0.289,2.408 0.655,3.573 -0.464,-0.065 -0.902,-0.021 -1.332,0.064 -0.438,0.11 -0.866,0.261 -1.267,0.535 -0.48,-1.078 -0.886,-2.203 -1.253,-3.343 z m 1.491,3.855 c 0.433,0.049 0.846,0.009 1.25,-0.073 0.44,-0.112 0.871,-0.264 1.273,-0.539 0.34,0.971 0.801,1.911 1.372,2.798 -0.376,0.123 -0.724,0.294 -1.057,0.488 -0.319,0.207 -0.625,0.436 -0.902,0.711 -0.732,-1.052 -1.374,-2.188 -1.936,-3.385 z m 4.64,6.439 c -0.198,-0.172 -0.402,-0.336 -0.591,-0.518 -0.604,-0.592 -1.154,-1.244 -1.671,-1.929 0.348,-0.122 0.671,-0.285 0.983,-0.466 0.333,-0.214 0.65,-0.456 0.937,-0.747 0.193,0.266 0.389,0.53 0.605,0.783 0.408,0.462 0.878,0.873 1.373,1.256 -0.396,0.257 -0.715,0.551 -1.024,0.862 -0.211,0.238 -0.413,0.459 -0.607,0.751 -0.002,0.003 -0.003,0.005 -0.005,0.008 z m 3.683,2.244 c -1.115,-0.417 -2.146,-1.004 -3.079,-1.732 0.26,-0.154 0.513,-0.363 0.733,-0.583 0.317,-0.348 0.585,-0.749 0.738,-1.215 0.754,0.517 1.58,0.936 2.457,1.21 0.012,0.004 0.025,0.007 0.037,0.011 -0.275,0.383 -0.474,0.794 -0.631,1.225 -0.113,0.352 -0.207,0.711 -0.255,1.084 z m 3.574,0.8 c -0.981,-0.085 -1.94,-0.26 -2.858,-0.539 0.2,-0.326 0.352,-0.667 0.483,-1.016 0.141,-0.441 0.25,-0.897 0.281,-1.384 1.075,0.253 2.176,0.224 3.229,0.064 -0.085,0.176 -0.141,0.364 -0.178,0.547 -0.081,0.375 -0.072,0.737 -0.058,1.082 0.04,0.442 0.12,0.881 0.277,1.315 -0.394,-0.012 -0.788,-0.026 -1.176,-0.069 z m 6.12,-0.495 c -0.478,0.206 -1.013,0.237 -1.522,0.329 -0.515,0.071 -1.018,0.185 -1.534,0.219 -0.428,0.024 -0.854,0.03 -1.279,0.031 0.11,-0.47 0.131,-0.935 0.112,-1.396 -0.031,-0.352 -0.08,-0.687 -0.158,-1.011 l -0.148,-0.629 c 0.234,-0.044 0.467,-0.093 0.694,-0.147 1.022,-0.313 1.998,-0.689 2.938,-1.138 -0.078,0.762 0.085,1.429 0.289,2.069 0.129,0.334 0.262,0.646 0.464,0.972 0.135,0.212 0.306,0.403 0.504,0.571 -0.122,0.042 -0.24,0.09 -0.36,0.13 z m 2.824,-1.291 c -0.454,0.247 -0.873,0.57 -1.359,0.757 -0.266,0.097 -0.532,0.192 -0.797,0.291 -0.023,-0.255 -0.047,-0.5 -0.085,-0.73 -0.039,-0.346 -0.144,-0.707 -0.254,-1.046 -0.238,-0.65 -0.569,-1.254 -1.148,-1.76 0.478,-0.231 0.949,-0.476 1.406,-0.753 0.525,-0.34 1.046,-0.716 1.55,-1.118 0.024,0.726 0.28,1.373 0.63,1.954 0.355,0.539 0.8,1.028 1.394,1.365 -0.417,0.378 -0.857,0.732 -1.337,1.04 z m 4.077,-4.51 c -0.681,1.162 -1.512,2.277 -2.506,3.234 -0.191,-0.625 -0.475,-1.148 -0.782,-1.661 -0.361,-0.55 -0.746,-1.078 -1.307,-1.556 0.718,-0.59 1.387,-1.252 1.919,-2.037 0.148,-0.231 0.271,-0.473 0.399,-0.712 0.276,0.521 0.658,0.977 1.157,1.342 0.376,0.242 0.773,0.416 1.151,0.574 0.113,0.048 0.236,0.087 0.355,0.13 -0.129,0.229 -0.251,0.461 -0.386,0.686 z m 0.686,-1.22 c -0.083,-0.086 -0.161,-0.176 -0.249,-0.258 -0.314,-0.306 -0.667,-0.505 -0.982,-0.729 -0.466,-0.314 -0.916,-0.697 -1.468,-1.028 0.472,-1.006 0.778,-2.074 0.943,-3.159 0.549,0.361 1.129,0.576 1.722,0.743 0.588,0.14 1.185,0.238 1.826,0.199 -0.484,1.47 -1.079,2.885 -1.792,4.232 z m 1.926,-4.67 c -0.537,-0.35 -1.117,-0.561 -1.707,-0.729 -0.618,-0.15 -1.251,-0.247 -1.917,-0.191 0.165,-1.398 0.09,-2.81 -0.174,-4.149 1.651,-0.077 3.304,-0.122 4.958,-0.137 -0.257,1.793 -0.639,3.535 -1.16,5.206 z m 9.734,-5.751 -2.437,-0.159 c 2.003,-0.664 7.78,-2.867 5.185,-5.452 -2.393,-2.383 -4.821,3.044 -5.59,4.992 0.718,-1.998 2.534,-7.866 -1.094,-7.422 -2.275,0.278 -1.729,2.793 -0.813,4.945 -1.293,-2.026 -3.122,-3.947 -4.66,-1.978 -1.901,2.433 2.686,4.114 5.035,4.789 -0.988,-0.066 -1.976,-0.107 -2.966,-0.144 -1.226,-0.034 -2.452,-0.124 -3.679,-0.111 -1.582,-0.026 -3.164,-0.005 -4.746,0.036 1.112,-2.905 2.466,-5.62 4.364,-7.759 1.924,-2.329 4.691,-3.738 7.846,-4.079 1.566,-0.214 3.192,0.143 4.551,0.954 1.359,0.863 2.199,2.275 2.941,3.606 1.507,2.581 2.522,5.48 3.542,8.515 -1.273,-0.135 -2.545,-0.284 -3.82,-0.401 z m 0.96,0.8 c 0.881,0.055 1.762,0.108 2.643,0.18 0.283,0.022 0.565,0.053 0.847,0.077 -0.423,1.403 -0.542,2.888 -0.481,4.367 -0.432,-0.185 -0.869,-0.257 -1.308,-0.287 -0.445,-0.008 -0.892,0.027 -1.344,0.181 -0.233,-1.475 -0.364,-2.986 -0.357,-4.518 z m 0.642,6.084 c -0.067,-0.329 -0.123,-0.662 -0.181,-0.995 0.397,0.152 0.797,0.22 1.199,0.246 0.455,0.007 0.911,-0.028 1.373,-0.19 0.076,1.026 0.275,2.054 0.594,3.059 -0.396,0.021 -0.777,0.095 -1.149,0.196 -0.362,0.116 -0.716,0.258 -1.055,0.451 -0.314,-0.896 -0.573,-1.822 -0.781,-2.767 z m 2.594,6.421 c -0.155,-0.231 -0.318,-0.455 -0.461,-0.694 -0.425,-0.711 -0.774,-1.473 -1.084,-2.258 0.367,-0.027 0.721,-0.1 1.069,-0.194 0.377,-0.12 0.745,-0.27 1.096,-0.475 0.129,0.339 0.266,0.676 0.428,1.006 0.262,0.519 0.591,1.007 0.948,1.477 -0.447,0.145 -0.831,0.345 -1.208,0.564 -0.266,0.175 -0.518,0.335 -0.782,0.567 -0.001,0.003 -0.004,0.005 -0.006,0.007 z m 2.972,3.123 c -0.966,-0.694 -1.81,-1.527 -2.522,-2.472 0.291,-0.081 0.589,-0.216 0.859,-0.371 0.397,-0.254 0.761,-0.572 1.031,-0.983 0.604,0.706 1.305,1.331 2.096,1.825 -0.368,0.299 -0.67,0.647 -0.935,1.024 -0.202,0.31 -0.386,0.631 -0.529,0.977 z m 4.433,0.739 c -0.075,0.431 -0.113,0.87 -0.077,1.324 -1.324,-0.401 -2.588,-0.918 -3.725,-1.612 -0.004,-0.002 -0.007,-0.005 -0.01,-0.008 0.278,-0.263 0.514,-0.552 0.732,-0.855 0.251,-0.39 0.476,-0.803 0.633,-1.265 0.962,0.541 2.029,0.808 3.087,0.921 -0.122,0.144 -0.222,0.304 -0.302,0.466 -0.175,0.341 -0.261,0.692 -0.338,1.029 z m 1.96,1.846 c -0.488,-0.099 -0.97,-0.214 -1.446,-0.343 0.225,-0.422 0.366,-0.861 0.466,-1.308 0.061,-0.348 0.102,-0.685 0.111,-1.017 l 0.021,-0.633 c 0.306,0.021 0.611,0.034 0.91,0.035 0.999,-0.017 1.973,-0.146 2.931,-0.341 -0.274,0.715 -0.29,1.401 -0.259,2.072 0.038,0.356 0.085,0.692 0.194,1.059 0.075,0.236 0.172,0.47 0.316,0.681 -1.088,0.036 -2.184,-0.064 -3.244,-0.205 z m 6.28,-0.357 c -0.867,0.33 -1.773,0.486 -2.688,0.542 0.044,-0.255 0.086,-0.5 0.109,-0.733 0.052,-0.344 0.045,-0.72 0.027,-1.076 -0.06,-0.691 -0.222,-1.36 -0.65,-2 0.602,-0.126 1.198,-0.272 1.786,-0.452 0.525,-0.166 1.047,-0.374 1.562,-0.603 -0.173,0.714 -0.095,1.413 0.094,2.072 0.206,0.624 0.515,1.221 1.016,1.706 -0.405,0.206 -0.821,0.393 -1.256,0.544 z m 5.114,-3.519 c -1.049,1.081 -2.238,2.097 -3.597,2.839 -0.015,-0.676 -0.155,-1.272 -0.322,-1.864 -0.207,-0.632 -0.443,-1.248 -0.87,-1.862 0.934,-0.433 1.833,-0.969 2.614,-1.667 0.127,-0.116 0.233,-0.249 0.353,-0.371 0.13,0.578 0.381,1.12 0.769,1.605 0.3,0.331 0.637,0.603 0.961,0.854 0.1,0.078 0.211,0.15 0.318,0.224 -0.076,0.079 -0.148,0.164 -0.226,0.242 z m 0.645,-0.689 c -0.057,-0.104 -0.109,-0.211 -0.171,-0.311 -0.224,-0.377 -0.512,-0.661 -0.758,-0.96 -0.368,-0.424 -0.703,-0.911 -1.149,-1.374 0.724,-0.841 1.291,-1.797 1.742,-2.793 0.434,0.486 0.934,0.841 1.459,1.155 0.519,0.282 1.057,0.529 1.668,0.66 -0.833,1.293 -1.76,2.506 -2.791,3.623 z m 3.055,-4.031 c -0.422,-0.464 -0.919,-0.811 -1.436,-1.121 -0.551,-0.302 -1.129,-0.56 -1.776,-0.681 0.022,-0.052 0.049,-0.103 0.071,-0.156 0.3,-0.766 0.548,-1.547 0.69,-2.359 0.027,-0.195 0.086,-0.42 0.088,-0.633 l 0.016,-0.603 c 0.004,-0.28 -0.006,-0.561 -0.015,-0.842 1.701,0.288 3.401,0.58 5.102,0.875 -0.773,1.953 -1.676,3.805 -2.74,5.52 z m 4.124,-6.392 c -0.632,-0.087 -1.264,-0.176 -1.896,-0.264 1.274,-2.44 2.732,-4.664 4.604,-6.308 1.918,-1.846 4.481,-2.755 7.307,-2.861 1.398,-0.042 2.84,0.298 4.002,1.11 1.148,0.854 1.838,2.124 2.41,3.343 1.076,2.186 1.787,4.581 2.452,7.124 -2.49,-0.18 -4.98,-0.421 -7.47,-0.702 2.317,-0.668 5.549,-2.028 3.834,-4.134 -1.928,-2.368 -4.603,2.149 -5.543,3.935 -0.002,0 -0.004,-0.001 -0.006,-0.001 0.879,-1.848 2.964,-6.858 -0.342,-6.799 -2.111,0.038 -1.851,2.394 -1.218,4.453 -0.991,-1.98 -2.483,-3.914 -4.08,-2.258 -1.59,1.648 0.72,3.251 2.771,4.253 -2.277,-0.287 -4.552,-0.591 -6.825,-0.891 z m 3.485,1.706 c 1.114,0.188 2.229,0.372 3.345,0.552 -0.208,1.24 -0.21,2.516 -0.067,3.778 -0.44,-0.149 -0.876,-0.189 -1.311,-0.187 -0.436,0.024 -0.87,0.091 -1.301,0.269 -0.327,-1.434 -0.561,-2.905 -0.666,-4.412 z m 0.982,5.709 c -0.063,-0.237 -0.116,-0.479 -0.175,-0.718 0.399,0.117 0.796,0.155 1.191,0.151 0.452,-0.026 0.902,-0.094 1.349,-0.287 0.151,1.018 0.421,2.028 0.814,3.006 -0.391,0.05 -0.762,0.151 -1.124,0.278 -0.353,0.142 -0.696,0.31 -1.02,0.527 -0.409,-0.948 -0.746,-1.942 -1.035,-2.957 z m 3.111,6.469 c -0.213,-0.276 -0.429,-0.55 -0.624,-0.84 -0.429,-0.624 -0.792,-1.298 -1.125,-1.992 0.362,-0.054 0.707,-0.152 1.045,-0.27 0.368,-0.147 0.726,-0.324 1.062,-0.556 0.112,0.24 0.22,0.482 0.348,0.716 0.337,0.589 0.751,1.142 1.207,1.661 -0.438,0.177 -0.807,0.406 -1.169,0.653 -0.253,0.194 -0.492,0.372 -0.738,0.622 -0.002,0.002 -0.004,0.004 -0.006,0.006 z m 3.189,2.906 c -1.018,-0.618 -1.912,-1.396 -2.687,-2.291 0.283,-0.102 0.568,-0.257 0.823,-0.43 0.377,-0.281 0.715,-0.624 0.955,-1.052 0.571,0.581 1.213,1.096 1.926,1.507 0.101,0.057 0.21,0.093 0.313,0.145 -0.352,0.328 -0.631,0.701 -0.872,1.102 -0.179,0.325 -0.34,0.661 -0.458,1.019 z m 4.739,-0.644 c -0.15,0.353 -0.21,0.71 -0.262,1.051 -0.044,0.441 -0.05,0.887 0.023,1.342 -0.392,-0.088 -0.784,-0.176 -1.163,-0.294 -0.939,-0.27 -1.84,-0.619 -2.68,-1.068 0.258,-0.282 0.471,-0.587 0.665,-0.904 0.229,-0.42 0.43,-0.862 0.552,-1.353 1.028,0.432 2.113,0.652 3.188,0.681 -0.136,0.17 -0.245,0.355 -0.323,0.545 z m 1.677,2.741 c -0.445,-0.059 -0.884,-0.135 -1.321,-0.218 0.197,-0.44 0.306,-0.891 0.374,-1.348 0.036,-0.351 0.051,-0.69 0.036,-1.023 l -0.028,-0.692 c 0.113,-0.002 0.227,0.01 0.338,0.004 1.184,-0.097 2.343,-0.234 3.469,-0.516 -0.216,0.727 -0.183,1.409 -0.105,2.072 0.064,0.352 0.135,0.684 0.271,1.042 0.092,0.233 0.208,0.462 0.37,0.664 -1.132,0.121 -2.288,0.09 -3.404,0.015 z m 6.28,-0.768 c -0.808,0.377 -1.663,0.592 -2.535,0.711 0.026,-0.262 0.051,-0.513 0.057,-0.75 0.027,-0.347 -0.008,-0.721 -0.051,-1.075 -0.109,-0.68 -0.319,-1.331 -0.785,-1.935 0.364,-0.094 0.725,-0.202 1.081,-0.332 0.716,-0.241 1.449,-0.52 2.155,-0.867 -0.09,0.685 0.037,1.339 0.262,1.949 0.25,0.605 0.6,1.176 1.132,1.622 -0.421,0.255 -0.857,0.485 -1.316,0.677 z m 4.903,-3.864 c -0.956,1.129 -2.056,2.202 -3.333,3.026 -0.066,-0.668 -0.247,-1.248 -0.456,-1.822 -0.242,-0.59 -0.511,-1.162 -0.946,-1.721 0.66,-0.344 1.294,-0.747 1.857,-1.256 0.335,-0.311 0.635,-0.652 0.915,-1.008 0.174,0.545 0.456,1.047 0.864,1.487 0.323,0.309 0.68,0.555 1.021,0.782 0.105,0.071 0.22,0.134 0.332,0.199 -0.085,0.103 -0.165,0.211 -0.254,0.313 z m 0.642,-0.788 c -0.064,-0.1 -0.124,-0.202 -0.194,-0.298 -0.251,-0.36 -0.559,-0.622 -0.826,-0.902 -0.395,-0.394 -0.763,-0.852 -1.238,-1.28 0.554,-0.802 1.003,-1.67 1.343,-2.563 0.051,-0.136 0.087,-0.275 0.134,-0.412 0.481,0.481 1.023,0.816 1.59,1.1 0.539,0.244 1.094,0.451 1.715,0.538 -0.738,1.352 -1.575,2.629 -2.524,3.817 z m 2.756,-4.24 c -0.455,-0.434 -0.978,-0.744 -1.517,-1.016 -0.596,-0.272 -1.219,-0.491 -1.906,-0.555 0.155,-0.504 0.291,-1.014 0.373,-1.534 0.103,-0.572 0.165,-1.184 0.132,-1.781 0.08,0 0.16,0.004 0.24,0.004 1.237,-0.011 2.474,-0.009 3.713,-0.121 0.363,-0.027 0.726,-0.05 1.089,-0.074 -0.588,1.775 -1.286,3.477 -2.124,5.077 z m 11.09,-19.736 c -0.669,0.186 -1.306,0.361 -1.962,0.492 -0.499,0.115 -1.005,0.193 -1.522,0.277 l -0.79,0.11 c -0.058,0 -0.117,0.01 -0.176,0.021 -0.17,-1.837 -0.478,-3.654 -0.864,-5.446 1.112,0.622 2.462,0.863 3.753,0.729 0.433,-0.052 0.863,-0.138 1.278,-0.271 0.409,-0.147 0.78,-0.342 1.158,-0.535 0.251,-0.132 0.494,-0.262 0.736,-0.402 -0.473,1.692 -1.009,3.368 -1.611,5.025 z m -8.639,-18.54 c -0.105,-1.667 0.187,-3.261 1.335,-4.278 0.576,-0.496 1.275,-0.922 2.078,-1.197 0.785,-0.324 1.585,-0.482 2.4,-0.432 1.628,0.076 3.165,1.112 4.106,2.576 0.242,0.358 0.456,0.734 0.647,1.123 -1.626,1.106 -3.289,1.975 -5.082,2.53 -1.712,0.541 -3.499,0.796 -5.368,0.804 -0.053,-0.377 -0.096,-0.753 -0.116,-1.126 z m 0.993,5.109 c -0.342,-1.258 -0.665,-2.523 -0.85,-3.768 0.804,0.275 1.662,0.389 2.517,0.402 1.055,0.015 2.111,-0.16 3.123,-0.467 1.907,-0.607 3.68,-1.763 4.827,-3.379 0.55,1.159 0.89,2.433 1.071,3.716 0.157,1.106 0.184,2.224 0.137,3.34 -0.496,0.621 -1.081,1.118 -1.774,1.466 -0.869,0.513 -1.834,0.876 -2.807,1.136 -0.98,0.255 -1.992,0.393 -3.018,0.411 -0.819,0.02 -1.645,-0.066 -2.485,-0.189 z m 1.449,5.207 -0.622,-2.234 c 0.736,0.345 1.539,0.567 2.358,0.659 1.101,0.146 2.228,0.043 3.311,-0.22 1.073,-0.304 2.116,-0.747 2.992,-1.457 0.547,-0.371 0.989,-0.892 1.311,-1.469 -0.031,0.447 -0.074,0.893 -0.128,1.336 -0.209,1.765 -0.561,3.508 -1.033,5.217 -0.06,0.23 -0.129,0.457 -0.191,0.687 -0.018,0.007 -0.036,0.015 -0.053,0.021 -0.361,0.122 -0.779,0.207 -1.152,0.332 -0.766,0.25 -1.496,0.496 -2.264,0.541 -0.761,0.095 -1.534,0.075 -2.311,-0.004 -0.481,-0.054 -0.964,-0.149 -1.451,-0.262 -0.237,-1.058 -0.495,-2.108 -0.767,-3.147 z m 0.609,20.508 c -0.023,0.003 -0.046,0.007 -0.069,0.01 0.03,-0.063 0.066,-0.133 0.092,-0.192 0.157,-0.321 0.259,-0.845 0.392,-1.261 0.136,-0.44 0.243,-0.887 0.331,-1.339 0.096,-0.45 0.195,-0.903 0.244,-1.36 0.272,-1.825 0.359,-3.684 0.268,-5.529 -0.018,-0.428 -0.046,-0.855 -0.081,-1.281 0.03,0.011 0.059,0.023 0.088,0.034 0.274,0.081 0.556,0.15 0.842,0.181 0.573,0.075 1.155,0.033 1.723,-0.076 0.491,-0.108 0.968,-0.291 1.414,-0.529 -0.35,0.92 -0.717,1.835 -1.112,2.741 -0.692,1.646 -1.477,3.255 -2.271,4.867 l -1.227,2.407 c -0.21,0.405 -0.369,0.702 -0.535,1.098 -0.026,0.071 -0.066,0.154 -0.099,0.229 z m 17.705,23.529 c -0.011,1.393 -0.691,2.679 -1.771,3.325 -1.103,0.588 -2.572,0.936 -3.535,0.45 -1.007,-0.431 -1.756,-1.552 -2.323,-2.771 -0.165,-0.356 -0.298,-0.739 -0.442,-1.113 0.92,-0.874 1.871,-1.624 2.927,-2.234 1.32,-0.782 2.743,-1.316 4.332,-1.737 0.523,1.306 0.884,2.704 0.812,4.08 z m -2.938,-7.817 c 0.828,1.158 1.575,2.386 2.114,3.706 10e-4,0.002 10e-4,0.004 0.002,0.007 -1.626,-0.354 -3.379,0.059 -4.828,0.901 -1.066,0.632 -2.007,1.524 -2.624,2.588 -0.272,-0.759 -0.522,-1.535 -0.749,-2.325 l -1.154,-4.08 c 0.686,-0.713 1.38,-1.346 2.155,-1.899 0.879,-0.648 1.827,-1.164 2.874,-1.652 0.779,0.881 1.53,1.79 2.21,2.754 z m -5.579,-6.428 c 0.986,1.02 1.95,2.056 2.89,3.118 0.068,0.074 0.13,0.153 0.197,0.227 -1.134,0.056 -2.252,0.504 -3.18,1.171 -0.719,0.531 -1.349,1.212 -1.783,1.991 -0.499,-1.662 -1.037,-3.328 -1.663,-4.971 0.609,-0.32 1.106,-0.753 1.567,-1.175 0.401,-0.386 0.762,-0.753 1.157,-1.152 0.272,0.263 0.548,0.523 0.815,0.791 z m -4.335,-3.941 c 0.414,0.338 0.827,0.676 1.231,1.024 0.621,0.55 1.229,1.111 1.83,1.681 -0.529,0.178 -1.003,0.516 -1.385,0.871 -0.425,0.424 -0.783,0.877 -1.066,1.403 -0.288,-0.729 -0.594,-1.454 -0.929,-2.167 -0.243,-0.518 -0.519,-1.021 -0.796,-1.523 0.361,-0.191 0.613,-0.457 0.832,-0.747 0.111,-0.166 0.218,-0.366 0.283,-0.542 z m -2.102,-1.663 c 0.493,0.375 0.979,0.757 1.461,1.141 -0.193,0.162 -0.32,0.31 -0.458,0.487 -0.144,0.22 -0.267,0.454 -0.348,0.718 -0.345,-0.588 -0.706,-1.167 -1.092,-1.728 -0.409,-0.618 -0.897,-1.187 -1.392,-1.736 -0.191,-0.193 -0.386,-0.401 -0.574,-0.589 0.196,0.143 0.425,0.302 0.648,0.458 0.601,0.395 1.169,0.84 1.755,1.249 z m 18.546,-46.635 c 0.526,-0.962 1.199,-1.815 2.056,-2.391 0.849,-0.584 1.856,-0.916 2.939,-1.022 1.105,-0.046 2.201,0.01 3.137,0.503 1.911,0.969 2.796,3.38 2.864,5.653 0.024,0.434 0.02,0.87 0.003,1.305 -2.165,-0.006 -4.25,-0.126 -6.307,-0.522 -1.086,-0.193 -2.155,-0.47 -3.216,-0.797 -0.528,-0.171 -1.06,-0.34 -1.585,-0.54 -0.262,-0.098 -0.525,-0.184 -0.778,-0.289 0.261,-0.659 0.545,-1.304 0.887,-1.9 z m -1.325,3.084 c 0.1,-0.311 0.224,-0.61 0.338,-0.913 0.216,0.165 0.446,0.312 0.661,0.457 0.487,0.309 0.996,0.586 1.522,0.828 1.05,0.493 2.17,0.831 3.31,1.053 2.155,0.393 4.418,0.337 6.487,-0.34 -0.085,1.845 -0.499,3.687 -1.044,5.462 -0.169,0.533 -0.357,1.059 -0.557,1.581 -1.038,0.095 -2.059,0.125 -3.06,0.03 -1.157,-0.114 -2.286,-0.382 -3.419,-0.722 l -3.426,-1.021 c -0.751,-0.24 -1.483,-0.516 -2.186,-0.879 0.374,-1.887 0.793,-3.753 1.374,-5.536 z m -1.616,6.781 c 0.054,-0.288 0.112,-0.574 0.168,-0.862 0.597,0.499 1.282,0.904 1.98,1.22 1.129,0.506 2.254,0.89 3.427,1.256 1.175,0.335 2.418,0.585 3.672,0.543 1.034,-0.026 2.057,-0.229 3.004,-0.603 -0.626,1.594 -1.383,3.138 -2.217,4.632 -0.376,0.673 -0.784,1.327 -1.185,1.985 l -0.762,-0.165 c -0.525,-0.1 -1.051,-0.196 -1.578,-0.272 -0.527,-0.088 -1.06,-0.136 -1.562,-0.234 -0.503,-0.091 -1.036,-0.11 -1.515,-0.241 -0.975,-0.23 -1.94,-0.638 -2.94,-0.995 -0.49,-0.185 -0.97,-0.361 -1.41,-0.611 -0.048,-0.025 -0.088,-0.064 -0.134,-0.092 z m -1.32,6.979 0.169,-0.892 c 0.408,0.356 0.866,0.641 1.324,0.884 0.941,0.505 1.927,0.976 3.021,1.257 1.094,0.191 2.199,0.282 3.253,0.283 0.533,0.009 1.067,-10e-4 1.602,-0.016 l 0.627,-0.033 c -0.767,1.242 -1.563,2.464 -2.421,3.644 -0.677,0.956 -1.367,1.903 -2.073,2.838 -1.308,-0.21 -2.554,-0.416 -3.708,-0.868 -1.075,-0.406 -2.061,-0.992 -3.015,-1.725 0.449,-1.785 0.848,-3.581 1.221,-5.372 z m -1.373,5.95 c 0.709,0.924 1.706,1.652 2.809,2.081 1.209,0.45 2.499,0.559 3.728,0.367 -1.35,1.772 -2.752,3.507 -4.217,5.191 -0.795,-0.21 -1.543,-0.415 -2.265,-0.69 -0.647,-0.232 -1.273,-0.524 -1.921,-0.837 0.728,-2.007 1.333,-4.052 1.866,-6.112 z m -2.529,7.849 c 0.155,-0.385 0.299,-0.773 0.445,-1.161 0.494,0.527 1.117,0.939 1.791,1.197 0.684,0.248 1.431,0.343 2.155,0.263 -0.578,0.654 -1.155,1.309 -1.751,1.947 -0.583,0.632 -1.184,1.25 -1.783,1.868 -0.402,-0.249 -0.778,-0.421 -1.166,-0.597 -0.344,-0.138 -0.683,-0.272 -1.065,-0.385 0.493,-1.028 0.951,-2.073 1.374,-3.132 z m 31.11,34.166 c 0.355,0.995 0.547,2.052 0.411,3.073 -0.129,1.018 -0.549,1.967 -1.167,2.771 -0.609,0.794 -1.431,1.51 -2.294,1.987 -0.855,0.482 -1.779,0.762 -2.712,0.644 -0.845,-0.09 -1.661,-0.406 -2.446,-0.846 0.945,-1.747 2.008,-3.331 3.318,-4.722 1.32,-1.429 2.853,-2.62 4.565,-3.702 0.12,0.259 0.23,0.524 0.325,0.795 z m -3.658,-5.261 c 1.3,1.285 2.511,2.725 3.282,4.361 -2.001,0.448 -3.829,1.617 -5.245,3.124 -1.373,1.489 -2.394,3.347 -2.725,5.327 -0.913,-0.532 -1.783,-1.232 -2.598,-1.968 -0.645,-0.587 -1.261,-1.217 -1.864,-1.865 1.436,-1.63 2.641,-3.393 4.069,-4.909 1.449,-1.581 3.116,-2.926 4.931,-4.204 0.05,0.046 0.102,0.087 0.15,0.134 z m -5.201,-3.919 c 1.766,1.082 3.463,2.291 4.97,3.711 -2.129,0.652 -4.051,1.959 -5.583,3.6 -0.799,0.876 -1.489,1.833 -2.081,2.835 -0.509,0.855 -0.951,1.739 -1.352,2.649 -0.826,-0.894 -1.623,-1.827 -2.402,-2.778 -0.902,-1.11 -1.798,-2.243 -2.695,-3.371 0.434,-0.564 0.853,-1.133 1.262,-1.695 0.642,-0.853 1.305,-1.681 2.012,-2.471 1.145,-1.315 2.4,-2.513 3.715,-3.715 0.725,0.4 1.449,0.801 2.154,1.235 z m -5.74,-3.097 c 1.089,0.522 2.162,1.076 3.222,1.653 -1.548,0.818 -2.931,1.951 -4.1,3.263 -0.724,0.84 -1.386,1.737 -1.915,2.711 -0.319,0.592 -0.596,1.198 -0.853,1.813 -0.386,-0.486 -0.775,-0.963 -1.16,-1.451 -1.186,-1.469 -2.382,-2.941 -3.605,-4.395 0.029,-0.059 0.057,-0.119 0.087,-0.173 0.167,-0.354 0.356,-0.693 0.543,-1.027 0.384,-0.664 0.799,-1.298 1.27,-1.89 0.461,-0.599 0.977,-1.154 1.529,-1.686 0.283,-0.255 0.551,-0.519 0.847,-0.741 1.387,0.622 2.768,1.259 4.135,1.923 z m -4.744,-2.196 c -0.251,0.119 -0.492,0.251 -0.721,0.398 -0.703,0.448 -1.312,1.034 -1.835,1.684 -0.503,0.666 -0.926,1.397 -1.191,2.186 -0.127,0.355 -0.216,0.722 -0.279,1.091 -1.513,-1.783 -3.077,-3.532 -4.75,-5.188 -0.005,-0.005 -0.01,-0.009 -0.015,-0.014 0.287,-0.577 0.559,-1.088 0.887,-1.587 0.302,-0.48 0.65,-0.933 1.029,-1.407 2.324,0.881 4.613,1.832 6.875,2.837 z m -16.551,-6.265 3.119,1.061 c 1.962,0.685 3.922,1.364 5.857,2.102 -0.47,0.277 -0.873,0.679 -1.169,1.134 -0.31,0.493 -0.514,1.071 -0.552,1.653 -1.427,-1.385 -2.928,-2.701 -4.521,-3.899 -0.457,-0.322 -0.901,-0.659 -1.369,-0.963 l -1.428,-0.873 -1.29,-0.683 c 0.012,-0.003 0.024,-0.006 0.036,-0.008 0.439,0.179 0.83,0.313 1.317,0.476 z m -1.138,-2.678 c -0.072,0.018 -0.144,0.037 -0.217,0.054 0.334,-0.358 0.677,-0.889 1.017,-1.332 0.726,-0.953 1.359,-1.972 1.975,-3 0.528,-0.894 1.015,-1.812 1.477,-2.742 0.269,0.304 0.604,0.542 0.966,0.707 0.326,0.134 0.679,0.219 1.037,0.228 -0.867,0.884 -1.747,1.757 -2.637,2.622 z m 43.406,-41.402 c 1.07,-0.437 2.226,-0.531 3.367,-0.259 0.579,0.09 1.128,0.385 1.679,0.613 0.241,0.158 0.502,0.295 0.735,0.466 0.202,0.201 0.445,0.371 0.626,0.594 0.756,0.878 1.104,2.081 1.13,3.312 0.048,1.239 -0.233,2.501 -0.648,3.704 -0.163,0.487 -0.364,0.96 -0.569,1.431 -2.213,-0.773 -4.507,-1.238 -6.259,-2.553 -1.569,-1.134 -2.7,-2.776 -3.644,-4.578 1.07,-1.145 2.24,-2.137 3.583,-2.73 z m -5.401,4.889 c 0.489,-0.623 0.996,-1.241 1.524,-1.83 0.543,1.948 1.644,3.794 3.349,5.056 1.081,0.792 2.346,1.255 3.596,1.515 1.062,0.229 2.124,0.323 3.192,0.384 -0.814,1.822 -1.91,3.53 -3.122,5.128 -0.324,0.422 -0.664,0.831 -1.006,1.237 -1.106,-0.265 -2.208,-0.477 -3.19,-0.895 -1.059,-0.455 -2.012,-1.129 -2.885,-1.912 -0.884,-0.773 -1.703,-1.653 -2.511,-2.537 -0.6,-0.669 -1.178,-1.365 -1.759,-2.071 0.896,-1.399 1.817,-2.774 2.812,-4.075 z m -4.287,6.418 c 0.431,-0.695 0.865,-1.387 1.303,-2.075 0.891,1.918 2.199,3.637 3.779,5.089 0.945,0.825 2.043,1.549 3.289,1.9 1.128,0.323 2.263,0.331 3.376,0.246 -1.305,1.535 -2.736,2.964 -4.235,4.307 -0.325,0.295 -0.659,0.58 -0.992,0.866 -0.909,-0.441 -1.801,-0.872 -2.668,-1.335 -0.956,-0.52 -1.896,-1.05 -2.743,-1.683 -0.859,-0.62 -1.607,-1.344 -2.231,-2.202 -0.373,-0.511 -0.713,-1.064 -1.053,-1.626 0.726,-1.162 1.461,-2.325 2.175,-3.487 z m -4.135,6.636 c 0.569,-0.896 1.117,-1.794 1.678,-2.692 0.18,0.541 0.4,1.071 0.679,1.585 0.539,1.028 1.374,1.906 2.296,2.592 0.938,0.677 1.958,1.198 3.015,1.589 0.931,0.349 1.898,0.599 2.882,0.717 -1.591,1.364 -3.257,2.64 -4.958,3.858 -0.266,0.195 -0.542,0.378 -0.81,0.571 -0.714,-0.206 -1.418,-0.399 -2.084,-0.638 -0.823,-0.301 -1.597,-0.662 -2.28,-1.16 -0.695,-0.481 -1.288,-1.083 -1.777,-1.784 -0.242,-0.357 -0.452,-0.722 -0.647,-1.137 -0.044,-0.086 -0.091,-0.176 -0.141,-0.266 0.728,-1.072 1.442,-2.152 2.147,-3.235 z m -2.462,3.685 c 0.085,0.442 0.22,0.912 0.427,1.337 0.408,0.885 1.084,1.646 1.874,2.215 0.8,0.561 1.723,0.934 2.657,1.099 0.652,0.121 1.306,0.154 1.955,0.117 -2.27,1.617 -4.606,3.141 -6.998,4.58 -0.327,-0.238 -0.65,-0.467 -0.943,-0.7 -0.467,-0.374 -0.848,-0.75 -1.136,-1.231 -0.311,-0.47 -0.551,-1.03 -0.859,-1.589 -0.169,-0.315 -0.355,-0.623 -0.556,-0.926 1.244,-1.599 2.436,-3.235 3.579,-4.902 z m 26.482,27.746 c 0.552,0.803 0.98,1.701 1.087,2.642 0.122,0.936 -0.033,1.876 -0.4,2.733 -0.359,0.847 -0.936,1.671 -1.597,2.292 -0.65,0.627 -1.407,1.078 -2.258,1.191 -0.981,0.151 -2.012,-0.032 -3.038,-0.38 -0.087,-0.884 -0.09,-1.749 0.015,-2.594 0.134,-1.045 0.434,-2.053 0.85,-3.03 0.399,-0.983 0.908,-1.942 1.415,-2.904 l 1.383,-2.484 c 0.977,0.722 1.872,1.542 2.543,2.534 z m -4.52,-3.831 c 0.641,0.368 1.264,0.778 1.865,1.215 -0.717,0.647 -1.367,1.366 -1.933,2.15 -0.659,0.908 -1.229,1.883 -1.677,2.937 -0.428,1.056 -0.722,2.206 -0.702,3.369 0.006,0.877 0.167,1.749 0.486,2.546 -0.666,-0.245 -1.327,-0.555 -1.969,-0.887 -1.455,-0.76 -2.855,-1.685 -4.231,-2.661 0.104,-0.762 0.268,-1.497 0.537,-2.183 0.108,-0.237 0.173,-0.479 0.299,-0.71 l 0.382,-0.69 0.803,-1.424 c 0.523,-0.949 1.061,-1.878 1.652,-2.77 0.509,-0.768 1.086,-1.487 1.723,-2.189 0.949,0.375 1.876,0.801 2.765,1.297 z m -11.998,-3.754 c 0.179,0.034 0.36,0.065 0.539,0.1 1.977,0.376 3.942,0.822 5.872,1.397 0.884,0.261 1.76,0.556 2.621,0.888 -0.805,0.462 -1.527,1.083 -2.139,1.786 -0.754,0.843 -1.356,1.796 -1.906,2.758 -0.262,0.489 -0.522,0.976 -0.765,1.469 -0.239,0.514 -0.486,1.039 -0.593,1.624 -0.174,0.715 -0.203,1.448 -0.127,2.162 -0.149,-0.107 -0.299,-0.211 -0.447,-0.319 -1.624,-1.189 -3.25,-2.399 -4.876,-3.625 -0.378,-0.278 -0.759,-0.555 -1.139,-0.833 0.208,-1.407 0.474,-2.748 0.954,-4.017 0.283,-0.792 0.661,-1.542 1.123,-2.246 0.237,-0.347 0.481,-0.699 0.771,-1.018 0.036,-0.045 0.076,-0.083 0.112,-0.126 z m -0.61,-0.113 c -0.318,0.227 -0.617,0.484 -0.885,0.772 -0.646,0.68 -1.117,1.511 -1.447,2.381 -0.47,1.299 -0.638,2.697 -0.466,4.039 -2.226,-1.626 -4.491,-3.221 -6.856,-4.685 0.383,-0.783 0.736,-1.492 1.165,-2.161 0.324,-0.528 0.696,-1.029 1.092,-1.543 2.481,0.332 4.945,0.738 7.397,1.197 z m -14.094,-1.241 c 0.083,-0.231 0.156,-0.447 0.233,-0.67 1.02,0.09 2.039,0.188 3.055,0.304 0.835,0.087 1.667,0.189 2.498,0.294 -0.403,0.314 -0.754,0.702 -1.026,1.13 -0.457,0.745 -0.71,1.636 -0.624,2.506 -0.476,-0.291 -0.945,-0.591 -1.431,-0.869 -1.031,-0.597 -2.095,-1.142 -3.174,-1.656 0.2,-0.355 0.335,-0.706 0.469,-1.039 z m -2.767,-0.924 c 0.677,0.057 1.353,0.115 2.029,0.172 -0.077,0.133 -0.146,0.269 -0.201,0.408 -0.122,0.363 -0.176,0.732 -0.156,1.104 -0.587,-0.268 -1.169,-0.547 -1.767,-0.789 -0.487,-0.179 -0.964,-0.376 -1.457,-0.535 l -1.488,-0.439 -0.527,-0.121 c 0.066,-0.02 0.133,-0.04 0.199,-0.06 0.108,0.008 0.208,0.018 0.326,0.026 z m -4.5,-2.24 -0.74,0.333 c -0.457,0.13 -0.912,0.268 -1.37,0.396 -0.523,0.148 -1.051,0.282 -1.575,0.427 1.074,-0.717 2.082,-1.525 3.078,-2.347 1.405,-1.174 2.738,-2.433 4.016,-3.746 0.105,0.409 0.287,0.787 0.507,1.127 0.27,0.381 0.576,0.723 0.929,1.008 0.111,0.094 0.234,0.173 0.354,0.256 -1.714,0.883 -3.439,1.747 -5.199,2.546 z m 5.714,-2.81 c -0.088,-0.169 -0.181,-0.345 -0.281,-0.503 -0.221,-0.375 -0.468,-0.714 -0.691,-1.057 -0.273,-0.394 -0.518,-0.766 -0.747,-1.174 0.359,-0.379 0.718,-0.76 1.068,-1.147 1.056,-1.162 2.053,-2.371 3.022,-3.601 0.053,0.258 0.109,0.513 0.176,0.765 0.159,0.611 0.371,1.239 0.738,1.838 0.375,0.598 0.959,1.092 1.575,1.362 0.292,0.136 0.589,0.233 0.891,0.308 -1.484,0.884 -2.982,1.747 -4.505,2.569 -0.412,0.216 -0.831,0.425 -1.246,0.64 z"
   id="path17" />
		<path
   d="m 271.518,344.604 c -6.949,-6.9 -15.004,-12.749 -23.821,-17.169 l -1.649,-0.837 -1.696,-0.737 -3.402,-1.458 c -1.152,-0.441 -2.325,-0.826 -3.487,-1.242 -1.162,-0.416 -2.326,-0.827 -3.522,-1.136 l -3.563,-1.006 c -1.2,-0.287 -2.411,-0.526 -3.615,-0.791 l -1.809,-0.388 c -0.607,-0.108 -1.219,-0.188 -1.828,-0.283 l -3.658,-0.541 c -1.129,-0.118 -2.258,-0.218 -3.389,-0.308 -0.018,-2.16 -0.403,-4.318 -1.101,-6.396 -0.778,-2.313 -2.017,-4.513 -3.684,-6.384 -1.679,-1.849 -3.821,-3.339 -6.185,-4.147 l -0.868,-0.344 -0.906,-0.213 c -0.605,-0.133 -1.206,-0.283 -1.81,-0.391 -0.614,-0.042 -1.227,-0.075 -1.837,-0.099 -0.609,-0.028 -1.214,-0.069 -1.823,-0.007 -2.43,0.118 -4.81,0.654 -7.027,1.612 -1.1,0.492 -2.189,1.053 -3.196,1.763 -0.995,0.72 -1.928,1.549 -2.727,2.498 -1.588,1.912 -2.6,4.212 -3.263,6.538 -0.629,2.309 -0.957,4.692 -0.776,7.064 -4.107,0.501 -8.208,1.054 -12.304,1.626 -0.224,-1.941 -0.81,-3.839 -1.68,-5.623 -0.931,-1.913 -2.256,-3.673 -3.908,-5.108 -1.664,-1.409 -3.68,-2.467 -5.814,-2.92 -0.263,-0.068 -0.524,-0.146 -0.789,-0.204 l -0.807,-0.094 c -0.538,-0.051 -1.073,-0.129 -1.609,-0.148 -0.536,0.026 -1.07,0.059 -1.601,0.103 -0.531,0.034 -1.057,0.074 -1.576,0.187 -2.079,0.362 -4.094,0.979 -5.964,1.932 -1.874,0.918 -3.682,2.222 -4.969,3.994 -1.263,1.78 -1.957,3.89 -2.27,5.982 -0.248,1.786 -0.249,3.591 0.074,5.346 -1.928,0.074 -3.855,0.114 -5.78,0.079 -1.207,-0.028 -2.415,-0.042 -3.612,-0.168 -1.198,-0.108 -2.404,-0.158 -3.585,-0.371 -0.188,-0.022 -0.373,-0.057 -0.56,-0.083 -0.012,-0.086 -0.017,-0.164 -0.033,-0.253 -0.117,-0.542 -0.132,-0.919 -0.202,-1.383 -0.067,-0.441 -0.106,-0.886 -0.125,-1.333 -0.018,-0.446 -0.082,-0.885 -0.076,-1.331 -0.082,-1.775 0.072,-3.548 0.294,-5.303 0.462,-3.513 1.354,-6.957 2.357,-10.409 0.473,-1.735 0.993,-3.469 1.412,-5.256 0.411,-1.787 0.813,-3.608 0.853,-5.558 0.027,-0.964 -0.053,-1.987 -0.399,-2.978 -0.333,-0.981 -0.943,-1.945 -1.786,-2.574 -0.821,-0.638 -1.755,-1.077 -2.693,-1.29 -0.916,-0.275 -1.954,-0.385 -2.935,-0.22 -0.987,0.146 -1.922,0.56 -2.692,1.151 -0.772,0.596 -1.363,1.357 -1.865,2.145 -0.977,1.607 -1.515,3.4 -1.832,5.207 -0.639,3.618 -0.589,7.365 0.064,11 0.354,1.809 0.82,3.603 1.476,5.322 0.302,0.869 0.669,1.713 1.011,2.565 0.389,0.832 0.752,1.675 1.181,2.485 0.403,0.823 0.847,1.624 1.313,2.411 0.44,0.801 0.946,1.564 1.44,2.331 0.482,0.774 1.047,1.496 1.574,2.237 0.198,0.277 0.451,0.592 0.704,0.889 -1.858,-0.314 -3.681,-0.772 -5.569,-1.203 -0.106,-0.025 -0.211,-0.054 -0.317,-0.079 -0.051,-0.088 -0.093,-0.171 -0.148,-0.26 -0.383,-0.578 -0.62,-1.049 -0.928,-1.572 -0.298,-0.507 -0.582,-1.021 -0.835,-1.553 -0.252,-0.532 -0.554,-1.033 -0.788,-1.572 -1.032,-2.106 -1.821,-4.318 -2.56,-6.534 -1.454,-4.448 -2.423,-9.041 -3.29,-13.675 -0.921,-4.626 -1.644,-9.331 -3.252,-13.965 -0.416,-1.151 -0.899,-2.305 -1.592,-3.38 -0.663,-1.076 -1.543,-2.106 -2.694,-2.804 -1.134,-0.716 -2.473,-1.051 -3.757,-1.06 -1.247,0.036 -2.594,0.203 -3.729,0.914 -1.142,0.678 -1.944,1.793 -2.38,2.963 -0.432,1.178 -0.622,2.409 -0.624,3.62 -0.042,2.43 0.46,4.799 1.104,7.098 1.33,4.594 3.336,9 5.871,13.076 1.292,2.02 2.688,3.98 4.244,5.802 0.75,0.935 1.574,1.805 2.358,2.709 0.835,0.857 1.643,1.74 2.509,2.564 0.849,0.841 1.721,1.658 2.622,2.443 0.878,0.809 1.805,1.562 2.73,2.314 0.908,0.772 1.893,1.451 2.84,2.17 0.08,0.061 0.182,0.129 0.27,0.193 -2.922,-0.721 -5.836,-1.479 -8.743,-2.271 -0.354,-0.293 -0.667,-0.574 -1.019,-0.867 -0.498,-0.413 -0.983,-0.842 -1.446,-1.296 -0.461,-0.455 -0.961,-0.863 -1.407,-1.333 -1.861,-1.793 -3.526,-3.773 -5.15,-5.773 -3.23,-4.023 -6.056,-8.357 -8.805,-12.759 -2.785,-4.383 -5.433,-8.888 -8.744,-13.074 -1.684,-2.04 -3.579,-4.134 -6.31,-5.207 -1.366,-0.508 -2.937,-0.543 -4.296,-0.095 -0.706,0.174 -1.303,0.541 -1.928,0.86 -0.293,0.214 -0.599,0.408 -0.873,0.643 -0.247,0.268 -0.526,0.507 -0.736,0.802 -0.889,1.171 -1.19,2.644 -1.136,4.002 0.045,1.375 0.405,2.684 0.868,3.925 0.929,2.495 2.334,4.747 3.872,6.872 3.098,4.242 6.772,8.08 10.879,11.387 2.053,1.654 4.222,3.162 6.479,4.518 2.086,1.295 4.253,2.449 6.451,3.531 -1.251,-0.388 -2.506,-0.763 -3.751,-1.167 -2.331,-0.712 -4.623,-1.536 -6.934,-2.31 -2.298,-0.806 -4.579,-1.661 -6.862,-2.512 -8.686,-3.357 -17.234,-7.165 -25.142,-12.145 2.55,-2.604 0.339,-7.059 -3.325,-6.155 -1.38,0.34 -3.807,1.766 -3.656,3.403 0.166,1.794 2.689,3.287 4.223,3.64 0.566,0.13 1.179,0.174 1.711,-0.06 0.323,-0.142 0.588,-0.381 0.842,-0.629 7.611,5.525 16.119,9.732 24.767,13.399 0.313,0.129 0.632,0.245 0.946,0.373 -1.116,-0.247 -2.233,-0.486 -3.355,-0.698 -2.665,-0.529 -5.367,-0.839 -8.059,-1.191 -2.695,-0.331 -5.402,-0.571 -8.119,-0.679 -2.711,-0.157 -5.417,-0.301 -8.107,-0.633 -2.692,-0.295 -5.368,-0.839 -8.07,-1.126 -2.701,-0.291 -5.419,-0.35 -8.134,-0.334 -2.335,0.042 -4.672,0.144 -7.001,0.436 0.504,-1.691 -1.214,-3.816 -3.833,-3.693 -1.206,0.057 -2.519,0.577 -2.796,1.874 -0.552,2.583 1.829,4.111 4.029,3.699 1.265,-0.237 2.026,-0.779 2.404,-1.431 2.388,0.279 4.768,0.487 7.148,0.665 2.692,0.205 5.38,0.389 8.08,0.446 2.699,0.04 5.416,-0.062 8.115,0.111 1.347,0.104 2.693,0.236 4.033,0.411 1.341,0.165 2.67,0.445 4.003,0.664 l 3.985,0.761 3.988,0.691 7.96,1.431 c 3.238,0.497 6.467,1.03 9.716,1.513 -0.4,-0.013 -0.8,-0.015 -1.201,-0.014 -0.833,0.021 -1.667,0.032 -2.498,0.086 -0.831,0.066 -1.659,0.181 -2.486,0.281 -1.66,0.146 -3.288,0.571 -4.901,0.964 -1.601,0.485 -3.206,0.849 -4.823,1.189 l -2.46,0.398 c -0.828,0.117 -1.66,0.24 -2.469,0.453 -0.812,0.198 -1.612,0.445 -2.38,0.779 -0.78,0.299 -1.539,0.655 -2.281,1.042 -1.352,0.722 -2.668,1.539 -3.808,2.599 -1.184,-1.677 -4.068,-2.624 -5.839,-1.777 -2.5,1.195 -3.226,5.757 -1.263,7.7 0.692,0.685 1.714,0.922 2.686,0.958 0.806,0.031 1.631,-0.06 2.364,-0.397 1.815,-0.835 2.672,-3.025 2.588,-5.022 -0.017,-0.407 -0.145,-0.792 -0.343,-1.152 l 4.236,-1.489 c 1.527,-0.542 3.052,-1.059 4.558,-1.659 l 2.249,-0.972 1.14,-0.468 c 0.388,-0.129 0.779,-0.251 1.172,-0.362 1.57,-0.469 3.212,-0.629 4.843,-0.738 3.287,-0.055 6.505,-0.277 9.749,-0.28 l 1.214,-0.072 c 0.405,-10e-4 0.811,-0.002 1.216,-0.021 0.812,-0.023 1.625,-0.057 2.442,-0.112 0.929,-0.037 1.861,-0.069 2.8,-0.124 3.029,1.048 6.079,2.029 9.142,2.973 -0.28,-0.012 -0.559,-0.029 -0.838,-0.032 -1.024,-0.02 -2.05,-0.051 -3.074,-0.02 -1.025,0.01 -2.052,0.03 -3.076,0.098 -4.098,0.205 -8.204,0.723 -12.205,1.742 -3.981,1.09 -7.867,2.598 -11.413,4.716 -1.751,1.076 -3.477,2.291 -4.746,3.996 -0.623,0.846 -1.158,1.807 -1.382,2.888 -0.229,1.076 -0.133,2.225 0.222,3.266 0.352,1.058 0.887,1.995 1.63,2.845 0.716,0.857 1.76,1.587 2.936,1.81 1.16,0.253 2.326,0.145 3.407,-0.093 1.06,-0.284 2.085,-0.661 3.028,-1.136 3.807,-1.875 7.08,-4.374 10.336,-6.825 3.226,-2.491 6.403,-4.998 9.73,-7.268 1.669,-1.124 3.36,-2.219 5.148,-3.138 0.896,-0.453 1.802,-0.887 2.731,-1.283 l 1.241,-0.456 c 0.515,0.152 1.027,0.317 1.543,0.466 4.201,1.185 8.419,2.304 12.675,3.295 -0.134,0.025 -0.278,0.049 -0.401,0.075 -1.08,0.227 -2.171,0.422 -3.242,0.696 -1.074,0.263 -2.152,0.515 -3.213,0.829 -1.067,0.293 -2.132,0.599 -3.183,0.951 -4.22,1.344 -8.361,3.013 -12.259,5.168 -3.86,2.218 -7.51,4.846 -10.626,8.032 -1.533,1.602 -2.988,3.354 -3.835,5.479 -0.413,1.054 -0.691,2.202 -0.633,3.385 0.061,1.18 0.475,2.343 1.127,3.327 0.654,0.999 1.461,1.835 2.465,2.514 0.978,0.69 2.255,1.168 3.533,1.072 1.27,-0.06 2.442,-0.497 3.498,-1.042 1.022,-0.587 1.978,-1.265 2.831,-2.019 3.443,-3.003 6.168,-6.514 8.896,-9.966 2.687,-3.485 5.323,-6.975 8.186,-10.253 1.439,-1.63 2.913,-3.233 4.534,-4.68 l 1.233,-1.065 1.277,-1.016 1.34,-0.936 c 0.079,-0.044 0.152,-0.094 0.228,-0.142 1.643,0.354 3.324,0.743 5.023,1.03 -0.675,0.287 -1.328,0.62 -1.979,0.96 -1.295,0.702 -2.541,1.501 -3.732,2.375 -2.365,1.767 -4.547,3.818 -6.319,6.199 -1.753,2.396 -3.119,5.059 -4.115,7.832 -0.494,1.387 -0.882,2.834 -0.897,4.355 -0.054,1.486 0.473,3.202 1.824,4.209 0.672,0.483 1.36,0.841 2.153,1.059 0.384,0.139 0.818,0.166 1.247,0.21 0.437,-0.028 0.888,-0.049 1.313,-0.21 0.853,-0.275 1.601,-0.831 2.126,-1.454 0.55,-0.619 0.972,-1.298 1.328,-1.98 1.399,-2.749 2.16,-5.58 2.941,-8.368 0.73,-2.802 1.461,-5.564 2.377,-8.259 0.477,-1.337 0.98,-2.668 1.63,-3.93 0.321,-0.633 0.665,-1.256 1.038,-1.865 0.204,-0.303 0.372,-0.586 0.61,-0.911 0,-10e-4 0.001,-10e-4 0.001,-10e-4 0.186,0.022 0.37,0.055 0.555,0.074 0.7,0.115 1.403,0.175 2.107,0.224 0.02,0.783 0.066,1.57 0.221,2.363 0.206,1.103 0.508,2.192 0.926,3.24 0.814,2.096 2.008,4.113 3.687,5.688 1.687,1.581 3.791,2.586 5.876,3.319 l 1.589,0.509 c 0.544,0.111 1.09,0.207 1.633,0.336 0.542,0.149 1.096,0.175 1.65,0.244 0.555,0.054 1.114,0.141 1.675,0.167 2.229,0.096 4.593,-0.151 6.714,-1.191 2.146,-0.955 4.015,-2.601 5.267,-4.586 1.243,-1.998 1.949,-4.239 2.241,-6.478 0.259,-2.035 0.222,-4.105 -0.202,-6.081 1.099,-0.186 2.197,-0.375 3.293,-0.563 0.299,-0.052 0.598,-0.103 0.898,-0.155 0.082,0.958 0.178,1.923 0.438,2.884 0.284,1.079 0.656,2.139 1.147,3.148 0.955,2.021 2.279,3.937 4.051,5.384 1.78,1.453 3.931,2.31 6.046,2.909 0.538,0.134 1.079,0.247 1.612,0.396 0.543,0.095 1.095,0.133 1.641,0.227 0.548,0.105 1.098,0.131 1.653,0.143 l 1.673,0.061 c 2.22,-0.043 4.537,-0.459 6.589,-1.592 2.07,-1.076 3.842,-2.8 4.981,-4.843 1.109,-2.061 1.689,-4.325 1.84,-6.567 0.143,-2.141 -0.034,-4.295 -0.645,-6.32 2.964,-0.178 5.932,-0.259 8.897,-0.241 -0.36,1.954 -0.266,4.008 0.133,5.974 0.453,2.145 1.281,4.27 2.627,6.063 1.363,1.798 3.247,3.082 5.121,4.13 1.873,1.111 3.938,1.77 6.045,2.365 2.115,0.507 4.416,0.702 6.641,0.128 2.23,-0.499 4.342,-1.68 5.945,-3.315 1.581,-1.66 2.723,-3.645 3.453,-5.722 0.618,-1.764 0.991,-3.598 1.047,-5.439 4.829,1.354 9.553,3.064 14.086,5.242 8.791,4.094 16.923,9.578 24.358,15.92 0.039,0.034 0.099,0.032 0.136,-0.006 0.038,-0.041 0.038,-0.105 -0.002,-0.144 z M 66.165,290.132 c -0.414,-1.203 -0.696,-2.465 -0.648,-3.704 0.026,-1.231 0.374,-2.434 1.13,-3.312 0.181,-0.224 0.424,-0.393 0.626,-0.594 0.233,-0.171 0.494,-0.308 0.735,-0.466 0.551,-0.227 1.1,-0.522 1.679,-0.613 1.141,-0.272 2.297,-0.178 3.368,0.259 1.344,0.593 2.514,1.585 3.582,2.73 -0.944,1.802 -2.075,3.444 -3.644,4.578 -1.752,1.315 -4.046,1.78 -6.259,2.553 -0.206,-0.471 -0.407,-0.944 -0.569,-1.431 z m 3.752,6.712 c -1.212,-1.598 -2.309,-3.305 -3.123,-5.128 1.068,-0.061 2.13,-0.155 3.192,-0.384 1.25,-0.259 2.515,-0.723 3.596,-1.515 1.705,-1.261 2.805,-3.107 3.349,-5.056 0.528,0.589 1.035,1.207 1.524,1.83 0.994,1.3 1.915,2.675 2.812,4.076 -0.581,0.706 -1.159,1.402 -1.759,2.071 -0.807,0.884 -1.627,1.764 -2.511,2.537 -0.874,0.783 -1.826,1.457 -2.885,1.912 -0.981,0.418 -2.083,0.63 -3.19,0.895 -0.342,-0.407 -0.682,-0.816 -1.005,-1.238 z m 5.313,5.633 c -1.499,-1.344 -2.93,-2.772 -4.235,-4.307 1.113,0.085 2.247,0.076 3.376,-0.246 1.246,-0.351 2.345,-1.075 3.29,-1.9 1.579,-1.452 2.887,-3.172 3.779,-5.089 0.438,0.688 0.872,1.38 1.303,2.075 0.714,1.162 1.449,2.325 2.174,3.489 -0.34,0.562 -0.679,1.115 -1.053,1.626 -0.624,0.858 -1.372,1.581 -2.231,2.202 -0.847,0.633 -1.787,1.163 -2.743,1.683 -0.867,0.463 -1.759,0.894 -2.668,1.335 -0.333,-0.288 -0.667,-0.573 -0.992,-0.868 z m 6.056,4.817 c -1.701,-1.218 -3.366,-2.494 -4.958,-3.858 0.984,-0.118 1.951,-0.368 2.882,-0.717 1.057,-0.392 2.077,-0.913 3.015,-1.589 0.922,-0.686 1.757,-1.564 2.296,-2.592 0.279,-0.514 0.499,-1.044 0.679,-1.585 0.56,0.898 1.108,1.796 1.677,2.692 0.704,1.082 1.418,2.162 2.147,3.234 -0.049,0.09 -0.096,0.18 -0.14,0.266 -0.195,0.416 -0.405,0.781 -0.647,1.137 -0.489,0.701 -1.082,1.304 -1.777,1.784 -0.683,0.498 -1.458,0.859 -2.28,1.16 -0.666,0.239 -1.37,0.432 -2.084,0.638 -0.268,-0.192 -0.544,-0.374 -0.81,-0.57 z m 1.14,0.804 c 0.649,0.037 1.303,0.004 1.955,-0.117 0.935,-0.165 1.857,-0.538 2.657,-1.099 0.79,-0.569 1.467,-1.33 1.874,-2.215 0.207,-0.425 0.342,-0.895 0.426,-1.337 1.143,1.667 2.335,3.303 3.578,4.903 -0.201,0.303 -0.386,0.611 -0.556,0.926 -0.308,0.56 -0.548,1.12 -0.859,1.589 -0.288,0.481 -0.668,0.857 -1.136,1.231 -0.294,0.233 -0.617,0.461 -0.943,0.7 -2.39,-1.44 -4.726,-2.964 -6.996,-4.581 z m 13.206,8.065 c -0.414,-0.215 -0.833,-0.423 -1.246,-0.641 -1.523,-0.821 -3.021,-1.685 -4.505,-2.569 0.302,-0.074 0.6,-0.172 0.891,-0.308 0.616,-0.27 1.2,-0.764 1.575,-1.362 0.367,-0.599 0.579,-1.227 0.738,-1.838 0.067,-0.251 0.124,-0.507 0.176,-0.765 0.97,1.229 1.966,2.439 3.022,3.601 0.35,0.388 0.709,0.768 1.068,1.147 -0.229,0.408 -0.474,0.78 -0.747,1.174 -0.223,0.342 -0.47,0.681 -0.691,1.057 -0.1,0.159 -0.193,0.335 -0.281,0.504 z m -26.569,23.39 c -1.025,0.347 -2.056,0.531 -3.038,0.38 -0.851,-0.113 -1.608,-0.564 -2.258,-1.191 -0.66,-0.621 -1.237,-1.445 -1.597,-2.292 -0.367,-0.857 -0.523,-1.797 -0.4,-2.733 0.107,-0.941 0.535,-1.839 1.087,-2.642 0.671,-0.992 1.566,-1.811 2.544,-2.535 l 1.383,2.484 c 0.506,0.963 1.015,1.921 1.415,2.904 0.415,0.978 0.715,1.986 0.85,3.03 0.104,0.846 0.101,1.711 0.014,2.595 z m 2.244,-0.978 c -0.642,0.332 -1.303,0.642 -1.969,0.887 0.319,-0.798 0.48,-1.67 0.486,-2.546 0.02,-1.162 -0.274,-2.313 -0.702,-3.369 -0.448,-1.054 -1.018,-2.029 -1.677,-2.937 -0.566,-0.784 -1.216,-1.503 -1.933,-2.15 0.601,-0.437 1.224,-0.847 1.865,-1.215 0.89,-0.496 1.816,-0.922 2.765,-1.295 0.637,0.701 1.214,1.421 1.723,2.189 0.591,0.892 1.129,1.82 1.652,2.77 l 0.803,1.424 0.382,0.69 c 0.125,0.231 0.191,0.473 0.299,0.71 0.269,0.685 0.432,1.421 0.536,2.183 -1.375,0.974 -2.775,1.899 -4.23,2.659 z m 9.89,-6.844 c -1.626,1.225 -3.252,2.436 -4.876,3.625 -0.148,0.108 -0.298,0.212 -0.447,0.319 0.076,-0.715 0.047,-1.448 -0.127,-2.162 -0.107,-0.584 -0.355,-1.11 -0.593,-1.624 -0.243,-0.493 -0.503,-0.98 -0.765,-1.469 -0.55,-0.962 -1.152,-1.915 -1.906,-2.758 -0.612,-0.702 -1.334,-1.324 -2.139,-1.786 0.861,-0.332 1.737,-0.626 2.621,-0.888 1.93,-0.576 3.895,-1.021 5.872,-1.397 0.179,-0.035 0.36,-0.066 0.539,-0.1 0.036,0.043 0.076,0.082 0.112,0.126 0.289,0.319 0.534,0.671 0.77,1.018 0.462,0.704 0.84,1.454 1.123,2.246 0.48,1.27 0.746,2.61 0.954,4.017 -0.379,0.278 -0.76,0.555 -1.138,0.833 z m 1.586,-1.16 c 0.172,-1.342 0.003,-2.741 -0.466,-4.039 -0.33,-0.869 -0.801,-1.701 -1.447,-2.381 -0.268,-0.288 -0.567,-0.545 -0.885,-0.772 2.452,-0.459 4.917,-0.865 7.397,-1.196 0.396,0.515 0.767,1.015 1.091,1.543 0.43,0.669 0.783,1.378 1.165,2.161 -2.363,1.463 -4.629,3.058 -6.855,4.684 z m 8.593,-5.74 c -0.485,0.278 -0.954,0.578 -1.431,0.869 0.085,-0.869 -0.168,-1.761 -0.625,-2.506 -0.273,-0.428 -0.623,-0.816 -1.026,-1.13 0.831,-0.105 1.663,-0.206 2.498,-0.294 1.016,-0.116 2.034,-0.214 3.054,-0.304 0.076,0.223 0.149,0.439 0.233,0.67 0.133,0.332 0.269,0.683 0.47,1.038 -1.079,0.515 -2.142,1.06 -3.173,1.657 z m 8.51,-3.698 -1.488,0.439 c -0.492,0.159 -0.97,0.356 -1.457,0.535 -0.598,0.242 -1.18,0.521 -1.767,0.789 0.02,-0.372 -0.034,-0.741 -0.156,-1.104 -0.055,-0.139 -0.124,-0.275 -0.201,-0.408 0.676,-0.057 1.352,-0.115 2.029,-0.172 l 3.042,-0.234 c 0.119,-0.009 0.218,-0.018 0.326,-0.026 0.066,0.02 0.133,0.04 0.199,0.06 z m 3.57,-1.431 c -0.458,-0.129 -0.913,-0.267 -1.37,-0.396 l -0.74,-0.333 c -1.76,-0.799 -3.484,-1.663 -5.198,-2.545 0.12,-0.083 0.243,-0.162 0.354,-0.256 0.353,-0.285 0.659,-0.627 0.929,-1.008 0.22,-0.34 0.401,-0.718 0.507,-1.127 1.278,1.313 2.611,2.572 4.016,3.746 0.996,0.822 2.005,1.63 3.078,2.347 -0.525,-0.146 -1.053,-0.28 -1.576,-0.428 z M 91.38,284.455 c 0.068,-2.273 0.953,-4.684 2.864,-5.653 0.935,-0.493 2.031,-0.549 3.136,-0.503 1.083,0.105 2.091,0.437 2.939,1.022 0.857,0.576 1.53,1.429 2.056,2.391 0.342,0.596 0.626,1.241 0.887,1.901 -0.253,0.105 -0.516,0.191 -0.778,0.289 -0.524,0.2 -1.057,0.369 -1.585,0.54 -1.061,0.326 -2.13,0.604 -3.216,0.797 -2.058,0.396 -4.142,0.516 -6.307,0.522 -0.016,-0.437 -0.02,-0.872 0.004,-1.306 z m 1.046,6.887 c -0.545,-1.775 -0.959,-3.617 -1.044,-5.462 2.069,0.677 4.333,0.733 6.487,0.34 1.14,-0.223 2.26,-0.56 3.31,-1.053 0.526,-0.242 1.035,-0.519 1.522,-0.828 0.215,-0.145 0.445,-0.292 0.661,-0.457 0.114,0.303 0.238,0.602 0.338,0.913 0.581,1.783 1,3.649 1.373,5.535 -0.702,0.363 -1.435,0.639 -2.186,0.879 l -3.426,1.021 c -1.133,0.34 -2.262,0.608 -3.419,0.722 -1.001,0.095 -2.021,0.065 -3.06,-0.03 -0.199,-0.521 -0.387,-1.047 -0.556,-1.58 z m 2.856,6.42 c -0.834,-1.494 -1.591,-3.038 -2.217,-4.632 0.947,0.374 1.97,0.576 3.004,0.603 1.254,0.043 2.498,-0.208 3.672,-0.543 1.173,-0.366 2.298,-0.75 3.427,-1.256 0.698,-0.316 1.384,-0.721 1.98,-1.22 0.056,0.287 0.114,0.574 0.168,0.862 l 1.052,5.56 c -0.046,0.028 -0.086,0.066 -0.134,0.092 -0.44,0.25 -0.921,0.426 -1.41,0.611 -0.999,0.358 -1.964,0.766 -2.94,0.995 -0.479,0.132 -1.012,0.151 -1.515,0.241 -0.502,0.098 -1.035,0.146 -1.562,0.234 -0.527,0.076 -1.053,0.172 -1.578,0.272 l -0.761,0.165 c -0.402,-0.657 -0.811,-1.31 -1.186,-1.984 z m 3.78,5.92 c -0.858,-1.18 -1.654,-2.402 -2.421,-3.644 l 0.627,0.033 c 0.535,0.015 1.069,0.025 1.602,0.016 1.055,-10e-4 2.16,-0.092 3.253,-0.283 1.094,-0.282 2.079,-0.752 3.021,-1.257 0.458,-0.243 0.916,-0.528 1.324,-0.884 l 0.169,0.892 c 0.373,1.792 0.772,3.587 1.222,5.372 -0.954,0.733 -1.94,1.319 -3.015,1.725 -1.154,0.452 -2.4,0.658 -3.708,0.868 -0.707,-0.936 -1.398,-1.882 -2.074,-2.838 z m 2.409,3.27 c 1.229,0.192 2.519,0.083 3.728,-0.367 1.103,-0.429 2.1,-1.156 2.809,-2.08 0.534,2.06 1.138,4.105 1.866,6.112 -0.647,0.313 -1.274,0.605 -1.921,0.837 -0.722,0.276 -1.47,0.48 -2.265,0.69 -1.465,-1.684 -2.866,-3.419 -4.217,-5.192 z m 6.427,7.648 c -0.597,-0.639 -1.174,-1.293 -1.751,-1.947 0.723,0.08 1.471,-0.015 2.155,-0.263 0.674,-0.258 1.297,-0.67 1.791,-1.197 0.146,0.388 0.29,0.776 0.445,1.161 0.423,1.059 0.882,2.104 1.374,3.132 -0.382,0.113 -0.721,0.247 -1.065,0.385 -0.388,0.176 -0.764,0.348 -1.166,0.597 -0.599,-0.618 -1.199,-1.235 -1.783,-1.868 z m -22.709,40.394 c -0.933,0.118 -1.857,-0.161 -2.712,-0.644 -0.863,-0.477 -1.686,-1.192 -2.294,-1.987 -0.618,-0.804 -1.038,-1.753 -1.167,-2.771 -0.136,-1.02 0.056,-2.078 0.411,-3.073 0.095,-0.271 0.205,-0.536 0.325,-0.797 1.712,1.083 3.246,2.273 4.565,3.702 1.31,1.391 2.374,2.975 3.318,4.722 -0.785,0.442 -1.601,0.758 -2.446,0.848 z m 5.182,-2.891 c -0.815,0.736 -1.685,1.436 -2.598,1.968 -0.331,-1.98 -1.352,-3.839 -2.725,-5.327 -1.416,-1.507 -3.244,-2.676 -5.245,-3.124 0.771,-1.636 1.982,-3.076 3.282,-4.361 0.048,-0.047 0.1,-0.088 0.149,-0.134 1.815,1.278 3.483,2.623 4.931,4.204 1.428,1.516 2.633,3.28 4.069,4.909 -0.602,0.649 -1.218,1.278 -1.863,1.865 z m 4.363,-4.746 c -0.779,0.952 -1.576,1.885 -2.402,2.778 -0.401,-0.91 -0.843,-1.795 -1.352,-2.649 -0.592,-1.003 -1.282,-1.96 -2.08,-2.835 -1.532,-1.641 -3.454,-2.948 -5.583,-3.6 1.507,-1.419 3.205,-2.629 4.97,-3.711 0.705,-0.434 1.429,-0.835 2.153,-1.236 1.315,1.202 2.57,2.4 3.715,3.715 0.707,0.79 1.37,1.618 2.012,2.471 0.41,0.562 0.829,1.131 1.263,1.695 -0.898,1.129 -1.793,2.262 -2.696,3.372 z m 4.099,-5.127 c -0.385,0.489 -0.774,0.965 -1.16,1.451 -0.257,-0.615 -0.534,-1.221 -0.853,-1.813 -0.529,-0.974 -1.191,-1.871 -1.916,-2.711 -1.169,-1.311 -2.552,-2.444 -4.1,-3.263 1.061,-0.577 2.134,-1.131 3.222,-1.653 1.367,-0.664 2.749,-1.301 4.137,-1.925 0.296,0.222 0.564,0.487 0.847,0.741 0.552,0.532 1.067,1.086 1.529,1.686 0.47,0.592 0.885,1.226 1.27,1.89 0.187,0.334 0.376,0.673 0.543,1.027 0.03,0.053 0.058,0.114 0.087,0.173 -1.224,1.456 -2.42,2.928 -3.606,4.397 z m 8.713,-10.011 c -1.674,1.656 -3.237,3.404 -4.75,5.188 -0.063,-0.37 -0.152,-0.736 -0.279,-1.091 -0.265,-0.789 -0.687,-1.52 -1.191,-2.186 -0.523,-0.651 -1.132,-1.236 -1.835,-1.684 -0.229,-0.147 -0.47,-0.279 -0.721,-0.398 2.262,-1.004 4.551,-1.955 6.875,-2.835 0.379,0.474 0.727,0.927 1.029,1.407 0.328,0.499 0.6,1.009 0.887,1.587 -0.004,0.003 -0.01,0.007 -0.015,0.012 z m 7.839,-6.223 -1.428,0.873 c -0.468,0.304 -0.911,0.642 -1.369,0.963 -1.593,1.198 -3.094,2.514 -4.521,3.899 -0.037,-0.582 -0.242,-1.161 -0.552,-1.653 -0.296,-0.455 -0.699,-0.856 -1.169,-1.134 1.935,-0.738 3.894,-1.417 5.857,-2.102 l 3.119,-1.061 c 0.487,-0.163 0.878,-0.297 1.317,-0.478 0.012,0.003 0.024,0.006 0.036,0.008 z m 1.075,-2.892 -3.617,-3.464 c -0.891,-0.864 -1.77,-1.738 -2.637,-2.622 0.358,-0.009 0.711,-0.095 1.037,-0.228 0.362,-0.165 0.697,-0.402 0.966,-0.707 0.462,0.931 0.949,1.848 1.477,2.742 0.616,1.029 1.249,2.048 1.975,3 0.34,0.443 0.683,0.974 1.017,1.332 -0.073,-0.017 -0.145,-0.036 -0.218,-0.053 z m 0.345,-32.593 c 0.941,-1.465 2.478,-2.5 4.106,-2.576 0.814,-0.05 1.614,0.108 2.4,0.432 0.802,0.275 1.502,0.701 2.078,1.197 1.148,1.018 1.441,2.611 1.335,4.278 -0.021,0.373 -0.064,0.749 -0.115,1.127 -1.87,-0.009 -3.656,-0.263 -5.368,-0.804 -1.793,-0.555 -3.456,-1.424 -5.082,-2.53 0.19,-0.39 0.404,-0.766 0.646,-1.124 z m -1.763,4.943 c 0.182,-1.283 0.521,-2.557 1.071,-3.716 1.147,1.616 2.92,2.773 4.827,3.379 1.012,0.308 2.068,0.483 3.123,0.467 0.856,-0.013 1.713,-0.127 2.517,-0.402 -0.185,1.245 -0.508,2.509 -0.85,3.768 l -0.742,2.667 c -0.84,0.124 -1.666,0.209 -2.485,0.189 -1.026,-0.018 -2.038,-0.155 -3.018,-0.411 -0.974,-0.26 -1.939,-0.623 -2.808,-1.136 -0.693,-0.347 -1.277,-0.844 -1.774,-1.466 -0.045,-1.114 -0.018,-2.233 0.139,-3.339 z m 1.241,11.224 c -0.062,-0.229 -0.132,-0.457 -0.191,-0.687 -0.473,-1.709 -0.824,-3.452 -1.033,-5.217 -0.054,-0.444 -0.097,-0.889 -0.128,-1.336 0.322,0.577 0.764,1.098 1.311,1.469 0.877,0.709 1.919,1.152 2.993,1.457 1.084,0.262 2.211,0.366 3.312,0.22 0.819,-0.093 1.622,-0.315 2.358,-0.659 l -0.622,2.234 c -0.272,1.039 -0.53,2.089 -0.766,3.147 -0.488,0.113 -0.97,0.208 -1.451,0.262 -0.777,0.079 -1.55,0.099 -2.311,0.004 -0.768,-0.045 -1.498,-0.29 -2.264,-0.541 -0.373,-0.124 -0.791,-0.209 -1.152,-0.332 -0.02,-0.006 -0.038,-0.015 -0.056,-0.021 z m 1.802,5.704 c -0.603,-1.657 -1.139,-3.333 -1.612,-5.026 0.242,0.141 0.485,0.27 0.736,0.402 0.379,0.194 0.749,0.388 1.158,0.535 0.416,0.133 0.846,0.218 1.278,0.271 1.29,0.134 2.64,-0.106 3.752,-0.729 -0.386,1.792 -0.694,3.609 -0.864,5.446 -0.059,-0.01 -0.118,-0.02 -0.176,-0.021 l -0.79,-0.11 c -0.517,-0.084 -1.023,-0.161 -1.522,-0.277 -0.654,-0.13 -1.291,-0.304 -1.96,-0.491 z m -4.488,36.818 c -0.567,1.219 -1.316,2.34 -2.323,2.771 -0.964,0.486 -2.433,0.138 -3.536,-0.45 -1.08,-0.647 -1.76,-1.932 -1.771,-3.325 -0.071,-1.376 0.289,-2.775 0.813,-4.079 1.589,0.421 3.012,0.955 4.332,1.737 1.057,0.61 2.007,1.36 2.927,2.234 -0.144,0.373 -0.277,0.756 -0.442,1.112 z m 1.392,-3.947 c -0.227,0.79 -0.477,1.566 -0.749,2.325 -0.617,-1.064 -1.558,-1.955 -2.624,-2.588 -1.449,-0.841 -3.202,-1.255 -4.828,-0.901 0.001,-0.002 0.001,-0.004 0.002,-0.007 0.538,-1.32 1.285,-2.548 2.114,-3.706 0.681,-0.964 1.431,-1.873 2.209,-2.756 1.047,0.489 1.995,1.005 2.874,1.652 0.774,0.553 1.468,1.186 2.155,1.899 z m 1.371,-4.796 c -0.434,-0.779 -1.064,-1.46 -1.783,-1.991 -0.928,-0.667 -2.046,-1.115 -3.179,-1.171 0.067,-0.074 0.129,-0.153 0.197,-0.227 0.94,-1.062 1.905,-2.098 2.89,-3.118 0.267,-0.269 0.544,-0.529 0.816,-0.792 0.395,0.399 0.755,0.766 1.157,1.152 0.46,0.423 0.958,0.855 1.567,1.175 -0.628,1.644 -1.165,3.31 -1.665,4.972 z m 2.777,-7.637 c -0.335,0.714 -0.64,1.438 -0.929,2.167 -0.282,-0.526 -0.641,-0.979 -1.065,-1.403 -0.382,-0.355 -0.856,-0.693 -1.385,-0.871 0.6,-0.569 1.209,-1.131 1.83,-1.681 0.404,-0.348 0.818,-0.686 1.231,-1.024 0.065,0.176 0.172,0.376 0.281,0.541 0.219,0.29 0.472,0.556 0.832,0.747 -0.276,0.503 -0.552,1.006 -0.795,1.524 z m 3.614,-5.592 c -0.495,0.549 -0.983,1.118 -1.392,1.736 -0.386,0.561 -0.747,1.14 -1.092,1.728 -0.081,-0.264 -0.204,-0.498 -0.348,-0.718 -0.137,-0.177 -0.265,-0.326 -0.458,-0.487 0.482,-0.384 0.968,-0.766 1.461,-1.141 0.586,-0.409 1.154,-0.855 1.756,-1.249 0.222,-0.156 0.451,-0.315 0.647,-0.458 -0.189,0.189 -0.384,0.396 -0.574,0.589 z m 0.921,-2.562 c -0.033,-0.076 -0.072,-0.158 -0.102,-0.229 -0.165,-0.396 -0.324,-0.693 -0.535,-1.098 l -1.227,-2.407 c -0.794,-1.612 -1.579,-3.221 -2.271,-4.867 -0.394,-0.906 -0.761,-1.821 -1.112,-2.741 0.446,0.238 0.923,0.421 1.414,0.529 0.567,0.11 1.15,0.152 1.722,0.076 0.286,-0.031 0.568,-0.1 0.842,-0.181 0.03,-0.012 0.059,-0.023 0.088,-0.034 -0.034,0.426 -0.063,0.853 -0.081,1.281 -0.091,1.845 -0.004,3.704 0.268,5.529 0.049,0.457 0.148,0.91 0.244,1.36 0.088,0.452 0.196,0.898 0.331,1.339 0.133,0.416 0.235,0.94 0.392,1.261 0.026,0.059 0.062,0.13 0.092,0.192 -0.019,-0.003 -0.042,-0.006 -0.065,-0.01 z m 93.818,-4.225 c -2.124,0.388 -7.741,1.701 -5.903,4.474 1.377,2.078 3.346,0.31 4.79,-1.605 -1.079,2.07 -1.818,4.53 0.424,4.984 3.56,0.721 2.234,-5.214 1.671,-7.283 0.619,2.012 2.609,7.565 5.168,5.386 2.701,-2.3 -2.47,-4.855 -4.554,-5.751 0.054,0.008 0.108,0.013 0.162,0.021 3.197,0.492 6.378,1.11 9.527,1.854 -1.143,2.609 -2.486,5.045 -4.281,6.932 -0.963,1.033 -2.056,1.891 -3.323,2.45 l -0.983,0.345 c -0.337,0.091 -0.69,0.118 -1.037,0.203 -0.348,0.096 -0.707,0.112 -1.073,0.125 -0.364,0.013 -0.736,0.055 -1.108,0.046 -1.487,-0.082 -3.007,-0.485 -4.229,-1.383 -1.213,-0.924 -1.959,-2.276 -2.56,-3.581 -0.62,-1.31 -1.158,-2.665 -1.571,-4.102 -0.218,-0.715 -0.381,-1.449 -0.554,-2.189 -0.118,-0.571 -0.241,-1.19 -0.396,-1.803 3.293,0.165 6.571,0.459 9.83,0.877 z m -1.817,-1.767 c -1.931,-0.147 -3.863,-0.24 -5.796,-0.297 0.011,-1.167 -0.132,-2.331 -0.408,-3.474 0.757,-0.029 1.458,-0.224 2.135,-0.476 0.728,-0.302 1.431,-0.671 2.042,-1.241 0.832,1.736 1.495,3.588 2.027,5.488 z m -4.914,-10.123 c 1.099,1.352 2.028,2.859 2.812,4.469 -0.846,0.003 -1.601,0.207 -2.331,0.477 -0.653,0.269 -1.283,0.594 -1.859,1.078 -0.066,-0.252 -0.127,-0.505 -0.205,-0.755 -0.283,-0.911 -0.67,-1.797 -1.141,-2.647 0.535,-0.436 0.968,-0.908 1.431,-1.308 0.314,-0.283 0.671,-0.542 0.974,-0.906 0.112,-0.131 0.215,-0.27 0.319,-0.408 z m -1.033,-1.176 c 0.23,0.239 0.44,0.497 0.657,0.748 -0.145,0.073 -0.291,0.145 -0.426,0.225 -0.384,0.225 -0.788,0.465 -1.159,0.772 -0.477,0.443 -0.825,0.965 -1.066,1.537 -0.301,-0.494 -0.623,-0.978 -0.989,-1.436 -0.466,-0.583 -1.02,-1.099 -1.613,-1.566 0.362,-0.487 0.629,-0.99 0.884,-1.504 0.208,-0.462 0.4,-0.929 0.546,-1.435 1.163,0.748 2.238,1.62 3.166,2.659 z m -7.389,-4.333 c 0.006,-0.091 0.003,-0.199 0.005,-0.293 1.303,0.417 2.548,0.957 3.703,1.639 -0.389,0.395 -0.693,0.852 -0.934,1.337 -0.225,0.495 -0.388,1.021 -0.447,1.574 -0.694,-0.486 -1.443,-0.896 -2.227,-1.201 -0.284,-0.133 -0.579,-0.232 -0.876,-0.318 0.309,-0.497 0.496,-1.028 0.626,-1.579 0.077,-0.381 0.145,-0.782 0.15,-1.159 z m -4.49,-1.22 c 1.328,0.128 2.628,0.383 3.885,0.742 -0.054,0.096 -0.104,0.194 -0.15,0.293 -0.169,0.378 -0.271,0.733 -0.367,1.109 -0.105,0.54 -0.187,1.094 -0.158,1.677 -0.394,-0.091 -0.792,-0.164 -1.186,-0.238 -0.435,-0.063 -0.878,-0.037 -1.312,-0.044 -0.436,0.006 -0.864,-0.027 -1.296,0.069 l -0.24,0.036 c 0.065,-0.664 0.134,-1.211 0.107,-1.865 -0.046,-0.62 -0.158,-1.238 -0.459,-1.845 0.392,0.008 0.784,0.023 1.176,0.066 z m -3.449,0.06 c 0.576,-0.055 1.144,-0.158 1.725,-0.128 0.095,-0.002 0.189,0.002 0.283,0.002 -0.243,0.64 -0.292,1.271 -0.274,1.898 0.028,0.357 0.064,0.733 0.194,1.107 0.088,0.268 0.243,0.523 0.44,0.745 l -0.78,0.119 c -0.422,0.053 -0.825,0.24 -1.236,0.34 -0.204,0.062 -0.407,0.123 -0.613,0.174 -0.205,0.054 -0.389,0.171 -0.584,0.253 -0.131,0.067 -0.269,0.122 -0.406,0.178 0.012,-0.795 -0.229,-1.463 -0.519,-2.094 -0.314,-0.603 -0.693,-1.172 -1.309,-1.645 0.971,-0.469 2.021,-0.759 3.079,-0.949 z m -8.153,5.719 c 0.324,-0.487 0.672,-0.968 1.043,-1.433 0.08,0.126 0.168,0.245 0.259,0.346 0.25,0.284 0.498,0.496 0.757,0.726 0.537,0.428 1.079,0.83 1.844,1.099 -0.172,-0.797 -0.65,-1.388 -1.205,-1.868 -0.285,-0.226 -0.606,-0.439 -0.926,-0.577 -0.124,-0.06 -0.244,-0.109 -0.366,-0.162 0.968,-1.129 2.099,-2.128 3.462,-2.807 0.038,-0.02 0.078,-0.034 0.116,-0.053 -0.012,0.757 0.212,1.417 0.502,2.043 0.322,0.633 0.721,1.217 1.368,1.675 -0.241,0.099 -0.481,0.198 -0.705,0.329 -1.492,0.803 -2.926,1.868 -4.005,3.251 -0.163,0.211 -0.297,0.439 -0.441,0.661 -0.438,-0.417 -0.936,-0.707 -1.452,-0.957 -0.44,-0.191 -0.897,-0.348 -1.386,-0.434 0.357,-0.626 0.729,-1.244 1.135,-1.839 z m -1.431,2.38 c 0.392,0.331 0.819,0.585 1.264,0.802 0.501,0.22 1.02,0.4 1.589,0.472 -0.597,1.038 -1,2.17 -1.296,3.307 -0.544,-0.322 -1.107,-0.46 -1.677,-0.534 -0.583,-0.048 -1.173,-0.028 -1.783,0.187 0.546,-1.466 1.173,-2.882 1.903,-4.234 z m -1.985,4.457 c 0.57,0.361 1.162,0.509 1.761,0.585 0.555,0.044 1.117,0.028 1.697,-0.156 -0.362,1.566 -0.541,3.168 -0.372,4.768 -1.601,0.171 -3.202,0.344 -4.8,0.538 0.478,-1.962 1.036,-3.884 1.714,-5.735 z m 6.223,5.504 c -0.418,3.114 -1.091,6.127 -2.473,8.632 -0.677,1.255 -1.535,2.366 -2.642,3.217 -1.098,0.876 -2.489,1.344 -3.942,1.732 -1.477,0.336 -3.063,0.243 -4.475,-0.327 -1.433,-0.573 -2.469,-1.768 -3.379,-2.895 -1.773,-2.18 -3.292,-4.644 -4.37,-7.472 7.068,-1.193 14.149,-2.272 21.281,-2.887 z m -20.813,1.932 c -1.669,0.233 -3.337,0.465 -5.005,0.697 -0.069,-0.88 -0.214,-1.759 -0.47,-2.616 0.717,-0.076 1.358,-0.319 1.967,-0.621 0.565,-0.308 1.106,-0.665 1.566,-1.159 0.724,1.171 1.361,2.418 1.942,3.699 z m -5.095,-7.451 c 0.041,-0.059 0.073,-0.124 0.112,-0.184 1.052,1.079 1.99,2.293 2.826,3.605 -0.663,0.097 -1.248,0.327 -1.81,0.603 -0.576,0.312 -1.122,0.678 -1.598,1.199 -0.346,-1.062 -0.836,-2.086 -1.47,-3.035 0.433,-0.426 0.776,-0.872 1.142,-1.26 0.259,-0.289 0.559,-0.561 0.798,-0.928 z m -3.984,-3.363 c 0.873,0.469 1.699,1.023 2.458,1.676 0.402,0.319 0.787,0.661 1.16,1.017 -0.057,0.039 -0.121,0.074 -0.176,0.113 -0.334,0.238 -0.683,0.495 -0.996,0.814 -0.369,0.424 -0.624,0.9 -0.786,1.41 -0.348,-0.465 -0.719,-0.917 -1.139,-1.335 -0.443,-0.431 -0.947,-0.795 -1.468,-1.135 0.265,-0.444 0.454,-0.893 0.626,-1.353 0.128,-0.393 0.243,-0.788 0.321,-1.207 z m -4.013,-0.225 c 0.033,-0.355 0.056,-0.73 0.018,-1.076 -0.003,-0.058 -0.012,-0.12 -0.017,-0.178 1.182,0.267 2.314,0.663 3.385,1.174 -0.273,0.363 -0.481,0.763 -0.638,1.179 -0.142,0.427 -0.232,0.874 -0.245,1.333 -0.702,-0.332 -1.399,-0.681 -2.16,-0.834 -0.246,-0.081 -0.495,-0.134 -0.746,-0.179 0.222,-0.457 0.34,-0.931 0.403,-1.419 z m -4.259,-1.723 c 1.22,0.002 2.421,0.122 3.588,0.34 -0.028,0.067 -0.056,0.134 -0.081,0.202 -0.125,0.363 -0.186,0.696 -0.239,1.05 -0.042,0.478 -0.056,0.966 0.024,1.47 -0.35,-0.037 -0.701,-0.06 -1.049,-0.082 -0.393,-0.02 -0.785,0.056 -1.172,0.094 -0.386,0.063 -0.771,0.053 -1.146,0.183 -0.104,0.03 -0.207,0.056 -0.31,0.083 l 0.007,-0.766 c 0.005,-0.333 -0.021,-0.671 -0.068,-1.021 -0.094,-0.518 -0.229,-1.03 -0.502,-1.52 0.317,-0.02 0.633,-0.033 0.948,-0.033 z m -5.751,1.411 c 1.312,-0.798 2.819,-1.198 4.343,-1.344 -0.12,0.564 -0.096,1.106 -0.025,1.64 0.063,0.34 0.134,0.694 0.295,1.043 0.106,0.24 0.257,0.478 0.458,0.669 -0.544,0.142 -1.078,0.282 -1.587,0.521 -0.557,0.179 -1.067,0.454 -1.581,0.727 -0.084,-0.748 -0.373,-1.363 -0.71,-1.937 -0.319,-0.486 -0.686,-0.939 -1.197,-1.315 10e-4,-0.002 0.002,-0.003 0.004,-0.004 z m -0.312,0.199 c 0.109,0.611 0.359,1.145 0.657,1.648 0.366,0.569 0.803,1.085 1.446,1.466 -0.12,0.063 -0.239,0.127 -0.36,0.188 -0.74,0.462 -1.48,0.986 -2.157,1.59 -0.235,-0.647 -0.684,-1.112 -1.196,-1.47 -0.284,-0.18 -0.601,-0.344 -0.91,-0.433 -0.104,-0.035 -0.205,-0.062 -0.306,-0.09 0.744,-1.12 1.662,-2.154 2.826,-2.899 z m -3.565,4.121 c 0.132,-0.238 0.271,-0.476 0.416,-0.712 0.073,0.089 0.15,0.173 0.226,0.245 0.254,0.242 0.499,0.413 0.757,0.599 0.486,0.31 0.983,0.587 1.633,0.749 -0.445,0.409 -0.867,0.847 -1.219,1.35 -0.202,0.334 -0.422,0.662 -0.601,1.012 0,0 0,0 0,10e-4 -0.374,-0.258 -0.772,-0.445 -1.183,-0.594 -0.38,-0.12 -0.771,-0.21 -1.18,-0.244 0.335,-0.828 0.713,-1.633 1.151,-2.406 z m -1.399,3.053 c 0.352,0.23 0.723,0.402 1.105,0.542 0.405,0.129 0.821,0.222 1.26,0.25 -0.065,0.16 -0.137,0.316 -0.195,0.479 -0.247,0.734 -0.448,1.48 -0.552,2.239 -0.016,0.11 -0.022,0.222 -0.036,0.332 -0.474,-0.201 -0.948,-0.258 -1.422,-0.271 -0.42,0.01 -0.841,0.063 -1.261,0.213 0.285,-1.303 0.65,-2.566 1.101,-3.784 z m -1.207,4.324 c 0.456,0.183 0.912,0.236 1.367,0.247 0.457,-0.012 0.914,-0.066 1.371,-0.249 -0.088,0.955 -0.088,1.912 0.058,2.857 -1.096,0.075 -2.191,0.137 -3.286,0.183 0.134,-1.026 0.289,-2.043 0.49,-3.038 z m 3.343,4.525 c -2.177,0.902 -5.134,2.555 -3.458,4.406 1.545,1.705 3.096,-0.181 4.148,-2.129 -0.697,2.039 -1.03,4.385 1.079,4.489 3.364,0.165 1.3,-5.107 0.507,-6.893 0.836,1.737 3.431,6.563 5.47,4.213 1.954,-2.252 -2.079,-3.792 -4.345,-4.448 2.751,-0.327 5.492,-0.719 8.222,-1.155 -0.623,2.737 -1.457,5.346 -2.808,7.529 -0.721,1.184 -1.576,2.254 -2.671,3.062 -0.583,0.336 -1.148,0.737 -1.815,0.954 -0.631,0.314 -1.333,0.456 -2.044,0.637 -1.427,0.239 -2.996,0.251 -4.344,-0.387 -1.372,-0.583 -2.406,-1.688 -3.278,-2.791 -1.641,-2.041 -2.986,-4.397 -4.042,-7.007 3.145,-0.011 6.27,-0.187 9.379,-0.48 z m -14.946,0.296 c 0.363,0.023 0.726,0.046 1.089,0.074 1.238,0.112 2.476,0.11 3.713,0.121 0.08,0 0.16,-0.004 0.24,-0.004 -0.033,0.597 0.029,1.21 0.132,1.781 0.082,0.52 0.218,1.029 0.373,1.534 -0.687,0.064 -1.31,0.283 -1.906,0.555 -0.539,0.272 -1.061,0.582 -1.516,1.016 -0.839,-1.6 -1.537,-3.302 -2.125,-5.077 z m 4.879,9.317 c -0.949,-1.189 -1.786,-2.466 -2.523,-3.818 0.62,-0.087 1.176,-0.293 1.715,-0.538 0.567,-0.285 1.109,-0.619 1.59,-1.1 0.046,0.137 0.083,0.277 0.134,0.412 0.339,0.893 0.789,1.761 1.343,2.563 -0.475,0.428 -0.843,0.886 -1.238,1.28 -0.267,0.28 -0.576,0.543 -0.826,0.902 -0.071,0.097 -0.13,0.2 -0.195,0.299 z m 0.642,0.788 c -0.088,-0.102 -0.169,-0.21 -0.255,-0.313 0.112,-0.066 0.228,-0.129 0.332,-0.199 0.341,-0.227 0.698,-0.474 1.021,-0.782 0.408,-0.44 0.69,-0.943 0.864,-1.487 0.28,0.356 0.58,0.697 0.915,1.008 0.563,0.509 1.198,0.912 1.857,1.256 -0.434,0.559 -0.704,1.131 -0.946,1.721 -0.208,0.575 -0.39,1.154 -0.456,1.822 -1.276,-0.824 -2.375,-1.896 -3.332,-3.026 z m 4.904,3.864 c -0.459,-0.193 -0.895,-0.422 -1.314,-0.677 0.532,-0.446 0.882,-1.017 1.131,-1.622 0.224,-0.611 0.351,-1.265 0.262,-1.949 0.706,0.347 1.439,0.626 2.155,0.867 0.356,0.13 0.717,0.237 1.081,0.332 -0.467,0.604 -0.676,1.255 -0.785,1.935 -0.044,0.354 -0.079,0.728 -0.051,1.075 0.006,0.238 0.03,0.489 0.057,0.75 -0.873,-0.119 -1.729,-0.334 -2.536,-0.711 z m 6.279,0.768 c -1.116,0.075 -2.272,0.106 -3.405,-0.015 0.162,-0.202 0.277,-0.431 0.37,-0.664 0.136,-0.359 0.207,-0.69 0.271,-1.042 0.079,-0.663 0.112,-1.344 -0.104,-2.072 1.126,0.283 2.285,0.419 3.469,0.516 0.112,0.006 0.226,-0.006 0.338,-0.004 l -0.028,0.692 c -0.015,0.332 0,0.671 0.036,1.023 0.068,0.456 0.177,0.908 0.374,1.348 -0.436,0.083 -0.876,0.158 -1.321,0.218 z m 3.08,-0.642 c -0.379,0.118 -0.771,0.207 -1.163,0.294 0.072,-0.455 0.067,-0.901 0.023,-1.342 -0.052,-0.342 -0.112,-0.698 -0.262,-1.051 -0.077,-0.19 -0.186,-0.376 -0.321,-0.544 1.075,-0.029 2.16,-0.249 3.188,-0.681 0.122,0.491 0.322,0.933 0.551,1.353 0.194,0.317 0.408,0.622 0.665,0.904 -0.841,0.449 -1.742,0.797 -2.681,1.067 z m 3.337,-1.455 c -0.118,-0.358 -0.279,-0.694 -0.458,-1.019 -0.24,-0.401 -0.52,-0.774 -0.872,-1.102 0.103,-0.052 0.211,-0.089 0.313,-0.145 0.713,-0.41 1.356,-0.926 1.926,-1.507 0.239,0.428 0.578,0.77 0.954,1.052 0.256,0.173 0.541,0.328 0.824,0.43 -0.775,0.894 -1.669,1.673 -2.687,2.291 z m 3.812,-3.746 c -0.195,0.29 -0.411,0.564 -0.624,0.84 -0.002,-0.002 -0.004,-0.004 -0.005,-0.006 -0.246,-0.25 -0.485,-0.428 -0.738,-0.622 -0.362,-0.247 -0.731,-0.476 -1.169,-0.653 0.456,-0.52 0.87,-1.072 1.206,-1.661 0.128,-0.234 0.236,-0.476 0.348,-0.716 0.337,0.232 0.694,0.409 1.063,0.556 0.338,0.118 0.683,0.217 1.045,0.27 -0.334,0.694 -0.696,1.368 -1.126,1.992 z m 2.487,-5.629 c -0.288,1.014 -0.626,2.009 -1.034,2.958 -0.325,-0.217 -0.668,-0.384 -1.02,-0.527 -0.362,-0.128 -0.733,-0.228 -1.124,-0.278 0.394,-0.978 0.663,-1.988 0.814,-3.006 0.446,0.193 0.897,0.26 1.348,0.287 0.395,0.003 0.792,-0.034 1.191,-0.151 -0.059,0.238 -0.112,0.48 -0.175,0.717 z m 0.316,-1.297 c -0.431,-0.178 -0.865,-0.245 -1.301,-0.269 -0.435,-0.002 -0.871,0.038 -1.311,0.187 0.143,-1.262 0.141,-2.538 -0.067,-3.778 1.116,-0.18 2.232,-0.364 3.345,-0.552 -0.105,1.507 -0.339,2.978 -0.666,4.412 z m 4.152,-6.118 c -2.273,0.3 -4.548,0.604 -6.824,0.892 2.05,-1.002 4.36,-2.605 2.771,-4.253 -1.597,-1.656 -3.089,0.278 -4.08,2.258 0.633,-2.059 0.893,-4.415 -1.218,-4.453 -3.307,-0.059 -1.222,4.951 -0.342,6.799 -0.002,0 -0.004,0 -0.006,10e-4 -0.94,-1.786 -3.615,-6.303 -5.543,-3.935 -1.715,2.106 1.517,3.466 3.834,4.134 -2.49,0.281 -4.98,0.521 -7.47,0.702 0.665,-2.543 1.376,-4.938 2.452,-7.124 0.572,-1.219 1.262,-2.489 2.41,-3.343 1.162,-0.813 2.604,-1.152 4.002,-1.11 2.826,0.106 5.389,1.015 7.307,2.861 1.872,1.644 3.33,3.868 4.604,6.308 -0.633,0.086 -1.265,0.176 -1.897,0.263 z m 1.384,0.872 c 1.7,-0.294 3.4,-0.587 5.102,-0.875 -0.008,0.281 -0.018,0.562 -0.015,0.842 l 0.016,0.603 c 0.001,0.213 0.061,0.438 0.088,0.633 0.142,0.812 0.39,1.594 0.69,2.359 0.021,0.052 0.049,0.103 0.071,0.156 -0.647,0.121 -1.225,0.379 -1.776,0.681 -0.517,0.31 -1.014,0.656 -1.436,1.121 -1.065,-1.715 -1.968,-3.567 -2.74,-5.52 z m 5.795,9.551 c -1.031,-1.118 -1.959,-2.33 -2.792,-3.624 0.611,-0.132 1.149,-0.378 1.668,-0.66 0.525,-0.313 1.026,-0.668 1.459,-1.154 0.451,0.996 1.018,1.953 1.742,2.793 -0.446,0.464 -0.781,0.951 -1.149,1.374 -0.246,0.299 -0.535,0.583 -0.758,0.96 -0.062,0.101 -0.113,0.208 -0.17,0.311 z m 0.644,0.689 c -0.078,-0.078 -0.149,-0.163 -0.226,-0.242 0.108,-0.074 0.219,-0.146 0.318,-0.224 0.324,-0.252 0.662,-0.523 0.961,-0.854 0.388,-0.485 0.639,-1.027 0.769,-1.605 0.119,0.122 0.226,0.255 0.353,0.371 0.781,0.699 1.679,1.234 2.614,1.667 -0.426,0.614 -0.662,1.23 -0.87,1.862 -0.167,0.592 -0.307,1.187 -0.322,1.864 -1.359,-0.742 -2.548,-1.758 -3.597,-2.839 z m 5.115,3.519 c -0.435,-0.152 -0.852,-0.339 -1.256,-0.546 0.501,-0.485 0.81,-1.082 1.016,-1.706 0.189,-0.659 0.267,-1.358 0.094,-2.072 0.515,0.229 1.037,0.438 1.562,0.603 0.588,0.18 1.184,0.326 1.786,0.452 -0.428,0.641 -0.59,1.31 -0.65,2 -0.018,0.356 -0.025,0.732 0.027,1.076 0.023,0.233 0.065,0.479 0.109,0.733 -0.916,-0.054 -1.821,-0.21 -2.688,-0.54 z m 6.28,0.357 c -1.06,0.14 -2.156,0.241 -3.244,0.206 0.144,-0.211 0.241,-0.445 0.316,-0.681 0.11,-0.367 0.157,-0.703 0.195,-1.059 0.03,-0.671 0.014,-1.357 -0.259,-2.072 0.958,0.196 1.932,0.324 2.931,0.341 0.299,-10e-4 0.604,-0.015 0.91,-0.035 l 0.021,0.633 c 0.009,0.333 0.049,0.67 0.111,1.017 0.1,0.447 0.241,0.886 0.466,1.308 -0.477,0.128 -0.959,0.243 -1.447,0.342 z m 5.761,-2.134 c -1.137,0.694 -2.4,1.211 -3.725,1.612 0.036,-0.453 -0.001,-0.892 -0.077,-1.324 -0.077,-0.337 -0.162,-0.688 -0.338,-1.029 -0.08,-0.161 -0.18,-0.321 -0.302,-0.466 1.059,-0.113 2.125,-0.38 3.088,-0.921 0.157,0.462 0.382,0.876 0.633,1.265 0.217,0.303 0.453,0.592 0.732,0.855 -0.005,0.003 -0.008,0.006 -0.011,0.008 z m 0.632,-0.451 c -0.143,-0.346 -0.328,-0.668 -0.529,-0.977 -0.266,-0.378 -0.567,-0.725 -0.936,-1.024 0.791,-0.494 1.492,-1.119 2.096,-1.825 0.27,0.411 0.634,0.729 1.031,0.983 0.27,0.155 0.568,0.29 0.859,0.371 -0.712,0.945 -1.555,1.778 -2.521,2.472 z m 3.432,-3.817 c -0.143,0.239 -0.306,0.464 -0.461,0.694 -0.002,-0.002 -0.004,-0.004 -0.007,-0.006 -0.264,-0.232 -0.515,-0.392 -0.781,-0.567 -0.377,-0.219 -0.761,-0.419 -1.208,-0.564 0.357,-0.47 0.686,-0.958 0.948,-1.477 0.161,-0.33 0.298,-0.667 0.428,-1.006 0.352,0.205 0.72,0.355 1.096,0.475 0.348,0.094 0.702,0.167 1.069,0.194 -0.31,0.784 -0.659,1.545 -1.084,2.257 z m 2.133,-5.727 c -0.207,0.946 -0.466,1.872 -0.779,2.768 -0.339,-0.192 -0.694,-0.334 -1.055,-0.451 -0.372,-0.102 -0.753,-0.175 -1.149,-0.196 0.319,-1.005 0.518,-2.033 0.594,-3.059 0.462,0.162 0.918,0.197 1.373,0.19 0.402,-0.026 0.802,-0.094 1.199,-0.246 -0.06,0.332 -0.116,0.665 -0.183,0.994 z m 0.285,-1.567 c -0.452,-0.154 -0.899,-0.189 -1.344,-0.181 -0.439,0.03 -0.876,0.102 -1.308,0.287 0.062,-1.48 -0.058,-2.964 -0.481,-4.367 0.283,-0.024 0.564,-0.054 0.847,-0.077 0.88,-0.072 1.762,-0.125 2.643,-0.18 0.007,1.533 -0.124,3.044 -0.357,4.518 z m 8.657,-5.744 c -0.99,0.037 -1.979,0.078 -2.966,0.144 2.349,-0.675 6.936,-2.355 5.035,-4.789 -1.538,-1.969 -3.367,-0.048 -4.66,1.978 0.916,-2.152 1.462,-4.667 -0.813,-4.945 -3.628,-0.444 -1.812,5.424 -1.094,7.422 -0.768,-1.948 -3.197,-7.376 -5.59,-4.992 -2.595,2.585 3.181,4.788 5.185,5.452 l -2.437,0.159 -3.658,0.333 c -1.276,0.117 -2.547,0.266 -3.82,0.401 1.02,-3.035 2.035,-5.933 3.542,-8.515 0.742,-1.331 1.582,-2.742 2.941,-3.606 1.359,-0.811 2.985,-1.168 4.551,-0.954 3.155,0.341 5.922,1.75 7.846,4.079 1.898,2.139 3.252,4.854 4.364,7.759 -1.582,-0.041 -3.165,-0.062 -4.746,-0.036 -1.228,-0.014 -2.454,0.076 -3.68,0.11 z m 1.234,0.972 c 1.654,0.014 3.307,0.06 4.958,0.137 -0.264,1.339 -0.339,2.751 -0.174,4.149 -0.665,-0.056 -1.298,0.042 -1.917,0.191 -0.59,0.168 -1.17,0.38 -1.707,0.729 -0.521,-1.671 -0.902,-3.413 -1.16,-5.206 z m 3.086,9.876 c -0.713,-1.347 -1.308,-2.761 -1.792,-4.232 0.641,0.039 1.238,-0.059 1.826,-0.199 0.594,-0.167 1.173,-0.382 1.722,-0.743 0.165,1.086 0.471,2.153 0.942,3.159 -0.552,0.331 -1.003,0.715 -1.468,1.028 -0.316,0.224 -0.668,0.423 -0.982,0.729 -0.087,0.081 -0.165,0.171 -0.248,0.258 z m 0.687,1.22 c -0.136,-0.225 -0.258,-0.458 -0.386,-0.687 0.119,-0.042 0.242,-0.081 0.355,-0.13 0.378,-0.158 0.775,-0.333 1.151,-0.574 0.499,-0.366 0.881,-0.821 1.157,-1.342 0.128,0.24 0.251,0.482 0.399,0.712 0.533,0.785 1.202,1.447 1.92,2.037 -0.562,0.478 -0.946,1.006 -1.307,1.556 -0.307,0.514 -0.59,1.036 -0.782,1.661 -0.996,-0.956 -1.826,-2.071 -2.507,-3.233 z m 6.233,5.558 c -0.265,-0.099 -0.531,-0.193 -0.798,-0.291 -0.486,-0.187 -0.904,-0.51 -1.359,-0.757 -0.48,-0.308 -0.921,-0.661 -1.337,-1.039 0.594,-0.337 1.039,-0.826 1.394,-1.365 0.351,-0.581 0.606,-1.229 0.63,-1.954 0.504,0.402 1.025,0.778 1.55,1.118 0.458,0.277 0.929,0.522 1.406,0.753 -0.579,0.507 -0.91,1.11 -1.148,1.76 -0.11,0.339 -0.215,0.7 -0.254,1.046 -0.037,0.228 -0.061,0.474 -0.084,0.729 z m 5.05,-1.585 c -0.078,0.324 -0.127,0.659 -0.158,1.011 -0.02,0.462 0.001,0.926 0.112,1.396 -0.425,0 -0.851,-0.007 -1.279,-0.031 -0.516,-0.034 -1.019,-0.149 -1.535,-0.219 -0.509,-0.092 -1.044,-0.123 -1.522,-0.329 -0.121,-0.04 -0.239,-0.088 -0.358,-0.131 0.198,-0.168 0.368,-0.359 0.504,-0.571 0.202,-0.326 0.335,-0.638 0.464,-0.972 0.204,-0.64 0.368,-1.307 0.289,-2.069 0.94,0.449 1.916,0.826 2.938,1.138 0.227,0.054 0.46,0.102 0.694,0.147 z m 1.737,2.323 c -0.387,0.043 -0.781,0.057 -1.175,0.07 0.158,-0.434 0.237,-0.873 0.277,-1.315 0.013,-0.345 0.022,-0.707 -0.058,-1.082 -0.036,-0.183 -0.093,-0.371 -0.177,-0.547 1.053,0.161 2.154,0.189 3.229,-0.064 0.031,0.487 0.14,0.943 0.281,1.384 0.131,0.349 0.283,0.689 0.483,1.016 -0.92,0.279 -1.879,0.453 -2.86,0.538 z m 3.575,-0.8 c -0.048,-0.373 -0.142,-0.732 -0.256,-1.083 -0.157,-0.431 -0.356,-0.843 -0.631,-1.225 0.012,-0.004 0.025,-0.007 0.037,-0.011 0.878,-0.274 1.703,-0.694 2.458,-1.21 0.154,0.466 0.421,0.867 0.738,1.215 0.22,0.22 0.473,0.429 0.733,0.583 -0.934,0.726 -1.964,1.313 -3.079,1.731 z m 4.274,-2.762 c -0.189,0.182 -0.393,0.346 -0.591,0.518 -0.002,-0.002 -0.003,-0.005 -0.005,-0.008 -0.194,-0.292 -0.395,-0.513 -0.607,-0.751 -0.308,-0.311 -0.628,-0.605 -1.024,-0.862 0.495,-0.382 0.965,-0.794 1.373,-1.256 0.216,-0.252 0.411,-0.517 0.605,-0.783 0.286,0.291 0.603,0.532 0.937,0.747 0.312,0.181 0.635,0.344 0.983,0.466 -0.517,0.685 -1.068,1.337 -1.671,1.929 z m 2.113,-2.536 c -0.278,-0.275 -0.583,-0.504 -0.902,-0.711 -0.333,-0.195 -0.68,-0.365 -1.057,-0.488 0.571,-0.887 1.032,-1.826 1.372,-2.798 0.403,0.276 0.833,0.428 1.273,0.539 0.404,0.081 0.817,0.121 1.25,0.073 -0.563,1.197 -1.205,2.333 -1.936,3.385 z m 2.173,-3.898 c -0.401,-0.273 -0.829,-0.425 -1.267,-0.535 -0.43,-0.085 -0.869,-0.129 -1.332,-0.064 0.366,-1.165 0.605,-2.367 0.655,-3.573 1.071,0.259 2.136,0.537 3.197,0.829 -0.367,1.141 -0.773,2.266 -1.253,3.343 z m -54.041,-2.128 c -0.502,2.28 -0.574,4.847 1.708,4.701 3.642,-0.233 0.777,-5.656 -0.294,-7.482 1.112,1.768 4.495,6.648 6.403,3.868 2.485,-3.618 -6.77,-4.474 -6.77,-4.474 0,0 -8.311,3.493 -5.253,6.185 1.871,1.649 3.311,-0.572 4.206,-2.798 z"
   id="path18" />
		<path
   d="m 259.063,317.461 c -3.447,-3.428 -6.946,4.349 -8.065,7.178 1.046,-2.916 3.63,-11.32 -1.589,-10.682 -3.286,0.402 -2.498,4.028 -1.175,7.132 -1.868,-2.922 -4.509,-5.691 -6.73,-2.852 -3.631,4.64 9.124,7.384 9.124,7.384 0,0 12.935,-3.684 8.435,-8.16 z"
   id="path19" />
	</g></svg>
