<?xml version="1.0" encoding="UTF-8" standalone="no"?>
<!-- Generator: Adobe Illustrator 27.5.0, SVG Export Plug-In . SVG Version: 6.00 Build 0)  -->

<svg
   version="1.1"
   x="0px"
   y="0px"
   viewBox="0 0 800 100"
   xml:space="preserve"
   id="svg20"
   sodipodi:docname="flowers-4.svg"
   width="800"
   height="100"
   inkscape:version="1.3.2 (091e20e, 2023-11-25)"
   xmlns:inkscape="http://www.inkscape.org/namespaces/inkscape"
   xmlns:sodipodi="http://sodipodi.sourceforge.net/DTD/sodipodi-0.dtd"
   xmlns="http://www.w3.org/2000/svg"
   xmlns:svg="http://www.w3.org/2000/svg"><defs
   id="defs20">
	
	
	
	
	
	
	
	
	
	
</defs><sodipodi:namedview
   id="namedview20"
   pagecolor="#ffffff"
   bordercolor="#000000"
   borderopacity="0.25"
   inkscape:showpageshadow="2"
   inkscape:pageopacity="0.0"
   inkscape:pagecheckerboard="0"
   inkscape:deskcolor="#d1d1d1"
   showguides="true"
   inkscape:zoom="0.82998701"
   inkscape:cx="315.06517"
   inkscape:cy="-2.4096763"
   inkscape:window-width="1696"
   inkscape:window-height="901"
   inkscape:window-x="0"
   inkscape:window-y="44"
   inkscape:window-maximized="0"
   inkscape:current-layer="svg20" />
<g
   id="BACKGROUND">
</g>


<g
   id="g9"
   transform="matrix(1.6866133,0,0,1,-16.750339,-172.32491)">
		<path
   d="m 470.41,193.415 c -2.879,0.397 -5.896,5.369 -1.729,6.239 0.022,0.005 0.046,0.004 0.068,0.008 -1.246,1.13 -2.621,2.07 -4.114,2.785 -2.421,1.153 -5.04,1.887 -7.715,2.467 -2.671,0.615 -5.415,1.058 -8.155,1.69 -2.246,0.52 -4.561,1.124 -6.648,2.184 1.628,-2.098 3.078,-4.323 4.333,-6.64 0.013,-0.024 0.011,-0.051 0.01,-0.077 1.455,0.002 14.451,-0.116 12.229,-5.165 -2.466,-5.606 -11.304,3.982 -12.276,5.062 -0.005,-0.005 -0.005,-0.012 -0.011,-0.016 -0.013,-0.009 -0.028,-0.004 -0.042,-0.009 0.49,-1.629 5.906,-20.156 -1.633,-19.297 -8.662,0.987 0.678,17.809 1.527,19.305 -0.022,0.011 -0.046,0.018 -0.061,0.04 -4.367,6.443 -10.087,11.855 -16.731,15.59 0.839,-1.403 1.509,-2.914 2.036,-4.464 0.783,-2.309 1.279,-4.726 1.453,-7.166 0.131,-2.438 0.102,-4.901 -0.373,-7.297 -0.155,-1.18 -0.514,-2.323 -0.825,-3.463 1.534,-1.875 1.28,-5.55 -0.952,-6.597 -3.257,-1.527 -4.967,1.822 -4.775,4.599 0.031,0.452 0.085,0.919 0.314,1.31 0.182,0.311 0.462,0.551 0.75,0.767 1.046,0.783 2.47,1.32 3.645,0.75 0.032,-0.016 0.06,-0.039 0.092,-0.056 0.084,0.958 0.185,1.908 0.201,2.864 l 0.078,1.749 -0.005,1.747 c 0.018,0.581 -0.015,1.161 -0.04,1.741 -0.033,0.579 -0.026,1.161 -0.102,1.737 l -0.135,1.735 c -0.075,0.575 -0.167,1.148 -0.23,1.726 -0.151,1.152 -0.368,2.296 -0.594,3.441 -0.372,1.784 -0.822,3.558 -1.381,5.331 -1.244,0.665 -2.515,1.279 -3.819,1.823 -2.36,1.002 -4.783,1.822 -7.247,2.51 l 0.334,-0.421 c 0.639,-0.76 1.161,-1.6 1.661,-2.458 0.958,-1.733 1.704,-3.595 2.193,-5.512 0.481,-1.921 0.702,-3.89 0.791,-5.849 0.106,-1.965 -0.008,-3.915 -0.357,-5.875 l -0.019,-0.105 c -0.026,-0.143 -0.111,-0.275 -0.246,-0.356 -0.248,-0.149 -0.571,-0.069 -0.721,0.179 -1.016,1.689 -1.997,3.359 -2.906,5.08 -0.948,1.694 -1.919,3.429 -2.576,5.305 -0.653,1.875 -0.906,3.872 -0.934,5.846 -0.015,0.989 0.05,1.979 0.186,2.956 0.076,0.489 0.162,0.974 0.28,1.454 0.025,0.113 0.061,0.225 0.092,0.337 -4.911,1.194 -9.97,1.859 -15.053,2.183 0.252,-0.15 0.51,-0.285 0.754,-0.457 0.858,-0.632 1.668,-1.421 2.208,-2.583 0.26,-0.572 0.41,-1.347 0.166,-2.048 -0.231,-0.704 -0.755,-1.145 -1.225,-1.45 -0.455,-0.298 -1.044,-0.57 -1.65,-0.568 -0.613,-0.001 -1.146,0.266 -1.592,0.566 -0.879,0.62 -1.717,1.348 -2.336,2.208 -0.612,0.865 -0.943,1.856 -1.207,2.842 -0.118,0.499 -0.219,1.001 -0.268,1.516 -0.009,0.067 -0.008,0.137 -0.014,0.206 -5.148,0.154 -10.308,0.086 -15.478,-0.115 0.179,-0.14 0.354,-0.282 0.497,-0.42 l 0.684,-0.68 c 0.945,-0.886 1.755,-1.892 2.554,-2.913 1.538,-2.077 2.853,-4.331 3.888,-6.699 1.024,-2.374 1.773,-4.849 2.361,-7.349 0.604,-2.502 0.968,-5.036 1.06,-7.629 l 0.003,-0.083 c 0.005,-0.156 -0.059,-0.313 -0.187,-0.421 -0.224,-0.19 -0.559,-0.162 -0.749,0.061 -1.669,1.966 -3.291,3.93 -4.789,6.001 -1.546,2.03 -3.073,4.124 -4.278,6.42 -1.204,2.295 -1.992,4.791 -2.518,7.318 -0.265,1.265 -0.44,2.548 -0.534,3.833 -0.036,0.645 -0.065,1.288 -0.053,1.934 -10e-4,0.178 0.012,0.357 0.021,0.536 -2.19,-0.098 -4.381,-0.215 -6.574,-0.345 1.279,-1.082 2.394,-2.379 3.305,-3.806 1.322,-2.068 2.269,-4.419 2.671,-6.871 0.343,-2.446 0.417,-4.968 -0.182,-7.355 l -0.177,-0.898 c -0.089,-0.292 -0.179,-0.583 -0.28,-0.872 l -0.042,-0.12 c 0.284,-0.08 0.561,-0.186 0.828,-0.325 0.603,-0.314 1.127,-0.762 1.597,-1.252 2.973,-3.103 3.735,-7.775 3.27,-12.047 -0.035,-0.326 -0.08,-0.661 -0.247,-0.943 -0.39,-0.66 -1.348,-0.795 -2.042,-0.47 -0.694,0.325 -1.167,0.986 -1.539,1.656 -0.935,1.685 -1.434,3.61 -1.435,5.537 -0.007,-1.687 -0.014,-3.374 -0.021,-5.061 -0.004,-0.878 -0.016,-1.794 -0.418,-2.575 -0.402,-0.781 -1.322,-1.371 -2.156,-1.098 -1.142,0.374 -1.311,1.894 -1.271,3.095 0.057,1.725 0.115,3.45 0.173,5.176 -0.697,-0.596 -0.869,-1.583 -1.118,-2.466 -0.249,-0.883 -0.755,-1.85 -1.659,-2.009 -0.737,-0.129 -1.455,0.353 -1.917,0.941 -2.415,3.078 -0.108,7.995 2.412,10.311 1.151,1.058 2.732,1.708 4.269,1.695 l 0.035,0.239 0.141,0.854 0.053,0.863 c 0.032,0.574 0.071,1.144 0.128,1.711 l -0.038,1.706 c -0.016,0.283 0.01,0.567 -0.015,0.849 l -0.093,0.843 c -0.066,0.448 -0.079,0.905 -0.158,1.35 -0.052,-0.128 -0.095,-0.26 -0.166,-0.378 -0.421,-0.88 -1.085,-1.64 -1.843,-2.273 -0.77,-0.626 -1.691,-1.067 -2.647,-1.293 -0.098,-0.022 -0.199,-0.032 -0.298,-0.049 0.131,-0.575 0.047,-1.218 -0.376,-1.915 -1.5,-2.475 -5.269,-0.974 -5.773,1.449 -0.091,0.437 -0.179,0.904 -0.011,1.317 0.09,0.22 0.25,0.416 0.283,0.651 0.031,0.221 -0.049,0.468 0.069,0.657 0.078,0.124 0.222,0.186 0.36,0.235 1.456,0.516 3.59,-0.009 4.728,-1.15 0.145,0.087 0.297,0.172 0.438,0.262 0.701,0.443 1.357,0.892 1.975,1.397 0.605,0.517 1.23,1.026 1.816,1.63 0.374,0.346 0.733,0.721 1.12,1.105 l -0.066,0.342 c -0.159,0.541 -0.333,1.078 -0.478,1.625 -0.345,1.078 -0.78,2.126 -1.26,3.166 -0.749,1.567 -1.649,3.075 -2.703,4.52 -2.181,-0.132 -4.364,-0.273 -6.549,-0.419 0.375,-0.353 0.722,-0.73 1.049,-1.125 0.659,-0.793 1.238,-1.661 1.691,-2.63 0.432,-0.974 0.745,-2.061 0.639,-3.338 -0.057,-0.625 -0.311,-1.373 -0.87,-1.861 -0.55,-0.497 -1.223,-0.62 -1.783,-0.652 -0.543,-0.034 -1.189,0.022 -1.715,0.324 -0.533,0.303 -0.864,0.798 -1.103,1.28 -0.456,0.974 -0.824,2.022 -0.936,3.075 -0.103,1.054 0.1,2.079 0.359,3.066 0.145,0.492 0.306,0.978 0.518,1.449 0.038,0.094 0.09,0.184 0.134,0.277 -7.148,-0.48 -14.312,-0.966 -21.489,-1.182 -1.341,-0.048 -2.682,-0.077 -4.023,-0.114 0.176,-0.107 0.35,-0.211 0.539,-0.334 0.259,-0.17 0.545,-0.358 0.78,-0.543 l 0.636,-0.557 c 0.418,-0.379 0.863,-0.741 1.25,-1.155 l 1.135,-1.271 c 1.439,-1.757 2.672,-3.703 3.604,-5.775 0.932,-2.074 1.582,-4.255 2.066,-6.457 0.501,-2.204 0.758,-4.435 0.741,-6.718 l -0.001,-0.093 c -10e-4,-0.139 -0.057,-0.277 -0.167,-0.379 -0.212,-0.199 -0.546,-0.188 -0.745,0.024 -1.547,1.651 -3.048,3.3 -4.444,5.049 -1.441,1.707 -2.863,3.49 -3.98,5.48 -1.111,1.992 -1.799,4.201 -2.224,6.429 -0.214,1.116 -0.334,2.249 -0.375,3.381 -0.009,0.568 -0.01,1.133 0.029,1.699 0.012,0.282 0.045,0.565 0.078,0.846 0.011,0.114 0.03,0.228 0.049,0.342 -6.154,-0.156 -12.311,-0.176 -18.466,0.016 l 0.285,-0.159 c 0.263,-0.159 0.529,-0.318 0.78,-0.493 0.512,-0.34 1.001,-0.712 1.471,-1.109 0.943,-0.79 1.816,-1.675 2.569,-2.697 0.733,-1.031 1.364,-2.209 1.553,-3.68 0.087,-0.722 -0.02,-1.612 -0.521,-2.289 -0.49,-0.685 -1.212,-1 -1.844,-1.184 -0.615,-0.184 -1.363,-0.286 -2.037,-0.071 -0.682,0.213 -1.185,0.703 -1.573,1.208 -0.754,1.03 -1.38,2.18 -1.736,3.385 -0.171,0.603 -0.284,1.217 -0.309,1.833 -0.043,0.615 -0.056,1.228 -0.021,1.84 0.031,0.611 0.092,1.22 0.204,1.824 0.046,0.302 0.121,0.603 0.192,0.902 l 0.128,0.448 0.075,0.223 0.016,0.046 c -1.488,0.051 -2.976,0.09 -4.464,0.169 -3.194,0.175 -6.389,0.42 -9.579,0.769 1.338,-0.833 2.596,-1.784 3.799,-2.797 1.666,-1.398 3.203,-2.949 4.624,-4.609 1.381,-1.693 2.672,-3.476 3.691,-5.429 10e-4,-10e-4 10e-4,-0.002 0.002,-0.004 0.896,0.085 1.796,0.143 2.702,0.192 1.188,-0.046 2.39,-0.073 3.582,-0.204 2.375,-0.323 4.759,-0.822 7.008,-1.766 2.238,-0.936 4.396,-2.152 6.208,-3.801 1.44,-1.313 2.73,-2.865 3.533,-4.625 0.497,0.148 1.097,0.126 1.793,-0.171 3.284,-1.399 1.871,-6.259 -1.585,-4.796 -2.258,0.955 -2.186,3.873 -0.635,4.782 -1.219,1.388 -2.614,2.554 -4.074,3.593 -1.868,1.286 -3.887,2.325 -5.991,3.166 l -1.583,0.63 -1.633,0.514 c -1.069,0.416 -2.215,0.579 -3.315,0.938 l -3.401,0.763 c -0.817,0.147 -1.638,0.304 -2.463,0.481 0.879,-1.761 1.561,-3.636 1.842,-5.574 0.031,0.009 0.059,0.024 0.09,0.032 1.674,0.42 3.405,-0.355 4.882,-1.248 1.744,-1.055 3.37,-2.306 4.837,-3.721 1.057,-1.019 2.096,-2.298 1.998,-3.762 -0.954,-0.445 -2.05,0.127 -2.945,0.682 -1.493,0.927 -2.987,1.854 -4.48,2.781 0.891,-2.435 2.788,-4.357 4.018,-6.64 0.763,-1.416 1.262,-2.956 1.757,-4.487 0.238,-0.737 0.402,-1.71 -0.241,-2.141 -0.563,-0.376 -1.321,-0.022 -1.855,0.394 -2.675,2.082 -3.85,5.507 -4.891,8.733 -0.032,-0.657 -0.064,-1.313 -0.096,-1.97 -0.069,-1.422 -0.215,-3.01 -1.29,-3.943 -1.128,-0.979 -3.291,-0.724 -3.997,0.639 -0.672,1.297 -0.553,3.651 -0.809,5.077 -0.328,1.834 -0.657,3.719 -0.29,5.546 0.353,1.755 1.507,3.454 3.2,3.987 -1.005,1.8 -2.067,3.475 -3.207,5.105 -0.648,0.833 -1.222,1.706 -1.905,2.51 -0.624,0.842 -1.314,1.641 -1.986,2.449 -1.339,1.626 -2.767,3.185 -4.175,4.778 -1.189,1.316 -2.382,2.644 -3.572,4.004 -1.307,0.151 -2.612,0.318 -3.916,0.513 -2.473,0.376 -4.938,0.842 -7.384,1.406 0.093,-0.065 0.191,-0.129 0.271,-0.193 l 0.733,-0.607 c 1.009,-0.788 1.895,-1.705 2.771,-2.64 1.696,-1.91 3.186,-4.015 4.404,-6.258 1.209,-2.25 2.153,-4.625 2.937,-7.037 0.801,-2.413 1.365,-4.879 1.663,-7.425 l 0.01,-0.084 c 0.017,-0.154 -0.033,-0.313 -0.15,-0.432 -0.206,-0.209 -0.542,-0.212 -0.751,-0.006 -1.814,1.788 -3.583,3.578 -5.238,5.484 -1.699,1.861 -3.385,3.789 -4.768,5.946 -1.382,2.156 -2.366,4.549 -3.091,6.994 -0.364,1.223 -0.641,2.473 -0.837,3.731 -0.087,0.632 -0.167,1.263 -0.206,1.9 -0.027,0.316 -0.034,0.636 -0.039,0.955 -0.003,0.081 0.001,0.162 0.001,0.243 -1.492,0.386 -2.978,0.799 -4.449,1.271 -1.048,0.34 -2.086,0.715 -3.118,1.107 0.199,-0.318 0.409,-0.63 0.587,-0.961 0.586,-1.081 1.073,-2.225 1.397,-3.453 0.303,-1.228 0.456,-2.556 0.092,-3.993 -0.184,-0.704 -0.611,-1.492 -1.326,-1.937 -0.707,-0.457 -1.495,-0.485 -2.15,-0.423 -0.64,0.055 -1.373,0.235 -1.921,0.683 -0.556,0.449 -0.843,1.09 -1.018,1.702 -0.323,1.235 -0.482,2.535 -0.371,3.786 0.063,0.624 0.183,1.236 0.387,1.818 0.186,0.588 0.399,1.163 0.656,1.719 0.253,0.557 0.534,1.101 0.86,1.622 0.092,0.158 0.2,0.307 0.305,0.459 -5.516,2.348 -10.728,5.422 -15.454,9.11 0.061,-0.13 0.125,-0.258 0.187,-0.387 0.287,-0.637 0.629,-1.26 0.872,-1.917 0.245,-0.656 0.498,-1.314 0.725,-1.981 0.844,-2.681 1.403,-5.463 1.629,-8.264 0.216,-2.803 0.12,-5.615 -0.154,-8.396 -0.26,-2.788 -0.773,-5.527 -1.585,-8.228 l -0.022,-0.074 c -0.046,-0.148 -0.155,-0.276 -0.31,-0.338 -0.273,-0.11 -0.583,0.022 -0.693,0.294 -1.051,2.6 -2.051,5.189 -2.865,7.85 -0.459,1.316 -0.835,2.656 -1.232,4.003 -0.214,0.671 -0.322,1.363 -0.486,2.047 -0.152,0.686 -0.317,1.374 -0.396,2.073 -0.423,2.787 -0.358,5.633 -0.014,8.42 0.171,1.395 0.44,2.778 0.79,4.136 0.188,0.677 0.381,1.35 0.619,2.011 0.099,0.298 0.217,0.591 0.336,0.884 -0.456,0.393 -0.922,0.774 -1.367,1.179 -3.593,3.263 -6.876,6.862 -9.717,10.768 -0.745,0.949 -1.395,1.969 -2.077,2.962 -0.691,0.987 -1.319,2.015 -1.935,3.049 -1.29,2.03 -2.395,4.168 -3.505,6.29 -0.033,0.068 -0.012,0.156 0.053,0.197 0.07,0.044 0.163,0.022 0.207,-0.048 4.563,-6.928 9.7,-13.453 15.713,-19.009 0.174,0.187 0.348,0.375 0.532,0.549 0.438,0.432 0.903,0.833 1.387,1.212 0.967,0.761 2.012,1.433 3.167,1.961 1.159,0.506 2.442,0.881 3.92,0.765 0.725,-0.063 1.573,-0.35 2.133,-0.98 0.569,-0.62 0.73,-1.391 0.78,-2.048 0.054,-0.64 0,-1.393 -0.349,-2.008 -0.349,-0.624 -0.931,-1.015 -1.505,-1.291 -1.163,-0.527 -2.417,-0.903 -3.669,-1.005 -0.625,-0.044 -1.25,-0.028 -1.858,0.074 -0.608,0.083 -1.209,0.196 -1.798,0.355 0.017,-0.014 0.034,-0.03 0.051,-0.045 1.668,-1.403 3.398,-2.728 5.174,-3.985 1.6,0.193 3.158,0.488 4.681,0.883 2.118,0.572 4.187,1.282 6.107,2.299 0.503,0.208 0.962,0.5 1.436,0.766 0.47,0.273 0.954,0.523 1.393,0.846 l 1.365,0.904 1.3,1.007 c 0.901,0.641 1.671,1.436 2.526,2.163 0.591,0.527 1.145,1.1 1.72,1.664 -0.699,1.135 -0.947,2.561 -0.393,3.879 0.242,0.577 0.698,1.033 1.142,1.474 0.215,0.214 0.436,0.431 0.705,0.569 0.342,0.176 0.739,0.212 1.124,0.204 3.896,-0.089 6.588,-5.157 2.888,-7.646 -1.93,-1.298 -4.079,-0.417 -5.261,1.22 -0.363,-0.684 -0.742,-1.363 -1.181,-2.005 -0.707,-0.908 -1.36,-1.891 -2.223,-2.679 -1.584,-1.729 -3.571,-3.055 -5.647,-4.153 -2.103,-1.064 -4.391,-1.753 -6.712,-2.038 -1.299,-0.164 -2.616,-0.195 -3.915,-0.085 1.644,-1.123 3.326,-2.188 5.053,-3.177 2.159,1.106 4.33,2.156 6.573,3.054 2.676,1.175 5.459,2.181 8.35,2.844 2.896,0.639 5.896,0.73 8.84,0.509 1.475,-0.109 2.94,-0.335 4.38,-0.647 0.718,-0.174 1.433,-0.35 2.135,-0.579 0.352,-0.104 0.699,-0.232 1.044,-0.361 0.173,-0.061 0.344,-0.13 0.513,-0.205 l 0.254,-0.109 c 0.055,-0.016 0.259,-0.117 0.32,-0.195 -0.519,-0.388 -1.061,-0.874 -1.691,-1.378 -0.31,-0.244 -0.643,-0.514 -0.961,-0.727 -0.309,-0.196 -0.63,-0.374 -0.946,-0.561 -0.639,-0.36 -1.263,-0.765 -1.923,-1.092 -0.667,-0.311 -1.334,-0.63 -2.013,-0.925 -2.735,-1.109 -5.611,-1.925 -8.537,-2.332 -2.927,-0.413 -5.886,-0.477 -8.819,-0.325 -0.653,0.031 -1.304,0.081 -1.953,0.14 2.443,-1.161 4.935,-2.223 7.48,-3.163 3.412,-1.285 6.914,-2.357 10.475,-3.238 l 0.089,0.283 c 0.102,0.29 0.204,0.582 0.323,0.864 0.229,0.571 0.493,1.125 0.786,1.666 0.581,1.084 1.27,2.119 2.118,3.064 0.86,0.927 1.885,1.785 3.286,2.27 0.689,0.232 1.582,0.309 2.347,-0.044 0.77,-0.34 1.226,-0.983 1.535,-1.564 0.305,-0.565 0.558,-1.276 0.484,-1.98 -0.07,-0.711 -0.447,-1.303 -0.863,-1.786 -0.854,-0.948 -1.853,-1.795 -2.961,-2.389 -0.556,-0.29 -1.134,-0.526 -1.732,-0.676 -0.593,-0.168 -1.191,-0.305 -1.797,-0.396 -0.138,-0.022 -0.277,-0.035 -0.416,-0.053 2.988,-0.644 6.012,-1.141 9.055,-1.518 1.452,1.751 2.913,3.454 4.496,5.059 1.573,1.693 3.253,3.347 5.175,4.72 1.927,1.365 4.137,2.296 6.391,2.952 1.129,0.329 2.287,0.557 3.449,0.702 0.585,0.059 1.167,0.111 1.754,0.118 0.292,0.012 0.586,0.002 0.878,-0.009 0.146,-0.003 0.292,-0.012 0.439,-0.028 l 0.219,-0.02 c 0.04,0.002 0.242,-0.024 0.308,-0.075 -0.233,-0.44 -0.453,-0.974 -0.74,-1.558 -0.141,-0.287 -0.295,-0.591 -0.456,-0.868 l -0.494,-0.72 c -0.337,-0.476 -0.659,-0.971 -1.029,-1.427 l -1.171,-1.316 c -1.631,-1.688 -3.488,-3.189 -5.524,-4.363 -2.033,-1.184 -4.213,-2.079 -6.434,-2.79 -1.005,-0.329 -2.022,-0.597 -3.051,-0.818 0.259,-0.021 0.517,-0.052 0.776,-0.072 6.219,-0.476 12.461,-0.436 18.693,-0.115 1.411,1.29 2.759,2.599 4.064,3.939 1.001,1.055 1.98,2.122 2.937,3.208 -0.07,0.295 -0.135,0.589 -0.204,0.882 -0.161,0.659 -0.282,1.315 -0.419,1.964 l -0.8,3.855 c -0.283,1.271 -0.555,2.541 -0.88,3.812 -0.211,0.798 -0.429,1.604 -0.661,2.418 -1.539,-0.832 -3.522,-0.664 -4.11,1.405 -0.121,0.426 -0.134,0.875 -0.143,1.318 -0.01,0.499 -0.012,1.018 0.197,1.471 0.151,0.327 0.403,0.597 0.679,0.827 2.1,1.748 5.872,0.399 5.273,-2.627 -0.156,-0.787 -0.645,-1.47 -1.278,-1.976 0.593,-0.697 1.084,-1.479 1.496,-2.285 0.63,-1.251 1.083,-2.583 1.381,-3.942 0.298,-1.36 0.417,-2.751 0.399,-4.135 -0.009,-0.702 -0.061,-1.403 -0.164,-2.099 0.202,0.239 0.417,0.468 0.614,0.711 0.693,0.822 1.377,1.654 2.024,2.515 l 0.994,1.278 c 0.317,0.436 0.627,0.879 0.956,1.31 0.797,1.068 1.559,2.168 2.329,3.274 -1.346,0.866 -2.245,2.25 -2.196,4.307 0.035,1.467 0.556,2.873 1.071,4.247 0.482,1.286 0.97,2.585 1.742,3.721 0.446,0.657 1.029,1.281 1.796,1.483 0.768,0.202 1.727,-0.185 1.907,-0.958 0.092,-0.398 -0.028,-0.81 -0.148,-1.201 l -1.249,-4.081 c 1.351,2.465 3.575,4.441 6.183,5.492 0.532,0.214 1.103,0.394 1.671,0.315 0.568,-0.079 1.126,-0.484 1.212,-1.051 0.08,-0.535 -0.258,-1.034 -0.594,-1.458 -1.489,-1.878 -3.27,-3.524 -5.26,-4.861 1.947,0.636 4.003,0.938 6.05,0.887 1.039,-0.026 2.339,-0.375 2.488,-1.404 0.073,-0.506 -0.182,-0.997 -0.458,-1.427 -1.473,-2.293 -3.807,-4.018 -6.431,-4.753 -2.197,-0.616 -5.015,-0.62 -7.098,0.364 -0.473,-1.281 -1.03,-2.533 -1.694,-3.727 -1.03,-1.99 -2.357,-3.808 -3.761,-5.553 -1.444,-1.714 -3.049,-3.296 -4.811,-4.68 -1.32,-1.038 -2.724,-1.992 -4.233,-2.735 3.009,0.168 6.016,0.393 9.016,0.664 0.675,0.063 1.349,0.134 2.024,0.2 l -0.029,0.088 c -0.072,0.249 -0.145,0.499 -0.198,0.75 -0.119,0.503 -0.201,1.011 -0.256,1.524 -0.113,1.025 -0.117,2.068 0.039,3.126 0.176,1.051 0.514,2.13 1.307,3.137 0.392,0.49 1.017,0.974 1.752,1.073 0.733,0.111 1.363,-0.157 1.847,-0.439 0.472,-0.271 0.98,-0.674 1.252,-1.216 0.278,-0.547 0.28,-1.142 0.215,-1.676 -0.156,-1.064 -0.427,-2.141 -0.915,-3.081 -0.495,-0.936 -1.23,-1.679 -1.99,-2.36 -0.302,-0.255 -0.615,-0.495 -0.94,-0.72 3.284,0.327 6.567,0.666 9.852,1.008 0.708,1.902 1.445,3.771 2.301,5.596 0.918,2.121 1.949,4.241 3.302,6.177 1.362,1.93 3.134,3.545 5.039,4.916 0.954,0.687 1.97,1.288 3.017,1.813 0.532,0.251 1.063,0.495 1.614,0.697 0.271,0.109 0.551,0.197 0.831,0.285 0.138,0.046 0.279,0.086 0.423,0.12 l 0.213,0.054 c 0.037,0.015 0.236,0.058 0.316,0.032 -0.072,-0.493 -0.102,-1.07 -0.177,-1.716 -0.037,-0.317 -0.081,-0.656 -0.14,-0.97 l -0.225,-0.844 c -0.159,-0.561 -0.297,-1.136 -0.493,-1.688 l -0.664,-1.631 c -0.974,-2.135 -2.223,-4.17 -3.751,-5.956 -1.521,-1.795 -3.278,-3.366 -5.134,-4.777 -0.793,-0.611 -1.616,-1.172 -2.462,-1.698 3.519,0.359 7.04,0.708 10.572,1.006 3.891,0.331 7.795,0.634 11.711,0.848 0.002,0.136 0,0.272 0.01,0.407 0.026,0.516 0.09,1.027 0.18,1.535 0.178,1.016 0.465,2.019 0.911,2.99 0.463,0.96 1.089,1.901 2.132,2.647 0.514,0.361 1.248,0.651 1.982,0.541 0.735,-0.098 1.265,-0.531 1.651,-0.937 0.377,-0.392 0.753,-0.921 0.862,-1.517 0.114,-0.602 -0.05,-1.175 -0.262,-1.669 -0.448,-0.978 -1.009,-1.937 -1.739,-2.703 -0.429,-0.442 -0.919,-0.793 -1.434,-1.101 4.267,0.149 8.545,0.167 12.835,-0.054 0.653,-0.04 1.306,-0.094 1.96,-0.142 l 1.253,1.736 c 0.407,0.484 0.792,0.984 1.182,1.48 0.391,0.495 0.752,1.014 1.196,1.465 1.607,1.945 3.35,3.835 5.408,5.413 2.104,1.503 4.529,2.56 7.04,3.161 0.621,0.179 1.264,0.264 1.902,0.356 0.632,0.12 1.284,0.122 1.922,0.168 0.644,0.007 1.284,0.009 1.924,-0.056 0.319,-0.021 0.637,-0.065 0.953,-0.117 0.158,-0.023 0.315,-0.05 0.472,-0.088 0.15,-0.049 0.304,-0.032 0.544,-0.165 l -0.709,-1.715 c -0.258,-0.628 -0.557,-1.302 -0.901,-1.796 l -1.014,-1.619 c -0.352,-0.532 -0.779,-1.008 -1.181,-1.507 -0.771,-1.033 -1.76,-1.859 -2.685,-2.757 -1.007,-0.796 -2.023,-1.597 -3.135,-2.247 -1.862,-1.134 -3.877,-1.98 -5.944,-2.619 1.423,-0.221 2.843,-0.469 4.254,-0.779 0.115,-0.025 0.229,-0.053 0.345,-0.079 1.717,0.614 3.397,1.284 5.064,1.999 l 7.691,3.4 c 2.608,1.08 5.281,2.139 8.127,2.715 1.715,0.36 3.533,0.522 5.291,0.34 0.564,0.825 1.379,1.506 2.276,1.961 1.534,0.779 3.275,1.025 4.98,1.261 2.907,0.401 5.953,0.789 8.706,-0.227 0.461,-1.026 -0.616,-2.14 -1.708,-2.41 -1.092,-0.27 -2.275,-0.087 -3.333,-0.469 2.482,0.001 4.963,0.001 7.445,0.002 0.85,0 1.722,-0.003 2.517,-0.304 0.792,-0.299 1.468,-0.894 1.865,-1.641 0.168,-0.316 0.267,-0.756 -0.001,-0.994 -0.163,-0.145 -0.403,-0.154 -0.622,-0.156 -3.89,-0.024 -7.781,-0.048 -11.671,-0.072 2.032,-0.785 3.888,-2.022 5.395,-3.594 0.546,-0.57 1.081,-1.305 0.92,-2.078 -0.726,-3.489 -9.184,-0.255 -10.944,0.291 -1.598,0.496 -3.212,1.074 -4.509,2.13 -1.297,1.056 -2.24,2.684 -2.068,4.348 0.039,0.382 0.143,0.747 0.286,1.096 -1.512,-0.182 -2.988,-0.539 -4.437,-0.994 -2.609,-0.842 -5.16,-1.938 -7.737,-3.044 -2.589,-1.076 -5.204,-2.183 -7.934,-3.019 -1.231,-0.383 -2.488,-0.717 -3.759,-0.972 3.363,-0.834 6.674,-1.918 9.855,-3.314 0.078,0.181 0.154,0.363 0.244,0.536 0.226,0.465 0.484,0.911 0.766,1.342 0.561,0.865 1.217,1.676 2.008,2.396 0.801,0.702 1.746,1.324 2.997,1.602 0.614,0.132 1.403,0.111 2.035,-0.277 0.638,-0.377 0.956,-0.984 1.153,-1.508 0.194,-0.509 0.332,-1.142 0.201,-1.734 -0.131,-0.599 -0.506,-1.062 -0.894,-1.434 -0.794,-0.725 -1.686,-1.388 -2.658,-1.808 -0.912,-0.385 -1.879,-0.504 -2.834,-0.555 2.733,-1.41 5.306,-3.119 7.689,-5.047 2.314,0.312 4.607,0.587 6.919,0.736 2.424,0.226 4.895,0.35 7.368,0.138 0.612,-0.086 1.23,-0.151 1.839,-0.263 0.605,-0.131 1.209,-0.275 1.806,-0.439 1.191,-0.339 2.369,-0.734 3.499,-1.241 1.139,-0.482 2.232,-1.072 3.278,-1.724 0.518,-0.339 1.029,-0.681 1.514,-1.065 0.246,-0.185 0.482,-0.384 0.714,-0.588 0.117,-0.1 0.232,-0.203 0.342,-0.312 0.095,-0.12 0.238,-0.168 0.366,-0.426 -0.5,-0.168 -1.053,-0.416 -1.69,-0.657 -0.315,-0.119 -0.646,-0.237 -0.974,-0.341 l -0.896,-0.204 c -0.599,-0.131 -1.202,-0.275 -1.81,-0.377 l -1.839,-0.202 c -2.46,-0.193 -4.96,-0.087 -7.391,0.355 -2.434,0.435 -4.797,1.181 -7.075,2.096 -0.646,0.255 -1.279,0.534 -1.905,0.827 1.048,-1.074 2.038,-2.197 2.97,-3.365 2.42,-0.596 4.853,-0.859 7.314,-1.166 2.761,-0.313 5.547,-0.674 8.326,-1.271 2.76,-0.635 5.554,-1.504 8.035,-3.053 1.694,-1.028 3.191,-2.427 4.279,-4.059 0.862,0.008 1.724,-0.202 2.434,-0.684 2.741,-1.844 1.833,-6.126 -1.683,-5.641 z m -192.349,35.588 c -0.113,-0.589 -0.247,-1.164 -0.384,-1.735 -0.28,-1.141 -0.53,-2.266 -0.876,-3.355 -0.339,-1.078 -0.805,-2.206 -0.634,-3.318 0.084,-0.542 0.36,-1.039 0.784,-1.295 0.426,-0.27 0.956,-0.253 1.494,-0.141 0.526,0.1 0.962,0.33 1.21,0.606 0.247,0.275 0.39,0.619 0.454,1.074 0.118,0.914 -0.109,2.012 -0.328,3.096 -0.217,1.098 -0.501,2.22 -0.783,3.361 l -0.428,1.728 -0.087,0.369 c -0.108,0.044 -0.216,0.09 -0.324,0.135 z m -16.379,-15.174 c 0.234,-0.645 0.58,-1.241 0.902,-1.846 l 0.16,-0.299 c 0.201,1.627 0.344,3.268 0.456,4.906 -0.361,0.007 -0.682,0.008 -1.007,-0.011 -0.267,-0.004 -0.522,-0.042 -0.827,-0.076 -0.205,-0.026 -0.437,-0.045 -0.68,-0.045 0.292,-0.891 0.641,-1.762 0.996,-2.629 z m -1.356,3.879 c 0.075,-0.315 0.163,-0.626 0.257,-0.934 0.149,0.172 0.309,0.327 0.503,0.454 0.296,0.203 0.677,0.322 1.056,0.349 0.38,0.017 0.771,-0.065 1.107,-0.239 0.017,0.274 0.037,0.549 0.054,0.823 0.04,0.833 0.055,1.666 0.061,2.498 -0.12,0.037 -0.241,0.078 -0.361,0.107 -0.393,0.088 -0.79,0.154 -1.199,0.191 -0.415,0.052 -0.816,0.09 -1.161,0.059 -0.249,-0.001 -0.569,-0.18 -0.936,-0.264 0.15,-1.025 0.336,-2.044 0.619,-3.044 z m -1.08,8.105 c 0.083,-1.568 0.196,-3.155 0.41,-4.73 0.184,0.249 0.38,0.496 0.743,0.671 0.517,0.247 1.039,0.231 1.513,0.195 0.483,-0.062 0.975,-0.193 1.405,-0.47 0.016,-0.01 0.03,-0.023 0.045,-0.033 -0.008,1.61 -0.064,3.216 -0.154,4.817 -0.001,0.018 -0.003,0.035 -0.004,0.053 -0.141,0.065 -0.286,0.123 -0.437,0.174 -0.499,0.152 -1.003,0.236 -1.515,0.229 -0.511,0.006 -1.021,-0.079 -1.53,-0.221 -0.167,-0.054 -0.335,-0.125 -0.503,-0.192 0.01,-0.164 0.017,-0.328 0.027,-0.493 z m -0.067,1.235 c 0.073,0.053 0.142,0.111 0.22,0.158 0.551,0.337 1.2,0.501 1.852,0.514 0.651,-0.008 1.31,-0.173 1.859,-0.527 0.013,-0.008 0.023,-0.019 0.036,-0.027 -0.111,1.647 -0.31,3.282 -0.574,4.91 -0.118,0.009 -0.235,0.013 -0.352,0.014 -0.431,-0.008 -0.87,-0.054 -1.34,-0.11 -0.467,-0.045 -0.991,-0.064 -1.421,-0.061 -0.131,-0.007 -0.261,-0.018 -0.389,-0.036 -0.019,-1.613 0.026,-3.224 0.109,-4.835 z m -0.055,6.888 c -0.019,-0.45 -0.026,-0.9 -0.036,-1.35 0.073,0.033 0.145,0.073 0.217,0.095 0.528,0.174 0.976,0.223 1.475,0.293 0.496,0.041 1.039,0.055 1.57,-0.115 0.032,-0.01 0.063,-0.027 0.095,-0.038 -0.084,0.484 -0.167,0.969 -0.259,1.452 -0.145,0.582 -0.269,1.173 -0.398,1.764 -0.42,0.061 -0.787,0.098 -1.161,0.101 -0.285,0.014 -0.591,-0.011 -0.928,-0.004 -0.14,-0.003 -0.292,0.008 -0.44,0.018 -0.057,-0.738 -0.106,-1.477 -0.135,-2.216 z m 0.543,6.112 c -0.107,-0.677 -0.16,-1.363 -0.252,-2.038 -0.038,-0.414 -0.07,-0.826 -0.105,-1.238 0.073,0.04 0.143,0.089 0.22,0.122 0.331,0.155 0.708,0.239 1.11,0.244 0.319,-0.006 0.631,-0.097 0.919,-0.232 -0.127,0.432 -0.266,0.86 -0.39,1.295 -0.098,0.326 -0.205,0.648 -0.294,0.98 -0.087,0.302 -0.187,0.538 -0.274,0.813 -0.285,0.234 -0.557,0.484 -0.838,0.723 -0.033,-0.223 -0.067,-0.445 -0.096,-0.669 z m -1.762,5.64 c 0.599,-0.012 1.189,-0.047 1.775,-0.086 1.172,-0.083 2.323,-0.14 3.455,-0.296 1.119,-0.152 2.311,-0.42 3.377,-0.065 0.52,0.174 0.963,0.531 1.144,0.992 0.194,0.465 0.088,0.985 -0.113,1.496 -0.187,0.502 -0.488,0.893 -0.801,1.09 -0.313,0.198 -0.676,0.28 -1.135,0.266 -0.921,-0.038 -1.964,-0.447 -2.997,-0.846 -1.045,-0.4 -2.103,-0.869 -3.18,-1.339 l -1.631,-0.713 -0.522,-0.221 c 0.102,-0.092 0.208,-0.18 0.31,-0.272 z m 39.699,-5.167 c 0.174,-0.376 0.275,-0.796 0.3,-1.242 0.01,-0.405 -0.076,-0.816 -0.237,-1.189 0.486,0.19 0.966,0.396 1.454,0.589 0.331,0.134 0.658,0.277 0.996,0.402 l 0.884,0.408 c 0.594,0.265 1.275,0.547 1.981,0.927 -0.112,-0.025 -0.08,-0.067 -0.2,-0.035 l -0.269,0.041 -0.538,0.074 c -0.357,0.054 -0.716,0.095 -1.075,0.133 -0.713,0.098 -1.435,0.132 -2.145,0.21 -0.454,0.027 -0.906,0.048 -1.359,0.07 0.073,-0.126 0.15,-0.251 0.208,-0.388 z m -4.392,-0.002 c 0.195,-0.583 0.271,-1.101 0.366,-1.667 0.066,-0.563 0.104,-1.169 -0.04,-1.772 -0.021,-0.093 -0.054,-0.185 -0.084,-0.278 0.554,0.143 1.108,0.288 1.659,0.442 0.569,0.194 1.148,0.369 1.727,0.548 0.054,0.52 0.081,0.983 0.065,1.456 -10e-4,0.343 -0.043,0.701 -0.056,1.089 -0.012,0.192 -0.011,0.396 -0.007,0.598 0,0.001 0,0.002 0,0.003 -0.791,0.033 -1.582,0.057 -2.372,0.053 -0.484,-0.001 -0.967,-0.016 -1.45,-0.028 0.081,-0.146 0.147,-0.299 0.192,-0.444 z m -5.523,-4.586 c -0.049,-0.102 -0.115,-0.198 -0.177,-0.296 1.768,0.221 3.513,0.564 5.241,0.989 0.01,0.18 0.013,0.359 0.008,0.537 -0.026,0.507 -0.095,1.019 -0.175,1.557 -0.069,0.535 -0.115,1.125 -0.135,1.634 -0.019,0.202 -0.043,0.402 -0.086,0.597 -1.723,-0.063 -3.44,-0.206 -5.152,-0.408 0.117,-0.146 0.224,-0.3 0.319,-0.462 0.366,-0.619 0.55,-1.332 0.593,-2.051 0.019,-0.719 -0.107,-1.451 -0.436,-2.097 z m -5.54,1.046 c -0.039,-0.545 -0.145,-1.1 -0.401,-1.608 -0.048,-0.099 -0.106,-0.194 -0.166,-0.288 1.724,0.092 3.442,0.247 5.149,0.452 0.095,0.215 0.169,0.441 0.228,0.676 0.137,0.588 0.197,1.183 0.168,1.779 -0.019,0.597 -0.128,1.188 -0.303,1.772 -0.079,0.234 -0.173,0.469 -0.277,0.702 -0.193,-0.025 -0.387,-0.044 -0.58,-0.07 -0.712,-0.053 -1.414,-0.173 -2.121,-0.283 -0.703,-0.123 -1.424,-0.188 -2.116,-0.371 l -0.67,-0.153 c 0.304,-0.245 0.62,-0.486 0.827,-0.932 0.265,-0.566 0.275,-1.14 0.262,-1.676 z m -4.828,-1.966 c 0.34,-0.008 0.682,-0.018 1.021,-0.023 0.846,-0.003 1.691,0.021 2.535,0.056 0.051,0.193 0.097,0.384 0.131,0.576 0.074,0.465 0.125,0.934 0.143,1.412 0.033,0.483 0.053,0.958 -0.001,1.375 -0.02,0.316 -0.239,0.689 -0.345,1.119 l -1.177,-0.269 c -0.698,-0.177 -1.369,-0.44 -2.05,-0.673 -0.312,-0.101 -0.618,-0.218 -0.922,-0.34 0.21,-0.19 0.397,-0.391 0.549,-0.632 0.223,-0.339 0.356,-0.758 0.401,-1.177 0.039,-0.489 -0.063,-0.99 -0.285,-1.424 z m -0.656,0.015 c -0.005,0.472 -0.013,0.893 -0.055,1.321 -0.018,0.321 -0.074,0.628 -0.128,0.978 -0.042,0.248 -0.077,0.522 -0.09,0.809 -0.937,-0.396 -1.842,-0.866 -2.748,-1.327 -0.655,-0.301 -1.24,-0.733 -1.844,-1.123 l -0.101,-0.067 c 0.217,-0.12 0.438,-0.234 0.657,-0.352 1.432,-0.116 2.871,-0.199 4.309,-0.239 z m 49.577,0.592 c 0.111,-0.264 0.163,-0.555 0.178,-0.846 0.25,0.246 0.499,0.491 0.757,0.735 l 0.61,0.586 0.512,0.542 c 0.332,0.337 0.723,0.725 1.107,1.186 -0.01,-0.004 -0.023,-0.007 -0.045,-0.01 l -0.21,-0.049 -0.417,-0.103 c -0.278,-0.064 -0.553,-0.139 -0.827,-0.216 -0.551,-0.133 -1.09,-0.321 -1.632,-0.467 -0.294,-0.097 -0.583,-0.197 -0.875,-0.296 0.071,-0.056 0.146,-0.107 0.21,-0.171 0.259,-0.241 0.471,-0.545 0.632,-0.891 z m -2.518,-3.002 c 0.004,-0.025 0.003,-0.052 0.006,-0.078 0.323,0.242 0.647,0.484 0.966,0.732 l 1.055,0.883 c -0.145,0.386 -0.277,0.726 -0.427,1.069 l -0.359,0.852 c -0.053,0.129 -0.097,0.27 -0.14,0.413 -0.58,-0.202 -1.155,-0.41 -1.723,-0.639 -0.303,-0.121 -0.593,-0.267 -0.892,-0.394 0.073,-0.069 0.141,-0.139 0.197,-0.209 0.339,-0.4 0.561,-0.783 0.809,-1.204 0.224,-0.428 0.438,-0.899 0.508,-1.425 z m -3.914,-2.562 c -0.002,-0.035 -0.012,-0.07 -0.015,-0.105 1.15,0.641 2.249,1.361 3.314,2.133 -0.045,0.105 -0.087,0.214 -0.135,0.317 -0.194,0.384 -0.407,0.763 -0.636,1.164 -0.215,0.403 -0.431,0.858 -0.587,1.264 -0.055,0.119 -0.109,0.237 -0.165,0.352 -1.179,-0.52 -2.337,-1.082 -3.472,-1.69 0.095,-0.063 0.191,-0.127 0.279,-0.199 0.477,-0.383 0.834,-0.893 1.092,-1.445 0.238,-0.562 0.375,-1.176 0.325,-1.791 z m -4.184,-2.258 c 1.18,0.55 2.337,1.141 3.473,1.763 -0.015,0.152 -0.038,0.304 -0.067,0.458 -0.104,0.494 -0.252,0.97 -0.458,1.424 -0.196,0.459 -0.45,0.893 -0.74,1.312 -0.104,0.138 -0.219,0.277 -0.333,0.414 -0.136,-0.075 -0.276,-0.139 -0.412,-0.215 -1.083,-0.607 -2.189,-1.227 -3.245,-1.925 0.293,-0.089 0.586,-0.193 0.863,-0.463 0.387,-0.37 0.579,-0.818 0.74,-1.244 0.142,-0.442 0.236,-0.914 0.197,-1.4 -0.004,-0.041 -0.014,-0.083 -0.018,-0.124 z m -3.33,-0.203 c 0.16,-0.335 0.246,-0.715 0.234,-1.089 0.217,0.079 0.436,0.157 0.652,0.238 0.598,0.232 1.186,0.484 1.77,0.744 -0.028,0.124 -0.055,0.249 -0.087,0.371 -0.111,0.382 -0.226,0.761 -0.365,1.14 -0.125,0.39 -0.254,0.766 -0.404,1.085 -0.087,0.229 -0.333,0.459 -0.522,0.759 -0.732,-0.5 -1.442,-1.033 -2.081,-1.656 -0.171,-0.146 -0.332,-0.303 -0.492,-0.461 0.216,-0.079 0.42,-0.175 0.606,-0.311 0.286,-0.203 0.522,-0.499 0.689,-0.82 z m -0.896,-0.442 c -0.111,0.248 -0.241,0.474 -0.375,0.745 -0.09,0.175 -0.181,0.375 -0.259,0.59 -0.552,-0.576 -1.053,-1.201 -1.559,-1.816 -0.378,-0.423 -0.651,-0.93 -0.96,-1.404 l -0.143,-0.227 c 1.256,0.36 2.505,0.774 3.738,1.215 -0.158,0.317 -0.295,0.606 -0.442,0.897 z m -11.979,-22.767 c 0.43,-0.448 0.938,-0.814 1.428,-1.194 l 0.111,-0.086 c -0.422,1.356 -0.891,2.703 -1.378,4.039 -0.268,-0.123 -0.506,-0.234 -0.743,-0.356 -0.216,-0.098 -0.409,-0.217 -0.653,-0.349 -0.151,-0.085 -0.326,-0.174 -0.515,-0.253 0.559,-0.624 1.145,-1.223 1.75,-1.801 z m -2.542,2.718 c 0.165,-0.218 0.357,-0.413 0.535,-0.62 0.053,0.177 0.122,0.346 0.222,0.506 0.168,0.284 0.444,0.527 0.753,0.692 0.284,0.14 0.606,0.207 0.922,0.199 -0.079,0.213 -0.156,0.427 -0.235,0.639 -0.272,0.702 -0.565,1.395 -0.865,2.083 -0.084,-0.013 -0.171,-0.023 -0.254,-0.039 -0.353,-0.079 -0.701,-0.17 -1.05,-0.288 -0.361,-0.106 -0.703,-0.219 -0.975,-0.358 -0.194,-0.077 -0.393,-0.324 -0.66,-0.519 0.49,-0.797 1.008,-1.574 1.607,-2.295 z m -3.815,6.346 c 0.633,-1.245 1.279,-2.507 2.005,-3.723 0.052,0.252 0.127,0.506 0.345,0.767 0.342,0.406 0.785,0.588 1.193,0.733 0.403,0.118 0.837,0.178 1.274,0.118 -0.586,1.299 -1.207,2.579 -1.85,3.843 -0.01,0.021 -0.022,0.042 -0.033,0.063 -0.109,-0.004 -0.219,-0.014 -0.329,-0.026 -0.464,-0.064 -0.905,-0.179 -1.32,-0.37 -0.421,-0.178 -0.808,-0.429 -1.18,-0.724 -0.101,-0.087 -0.199,-0.189 -0.298,-0.284 0.065,-0.131 0.125,-0.266 0.193,-0.397 z m -0.537,1.094 c 0.021,0.034 0.036,0.07 0.059,0.103 0.332,0.491 0.815,0.87 1.357,1.122 0.518,0.22 1.094,0.318 1.654,0.245 -0.673,1.282 -1.409,2.527 -2.192,3.744 -0.075,-0.031 -0.156,-0.055 -0.229,-0.089 -0.347,-0.17 -0.689,-0.368 -1.057,-0.587 -0.37,-0.206 -0.802,-0.414 -1.159,-0.559 -0.077,-0.037 -0.154,-0.075 -0.228,-0.114 0.563,-1.304 1.16,-2.593 1.795,-3.865 z m -2.534,5.584 c 0.14,-0.354 0.304,-0.695 0.45,-1.046 0.024,0.024 0.044,0.056 0.069,0.077 0.375,0.347 0.725,0.551 1.114,0.793 0.394,0.213 0.84,0.421 1.344,0.471 -0.228,0.345 -0.454,0.691 -0.687,1.034 l -0.971,1.319 c -0.343,-0.11 -0.638,-0.214 -0.928,-0.339 -0.237,-0.09 -0.479,-0.218 -0.765,-0.329 -0.1,-0.044 -0.215,-0.081 -0.327,-0.118 0.224,-0.624 0.455,-1.246 0.701,-1.862 z m -2.083,6.149 c 0.08,-0.301 0.17,-0.6 0.262,-0.898 0.164,-0.599 0.378,-1.185 0.553,-1.777 0.114,-0.331 0.231,-0.658 0.347,-0.987 0.03,0.039 0.054,0.084 0.087,0.121 0.215,0.256 0.498,0.468 0.835,0.622 0.235,0.098 0.491,0.135 0.746,0.141 -0.239,0.283 -0.482,0.562 -0.715,0.854 l -0.592,0.714 c -0.195,0.238 -0.368,0.4 -0.551,0.621 -0.138,0.161 -0.291,0.34 -0.449,0.52 -0.181,0.044 -0.361,0.089 -0.541,0.135 z m 12.897,2.496 c 1.087,0.309 2.286,0.54 3.121,1.293 0.406,0.368 0.671,0.872 0.651,1.366 -0.008,0.504 -0.314,0.938 -0.703,1.326 -0.372,0.385 -0.805,0.623 -1.171,0.678 -0.366,0.056 -0.732,-0.014 -1.146,-0.21 -0.828,-0.404 -1.621,-1.196 -2.407,-1.975 -0.798,-0.785 -1.58,-1.638 -2.378,-2.5 l -1.209,-1.306 -0.621,-0.656 -0.074,-0.076 c 0.05,-0.012 0.1,-0.023 0.151,-0.035 l 0.008,0.004 0.834,0.349 c 0.554,0.229 1.109,0.433 1.661,0.632 1.105,0.391 2.183,0.801 3.283,1.11 z m 15.78,-7.455 c 0.111,-0.589 0.198,-1.173 0.28,-1.755 0.159,-1.164 0.34,-2.302 0.419,-3.442 0.081,-1.127 0.063,-2.348 0.63,-3.318 0.277,-0.473 0.717,-0.834 1.205,-0.916 0.495,-0.095 0.982,0.116 1.441,0.418 0.453,0.286 0.774,0.661 0.903,1.008 0.129,0.347 0.135,0.719 0.027,1.165 -0.226,0.893 -0.841,1.831 -1.443,2.759 -0.606,0.941 -1.282,1.88 -1.964,2.837 l -1.033,1.45 -0.516,0.742 -0.205,0.305 0.083,-0.366 z m 27.661,-18.696 c 0.363,-0.411 0.812,-0.738 1.234,-1.087 l 0.093,-0.076 c -0.245,1.2 -0.535,2.398 -0.845,3.585 -0.271,-0.109 -0.516,-0.203 -0.765,-0.304 -0.228,-0.079 -0.437,-0.177 -0.694,-0.276 -0.161,-0.065 -0.345,-0.129 -0.543,-0.181 0.477,-0.58 0.999,-1.122 1.52,-1.661 z m -2.147,2.488 c 0.126,-0.187 0.262,-0.365 0.399,-0.543 0.078,0.184 0.17,0.355 0.296,0.511 0.199,0.257 0.491,0.459 0.803,0.59 0.293,0.112 0.617,0.157 0.932,0.127 -0.051,0.192 -0.101,0.385 -0.153,0.576 -0.176,0.611 -0.37,1.215 -0.573,1.816 -0.086,-0.012 -0.174,-0.022 -0.259,-0.036 -0.353,-0.069 -0.703,-0.139 -1.056,-0.234 -0.363,-0.08 -0.711,-0.163 -1.004,-0.269 -0.201,-0.053 -0.425,-0.253 -0.707,-0.402 0.39,-0.74 0.812,-1.465 1.322,-2.136 z m -2.993,5.802 c 0.467,-1.11 0.942,-2.242 1.496,-3.337 0.086,0.244 0.195,0.486 0.44,0.712 0.37,0.346 0.805,0.488 1.212,0.601 0.413,0.091 0.852,0.13 1.289,0.044 -0.418,1.176 -0.873,2.336 -1.351,3.48 -0.11,-0.003 -0.22,-0.012 -0.332,-0.021 -0.456,-0.051 -0.896,-0.143 -1.321,-0.295 -0.429,-0.14 -0.837,-0.34 -1.239,-0.575 -0.113,-0.073 -0.227,-0.156 -0.341,-0.235 0.05,-0.123 0.094,-0.25 0.147,-0.374 z m -0.421,1.061 c 0.038,0.047 0.071,0.097 0.111,0.142 0.38,0.426 0.88,0.729 1.416,0.926 0.528,0.171 1.098,0.238 1.65,0.135 -0.495,1.145 -1.057,2.255 -1.667,3.343 -0.076,-0.027 -0.156,-0.049 -0.232,-0.078 -0.358,-0.149 -0.715,-0.314 -1.097,-0.493 -0.383,-0.166 -0.821,-0.329 -1.196,-0.434 -0.087,-0.031 -0.174,-0.06 -0.259,-0.091 0.389,-1.163 0.812,-2.314 1.274,-3.45 z m -1.793,5.011 c 0.089,-0.299 0.2,-0.588 0.294,-0.884 0.038,0.032 0.075,0.072 0.113,0.099 0.395,0.293 0.757,0.465 1.161,0.663 0.405,0.17 0.853,0.328 1.343,0.344 -0.18,0.311 -0.359,0.622 -0.543,0.93 l -0.752,1.153 c -0.344,-0.099 -0.643,-0.188 -0.947,-0.291 -0.247,-0.072 -0.501,-0.174 -0.795,-0.252 -0.105,-0.032 -0.222,-0.055 -0.337,-0.078 0.145,-0.564 0.296,-1.126 0.463,-1.684 z m -1.305,5.576 c 0.042,-0.273 0.095,-0.543 0.15,-0.814 0.089,-0.541 0.229,-1.075 0.329,-1.61 0.067,-0.279 0.138,-0.555 0.206,-0.833 0.036,0.038 0.067,0.083 0.107,0.119 0.237,0.228 0.532,0.404 0.867,0.526 0.231,0.075 0.479,0.096 0.726,0.089 -0.19,0.247 -0.382,0.493 -0.566,0.747 l -0.49,0.656 -0.452,0.56 c -0.211,0.272 -0.46,0.587 -0.736,0.908 -0.067,-0.002 -0.134,-0.004 -0.2,-0.006 z m 34.038,20.036 0.38,0.756 0.302,0.681 c 0.201,0.429 0.44,0.925 0.648,1.487 -0.008,-0.007 -0.019,-0.014 -0.04,-0.024 l -0.181,-0.116 -0.359,-0.236 c -0.241,-0.153 -0.475,-0.315 -0.708,-0.48 -0.475,-0.31 -0.92,-0.666 -1.382,-0.985 -0.245,-0.189 -0.484,-0.381 -0.726,-0.571 0.085,-0.029 0.173,-0.052 0.255,-0.091 0.327,-0.141 0.627,-0.357 0.894,-0.63 0.193,-0.212 0.339,-0.469 0.45,-0.738 0.153,0.317 0.305,0.631 0.467,0.947 z m -2.257,-3.949 c 0.224,0.336 0.448,0.672 0.666,1.012 l 0.699,1.184 c -0.266,0.315 -0.503,0.592 -0.759,0.865 l -0.622,0.683 c -0.093,0.104 -0.182,0.223 -0.27,0.342 -0.479,-0.383 -0.952,-0.772 -1.411,-1.177 -0.246,-0.216 -0.472,-0.451 -0.713,-0.672 0.091,-0.04 0.183,-0.081 0.26,-0.127 0.453,-0.264 0.79,-0.551 1.165,-0.865 0.353,-0.329 0.712,-0.702 0.954,-1.174 0.011,-0.022 0.02,-0.048 0.031,-0.071 z m -2.866,-3.65 c 0.01,-0.033 0.012,-0.07 0.021,-0.104 0.87,0.988 1.666,2.033 2.412,3.117 -0.078,0.084 -0.153,0.173 -0.233,0.254 -0.311,0.297 -0.639,0.584 -0.988,0.885 -0.337,0.308 -0.693,0.665 -0.975,0.995 -0.092,0.094 -0.182,0.187 -0.273,0.277 -0.938,-0.884 -1.842,-1.8 -2.709,-2.752 0.111,-0.028 0.222,-0.056 0.33,-0.095 0.577,-0.202 1.084,-0.564 1.512,-0.998 0.41,-0.45 0.745,-0.982 0.903,-1.579 z m -3.194,-3.51 c 0.927,0.91 1.827,1.844 2.688,2.807 -0.065,0.137 -0.137,0.273 -0.216,0.407 -0.263,0.431 -0.561,0.83 -0.908,1.19 -0.338,0.367 -0.722,0.691 -1.135,0.99 -0.144,0.096 -0.299,0.188 -0.452,0.279 -0.103,-0.116 -0.214,-0.224 -0.316,-0.34 -0.818,-0.933 -1.654,-1.887 -2.416,-2.898 0.306,0.014 0.617,0.014 0.968,-0.148 0.488,-0.219 0.818,-0.577 1.113,-0.926 0.282,-0.369 0.528,-0.783 0.652,-1.254 0.009,-0.035 0.014,-0.072 0.022,-0.107 z m -1.949,-1.826 c 0.488,0.42 0.94,0.874 1.405,1.316 -0.063,0.099 -0.125,0.2 -0.19,0.297 -0.232,0.323 -0.467,0.642 -0.724,0.953 -0.248,0.325 -0.495,0.638 -0.743,0.888 -0.158,0.187 -0.467,0.321 -0.745,0.541 -0.523,-0.716 -1.015,-1.455 -1.409,-2.256 -0.113,-0.195 -0.212,-0.397 -0.31,-0.599 0.23,-0.002 0.454,-0.025 0.675,-0.091 0.337,-0.094 0.658,-0.295 0.923,-0.541 0.263,-0.262 0.471,-0.592 0.584,-0.949 0.177,0.147 0.358,0.294 0.534,0.441 z m -1.816,-0.208 c -0.187,0.196 -0.386,0.366 -0.603,0.577 -0.144,0.135 -0.295,0.293 -0.441,0.469 -0.328,-0.727 -0.592,-1.484 -0.864,-2.233 -0.216,-0.525 -0.303,-1.094 -0.436,-1.644 l -0.059,-0.262 c 1.064,0.758 2.103,1.565 3.118,2.393 -0.254,0.248 -0.479,0.475 -0.715,0.7 z m 5.045,-7.208 c -0.051,-0.973 -0.081,-1.926 -0.229,-2.857 -0.148,-0.92 -0.421,-1.907 -0.138,-2.786 0.138,-0.427 0.432,-0.784 0.802,-0.919 0.375,-0.148 0.788,-0.045 1.202,0.136 0.404,0.168 0.697,0.431 0.825,0.671 0.127,0.24 0.178,0.502 0.159,0.861 -0.047,0.719 -0.392,1.566 -0.717,2.414 -0.324,0.86 -0.7,1.74 -1.069,2.644 -0.186,0.452 -0.376,0.908 -0.555,1.376 l -0.19,0.498 c -0.027,-0.002 -0.054,-0.004 -0.081,-0.005 0.008,-0.185 0.017,-0.371 0.015,-0.553 0.01,-0.502 -0.011,-0.992 -0.024,-1.48 z m -16.809,6.866 c 0.631,0.686 1.403,1.359 1.651,2.248 0.121,0.432 0.072,0.892 -0.163,1.209 -0.231,0.33 -0.633,0.471 -1.078,0.549 -0.43,0.083 -0.819,0.024 -1.058,-0.105 -0.239,-0.13 -0.425,-0.32 -0.607,-0.63 -0.358,-0.626 -0.537,-1.523 -0.732,-2.409 -0.203,-0.896 -0.376,-1.837 -0.565,-2.796 -0.094,-0.48 -0.187,-0.964 -0.295,-1.454 l -0.165,-0.739 -0.007,-0.029 0.019,0.033 c 0.133,0.217 0.26,0.437 0.4,0.643 0.267,0.425 0.555,0.823 0.835,1.222 0.578,0.785 1.127,1.563 1.765,2.258 z m 42.027,-26.59 c 0.394,-0.49 0.871,-0.906 1.331,-1.335 l 0.105,-0.097 c -0.312,1.407 -0.673,2.81 -1.052,4.201 -0.278,-0.099 -0.525,-0.188 -0.771,-0.291 -0.223,-0.079 -0.425,-0.182 -0.679,-0.294 -0.163,-0.076 -0.352,-0.152 -0.556,-0.218 0.51,-0.679 1.063,-1.327 1.622,-1.966 z m -2.32,2.971 c 0.152,-0.242 0.313,-0.477 0.479,-0.709 0.069,0.183 0.153,0.355 0.271,0.515 0.19,0.27 0.487,0.491 0.809,0.629 0.295,0.116 0.622,0.155 0.936,0.119 -0.061,0.222 -0.121,0.445 -0.183,0.665 -0.216,0.735 -0.453,1.462 -0.698,2.185 -0.085,-0.006 -0.172,-0.007 -0.256,-0.015 -0.359,-0.046 -0.714,-0.107 -1.073,-0.194 -0.369,-0.075 -0.72,-0.158 -1.001,-0.275 -0.2,-0.061 -0.418,-0.293 -0.701,-0.468 0.424,-0.843 0.878,-1.672 1.417,-2.452 z m -3.295,6.738 c 0.532,-1.314 1.076,-2.646 1.703,-3.938 0.072,0.247 0.167,0.494 0.405,0.738 0.376,0.379 0.835,0.523 1.255,0.632 0.411,0.083 0.847,0.109 1.276,0.012 -0.48,1.359 -0.996,2.703 -1.534,4.033 -0.01,0.025 -0.021,0.049 -0.031,0.074 -0.109,0.006 -0.219,0.006 -0.33,0.005 -0.469,-0.022 -0.919,-0.098 -1.349,-0.253 -0.435,-0.143 -0.842,-0.362 -1.237,-0.628 -0.108,-0.079 -0.213,-0.173 -0.319,-0.26 0.056,-0.137 0.105,-0.277 0.161,-0.415 z m -0.444,1.144 c 0.022,0.03 0.039,0.063 0.063,0.092 0.37,0.465 0.886,0.805 1.45,1.012 0.536,0.176 1.119,0.223 1.671,0.101 -0.57,1.355 -1.204,2.679 -1.889,3.979 -0.078,-0.024 -0.16,-0.041 -0.236,-0.068 -0.361,-0.139 -0.718,-0.308 -1.103,-0.495 -0.386,-0.176 -0.836,-0.346 -1.203,-0.462 -0.079,-0.031 -0.158,-0.062 -0.235,-0.095 0.457,-1.368 0.95,-2.723 1.482,-4.064 z m -2.082,5.862 c 0.112,-0.371 0.248,-0.733 0.367,-1.101 0.025,0.021 0.046,0.049 0.071,0.068 0.404,0.317 0.77,0.49 1.179,0.7 0.411,0.18 0.874,0.35 1.383,0.357 -0.199,0.369 -0.398,0.739 -0.603,1.106 l -0.867,1.423 c -0.352,-0.078 -0.655,-0.156 -0.954,-0.256 -0.243,-0.069 -0.496,-0.177 -0.79,-0.265 -0.104,-0.036 -0.221,-0.063 -0.336,-0.091 0.174,-0.65 0.354,-1.298 0.55,-1.941 z m -1.393,5.455 c 0.116,-0.618 0.282,-1.228 0.408,-1.84 0.088,-0.346 0.179,-0.688 0.268,-1.032 0.033,0.036 0.06,0.078 0.096,0.112 0.236,0.238 0.536,0.426 0.886,0.552 0.244,0.078 0.503,0.093 0.758,0.076 -0.217,0.308 -0.438,0.613 -0.648,0.929 l -0.534,0.773 c -0.176,0.259 -0.336,0.437 -0.502,0.677 -0.061,0.086 -0.134,0.186 -0.199,0.277 -0.212,-0.009 -0.423,-0.019 -0.635,-0.028 0.034,-0.166 0.066,-0.332 0.102,-0.496 z m 4.441,4.576 c 0.775,0.591 1.52,1.184 2.327,1.674 0.798,0.482 1.727,0.913 2.213,1.697 0.237,0.382 0.318,0.837 0.182,1.206 -0.13,0.381 -0.476,0.629 -0.881,0.828 -0.389,0.199 -0.78,0.252 -1.045,0.195 -0.265,-0.058 -0.498,-0.189 -0.759,-0.436 -0.518,-0.501 -0.941,-1.312 -1.376,-2.109 -0.446,-0.803 -0.874,-1.659 -1.324,-2.526 -0.224,-0.434 -0.449,-0.874 -0.69,-1.314 l -0.046,-0.083 c 0.123,0.006 0.246,0.013 0.369,0.019 0.339,0.296 0.687,0.574 1.03,0.849 z m 37.56,-24.402 c 0.202,-0.339 0.46,-0.641 0.716,-0.943 -0.057,0.94 -0.127,1.876 -0.218,2.813 -0.167,-0.043 -0.321,-0.08 -0.479,-0.115 l -0.576,-0.105 c -0.121,-0.021 -0.258,-0.04 -0.406,-0.049 0.298,-0.547 0.621,-1.081 0.963,-1.601 z m -1.411,2.478 c 0.067,-0.159 0.159,-0.305 0.235,-0.46 0.067,0.114 0.146,0.216 0.242,0.311 0.19,0.199 0.466,0.336 0.749,0.403 0.197,0.039 0.403,0.028 0.603,-0.008 -0.013,0.13 -0.024,0.262 -0.037,0.391 -0.065,0.551 -0.165,1.094 -0.253,1.64 -0.01,0 -0.021,0 -0.031,0 -0.288,-0.014 -0.572,-0.022 -0.864,-0.047 -0.3,-0.009 -0.583,-0.023 -0.818,-0.051 -0.142,0.002 -0.337,-0.104 -0.568,-0.179 0.202,-0.682 0.431,-1.357 0.742,-2 z m -1.55,5.452 c 0.207,-0.987 0.407,-1.997 0.673,-2.99 0.08,0.146 0.184,0.287 0.363,0.416 0.362,0.259 0.75,0.315 1.102,0.35 0.271,0.009 0.549,-0.03 0.821,-0.109 -0.182,1.013 -0.385,2.02 -0.604,3.02 -10e-4,0.008 -0.004,0.015 -0.005,0.023 -0.033,0.003 -0.063,0.011 -0.096,0.014 -0.369,0.017 -0.724,0.006 -1.077,-0.058 -0.356,-0.049 -0.701,-0.152 -1.056,-0.277 -0.059,-0.025 -0.122,-0.056 -0.184,-0.082 0.023,-0.103 0.041,-0.205 0.063,-0.307 z m -0.22,1.092 c 0.355,0.289 0.786,0.476 1.238,0.56 0.376,0.053 0.765,0.038 1.132,-0.066 -0.233,0.983 -0.513,1.953 -0.825,2.915 -0.017,-0.004 -0.035,-0.006 -0.052,-0.01 l -0.93,-0.261 c -0.33,-0.08 -0.717,-0.15 -1.026,-0.169 -0.025,-0.004 -0.05,-0.007 -0.076,-0.01 0.159,-0.991 0.337,-1.977 0.539,-2.959 z m -0.771,4.423 c 0.03,-0.233 0.076,-0.461 0.11,-0.693 0.34,0.18 0.637,0.273 0.973,0.376 0.298,0.069 0.631,0.108 0.973,0.081 -0.085,0.25 -0.168,0.501 -0.255,0.75 l -0.443,1.128 -0.683,-0.11 c -0.197,-0.019 -0.41,-0.062 -0.661,-0.072 -0.056,-0.005 -0.12,-0.001 -0.181,-0.001 0.049,-0.488 0.102,-0.974 0.167,-1.459 z m -0.384,4.238 c 0.013,-0.477 0.068,-0.954 0.087,-1.425 0.019,-0.205 0.039,-0.407 0.058,-0.611 0.215,0.159 0.475,0.267 0.767,0.32 0.145,0.02 0.294,0.02 0.441,0.001 -0.091,0.189 -0.183,0.378 -0.269,0.572 l -0.296,0.647 -0.267,0.554 c -0.008,0.017 -0.018,0.04 -0.026,0.057 -0.17,0.044 -0.339,0.09 -0.509,0.133 0.007,-0.082 0.009,-0.166 0.014,-0.248 z m -19.083,1.644 c 0.438,-0.871 0.884,-1.713 1.216,-2.596 0.327,-0.873 0.579,-1.865 1.26,-2.488 0.331,-0.303 0.764,-0.467 1.152,-0.401 0.399,0.057 0.706,0.351 0.976,0.714 0.268,0.346 0.392,0.72 0.384,0.991 -0.008,0.271 -0.094,0.524 -0.288,0.827 -0.397,0.602 -1.117,1.167 -1.819,1.741 -0.707,0.586 -1.47,1.165 -2.239,1.767 -0.236,0.184 -0.476,0.376 -0.714,0.564 -0.185,0.007 -0.37,0.011 -0.555,0.018 0.222,-0.377 0.426,-0.759 0.627,-1.137 z m 8.032,9.711 c -0.44,-0.431 -0.89,-0.857 -1.321,-1.302 -0.104,-0.103 -0.198,-0.214 -0.297,-0.321 0.285,-0.196 0.546,-0.409 0.773,-0.67 0.306,-0.34 0.537,-0.76 0.7,-1.193 0.199,-0.583 0.274,-1.219 0.176,-1.831 0.364,0.107 0.729,0.211 1.09,0.324 0.553,0.183 1.099,0.384 1.639,0.598 -0.038,0.303 -0.089,0.597 -0.146,0.892 -0.116,0.544 -0.239,1.087 -0.386,1.63 -0.133,0.549 -0.269,1.094 -0.442,1.588 -0.111,0.385 -0.408,0.758 -0.61,1.212 -0.399,-0.301 -0.807,-0.592 -1.176,-0.927 z m 14.717,5.081 c 0.132,-0.443 0.2,-0.903 0.18,-1.364 l 1.016,1.157 c 0.443,0.471 0.74,0.887 1.104,1.333 0.361,0.445 0.764,0.938 1.164,1.501 -0.071,-0.093 -0.228,-0.057 -0.39,-0.082 l -0.465,-0.045 c -0.309,-0.024 -0.616,-0.066 -0.922,-0.112 -0.612,-0.065 -1.217,-0.205 -1.818,-0.303 -0.328,-0.075 -0.651,-0.157 -0.977,-0.235 0.007,-0.007 0.014,-0.014 0.021,-0.02 0.155,-0.176 0.307,-0.356 0.439,-0.55 0.277,-0.384 0.491,-0.816 0.648,-1.28 z m -2.692,-3.616 c 0.014,-0.141 0.021,-0.286 0.023,-0.431 l 0.015,0.012 c 0.489,0.354 0.918,0.772 1.347,1.194 0.273,0.278 0.563,0.542 0.848,0.812 -0.162,0.606 -0.312,1.164 -0.494,1.726 l -0.393,1.24 c -0.067,0.214 -0.122,0.439 -0.175,0.667 -0.012,0.045 -0.02,0.091 -0.029,0.137 -0.71,-0.179 -1.414,-0.372 -2.102,-0.617 -0.317,-0.107 -0.625,-0.232 -0.938,-0.349 0.21,-0.229 0.353,-0.479 0.523,-0.734 0.378,-0.585 0.625,-1.134 0.85,-1.764 0.203,-0.625 0.434,-1.231 0.525,-1.893 z m -4.187,-2.726 c -0.01,-0.229 -0.043,-0.461 -0.092,-0.691 1.027,0.539 1.943,1.245 2.92,1.874 l 0.817,0.658 c -0.068,0.243 -0.141,0.484 -0.22,0.721 -0.232,0.566 -0.497,1.137 -0.698,1.715 -0.182,0.575 -0.418,1.204 -0.606,1.757 -0.106,0.302 -0.183,0.619 -0.306,0.907 -1.343,-0.533 -2.643,-1.161 -3.915,-1.85 0.266,-0.223 0.514,-0.469 0.723,-0.745 0.487,-0.609 0.827,-1.317 1.073,-2.05 0.225,-0.74 0.352,-1.517 0.304,-2.296 z m -4.549,-2.91 c 1.324,0.552 2.607,1.188 3.85,1.884 0.007,0.328 -0.033,0.661 -0.081,0.996 -0.107,0.688 -0.259,1.365 -0.478,2.024 -0.203,0.662 -0.466,1.308 -0.775,1.933 -0.156,0.311 -0.324,0.62 -0.519,0.915 -0.257,-0.143 -0.517,-0.281 -0.772,-0.428 -1.007,-0.666 -2.108,-1.23 -3.056,-2.014 -0.034,-0.027 -0.071,-0.053 -0.105,-0.079 0.397,-0.26 0.814,-0.511 1.117,-0.976 0.377,-0.542 0.564,-1.131 0.727,-1.71 0.141,-0.59 0.234,-1.202 0.196,-1.824 -0.012,-0.24 -0.049,-0.482 -0.104,-0.721 z m -3.79,-1.304 c -0.206,0.574 -0.388,1.119 -0.585,1.653 -0.124,0.377 -0.273,0.732 -0.421,1.121 -0.107,0.272 -0.211,0.569 -0.294,0.88 -0.254,-0.287 -0.497,-0.583 -0.719,-0.897 -0.37,-0.497 -0.747,-0.989 -1.101,-1.497 -0.296,-0.458 -0.564,-0.933 -0.827,-1.411 0.823,-0.066 1.645,-0.148 2.467,-0.231 0.496,0.12 0.99,0.244 1.48,0.382 z m 27.679,-4.171 c 0.367,0.258 0.62,0.646 0.639,1.039 0.03,0.402 -0.192,0.765 -0.487,1.107 -0.281,0.336 -0.619,0.537 -0.886,0.588 -0.267,0.05 -0.532,0.021 -0.869,-0.104 -0.673,-0.258 -1.379,-0.84 -2.091,-1.403 -0.724,-0.565 -1.453,-1.185 -2.206,-1.807 -0.376,-0.312 -0.755,-0.629 -1.149,-0.939 l -0.3,-0.236 c 0.058,-0.026 0.115,-0.053 0.172,-0.08 0.087,0.03 0.174,0.063 0.26,0.089 0.476,0.16 0.95,0.286 1.42,0.418 0.944,0.24 1.862,0.495 2.796,0.631 0.923,0.132 1.946,0.166 2.701,0.697 z m 26.554,-13.278 0.894,0.028 c 0.26,0.024 0.514,0.045 0.786,0.058 0.505,0.025 1.089,0.049 1.717,0.134 -0.075,0.02 -0.155,0.083 -0.254,0.12 l -0.408,0.197 c -0.267,0.136 -0.543,0.259 -0.816,0.382 -0.537,0.262 -1.101,0.474 -1.641,0.718 -0.297,0.116 -0.593,0.228 -0.89,0.342 0.016,-0.102 0.037,-0.203 0.04,-0.307 0.021,-0.354 -0.038,-0.722 -0.172,-1.083 -0.095,-0.231 -0.237,-0.44 -0.398,-0.633 z m -3.537,-0.018 1.421,-0.042 c 0.167,0.362 0.314,0.684 0.444,1.018 0.114,0.257 0.202,0.541 0.334,0.842 0.05,0.127 0.115,0.257 0.18,0.388 -0.631,0.237 -1.263,0.466 -1.904,0.669 -0.311,0.1 -0.625,0.191 -0.938,0.285 0.008,-0.114 0.013,-0.228 0.003,-0.329 -0.035,-0.519 -0.137,-0.941 -0.251,-1.413 -0.133,-0.447 -0.312,-0.917 -0.62,-1.326 0.443,-0.034 0.886,-0.067 1.331,-0.092 z m -2.148,0.16 c 0.198,0.491 0.322,0.983 0.474,1.526 0.124,0.431 0.283,0.907 0.452,1.299 0.043,0.124 0.086,0.246 0.125,0.368 -1.319,0.382 -2.651,0.711 -3.993,1.002 0.031,-0.12 0.059,-0.242 0.075,-0.365 0.087,-0.611 -0.016,-1.234 -0.231,-1.807 -0.224,-0.55 -0.568,-1.054 -1.019,-1.441 1.361,-0.272 2.735,-0.457 4.117,-0.582 z m -4.99,0.755 c 0.088,0.107 0.184,0.206 0.266,0.32 0.28,0.42 0.523,0.85 0.695,1.313 0.189,0.455 0.31,0.937 0.384,1.433 0.019,0.167 0.034,0.339 0.043,0.512 -0.207,0.043 -0.412,0.089 -0.619,0.13 -0.573,0.154 -1.161,0.217 -1.743,0.34 -0.583,0.117 -1.169,0.239 -1.762,0.29 l -0.32,0.037 c 0.157,-0.257 0.303,-0.529 0.31,-0.917 0.015,-0.542 -0.167,-0.986 -0.355,-1.404 -0.216,-0.412 -0.485,-0.812 -0.861,-1.12 -10e-4,0 -10e-4,-0.001 -0.002,-0.001 1.314,-0.354 2.637,-0.661 3.964,-0.933 z m -6.64,1.73 c 0.628,-0.211 1.26,-0.403 1.895,-0.585 0.065,0.1 0.133,0.201 0.194,0.302 0.196,0.343 0.382,0.689 0.553,1.05 0.185,0.359 0.363,0.72 0.477,1.042 0.101,0.21 0.072,0.533 0.127,0.875 l -1.127,0.131 c -0.597,0.025 -1.196,0.025 -1.795,0.021 -0.216,0.004 -0.431,-0.006 -0.647,-0.016 0.105,-0.201 0.189,-0.405 0.232,-0.63 0.073,-0.342 0.034,-0.723 -0.073,-1.067 -0.113,-0.325 -0.3,-0.628 -0.543,-0.871 0.237,-0.082 0.472,-0.169 0.707,-0.252 z m -1.11,1.443 c 0.094,0.248 0.157,0.489 0.244,0.771 0.053,0.183 0.121,0.387 0.208,0.594 -0.867,-0.06 -1.729,-0.201 -2.59,-0.32 -0.67,-0.107 -1.328,-0.28 -1.983,-0.46 1.246,-0.546 2.522,-1.046 3.802,-1.514 0.114,0.332 0.222,0.627 0.319,0.929 z"
   id="path8" />
		<path
   d="m 259.189,265.345 c -1.11,-2.122 -2.215,-4.26 -3.505,-6.29 -0.615,-1.034 -1.244,-2.062 -1.935,-3.049 -0.681,-0.993 -1.332,-2.012 -2.077,-2.962 -2.841,-3.905 -6.124,-7.504 -9.717,-10.768 -0.445,-0.405 -0.911,-0.786 -1.367,-1.179 0.118,-0.292 0.236,-0.585 0.335,-0.884 0.237,-0.661 0.431,-1.334 0.619,-2.011 0.35,-1.358 0.619,-2.741 0.79,-4.136 0.344,-2.787 0.409,-5.633 -0.014,-8.42 -0.079,-0.699 -0.243,-1.387 -0.396,-2.073 -0.165,-0.684 -0.273,-1.376 -0.486,-2.047 -0.397,-1.347 -0.772,-2.688 -1.232,-4.003 -0.814,-2.661 -1.815,-5.25 -2.865,-7.85 -0.059,-0.144 -0.18,-0.263 -0.341,-0.311 -0.282,-0.085 -0.579,0.075 -0.663,0.357 l -0.021,0.071 c -0.812,2.701 -1.324,5.44 -1.585,8.228 -0.274,2.781 -0.371,5.592 -0.154,8.396 0.226,2.801 0.785,5.583 1.629,8.264 0.228,0.667 0.48,1.324 0.725,1.981 0.243,0.657 0.586,1.28 0.872,1.917 0.062,0.13 0.126,0.258 0.187,0.387 -4.726,-3.688 -9.939,-6.762 -15.454,-9.11 0.104,-0.152 0.213,-0.301 0.305,-0.459 0.326,-0.521 0.607,-1.065 0.86,-1.622 0.257,-0.556 0.471,-1.131 0.656,-1.719 0.204,-0.582 0.324,-1.195 0.387,-1.818 0.112,-1.252 -0.047,-2.551 -0.37,-3.786 -0.175,-0.612 -0.463,-1.253 -1.018,-1.702 -0.548,-0.448 -1.281,-0.627 -1.92,-0.683 -0.656,-0.061 -1.443,-0.033 -2.15,0.423 -0.715,0.445 -1.142,1.233 -1.326,1.937 -0.364,1.437 -0.211,2.765 0.092,3.993 0.325,1.227 0.811,2.372 1.397,3.453 0.178,0.331 0.388,0.643 0.587,0.961 -1.032,-0.392 -2.07,-0.766 -3.118,-1.107 -1.471,-0.472 -2.958,-0.885 -4.449,-1.271 0,-0.081 0.004,-0.163 10e-4,-0.243 -0.006,-0.318 -0.012,-0.638 -0.04,-0.955 -0.039,-0.637 -0.118,-1.268 -0.206,-1.9 -0.197,-1.258 -0.473,-2.508 -0.837,-3.731 -0.725,-2.445 -1.71,-4.838 -3.092,-6.994 -1.383,-2.157 -3.069,-4.085 -4.768,-5.946 -1.655,-1.906 -3.423,-3.696 -5.238,-5.484 -0.111,-0.108 -0.269,-0.169 -0.434,-0.149 -0.291,0.034 -0.5,0.298 -0.466,0.589 l 0.01,0.081 c 0.298,2.546 0.861,5.012 1.662,7.425 0.784,2.412 1.728,4.788 2.937,7.037 1.218,2.243 2.709,4.348 4.404,6.258 0.875,0.935 1.762,1.852 2.771,2.64 l 0.733,0.607 c 0.08,0.064 0.177,0.129 0.271,0.193 -2.447,-0.564 -4.912,-1.031 -7.384,-1.406 -1.304,-0.195 -2.609,-0.362 -3.916,-0.513 -1.19,-1.359 -2.384,-2.687 -3.572,-4.004 -1.409,-1.593 -2.836,-3.152 -4.175,-4.778 -0.672,-0.808 -1.363,-1.606 -1.986,-2.449 -0.682,-0.805 -1.257,-1.677 -1.905,-2.51 -1.139,-1.631 -2.202,-3.305 -3.206,-5.105 1.693,-0.533 2.847,-2.232 3.2,-3.987 0.367,-1.826 0.039,-3.712 -0.29,-5.546 -0.256,-1.426 -0.137,-3.78 -0.809,-5.077 -0.706,-1.363 -2.869,-1.619 -3.997,-0.639 -1.075,0.934 -1.221,2.521 -1.29,3.943 -0.032,0.656 -0.064,1.313 -0.096,1.97 -1.04,-3.226 -2.216,-6.651 -4.891,-8.733 -0.534,-0.416 -1.292,-0.77 -1.855,-0.394 -0.643,0.43 -0.48,1.404 -0.242,2.141 0.495,1.531 0.993,3.071 1.757,4.487 1.23,2.283 3.128,4.205 4.018,6.64 -1.493,-0.927 -2.987,-1.854 -4.48,-2.781 -0.895,-0.555 -1.991,-1.128 -2.945,-0.682 -0.098,1.464 0.941,2.743 1.998,3.762 1.467,1.415 3.093,2.665 4.837,3.721 1.477,0.893 3.208,1.669 4.882,1.248 0.031,-0.008 0.059,-0.023 0.09,-0.032 0.281,1.938 0.963,3.813 1.842,5.574 -0.825,-0.177 -1.646,-0.333 -2.463,-0.481 l -3.401,-0.763 c -1.1,-0.359 -2.246,-0.521 -3.315,-0.938 l -1.633,-0.514 -1.583,-0.63 c -2.105,-0.84 -4.123,-1.88 -5.991,-3.166 -1.46,-1.039 -2.854,-2.205 -4.074,-3.593 1.551,-0.909 1.622,-3.827 -0.635,-4.782 -3.457,-1.463 -4.87,3.397 -1.585,4.796 0.696,0.296 1.296,0.319 1.793,0.171 0.803,1.76 2.093,3.312 3.533,4.625 1.811,1.649 3.97,2.865 6.208,3.801 2.248,0.944 4.632,1.443 7.008,1.766 1.192,0.131 2.394,0.158 3.582,0.204 0.906,-0.049 1.806,-0.107 2.702,-0.192 0.001,0.001 0.001,0.002 0.002,0.004 1.019,1.953 2.31,3.736 3.691,5.429 1.421,1.661 2.958,3.211 4.624,4.609 1.203,1.012 2.461,1.964 3.799,2.797 -3.189,-0.348 -6.385,-0.594 -9.579,-0.769 -1.488,-0.078 -2.976,-0.118 -4.464,-0.169 l 0.017,-0.046 0.075,-0.223 0.127,-0.448 c 0.071,-0.299 0.146,-0.6 0.192,-0.902 0.112,-0.604 0.173,-1.213 0.204,-1.824 0.035,-0.612 0.022,-1.225 -0.021,-1.84 -0.025,-0.616 -0.138,-1.23 -0.309,-1.833 -0.356,-1.205 -0.982,-2.355 -1.736,-3.385 -0.388,-0.505 -0.891,-0.995 -1.573,-1.208 -0.674,-0.215 -1.422,-0.113 -2.037,0.071 -0.632,0.184 -1.354,0.499 -1.844,1.184 -0.501,0.677 -0.608,1.566 -0.521,2.289 0.19,1.471 0.82,2.649 1.553,3.68 0.753,1.022 1.626,1.907 2.569,2.697 0.47,0.396 0.959,0.768 1.471,1.109 0.252,0.175 0.517,0.334 0.78,0.493 l 0.285,0.159 c -6.155,-0.192 -12.312,-0.172 -18.466,-0.016 0.02,-0.114 0.038,-0.228 0.049,-0.342 0.033,-0.281 0.066,-0.564 0.078,-0.846 0.04,-0.566 0.039,-1.132 0.029,-1.699 -0.041,-1.132 -0.161,-2.265 -0.375,-3.381 -0.425,-2.229 -1.112,-4.437 -2.224,-6.429 -1.117,-1.991 -2.538,-3.773 -3.98,-5.48 -1.396,-1.749 -2.897,-3.398 -4.444,-5.049 -0.095,-0.101 -0.231,-0.166 -0.381,-0.167 -0.291,-0.002 -0.529,0.232 -0.531,0.523 l -0.001,0.091 c -0.017,2.283 0.24,4.513 0.741,6.718 0.484,2.201 1.135,4.382 2.066,6.457 0.931,2.072 2.165,4.018 3.604,5.775 l 1.135,1.271 c 0.387,0.413 0.833,0.775 1.25,1.155 l 0.636,0.557 c 0.235,0.185 0.521,0.373 0.78,0.543 0.189,0.122 0.363,0.227 0.539,0.334 -1.341,0.037 -2.682,0.066 -4.022,0.114 -7.176,0.216 -14.34,0.702 -21.489,1.182 0.045,-0.092 0.096,-0.182 0.134,-0.277 0.213,-0.471 0.373,-0.957 0.518,-1.449 0.259,-0.987 0.462,-2.012 0.359,-3.066 -0.112,-1.053 -0.479,-2.101 -0.936,-3.075 -0.239,-0.482 -0.57,-0.977 -1.103,-1.28 -0.525,-0.302 -1.172,-0.358 -1.715,-0.324 -0.559,0.032 -1.233,0.155 -1.783,0.652 -0.559,0.488 -0.813,1.235 -0.87,1.861 -0.106,1.277 0.206,2.364 0.639,3.338 0.452,0.969 1.031,1.836 1.691,2.63 0.327,0.396 0.674,0.773 1.049,1.125 -2.184,0.146 -4.367,0.287 -6.549,0.419 -1.054,-1.445 -1.954,-2.954 -2.703,-4.52 -0.479,-1.04 -0.915,-2.088 -1.26,-3.166 -0.145,-0.548 -0.319,-1.084 -0.478,-1.625 l -0.066,-0.342 c 0.387,-0.384 0.746,-0.759 1.12,-1.105 0.586,-0.604 1.21,-1.113 1.816,-1.63 0.619,-0.505 1.274,-0.954 1.975,-1.397 0.141,-0.09 0.294,-0.174 0.438,-0.262 1.138,1.141 3.272,1.666 4.728,1.15 0.138,-0.049 0.282,-0.111 0.359,-0.235 0.119,-0.189 0.038,-0.436 0.069,-0.657 0.034,-0.235 0.194,-0.431 0.283,-0.651 0.168,-0.413 0.08,-0.881 -0.011,-1.317 -0.504,-2.424 -4.272,-3.925 -5.773,-1.449 -0.422,0.697 -0.507,1.34 -0.375,1.915 -0.099,0.018 -0.2,0.028 -0.298,0.049 -0.956,0.227 -1.876,0.667 -2.647,1.293 -0.758,0.633 -1.422,1.393 -1.843,2.273 -0.071,0.118 -0.113,0.251 -0.166,0.378 -0.079,-0.445 -0.092,-0.902 -0.158,-1.35 l -0.093,-0.843 c -0.025,-0.282 0.001,-0.566 -0.015,-0.849 l -0.038,-1.706 c 0.057,-0.567 0.096,-1.137 0.128,-1.711 l 0.053,-0.863 0.141,-0.854 0.035,-0.239 c 1.537,0.013 3.118,-0.637 4.269,-1.695 2.52,-2.316 4.827,-7.233 2.412,-10.311 -0.462,-0.589 -1.18,-1.071 -1.917,-0.941 -0.904,0.159 -1.41,1.126 -1.658,2.009 -0.249,0.883 -0.42,1.87 -1.118,2.466 0.058,-1.725 0.115,-3.45 0.173,-5.176 0.04,-1.201 -0.129,-2.721 -1.271,-3.095 -0.835,-0.273 -1.755,0.317 -2.156,1.098 -0.402,0.781 -0.414,1.697 -0.418,2.575 -0.007,1.687 -0.014,3.374 -0.021,5.061 0,-1.927 -0.499,-3.852 -1.435,-5.537 -0.372,-0.67 -0.845,-1.331 -1.539,-1.656 -0.694,-0.325 -1.652,-0.19 -2.042,0.47 -0.167,0.282 -0.212,0.618 -0.247,0.943 -0.464,4.272 0.297,8.944 3.271,12.047 0.47,0.491 0.994,0.939 1.597,1.252 0.267,0.139 0.544,0.244 0.828,0.325 l -0.041,0.12 c -0.101,0.288 -0.191,0.579 -0.28,0.872 l -0.177,0.898 c -0.599,2.387 -0.525,4.909 -0.182,7.355 0.401,2.452 1.348,4.803 2.671,6.871 0.911,1.427 2.026,2.724 3.305,3.806 -2.193,0.13 -4.384,0.246 -6.574,0.345 0.008,-0.179 0.022,-0.358 0.021,-0.536 0.012,-0.646 -0.016,-1.289 -0.053,-1.934 -0.095,-1.285 -0.27,-2.569 -0.534,-3.833 -0.526,-2.527 -1.314,-5.024 -2.518,-7.318 -1.205,-2.296 -2.732,-4.391 -4.278,-6.42 -1.498,-2.071 -3.12,-4.035 -4.789,-6.001 -0.102,-0.118 -0.256,-0.193 -0.424,-0.187 -0.293,0.01 -0.523,0.257 -0.512,0.55 l 0.003,0.081 c 0.092,2.593 0.456,5.127 1.06,7.629 0.588,2.5 1.337,4.975 2.361,7.349 1.035,2.367 2.35,4.621 3.888,6.699 0.799,1.021 1.608,2.027 2.554,2.913 l 0.684,0.68 c 0.143,0.138 0.318,0.28 0.497,0.42 -5.17,0.201 -10.33,0.27 -15.478,0.115 -0.006,-0.068 -0.005,-0.138 -0.014,-0.206 -0.048,-0.514 -0.15,-1.016 -0.267,-1.516 -0.264,-0.986 -0.595,-1.977 -1.207,-2.842 -0.619,-0.859 -1.457,-1.588 -2.336,-2.208 -0.446,-0.3 -0.979,-0.567 -1.592,-0.566 -0.606,-0.002 -1.195,0.27 -1.65,0.568 -0.47,0.305 -0.994,0.746 -1.225,1.45 -0.244,0.701 -0.094,1.476 0.166,2.048 0.541,1.162 1.35,1.951 2.208,2.583 0.243,0.172 0.501,0.307 0.754,0.457 -5.083,-0.324 -10.142,-0.99 -15.053,-2.183 0.031,-0.112 0.067,-0.224 0.092,-0.337 0.118,-0.48 0.204,-0.965 0.28,-1.454 0.136,-0.977 0.201,-1.967 0.186,-2.956 -0.028,-1.975 -0.281,-3.971 -0.934,-5.846 -0.657,-1.877 -1.627,-3.611 -2.576,-5.305 -0.908,-1.721 -1.889,-3.39 -2.906,-5.08 -0.076,-0.124 -0.203,-0.219 -0.358,-0.246 -0.286,-0.051 -0.558,0.139 -0.609,0.425 l -0.018,0.103 c -0.349,1.96 -0.463,3.91 -0.357,5.875 0.088,1.96 0.309,3.928 0.79,5.849 0.489,1.917 1.235,3.779 2.193,5.512 0.5,0.859 1.021,1.699 1.661,2.458 l 0.334,0.421 c -2.463,-0.689 -4.887,-1.508 -7.247,-2.51 -1.303,-0.544 -2.575,-1.158 -3.819,-1.823 -0.559,-1.773 -1.009,-3.546 -1.381,-5.331 -0.226,-1.146 -0.443,-2.289 -0.594,-3.441 -0.062,-0.578 -0.155,-1.151 -0.23,-1.726 l -0.135,-1.735 c -0.077,-0.576 -0.069,-1.158 -0.102,-1.737 -0.025,-0.58 -0.058,-1.16 -0.04,-1.741 l -0.005,-1.747 0.078,-1.749 c 0.016,-0.956 0.117,-1.906 0.201,-2.864 0.032,0.017 0.059,0.04 0.092,0.056 1.175,0.57 2.599,0.032 3.645,-0.75 0.288,-0.216 0.568,-0.456 0.75,-0.767 0.229,-0.391 0.282,-0.858 0.314,-1.31 0.193,-2.777 -1.518,-6.126 -4.775,-4.599 -2.232,1.047 -2.487,4.722 -0.952,6.597 -0.311,1.14 -0.67,2.283 -0.825,3.463 -0.475,2.395 -0.504,4.858 -0.373,7.297 0.174,2.44 0.67,4.856 1.453,7.166 0.528,1.55 1.197,3.061 2.036,4.464 -6.643,-3.734 -12.364,-9.147 -16.731,-15.59 -0.014,-0.021 -0.038,-0.03 -0.06,-0.041 0.854,-1.505 10.186,-18.318 1.526,-19.304 -7.535,-0.858 -2.128,17.65 -1.634,19.294 -0.01,0.003 -0.02,-0.001 -0.029,0.004 -0.011,0.006 -0.012,0.018 -0.021,0.026 -0.958,-1.065 -9.809,-10.675 -12.278,-5.064 -2.222,5.051 10.785,5.167 12.231,5.165 -10e-4,0.026 -0.005,0.053 0.008,0.077 1.255,2.317 2.705,4.542 4.333,6.64 -2.086,-1.06 -4.402,-1.664 -6.648,-2.184 -2.74,-0.632 -5.484,-1.075 -8.155,-1.69 -2.675,-0.581 -5.295,-1.315 -7.715,-2.467 -1.492,-0.714 -2.867,-1.655 -4.114,-2.785 0.023,-0.004 0.046,-0.003 0.069,-0.008 4.167,-0.87 1.15,-5.842 -1.729,-6.239 -3.515,-0.485 -4.424,3.797 -1.695,5.654 0.71,0.483 1.572,0.692 2.434,0.684 1.088,1.632 2.585,3.031 4.279,4.059 2.482,1.549 5.275,2.417 8.036,3.053 2.78,0.598 5.565,0.958 8.326,1.271 2.461,0.307 4.894,0.57 7.314,1.166 0.932,1.168 1.922,2.292 2.97,3.365 -0.626,-0.293 -1.259,-0.572 -1.905,-0.827 -2.278,-0.916 -4.641,-1.661 -7.075,-2.096 -2.431,-0.442 -4.93,-0.548 -7.39,-0.355 l -1.839,0.202 c -0.608,0.103 -1.211,0.247 -1.81,0.377 l -0.895,0.204 c -0.327,0.104 -0.659,0.221 -0.974,0.341 -0.638,0.241 -1.19,0.489 -1.69,0.657 0.127,0.257 0.27,0.305 0.366,0.426 0.11,0.11 0.224,0.213 0.342,0.312 0.232,0.204 0.468,0.403 0.714,0.588 0.485,0.383 0.996,0.726 1.514,1.065 1.046,0.652 2.14,1.242 3.278,1.724 1.13,0.507 2.308,0.902 3.499,1.241 0.598,0.163 1.201,0.308 1.806,0.439 0.609,0.112 1.227,0.177 1.839,0.263 2.472,0.212 4.943,0.088 7.368,-0.138 2.312,-0.149 4.605,-0.424 6.919,-0.736 2.384,1.928 4.956,3.637 7.689,5.047 -0.955,0.052 -1.922,0.171 -2.834,0.555 -0.972,0.42 -1.863,1.083 -2.658,1.808 -0.389,0.372 -0.764,0.835 -0.894,1.434 -0.132,0.591 0.007,1.225 0.201,1.734 0.197,0.524 0.515,1.131 1.153,1.508 0.632,0.388 1.421,0.409 2.035,0.277 1.251,-0.278 2.196,-0.9 2.997,-1.602 0.791,-0.72 1.447,-1.531 2.008,-2.396 0.282,-0.432 0.54,-0.877 0.766,-1.342 0.09,-0.173 0.166,-0.355 0.244,-0.536 3.181,1.396 6.492,2.479 9.855,3.314 -1.271,0.255 -2.528,0.589 -3.759,0.972 -2.73,0.836 -5.345,1.943 -7.934,3.019 -2.577,1.106 -5.128,2.202 -7.737,3.044 -1.449,0.455 -2.925,0.812 -4.437,0.994 0.143,-0.349 0.247,-0.714 0.286,-1.096 0.171,-1.664 -0.771,-3.292 -2.068,-4.348 -1.297,-1.056 -2.911,-1.634 -4.509,-2.13 -1.759,-0.546 -10.218,-3.78 -10.944,-0.291 -0.161,0.773 0.374,1.508 0.92,2.078 1.507,1.573 3.363,2.809 5.395,3.594 -3.89,0.024 -7.781,0.048 -11.671,0.072 -0.219,0.001 -0.458,0.01 -0.622,0.156 -0.268,0.238 -0.169,0.678 -10e-4,0.994 0.398,0.747 1.074,1.342 1.865,1.641 0.795,0.301 1.667,0.304 2.517,0.304 2.482,-10e-4 4.963,-10e-4 7.445,-0.002 -1.058,0.383 -2.241,0.2 -3.333,0.469 -1.092,0.27 -2.169,1.384 -1.708,2.41 2.753,1.016 5.799,0.628 8.706,0.227 1.705,-0.235 3.445,-0.482 4.98,-1.261 0.897,-0.456 1.712,-1.136 2.276,-1.961 1.758,0.182 3.576,0.019 5.291,-0.34 2.846,-0.576 5.52,-1.635 8.127,-2.715 l 7.691,-3.4 c 1.667,-0.715 3.347,-1.385 5.064,-1.999 0.115,0.025 0.23,0.054 0.345,0.079 1.411,0.309 2.831,0.558 4.254,0.779 -2.067,0.639 -4.083,1.485 -5.944,2.619 -1.112,0.65 -2.128,1.451 -3.135,2.247 -0.925,0.897 -1.914,1.723 -2.686,2.757 -0.401,0.499 -0.828,0.975 -1.181,1.507 l -1.014,1.619 c -0.344,0.494 -0.643,1.168 -0.901,1.796 l -0.709,1.715 c 0.24,0.133 0.394,0.116 0.544,0.165 0.157,0.038 0.314,0.065 0.472,0.088 0.316,0.052 0.634,0.096 0.953,0.117 0.639,0.065 1.28,0.063 1.924,0.056 0.638,-0.046 1.29,-0.049 1.922,-0.168 0.637,-0.093 1.281,-0.177 1.902,-0.356 2.511,-0.601 4.936,-1.657 7.04,-3.161 2.058,-1.578 3.801,-3.469 5.408,-5.413 0.444,-0.451 0.805,-0.97 1.196,-1.465 0.391,-0.495 0.775,-0.995 1.182,-1.48 l 1.253,-1.736 c 0.653,0.048 1.307,0.102 1.959,0.142 4.29,0.221 8.569,0.203 12.836,0.054 -0.514,0.308 -1.005,0.659 -1.434,1.101 -0.731,0.767 -1.292,1.725 -1.739,2.703 -0.212,0.494 -0.377,1.067 -0.262,1.669 0.11,0.596 0.485,1.125 0.862,1.517 0.386,0.406 0.916,0.839 1.651,0.937 0.734,0.11 1.468,-0.179 1.982,-0.541 1.042,-0.745 1.669,-1.687 2.131,-2.647 0.446,-0.972 0.733,-1.975 0.911,-2.99 0.091,-0.507 0.154,-1.019 0.18,-1.535 0.01,-0.135 0.008,-0.271 0.01,-0.407 3.915,-0.215 7.82,-0.517 11.711,-0.848 3.532,-0.299 7.053,-0.647 10.572,-1.006 -0.845,0.527 -1.669,1.087 -2.462,1.698 -1.856,1.411 -3.612,2.982 -5.134,4.777 -1.528,1.786 -2.777,3.821 -3.751,5.956 l -0.664,1.631 c -0.196,0.552 -0.335,1.127 -0.493,1.688 l -0.225,0.844 c -0.059,0.315 -0.102,0.653 -0.14,0.97 -0.075,0.646 -0.105,1.223 -0.177,1.716 0.079,0.027 0.279,-0.017 0.316,-0.032 l 0.213,-0.054 c 0.143,-0.035 0.285,-0.074 0.423,-0.12 0.279,-0.087 0.56,-0.176 0.831,-0.285 0.551,-0.202 1.082,-0.446 1.614,-0.697 1.047,-0.525 2.063,-1.125 3.017,-1.813 1.906,-1.371 3.678,-2.987 5.039,-4.916 1.353,-1.936 2.385,-4.056 3.302,-6.177 0.855,-1.825 1.593,-3.694 2.3,-5.596 3.285,-0.343 6.568,-0.681 9.852,-1.008 -0.325,0.226 -0.638,0.466 -0.94,0.72 -0.761,0.681 -1.495,1.424 -1.99,2.36 -0.487,0.94 -0.758,2.017 -0.915,3.081 -0.066,0.534 -0.064,1.129 0.214,1.676 0.272,0.541 0.78,0.944 1.252,1.216 0.484,0.282 1.114,0.55 1.847,0.439 0.735,-0.099 1.359,-0.582 1.752,-1.073 0.793,-1.007 1.131,-2.086 1.307,-3.137 0.157,-1.058 0.152,-2.101 0.039,-3.126 -0.055,-0.513 -0.137,-1.021 -0.256,-1.524 -0.053,-0.252 -0.126,-0.502 -0.198,-0.75 l -0.029,-0.088 c 0.675,-0.065 1.349,-0.137 2.024,-0.2 3,-0.271 6.007,-0.496 9.016,-0.664 -1.509,0.743 -2.912,1.697 -4.233,2.735 -1.762,1.384 -3.367,2.966 -4.811,4.68 -1.404,1.745 -2.731,3.563 -3.761,5.553 -0.665,1.195 -1.221,2.446 -1.694,3.727 -2.082,-0.985 -4.9,-0.98 -7.098,-0.364 -2.624,0.736 -4.958,2.461 -6.431,4.753 -0.276,0.43 -0.532,0.922 -0.458,1.427 0.149,1.028 1.45,1.378 2.489,1.404 2.048,0.05 4.103,-0.251 6.05,-0.887 -1.989,1.337 -3.77,2.983 -5.26,4.861 -0.336,0.424 -0.674,0.923 -0.594,1.458 0.085,0.567 0.644,0.972 1.212,1.051 0.568,0.079 1.139,-0.1 1.671,-0.315 2.608,-1.051 4.832,-3.026 6.183,-5.492 l -1.249,4.081 c -0.12,0.39 -0.24,0.803 -0.148,1.201 0.179,0.773 1.139,1.16 1.907,0.958 0.768,-0.202 1.35,-0.826 1.796,-1.483 0.771,-1.136 1.26,-2.435 1.741,-3.721 0.515,-1.374 1.036,-2.78 1.071,-4.247 0.049,-2.057 -0.85,-3.441 -2.196,-4.307 0.771,-1.106 1.533,-2.206 2.329,-3.274 0.329,-0.431 0.639,-0.874 0.956,-1.31 l 0.994,-1.278 c 0.647,-0.861 1.332,-1.693 2.024,-2.515 0.197,-0.243 0.412,-0.472 0.614,-0.711 -0.103,0.696 -0.156,1.397 -0.164,2.099 -0.017,1.383 0.102,2.774 0.4,4.135 0.298,1.359 0.75,2.691 1.381,3.942 0.413,0.806 0.904,1.588 1.497,2.285 -0.633,0.505 -1.122,1.189 -1.278,1.976 -0.599,3.025 3.173,4.374 5.273,2.627 0.277,-0.23 0.528,-0.5 0.679,-0.827 0.209,-0.453 0.207,-0.972 0.197,-1.471 -0.009,-0.443 -0.022,-0.892 -0.143,-1.318 -0.588,-2.069 -2.571,-2.237 -4.111,-1.405 -0.232,-0.815 -0.45,-1.62 -0.661,-2.418 -0.325,-1.27 -0.597,-2.54 -0.88,-3.812 l -0.8,-3.855 c -0.137,-0.649 -0.258,-1.305 -0.419,-1.964 -0.069,-0.292 -0.134,-0.587 -0.204,-0.882 0.956,-1.086 1.936,-2.154 2.937,-3.208 1.304,-1.34 2.653,-2.649 4.063,-3.939 6.232,-0.321 12.474,-0.361 18.693,0.115 0.259,0.02 0.517,0.05 0.776,0.072 -1.029,0.22 -2.046,0.489 -3.051,0.818 -2.221,0.711 -4.4,1.606 -6.434,2.79 -2.036,1.174 -3.893,2.675 -5.524,4.363 l -1.171,1.316 c -0.369,0.455 -0.692,0.951 -1.029,1.427 l -0.494,0.72 c -0.16,0.277 -0.314,0.581 -0.456,0.868 -0.286,0.584 -0.507,1.118 -0.739,1.558 0.066,0.052 0.269,0.077 0.308,0.075 l 0.219,0.02 c 0.147,0.015 0.293,0.025 0.439,0.028 0.293,0.011 0.587,0.021 0.878,0.009 0.587,-0.007 1.169,-0.059 1.754,-0.118 1.162,-0.145 2.32,-0.372 3.449,-0.702 2.254,-0.656 4.464,-1.588 6.391,-2.952 1.922,-1.373 3.602,-3.027 5.175,-4.72 1.582,-1.604 3.044,-3.308 4.496,-5.059 3.043,0.377 6.067,0.875 9.055,1.518 -0.139,0.018 -0.278,0.031 -0.416,0.053 -0.606,0.09 -1.204,0.228 -1.797,0.396 -0.598,0.15 -1.176,0.385 -1.732,0.676 -1.107,0.594 -2.106,1.441 -2.96,2.389 -0.416,0.483 -0.793,1.075 -0.863,1.786 -0.073,0.704 0.179,1.415 0.484,1.98 0.309,0.581 0.765,1.224 1.535,1.564 0.765,0.353 1.657,0.277 2.347,0.044 1.401,-0.485 2.426,-1.343 3.286,-2.27 0.847,-0.946 1.536,-1.98 2.118,-3.064 0.292,-0.541 0.557,-1.095 0.785,-1.666 0.12,-0.282 0.222,-0.574 0.323,-0.864 l 0.089,-0.283 c 3.56,0.88 7.063,1.952 10.475,3.238 2.545,0.94 5.037,2.002 7.48,3.163 -0.649,-0.059 -1.3,-0.109 -1.953,-0.14 -2.933,-0.152 -5.892,-0.088 -8.819,0.325 -2.926,0.407 -5.802,1.223 -8.537,2.332 -0.679,0.295 -1.346,0.614 -2.013,0.925 -0.66,0.327 -1.284,0.731 -1.923,1.092 -0.316,0.187 -0.637,0.365 -0.946,0.561 -0.319,0.213 -0.652,0.483 -0.962,0.727 -0.63,0.504 -1.172,0.99 -1.691,1.378 0.061,0.078 0.265,0.18 0.32,0.195 l 0.254,0.109 c 0.169,0.075 0.34,0.143 0.514,0.205 0.345,0.129 0.692,0.257 1.044,0.361 0.702,0.229 1.416,0.405 2.135,0.579 1.44,0.312 2.905,0.538 4.38,0.647 2.945,0.221 5.944,0.13 8.84,-0.509 2.891,-0.663 5.674,-1.669 8.35,-2.844 2.243,-0.898 4.414,-1.948 6.573,-3.054 1.727,0.989 3.409,2.053 5.053,3.177 -1.299,-0.109 -2.616,-0.079 -3.915,0.085 -2.321,0.285 -4.609,0.974 -6.712,2.038 -2.075,1.098 -4.063,2.424 -5.647,4.153 -0.863,0.788 -1.516,1.771 -2.223,2.679 -0.439,0.642 -0.818,1.321 -1.181,2.005 -1.182,-1.637 -3.331,-2.518 -5.261,-1.22 -3.699,2.488 -1.008,7.557 2.888,7.646 0.385,0.009 0.781,-0.028 1.124,-0.204 0.27,-0.139 0.49,-0.356 0.705,-0.569 0.445,-0.441 0.9,-0.897 1.142,-1.474 0.554,-1.318 0.305,-2.744 -0.393,-3.879 0.575,-0.564 1.129,-1.137 1.72,-1.665 0.856,-0.727 1.625,-1.521 2.526,-2.163 l 1.3,-1.007 1.365,-0.904 c 0.439,-0.323 0.923,-0.573 1.393,-0.846 0.474,-0.266 0.933,-0.558 1.436,-0.766 1.921,-1.016 3.989,-1.726 6.107,-2.299 1.523,-0.396 3.081,-0.69 4.681,-0.883 1.776,1.257 3.505,2.583 5.174,3.985 0.017,0.014 0.033,0.03 0.051,0.045 -0.589,-0.159 -1.19,-0.272 -1.798,-0.355 -0.608,-0.102 -1.232,-0.118 -1.858,-0.074 -1.253,0.101 -2.507,0.478 -3.669,1.005 -0.574,0.276 -1.157,0.668 -1.506,1.291 -0.349,0.615 -0.402,1.368 -0.348,2.008 0.05,0.657 0.211,1.428 0.78,2.048 0.56,0.629 1.408,0.917 2.133,0.98 1.478,0.116 2.761,-0.259 3.92,-0.765 1.155,-0.528 2.201,-1.2 3.167,-1.961 0.484,-0.379 0.949,-0.781 1.387,-1.212 0.185,-0.175 0.358,-0.363 0.533,-0.549 6.012,5.556 11.149,12.081 15.712,19.009 0.042,0.063 0.128,0.09 0.197,0.054 0.08,-0.049 0.108,-0.139 0.07,-0.213 z M 98.354,221.239 c -0.194,-0.303 -0.28,-0.555 -0.288,-0.827 -0.007,-0.271 0.117,-0.645 0.384,-0.991 0.27,-0.362 0.578,-0.656 0.976,-0.714 0.388,-0.066 0.821,0.098 1.152,0.401 0.681,0.623 0.933,1.615 1.26,2.488 0.332,0.883 0.779,1.725 1.216,2.596 0.202,0.378 0.406,0.759 0.626,1.138 -0.185,-0.007 -0.37,-0.011 -0.555,-0.018 -0.239,-0.189 -0.478,-0.38 -0.714,-0.564 -0.769,-0.602 -1.531,-1.181 -2.239,-1.767 -0.701,-0.575 -1.421,-1.14 -1.818,-1.742 z M 78.92,203.922 c 0.256,0.302 0.515,0.604 0.716,0.943 0.342,0.521 0.665,1.054 0.963,1.601 -0.148,0.009 -0.285,0.028 -0.406,0.049 l -0.576,0.105 c -0.158,0.035 -0.312,0.072 -0.479,0.115 -0.09,-0.937 -0.16,-1.874 -0.218,-2.813 z m 0.588,5.698 c -0.088,-0.546 -0.188,-1.089 -0.253,-1.64 -0.013,-0.129 -0.024,-0.261 -0.037,-0.391 0.2,0.036 0.406,0.047 0.603,0.008 0.283,-0.068 0.558,-0.204 0.749,-0.403 0.096,-0.095 0.175,-0.197 0.242,-0.311 0.076,0.155 0.168,0.301 0.235,0.46 0.311,0.644 0.54,1.318 0.741,2 -0.231,0.076 -0.425,0.181 -0.567,0.179 -0.235,0.027 -0.518,0.042 -0.818,0.051 -0.292,0.025 -0.575,0.033 -0.864,0.047 -0.01,0 -0.021,0 -0.031,0 z m 0.835,3.898 c -0.033,-0.003 -0.063,-0.011 -0.096,-0.014 -0.002,-0.008 -0.004,-0.015 -0.005,-0.023 -0.219,-0.999 -0.422,-2.007 -0.604,-3.02 0.272,0.079 0.55,0.118 0.821,0.109 0.352,-0.035 0.74,-0.091 1.102,-0.35 0.179,-0.129 0.283,-0.27 0.363,-0.416 0.266,0.993 0.466,2.004 0.673,2.99 0.022,0.102 0.04,0.205 0.062,0.307 -0.061,0.026 -0.124,0.057 -0.183,0.082 -0.355,0.126 -0.7,0.228 -1.056,0.277 -0.353,0.064 -0.708,0.075 -1.077,0.058 z m 0.93,3.778 c -0.312,-0.962 -0.592,-1.932 -0.825,-2.915 0.367,0.104 0.757,0.119 1.132,0.066 0.453,-0.083 0.883,-0.271 1.238,-0.56 0.201,0.981 0.38,1.968 0.539,2.959 -0.025,0.003 -0.05,0.006 -0.076,0.01 -0.309,0.019 -0.695,0.089 -1.025,0.169 l -0.93,0.261 c -0.018,0.004 -0.036,0.006 -0.053,0.01 z m 0.514,1.529 c -0.087,-0.25 -0.17,-0.5 -0.255,-0.75 0.343,0.027 0.675,-0.012 0.973,-0.081 0.336,-0.103 0.633,-0.196 0.973,-0.376 0.034,0.232 0.079,0.46 0.11,0.693 0.065,0.485 0.118,0.971 0.167,1.46 -0.061,0 -0.125,-0.004 -0.181,0.001 -0.251,0.01 -0.464,0.053 -0.661,0.072 l -0.683,0.11 z m 1.662,3.781 -0.267,-0.554 -0.296,-0.647 c -0.085,-0.194 -0.178,-0.383 -0.269,-0.572 0.147,0.018 0.297,0.019 0.441,-0.001 0.292,-0.053 0.551,-0.161 0.767,-0.32 0.019,0.204 0.039,0.406 0.058,0.611 0.019,0.471 0.074,0.948 0.087,1.425 0.005,0.083 0.007,0.166 0.012,0.249 -0.17,-0.043 -0.339,-0.089 -0.509,-0.133 -0.006,-0.019 -0.016,-0.041 -0.024,-0.058 z M 42.036,211.567 c -0.134,0.36 -0.193,0.728 -0.172,1.083 0.002,0.103 0.024,0.205 0.04,0.307 -0.296,-0.114 -0.593,-0.226 -0.89,-0.342 -0.54,-0.244 -1.104,-0.455 -1.641,-0.718 -0.274,-0.123 -0.549,-0.245 -0.817,-0.382 l -0.408,-0.197 c -0.1,-0.037 -0.179,-0.1 -0.254,-0.12 0.628,-0.085 1.213,-0.109 1.717,-0.134 0.272,-0.013 0.526,-0.033 0.786,-0.058 l 0.894,-0.028 1.143,-0.045 c -0.161,0.194 -0.303,0.403 -0.398,0.634 z m 3.255,2.554 c -0.313,-0.094 -0.626,-0.185 -0.938,-0.285 -0.641,-0.203 -1.273,-0.431 -1.904,-0.669 0.066,-0.131 0.131,-0.261 0.18,-0.388 0.131,-0.3 0.22,-0.584 0.334,-0.842 0.13,-0.334 0.277,-0.656 0.444,-1.018 l 1.42,0.042 c 0.444,0.025 0.888,0.058 1.331,0.091 -0.308,0.409 -0.487,0.879 -0.62,1.326 -0.114,0.473 -0.216,0.894 -0.251,1.413 -0.008,0.102 -0.004,0.216 0.004,0.33 z m 4.553,0.83 c 0.016,0.123 0.044,0.245 0.075,0.365 -1.342,-0.291 -2.674,-0.62 -3.993,-1.002 0.038,-0.122 0.081,-0.244 0.124,-0.368 0.169,-0.392 0.328,-0.868 0.452,-1.299 0.152,-0.543 0.275,-1.035 0.473,-1.526 1.383,0.125 2.757,0.31 4.118,0.582 -0.451,0.387 -0.795,0.891 -1.019,1.441 -0.213,0.573 -0.317,1.196 -0.23,1.807 z m 5.179,1.301 -0.32,-0.037 c -0.593,-0.05 -1.179,-0.173 -1.762,-0.29 -0.582,-0.124 -1.17,-0.187 -1.743,-0.34 -0.207,-0.041 -0.413,-0.087 -0.619,-0.13 0.008,-0.173 0.024,-0.345 0.043,-0.512 0.074,-0.496 0.195,-0.978 0.384,-1.433 0.172,-0.463 0.415,-0.893 0.695,-1.313 0.083,-0.115 0.178,-0.214 0.266,-0.32 1.327,0.272 2.65,0.579 3.964,0.933 -10e-4,0.001 -10e-4,0.001 -0.002,0.001 -0.376,0.308 -0.645,0.708 -0.861,1.12 -0.188,0.418 -0.37,0.862 -0.355,1.404 0.007,0.388 0.154,0.66 0.31,0.917 z m 3.258,0.191 c -0.599,0.004 -1.198,0.004 -1.795,-0.021 l -1.127,-0.131 c 0.055,-0.342 0.026,-0.665 0.127,-0.875 0.114,-0.323 0.293,-0.684 0.477,-1.042 0.171,-0.361 0.357,-0.707 0.553,-1.05 0.061,-0.101 0.129,-0.202 0.194,-0.302 0.635,0.182 1.267,0.374 1.895,0.585 0.235,0.083 0.471,0.17 0.706,0.254 -0.243,0.242 -0.43,0.546 -0.543,0.871 -0.108,0.343 -0.146,0.724 -0.073,1.067 0.043,0.225 0.127,0.43 0.232,0.63 -0.215,0.008 -0.43,0.019 -0.646,0.014 z m 3.574,-0.349 c -0.86,0.12 -1.722,0.26 -2.59,0.32 0.087,-0.207 0.154,-0.411 0.208,-0.594 0.087,-0.281 0.15,-0.523 0.244,-0.771 0.097,-0.302 0.205,-0.597 0.319,-0.929 1.281,0.468 2.556,0.968 3.802,1.514 -0.655,0.18 -1.313,0.352 -1.983,0.46 z m 13.04,6.644 c -0.394,0.311 -0.772,0.627 -1.148,0.939 -0.753,0.622 -1.482,1.242 -2.206,1.807 -0.712,0.563 -1.418,1.145 -2.091,1.403 -0.337,0.125 -0.602,0.154 -0.869,0.104 -0.267,-0.051 -0.605,-0.252 -0.886,-0.588 -0.296,-0.341 -0.517,-0.705 -0.487,-1.107 0.019,-0.394 0.272,-0.781 0.639,-1.039 0.755,-0.532 1.778,-0.565 2.701,-0.697 0.934,-0.135 1.852,-0.39 2.796,-0.631 0.47,-0.132 0.944,-0.258 1.42,-0.418 0.087,-0.026 0.174,-0.059 0.26,-0.089 0.058,0.027 0.115,0.054 0.173,0.08 z m 5.541,18.33 c -0.601,0.097 -1.206,0.238 -1.818,0.303 -0.306,0.046 -0.613,0.089 -0.922,0.112 l -0.465,0.045 c -0.162,0.025 -0.32,-0.011 -0.39,0.082 0.4,-0.563 0.803,-1.055 1.164,-1.501 0.364,-0.445 0.661,-0.862 1.104,-1.333 l 1.016,-1.157 c -0.019,0.461 0.048,0.921 0.181,1.364 0.158,0.464 0.371,0.896 0.647,1.278 0.132,0.194 0.284,0.374 0.439,0.55 0.007,0.007 0.014,0.014 0.021,0.02 -0.326,0.08 -0.649,0.162 -0.977,0.237 z m 3.52,-0.958 c -0.687,0.245 -1.391,0.438 -2.101,0.617 -0.009,-0.046 -0.017,-0.092 -0.029,-0.137 -0.053,-0.228 -0.107,-0.453 -0.175,-0.667 l -0.393,-1.24 c -0.182,-0.562 -0.332,-1.12 -0.494,-1.726 0.284,-0.271 0.575,-0.535 0.848,-0.812 0.429,-0.422 0.858,-0.84 1.347,-1.194 l 0.016,-0.012 c 0.002,0.145 0.008,0.29 0.023,0.431 0.091,0.662 0.322,1.268 0.522,1.895 0.225,0.629 0.472,1.179 0.85,1.764 0.169,0.254 0.313,0.505 0.522,0.734 -0.31,0.115 -0.618,0.24 -0.936,0.347 z m 1.415,-0.527 c -0.123,-0.288 -0.2,-0.605 -0.306,-0.907 -0.188,-0.553 -0.424,-1.183 -0.606,-1.757 -0.201,-0.578 -0.466,-1.149 -0.698,-1.715 -0.08,-0.238 -0.152,-0.478 -0.22,-0.721 l 0.817,-0.658 c 0.977,-0.629 1.892,-1.334 2.92,-1.874 -0.049,0.231 -0.082,0.462 -0.092,0.691 -0.048,0.779 0.079,1.556 0.305,2.296 0.246,0.733 0.585,1.441 1.072,2.05 0.209,0.276 0.457,0.522 0.723,0.745 -1.273,0.689 -2.572,1.316 -3.915,1.85 z m 8.194,-4.542 c -0.948,0.784 -2.049,1.348 -3.056,2.014 -0.255,0.147 -0.515,0.285 -0.772,0.428 -0.195,-0.295 -0.363,-0.603 -0.519,-0.915 -0.309,-0.625 -0.572,-1.271 -0.775,-1.933 -0.218,-0.659 -0.37,-1.336 -0.478,-2.024 -0.048,-0.335 -0.088,-0.668 -0.081,-0.996 1.243,-0.696 2.526,-1.331 3.85,-1.884 -0.054,0.238 -0.091,0.481 -0.103,0.719 -0.038,0.623 0.054,1.234 0.196,1.824 0.163,0.58 0.35,1.169 0.727,1.71 0.303,0.465 0.72,0.717 1.117,0.976 -0.036,0.029 -0.072,0.054 -0.106,0.081 z m 2.779,-2.44 c -0.431,0.445 -0.88,0.871 -1.321,1.302 -0.369,0.336 -0.778,0.626 -1.176,0.926 -0.203,-0.454 -0.499,-0.827 -0.61,-1.212 -0.173,-0.493 -0.309,-1.039 -0.442,-1.588 -0.147,-0.542 -0.269,-1.085 -0.386,-1.63 -0.057,-0.295 -0.107,-0.589 -0.146,-0.892 0.54,-0.214 1.086,-0.415 1.639,-0.598 0.361,-0.113 0.726,-0.217 1.09,-0.324 -0.098,0.612 -0.024,1.249 0.176,1.831 0.163,0.433 0.394,0.852 0.7,1.193 0.227,0.26 0.488,0.474 0.773,0.67 -0.099,0.107 -0.193,0.219 -0.297,0.322 z m 2.301,-2.913 c -0.354,0.508 -0.73,1 -1.101,1.497 -0.222,0.314 -0.466,0.61 -0.719,0.897 -0.084,-0.312 -0.187,-0.608 -0.294,-0.88 -0.148,-0.388 -0.297,-0.744 -0.421,-1.121 -0.197,-0.533 -0.38,-1.079 -0.585,-1.653 0.49,-0.138 0.984,-0.262 1.48,-0.383 0.822,0.083 1.644,0.165 2.467,0.231 -0.263,0.479 -0.532,0.954 -0.827,1.412 z m 12.022,-28.599 0.105,0.097 c 0.46,0.428 0.938,0.844 1.331,1.335 0.559,0.639 1.112,1.287 1.622,1.967 -0.204,0.065 -0.393,0.142 -0.555,0.218 -0.254,0.112 -0.456,0.215 -0.679,0.294 -0.247,0.102 -0.493,0.192 -0.771,0.291 -0.38,-1.392 -0.74,-2.795 -1.053,-4.202 z m 2.142,7.808 c -0.245,-0.723 -0.482,-1.45 -0.698,-2.185 -0.062,-0.221 -0.122,-0.444 -0.183,-0.665 0.314,0.035 0.641,-0.003 0.936,-0.119 0.323,-0.138 0.619,-0.359 0.809,-0.629 0.118,-0.16 0.202,-0.332 0.271,-0.515 0.166,0.232 0.327,0.467 0.479,0.709 0.539,0.78 0.993,1.609 1.417,2.452 -0.283,0.175 -0.501,0.406 -0.701,0.468 -0.281,0.117 -0.632,0.2 -1.001,0.275 -0.358,0.088 -0.713,0.148 -1.073,0.194 -0.084,0.008 -0.171,0.009 -0.256,0.015 z m 1.835,4.885 c -0.01,-0.025 -0.021,-0.049 -0.031,-0.074 -0.539,-1.33 -1.055,-2.674 -1.534,-4.033 0.428,0.097 0.865,0.071 1.276,-0.012 0.42,-0.11 0.88,-0.253 1.255,-0.632 0.238,-0.243 0.333,-0.491 0.405,-0.738 0.627,1.293 1.171,2.624 1.703,3.938 0.057,0.138 0.106,0.278 0.162,0.416 -0.107,0.087 -0.212,0.181 -0.319,0.26 -0.395,0.266 -0.802,0.485 -1.237,0.628 -0.43,0.155 -0.88,0.231 -1.349,0.253 -0.112,0 -0.222,-0.001 -0.331,-0.006 z m 2.224,4.776 c -0.685,-1.301 -1.32,-2.624 -1.889,-3.979 0.552,0.123 1.135,0.075 1.671,-0.101 0.564,-0.207 1.079,-0.547 1.45,-1.012 0.024,-0.029 0.041,-0.062 0.063,-0.092 0.532,1.34 1.025,2.696 1.483,4.064 -0.077,0.033 -0.155,0.064 -0.235,0.095 -0.367,0.115 -0.816,0.286 -1.202,0.462 -0.385,0.187 -0.743,0.356 -1.103,0.495 -0.078,0.027 -0.16,0.045 -0.238,0.068 z m 1.846,3.231 -0.867,-1.423 c -0.205,-0.367 -0.403,-0.737 -0.603,-1.106 0.508,-0.007 0.972,-0.177 1.383,-0.357 0.409,-0.21 0.775,-0.384 1.179,-0.7 0.025,-0.018 0.047,-0.047 0.071,-0.068 0.119,0.369 0.255,0.73 0.367,1.101 0.196,0.643 0.376,1.291 0.55,1.942 -0.115,0.028 -0.232,0.055 -0.336,0.091 -0.294,0.088 -0.547,0.195 -0.79,0.265 -0.299,0.099 -0.601,0.177 -0.954,0.255 z m 2.191,3.149 c -0.165,-0.239 -0.326,-0.417 -0.502,-0.677 l -0.534,-0.773 c -0.21,-0.316 -0.432,-0.621 -0.648,-0.929 0.256,0.017 0.514,0.002 0.758,-0.076 0.349,-0.126 0.65,-0.314 0.886,-0.552 0.036,-0.034 0.063,-0.076 0.096,-0.112 0.09,0.344 0.181,0.686 0.268,1.032 0.126,0.612 0.293,1.222 0.408,1.84 0.036,0.165 0.067,0.331 0.101,0.496 -0.212,0.009 -0.423,0.019 -0.635,0.028 -0.065,-0.092 -0.137,-0.192 -0.198,-0.277 z m -2.355,3.545 c -0.241,0.44 -0.466,0.879 -0.69,1.314 -0.45,0.867 -0.878,1.723 -1.324,2.526 -0.435,0.796 -0.858,1.608 -1.376,2.109 -0.262,0.247 -0.494,0.378 -0.759,0.436 -0.266,0.057 -0.656,0.004 -1.045,-0.195 -0.406,-0.199 -0.752,-0.447 -0.881,-0.828 -0.137,-0.369 -0.055,-0.825 0.182,-1.206 0.487,-0.784 1.415,-1.215 2.213,-1.697 0.807,-0.489 1.552,-1.083 2.327,-1.674 0.344,-0.275 0.691,-0.553 1.031,-0.848 0.123,-0.006 0.246,-0.013 0.369,-0.019 z m 13.075,15.196 c -0.462,0.319 -0.908,0.675 -1.382,0.985 -0.233,0.164 -0.467,0.327 -0.708,0.48 l -0.359,0.236 -0.181,0.116 c -0.021,0.009 -0.031,0.017 -0.04,0.024 0.208,-0.562 0.447,-1.059 0.648,-1.487 l 0.302,-0.681 0.38,-0.756 c 0.162,-0.315 0.314,-0.63 0.468,-0.945 0.111,0.269 0.257,0.526 0.45,0.738 0.267,0.273 0.568,0.488 0.894,0.63 0.081,0.039 0.169,0.061 0.255,0.091 -0.243,0.189 -0.483,0.38 -0.727,0.569 z m 2.613,-2.122 c -0.458,0.405 -0.931,0.794 -1.41,1.177 -0.088,-0.12 -0.177,-0.239 -0.27,-0.342 l -0.622,-0.683 c -0.256,-0.273 -0.493,-0.55 -0.759,-0.865 l 0.699,-1.184 c 0.218,-0.34 0.442,-0.676 0.666,-1.012 0.012,0.023 0.02,0.049 0.032,0.071 0.242,0.472 0.601,0.845 0.954,1.174 0.374,0.314 0.712,0.601 1.165,0.865 0.077,0.047 0.169,0.087 0.26,0.127 -0.243,0.221 -0.469,0.456 -0.715,0.672 z m 1.205,-1.136 c -0.092,-0.09 -0.181,-0.183 -0.273,-0.277 -0.282,-0.33 -0.638,-0.687 -0.975,-0.995 -0.349,-0.302 -0.676,-0.589 -0.988,-0.885 -0.08,-0.081 -0.155,-0.17 -0.233,-0.254 0.746,-1.084 1.542,-2.129 2.412,-3.117 0.009,0.034 0.011,0.071 0.021,0.104 0.159,0.597 0.493,1.129 0.903,1.58 0.428,0.434 0.935,0.796 1.512,0.998 0.108,0.039 0.219,0.067 0.33,0.095 -0.868,0.951 -1.772,1.867 -2.709,2.751 z m 3.497,-3.601 c -0.102,0.117 -0.213,0.225 -0.316,0.34 -0.153,-0.092 -0.308,-0.184 -0.452,-0.279 -0.414,-0.298 -0.797,-0.622 -1.136,-0.99 -0.346,-0.36 -0.645,-0.759 -0.908,-1.19 -0.079,-0.135 -0.151,-0.27 -0.215,-0.408 0.861,-0.963 1.761,-1.896 2.688,-2.807 0.008,0.035 0.013,0.072 0.022,0.107 0.125,0.471 0.371,0.884 0.652,1.254 0.295,0.348 0.625,0.707 1.113,0.926 0.351,0.162 0.662,0.162 0.968,0.148 -0.762,1.011 -1.597,1.965 -2.416,2.899 z m 4.017,-5.42 c -0.394,0.801 -0.886,1.54 -1.409,2.256 -0.278,-0.22 -0.587,-0.355 -0.745,-0.541 -0.248,-0.25 -0.495,-0.563 -0.743,-0.888 -0.257,-0.311 -0.492,-0.63 -0.724,-0.953 -0.065,-0.096 -0.127,-0.198 -0.19,-0.297 0.465,-0.442 0.917,-0.896 1.405,-1.316 0.177,-0.148 0.357,-0.294 0.535,-0.441 0.113,0.357 0.321,0.686 0.584,0.949 0.265,0.246 0.586,0.447 0.923,0.541 0.221,0.066 0.445,0.089 0.675,0.091 -0.099,0.202 -0.199,0.404 -0.311,0.599 z m 1.753,-4.777 c -0.133,0.55 -0.221,1.119 -0.436,1.644 -0.272,0.749 -0.536,1.505 -0.864,2.233 -0.146,-0.176 -0.297,-0.334 -0.441,-0.469 -0.217,-0.211 -0.415,-0.381 -0.603,-0.577 -0.236,-0.225 -0.461,-0.452 -0.715,-0.7 1.015,-0.827 2.054,-1.634 3.118,-2.393 z m -7.667,-2.838 c -0.18,-0.468 -0.369,-0.924 -0.555,-1.376 -0.37,-0.904 -0.745,-1.784 -1.069,-2.644 -0.326,-0.847 -0.671,-1.694 -0.718,-2.414 -0.019,-0.359 0.032,-0.621 0.159,-0.861 0.128,-0.239 0.421,-0.503 0.825,-0.671 0.414,-0.181 0.827,-0.284 1.202,-0.136 0.37,0.135 0.665,0.492 0.802,0.919 0.283,0.879 0.011,1.865 -0.138,2.786 -0.149,0.932 -0.178,1.884 -0.229,2.857 -0.014,0.488 -0.034,0.978 -0.023,1.48 -0.002,0.182 0.008,0.367 0.015,0.553 -0.027,0.002 -0.054,0.003 -0.081,0.005 z m 19.935,1.938 c -0.108,0.49 -0.201,0.974 -0.295,1.454 -0.19,0.958 -0.362,1.9 -0.565,2.796 -0.196,0.886 -0.374,1.784 -0.732,2.409 -0.182,0.31 -0.369,0.501 -0.607,0.63 -0.239,0.129 -0.628,0.187 -1.058,0.105 -0.445,-0.077 -0.846,-0.219 -1.077,-0.549 -0.234,-0.317 -0.283,-0.777 -0.163,-1.209 0.248,-0.889 1.019,-1.562 1.651,-2.248 0.638,-0.695 1.187,-1.474 1.767,-2.257 0.281,-0.399 0.568,-0.797 0.835,-1.222 0.14,-0.206 0.267,-0.426 0.4,-0.643 l 0.019,-0.033 -0.007,0.029 z m -2.642,-24.264 0.093,0.076 c 0.422,0.349 0.871,0.676 1.234,1.087 0.52,0.539 1.043,1.081 1.52,1.66 -0.198,0.052 -0.382,0.116 -0.543,0.181 -0.258,0.099 -0.467,0.197 -0.694,0.276 -0.249,0.102 -0.494,0.195 -0.765,0.304 -0.31,-1.186 -0.6,-2.384 -0.845,-3.584 z m 1.771,6.728 c -0.203,-0.601 -0.397,-1.204 -0.572,-1.816 -0.052,-0.191 -0.102,-0.384 -0.153,-0.576 0.314,0.03 0.639,-0.015 0.932,-0.127 0.312,-0.132 0.604,-0.334 0.803,-0.59 0.126,-0.156 0.218,-0.327 0.296,-0.511 0.137,0.177 0.273,0.356 0.399,0.543 0.51,0.671 0.931,1.396 1.322,2.136 -0.281,0.149 -0.505,0.349 -0.707,0.402 -0.292,0.106 -0.641,0.189 -1.004,0.269 -0.354,0.094 -0.704,0.165 -1.056,0.234 -0.086,0.014 -0.175,0.023 -0.26,0.036 z m 0.26,0.746 c 0.437,0.086 0.876,0.047 1.289,-0.044 0.406,-0.113 0.841,-0.255 1.212,-0.601 0.245,-0.227 0.353,-0.469 0.44,-0.712 0.553,1.095 1.029,2.227 1.495,3.337 0.053,0.124 0.097,0.251 0.149,0.375 -0.114,0.079 -0.228,0.162 -0.341,0.235 -0.402,0.234 -0.81,0.434 -1.239,0.575 -0.425,0.152 -0.865,0.245 -1.321,0.295 -0.112,0.01 -0.223,0.018 -0.332,0.021 -0.479,-1.145 -0.934,-2.305 -1.352,-3.481 z m 3.347,7.587 c -0.61,-1.088 -1.172,-2.199 -1.667,-3.343 0.552,0.103 1.122,0.036 1.65,-0.135 0.536,-0.197 1.036,-0.501 1.416,-0.926 0.041,-0.045 0.074,-0.095 0.111,-0.142 0.462,1.136 0.885,2.287 1.274,3.451 -0.085,0.031 -0.172,0.06 -0.259,0.091 -0.376,0.105 -0.813,0.268 -1.196,0.434 -0.382,0.179 -0.739,0.344 -1.097,0.493 -0.076,0.028 -0.156,0.05 -0.232,0.077 z m 1.687,2.77 -0.752,-1.153 c -0.185,-0.309 -0.363,-0.62 -0.543,-0.93 0.489,-0.016 0.938,-0.174 1.343,-0.344 0.404,-0.198 0.766,-0.37 1.161,-0.663 0.038,-0.027 0.075,-0.067 0.114,-0.099 0.094,0.296 0.205,0.585 0.294,0.884 0.167,0.557 0.318,1.12 0.463,1.685 -0.115,0.024 -0.232,0.046 -0.337,0.078 -0.294,0.077 -0.548,0.18 -0.795,0.252 -0.304,0.102 -0.604,0.191 -0.948,0.29 z m 2.044,2.711 -0.453,-0.56 -0.489,-0.656 c -0.185,-0.254 -0.377,-0.5 -0.566,-0.747 0.247,0.007 0.495,-0.014 0.726,-0.089 0.335,-0.122 0.631,-0.298 0.867,-0.526 0.04,-0.035 0.07,-0.08 0.107,-0.119 0.069,0.278 0.139,0.554 0.206,0.833 0.1,0.534 0.239,1.068 0.329,1.61 0.055,0.27 0.107,0.541 0.15,0.814 l 0.06,0.343 c -0.067,0.002 -0.134,0.004 -0.201,0.006 -0.276,-0.323 -0.525,-0.637 -0.736,-0.909 z m 19.414,-0.477 -1.033,-1.45 c -0.682,-0.957 -1.358,-1.896 -1.964,-2.837 -0.603,-0.928 -1.217,-1.866 -1.443,-2.759 -0.108,-0.446 -0.102,-0.819 0.027,-1.165 0.129,-0.347 0.45,-0.722 0.903,-1.008 0.459,-0.302 0.946,-0.513 1.441,-0.418 0.488,0.082 0.928,0.443 1.205,0.916 0.567,0.971 0.549,2.192 0.63,3.318 0.079,1.14 0.26,2.278 0.419,3.442 0.082,0.581 0.169,1.165 0.28,1.755 l 0.172,0.887 0.083,0.366 -0.205,-0.305 z m -9.222,15.454 c -0.542,0.146 -1.081,0.334 -1.632,0.467 -0.274,0.077 -0.549,0.152 -0.827,0.216 l -0.417,0.103 -0.21,0.049 c -0.023,0.002 -0.035,0.006 -0.045,0.01 0.384,-0.461 0.775,-0.849 1.107,-1.186 l 0.512,-0.542 0.61,-0.586 c 0.257,-0.243 0.506,-0.489 0.757,-0.735 0.015,0.291 0.066,0.581 0.178,0.846 0.161,0.346 0.372,0.65 0.633,0.892 0.064,0.064 0.139,0.115 0.21,0.171 -0.292,0.098 -0.582,0.198 -0.876,0.295 z m 3.172,-1.128 c -0.567,0.229 -1.143,0.437 -1.723,0.639 -0.043,-0.143 -0.087,-0.284 -0.14,-0.413 l -0.359,-0.852 c -0.15,-0.343 -0.282,-0.683 -0.427,-1.069 l 1.054,-0.883 c 0.319,-0.248 0.643,-0.49 0.966,-0.732 0.003,0.026 0.002,0.053 0.006,0.078 0.07,0.526 0.284,0.997 0.507,1.425 0.248,0.421 0.471,0.804 0.809,1.204 0.057,0.07 0.125,0.14 0.197,0.209 -0.297,0.127 -0.587,0.273 -0.89,0.394 z m 1.515,-0.669 c -0.057,-0.115 -0.11,-0.233 -0.165,-0.352 -0.156,-0.405 -0.372,-0.861 -0.587,-1.264 -0.228,-0.401 -0.441,-0.781 -0.635,-1.164 -0.048,-0.103 -0.09,-0.212 -0.135,-0.317 1.065,-0.773 2.165,-1.492 3.314,-2.133 -0.003,0.035 -0.013,0.071 -0.015,0.105 -0.049,0.615 0.088,1.229 0.324,1.79 0.258,0.552 0.616,1.062 1.092,1.445 0.089,0.073 0.184,0.136 0.279,0.199 -1.135,0.609 -2.293,1.171 -3.472,1.691 z m 4.499,-2.227 c -0.135,0.076 -0.276,0.14 -0.412,0.215 -0.114,-0.138 -0.229,-0.276 -0.333,-0.414 -0.29,-0.419 -0.544,-0.853 -0.74,-1.312 -0.206,-0.455 -0.354,-0.93 -0.458,-1.424 -0.03,-0.154 -0.052,-0.306 -0.067,-0.458 1.135,-0.621 2.292,-1.213 3.473,-1.763 -0.005,0.041 -0.014,0.083 -0.017,0.124 -0.04,0.485 0.054,0.957 0.197,1.4 0.161,0.427 0.353,0.875 0.74,1.244 0.276,0.27 0.57,0.374 0.863,0.463 -1.057,0.697 -2.163,1.318 -3.246,1.925 z m 5.595,-3.769 c -0.639,0.623 -1.349,1.156 -2.081,1.656 -0.189,-0.3 -0.435,-0.53 -0.522,-0.759 -0.15,-0.319 -0.279,-0.696 -0.404,-1.085 -0.139,-0.379 -0.253,-0.758 -0.364,-1.14 -0.032,-0.122 -0.059,-0.247 -0.087,-0.371 0.584,-0.26 1.172,-0.511 1.77,-0.744 0.216,-0.08 0.435,-0.158 0.652,-0.238 -0.013,0.374 0.073,0.754 0.234,1.089 0.167,0.321 0.403,0.617 0.689,0.818 0.186,0.137 0.389,0.232 0.606,0.311 -0.161,0.16 -0.321,0.317 -0.493,0.463 z m 3.248,-3.918 c -0.309,0.475 -0.582,0.981 -0.96,1.404 -0.507,0.615 -1.007,1.241 -1.559,1.816 -0.078,-0.215 -0.169,-0.415 -0.259,-0.59 -0.134,-0.271 -0.264,-0.497 -0.376,-0.745 -0.148,-0.291 -0.284,-0.581 -0.441,-0.899 1.233,-0.441 2.482,-0.855 3.738,-1.215 z m 7.285,-22.161 0.111,0.086 c 0.49,0.38 0.998,0.746 1.428,1.194 0.605,0.579 1.191,1.177 1.75,1.8 -0.189,0.079 -0.364,0.168 -0.515,0.253 -0.244,0.132 -0.438,0.251 -0.653,0.349 -0.237,0.123 -0.475,0.233 -0.743,0.356 -0.487,-1.335 -0.956,-2.682 -1.378,-4.038 z m 3.003,7.457 c -0.083,0.016 -0.17,0.025 -0.254,0.039 -0.3,-0.688 -0.593,-1.381 -0.865,-2.083 -0.079,-0.212 -0.157,-0.426 -0.235,-0.639 0.316,0.008 0.638,-0.058 0.922,-0.199 0.309,-0.165 0.585,-0.408 0.753,-0.692 0.1,-0.16 0.169,-0.328 0.222,-0.506 0.178,0.207 0.37,0.402 0.535,0.62 0.6,0.721 1.117,1.499 1.607,2.294 -0.268,0.195 -0.466,0.442 -0.66,0.519 -0.272,0.139 -0.613,0.251 -0.974,0.358 -0.35,0.119 -0.698,0.21 -1.051,0.289 z m 1.961,4.688 c -0.011,-0.021 -0.023,-0.042 -0.033,-0.063 -0.643,-1.264 -1.264,-2.544 -1.85,-3.843 0.437,0.06 0.871,0.001 1.274,-0.118 0.408,-0.145 0.851,-0.327 1.193,-0.733 0.218,-0.261 0.292,-0.515 0.344,-0.767 0.725,1.216 1.372,2.478 2.005,3.723 0.068,0.131 0.128,0.266 0.195,0.397 -0.1,0.095 -0.197,0.197 -0.298,0.284 -0.372,0.295 -0.759,0.546 -1.18,0.724 -0.415,0.191 -0.856,0.306 -1.32,0.37 -0.112,0.012 -0.222,0.022 -0.33,0.026 z m 2.591,4.507 c -0.783,-1.218 -1.519,-2.462 -2.192,-3.744 0.56,0.073 1.135,-0.025 1.654,-0.245 0.542,-0.252 1.025,-0.631 1.357,-1.122 0.023,-0.033 0.038,-0.069 0.059,-0.103 0.635,1.271 1.232,2.56 1.796,3.866 -0.075,0.039 -0.151,0.077 -0.228,0.114 -0.357,0.145 -0.789,0.353 -1.159,0.559 -0.368,0.218 -0.709,0.416 -1.057,0.587 -0.074,0.033 -0.154,0.058 -0.23,0.088 z m 1.123,1.7 c -0.233,-0.343 -0.459,-0.689 -0.687,-1.034 0.504,-0.05 0.95,-0.258 1.344,-0.471 0.389,-0.242 0.739,-0.447 1.114,-0.793 0.025,-0.021 0.045,-0.053 0.069,-0.077 0.146,0.35 0.31,0.692 0.45,1.046 0.246,0.616 0.477,1.238 0.702,1.863 -0.112,0.037 -0.227,0.074 -0.327,0.118 -0.286,0.111 -0.529,0.239 -0.765,0.329 -0.29,0.125 -0.585,0.229 -0.928,0.339 z m 3.401,4.23 c -0.183,-0.221 -0.356,-0.383 -0.551,-0.621 l -0.592,-0.714 c -0.233,-0.291 -0.477,-0.571 -0.715,-0.854 0.255,-0.006 0.511,-0.043 0.746,-0.141 0.336,-0.154 0.62,-0.366 0.834,-0.622 0.033,-0.037 0.057,-0.082 0.087,-0.121 0.116,0.329 0.233,0.656 0.347,0.987 0.174,0.592 0.389,1.178 0.553,1.777 0.092,0.298 0.182,0.597 0.262,0.898 l 0.019,0.066 c -0.18,-0.046 -0.361,-0.09 -0.541,-0.135 -0.158,-0.18 -0.31,-0.359 -0.449,-0.52 z m -6.062,1.1 -0.621,0.656 -1.209,1.306 c -0.798,0.863 -1.58,1.715 -2.378,2.5 -0.786,0.779 -1.579,1.572 -2.407,1.975 -0.415,0.196 -0.781,0.266 -1.146,0.21 -0.366,-0.056 -0.799,-0.293 -1.171,-0.678 -0.389,-0.388 -0.695,-0.822 -0.703,-1.326 -0.019,-0.495 0.245,-0.999 0.651,-1.366 0.835,-0.753 2.034,-0.984 3.121,-1.293 1.1,-0.31 2.178,-0.719 3.285,-1.111 0.552,-0.199 1.107,-0.403 1.661,-0.632 l 0.834,-0.349 0.008,-0.004 c 0.05,0.012 0.101,0.023 0.151,0.035 z m 32.199,-15.104 0.16,0.299 c 0.322,0.605 0.669,1.201 0.902,1.846 0.355,0.866 0.704,1.738 0.995,2.628 -0.243,0 -0.475,0.019 -0.68,0.045 -0.304,0.033 -0.559,0.072 -0.826,0.076 -0.325,0.02 -0.646,0.018 -1.007,0.011 0.112,-1.637 0.255,-3.278 0.456,-4.905 z m -0.558,6.476 c 0.016,-0.274 0.036,-0.549 0.054,-0.823 0.336,0.174 0.726,0.256 1.107,0.239 0.379,-0.027 0.76,-0.146 1.056,-0.349 0.193,-0.126 0.354,-0.282 0.503,-0.454 0.094,0.309 0.182,0.62 0.257,0.934 0.283,1 0.469,2.019 0.62,3.044 -0.368,0.084 -0.687,0.263 -0.936,0.264 -0.345,0.031 -0.746,-0.007 -1.161,-0.059 -0.409,-0.037 -0.805,-0.103 -1.199,-0.191 -0.12,-0.029 -0.241,-0.07 -0.361,-0.107 0.004,-0.832 0.02,-1.665 0.06,-2.498 z m 0.094,8.103 c -0.09,-1.6 -0.146,-3.207 -0.154,-4.817 0.016,0.01 0.029,0.023 0.045,0.033 0.43,0.277 0.922,0.408 1.405,0.47 0.474,0.036 0.995,0.051 1.513,-0.195 0.364,-0.175 0.56,-0.422 0.743,-0.671 0.214,1.574 0.327,3.161 0.41,4.73 0.011,0.165 0.017,0.329 0.027,0.494 -0.168,0.067 -0.336,0.138 -0.503,0.192 -0.509,0.142 -1.019,0.228 -1.53,0.221 -0.511,0.007 -1.015,-0.077 -1.515,-0.229 -0.151,-0.051 -0.296,-0.109 -0.437,-0.174 -0.001,-0.018 -0.003,-0.036 -0.004,-0.054 z m 0.063,0.902 c 0.012,0.008 0.023,0.019 0.036,0.027 0.549,0.354 1.208,0.519 1.859,0.527 0.652,-0.013 1.301,-0.176 1.852,-0.514 0.078,-0.047 0.147,-0.104 0.22,-0.158 0.084,1.611 0.128,3.221 0.11,4.835 -0.128,0.018 -0.258,0.029 -0.389,0.036 -0.43,-0.003 -0.955,0.015 -1.421,0.061 -0.47,0.056 -0.908,0.102 -1.34,0.11 -0.117,-0.001 -0.234,-0.006 -0.352,-0.014 -0.266,-1.628 -0.464,-3.264 -0.575,-4.91 z m 0.96,7.108 c -0.092,-0.483 -0.175,-0.968 -0.259,-1.452 0.032,0.011 0.063,0.028 0.096,0.038 0.531,0.17 1.074,0.156 1.57,0.115 0.499,-0.07 0.947,-0.119 1.475,-0.293 0.072,-0.021 0.144,-0.062 0.217,-0.095 -0.01,0.45 -0.017,0.899 -0.036,1.35 -0.029,0.739 -0.078,1.478 -0.135,2.217 -0.148,-0.01 -0.3,-0.021 -0.44,-0.018 -0.338,-0.007 -0.643,0.018 -0.928,0.004 -0.374,-0.003 -0.741,-0.04 -1.161,-0.101 -0.13,-0.591 -0.254,-1.182 -0.399,-1.765 z m 1.309,4.908 c -0.088,-0.332 -0.196,-0.654 -0.294,-0.98 -0.125,-0.435 -0.264,-0.864 -0.39,-1.295 0.288,0.135 0.6,0.226 0.919,0.232 0.402,-0.005 0.779,-0.09 1.11,-0.244 0.078,-0.033 0.148,-0.082 0.22,-0.122 -0.035,0.413 -0.067,0.825 -0.105,1.238 -0.092,0.675 -0.144,1.361 -0.252,2.038 -0.028,0.224 -0.063,0.446 -0.096,0.669 -0.282,-0.239 -0.553,-0.489 -0.838,-0.723 -0.087,-0.274 -0.186,-0.51 -0.274,-0.813 z m -17.693,-10.157 -0.428,-1.728 c -0.282,-1.141 -0.566,-2.263 -0.783,-3.361 -0.219,-1.085 -0.446,-2.182 -0.328,-3.096 0.064,-0.454 0.206,-0.799 0.454,-1.074 0.248,-0.275 0.684,-0.506 1.21,-0.606 0.538,-0.112 1.068,-0.129 1.494,0.141 0.424,0.256 0.7,0.753 0.784,1.295 0.171,1.111 -0.295,2.24 -0.634,3.318 -0.346,1.089 -0.595,2.215 -0.875,3.355 -0.137,0.571 -0.271,1.146 -0.385,1.735 l -0.098,0.525 c -0.108,-0.044 -0.216,-0.091 -0.324,-0.135 z m -20.184,11.817 c -0.711,-0.078 -1.433,-0.112 -2.145,-0.21 -0.359,-0.037 -0.718,-0.079 -1.075,-0.133 l -0.538,-0.074 -0.269,-0.041 c -0.12,-0.032 -0.088,0.01 -0.2,0.035 0.705,-0.381 1.386,-0.663 1.981,-0.927 l 0.884,-0.408 c 0.338,-0.125 0.665,-0.268 0.995,-0.402 0.489,-0.193 0.968,-0.399 1.454,-0.589 -0.161,0.373 -0.247,0.784 -0.237,1.189 0.024,0.445 0.126,0.866 0.3,1.242 0.058,0.136 0.134,0.262 0.209,0.389 -0.453,-0.023 -0.905,-0.044 -1.359,-0.071 z m 4.284,0.151 c -0.79,0.004 -1.58,-0.019 -2.372,-0.053 0,-0.001 0,-0.002 0,-0.003 0.004,-0.202 0.005,-0.406 -0.007,-0.598 -0.013,-0.388 -0.055,-0.746 -0.056,-1.089 -0.017,-0.473 0.011,-0.936 0.065,-1.456 0.579,-0.179 1.158,-0.354 1.727,-0.548 0.552,-0.154 1.105,-0.3 1.659,-0.442 -0.03,0.093 -0.064,0.185 -0.084,0.278 -0.144,0.602 -0.106,1.208 -0.039,1.772 0.094,0.566 0.171,1.084 0.365,1.667 0.045,0.145 0.11,0.298 0.193,0.445 -0.484,0.011 -0.967,0.026 -1.451,0.027 z m 2.103,-0.041 c -0.043,-0.195 -0.067,-0.395 -0.086,-0.597 -0.019,-0.509 -0.065,-1.099 -0.135,-1.634 -0.08,-0.538 -0.149,-1.05 -0.175,-1.557 -0.005,-0.178 -0.001,-0.357 0.008,-0.537 1.728,-0.425 3.473,-0.768 5.241,-0.989 -0.061,0.098 -0.127,0.194 -0.177,0.296 -0.329,0.646 -0.455,1.378 -0.437,2.097 0.043,0.719 0.227,1.432 0.593,2.051 0.095,0.162 0.202,0.316 0.319,0.462 -1.71,0.202 -3.427,0.345 -5.151,0.408 z m 10.635,-1.212 c -0.692,0.183 -1.413,0.248 -2.116,0.371 -0.706,0.111 -1.408,0.23 -2.121,0.283 -0.193,0.026 -0.387,0.045 -0.58,0.07 -0.104,-0.233 -0.197,-0.468 -0.277,-0.702 -0.174,-0.584 -0.284,-1.176 -0.303,-1.772 -0.03,-0.596 0.031,-1.191 0.168,-1.779 0.059,-0.235 0.133,-0.461 0.228,-0.676 1.707,-0.205 3.425,-0.36 5.149,-0.452 -0.06,0.094 -0.118,0.19 -0.166,0.288 -0.257,0.508 -0.363,1.063 -0.402,1.608 -0.013,0.536 -0.003,1.11 0.262,1.675 0.207,0.446 0.522,0.687 0.827,0.932 z m 4.154,-1.153 c -0.681,0.233 -1.353,0.495 -2.05,0.673 l -1.177,0.269 c -0.105,-0.43 -0.325,-0.803 -0.345,-1.119 -0.055,-0.417 -0.034,-0.891 -0.001,-1.375 0.018,-0.479 0.068,-0.947 0.143,-1.412 0.035,-0.192 0.081,-0.384 0.132,-0.576 0.844,-0.036 1.688,-0.059 2.535,-0.056 0.339,0.005 0.681,0.016 1.021,0.023 -0.221,0.435 -0.323,0.935 -0.285,1.424 0.045,0.419 0.178,0.839 0.401,1.177 0.152,0.241 0.34,0.443 0.549,0.632 -0.305,0.122 -0.611,0.239 -0.923,0.34 z m 3.934,-1.777 c -0.906,0.461 -1.812,0.931 -2.748,1.327 -0.013,-0.287 -0.049,-0.561 -0.09,-0.809 -0.054,-0.35 -0.11,-0.657 -0.128,-0.978 -0.041,-0.428 -0.05,-0.85 -0.055,-1.321 1.438,0.04 2.877,0.123 4.31,0.24 0.219,0.118 0.439,0.232 0.657,0.352 l -0.101,0.067 c -0.606,0.389 -1.191,0.821 -1.845,1.122 z m 15.845,9.377 -1.631,0.713 c -1.077,0.471 -2.135,0.94 -3.18,1.339 -1.032,0.399 -2.076,0.808 -2.997,0.846 -0.458,0.014 -0.822,-0.068 -1.135,-0.266 -0.313,-0.198 -0.614,-0.589 -0.801,-1.09 -0.201,-0.511 -0.307,-1.031 -0.113,-1.496 0.18,-0.461 0.624,-0.817 1.144,-0.992 1.066,-0.356 2.258,-0.087 3.377,0.065 1.132,0.157 2.283,0.213 3.455,0.296 0.586,0.039 1.175,0.074 1.775,0.086 l 0.318,0.005 c 0.102,0.092 0.208,0.18 0.31,0.272 z"
   id="path9" />
	</g></svg>
