<?xml version="1.0" encoding="UTF-8" standalone="no"?>
<!-- Created with Inkscape (http://www.inkscape.org/) -->

<svg
   width="22mm"
   height="11mm"
   viewBox="0 0 22 11"
   version="1.1"
   id="svg1"
   inkscape:version="1.3.2 (091e20e, 2023-11-25)"
   sodipodi:docname="flowers-inlined.svg"
   xmlns:inkscape="http://www.inkscape.org/namespaces/inkscape"
   xmlns:sodipodi="http://sodipodi.sourceforge.net/DTD/sodipodi-0.dtd"
   xmlns="http://www.w3.org/2000/svg"
   xmlns:svg="http://www.w3.org/2000/svg">
  <sodipodi:namedview
     id="namedview1"
     pagecolor="#ffffff"
     bordercolor="#000000"
     borderopacity="0.25"
     inkscape:showpageshadow="2"
     inkscape:pageopacity="0.0"
     inkscape:pagecheckerboard="0"
     inkscape:deskcolor="#d1d1d1"
     inkscape:document-units="mm"
     inkscape:zoom="3.016589"
     inkscape:cx="45.249783"
     inkscape:cy="33.481525"
     inkscape:window-width="1696"
     inkscape:window-height="725"
     inkscape:window-x="0"
     inkscape:window-y="44"
     inkscape:window-maximized="0"
     inkscape:current-layer="layer1" />
  <defs
     id="defs1" />
  <g
     inkscape:label="Vrstva 1"
     inkscape:groupmode="layer"
     id="layer1">
    <path
       d="m 13.647205,3.2916174 c 0.01142,0.010621 0.02448,0.019023 0.03685,0.028272 -0.08019,0.199135 -0.151656,0.4023809 -0.202215,0.6124812 C 13.44946,4.0574709 13.42407,4.1853118 13.40403,4.3143557 13.294524,4.2396377 13.198903,4.1712613 13.096593,4.098086 13.006283,4.03605 12.916999,3.9726431 12.815373,3.9154048 c 0.03407,-0.058953 0.05654,-0.1302415 0.05842,-0.214385 0.0118,-0.5159969 -0.678284,-0.3881543 -0.681367,0.061525 -0.0027,0.3795861 0.375128,0.4316826 0.569289,0.2270663 0.01782,0.027761 0.03614,0.055178 0.05675,0.080371 0.05143,0.064096 0.112767,0.1191023 0.179426,0.1679449 0.06872,0.045929 0.142066,0.087055 0.22347,0.111046 0.05551,0.016451 0.114644,0.025708 0.173427,0.023311 -0.025,0.1807964 -0.03652,0.3643326 -0.02519,0.5494131 0.01529,0.2442029 0.07489,0.4836078 0.160059,0.7096452 -0.04425,-0.045068 -0.09031,-0.088429 -0.138644,-0.1286997 -0.108643,-0.09134 -0.227576,-0.1676003 -0.348567,-0.2395759 -0.122702,-0.06872 -0.248657,-0.1310971 -0.379753,-0.1819959 -0.07695,-0.030332 -0.155954,-0.056039 -0.236152,-0.078488 0.0013,-0.010278 0.0033,-0.020565 0.0038,-0.030843 0.0033,-0.072318 -0.0066,-0.1472074 -0.04269,-0.2099294 -0.165316,-0.287388 -0.642069,-0.2159267 -0.713873,0.1014519 -0.07694,0.3399993 0.328513,0.6207049 0.621901,0.4059773 0.06257,-0.045754 0.09905,-0.1165327 0.118249,-0.1926209 0.177885,0.1223595 0.360738,0.2282658 0.543422,0.3350314 0.207866,0.1180719 0.413173,0.232891 0.626702,0.3501103 0.01768,0.040785 0.03394,0.082256 0.05291,0.1218444 0.130246,0.2776207 0.272998,0.5423862 0.389183,0.8246356 -0.446049,-0.03136 -0.890753,-0.083973 -1.33152,-0.1580037 C 12.577938,6.53036 12.462256,6.5065378 12.345897,6.4854589 12.309238,6.4602688 12.279927,6.4369579 12.245134,6.412113 12.148821,6.3454493 12.063649,6.2637049 11.975736,6.1889874 11.801628,6.0352681 11.657333,5.8525868 11.520235,5.6681919 11.249127,5.2951179 11.03834,4.8804013 10.844865,4.4524885 10.644188,4.0266327 10.467678,3.5853532 10.205138,3.1552122 10.140362,3.0479343 10.060843,2.9423703 9.9672768,2.8446886 9.8716508,2.7490641 9.7451798,2.6592658 9.5947138,2.6267051 9.4452823,2.5922609 9.2889862,2.6186603 9.1693748,2.6774329 9.0468427,2.7319307 8.9368251,2.8016767 8.8405111,2.9005579 c -0.09648,0.094767 -0.1650276,0.2234669 -0.1852482,0.3554222 -0.020928,0.1314418 -0.010811,0.2616833 0.018328,0.3833563 0.062049,0.2431752 0.1795951,0.4597875 0.3096663,0.6644044 0.26237,0.4083763 0.5790637,0.7838494 0.9413417,1.1113389 0.3677572,0.3204633 0.7857312,0.579404 1.2237572,0.7883048 0.06871,0.033246 0.139489,0.061869 0.209759,0.091855 C 11.103452,6.2429722 10.848629,6.1908751 10.594484,6.1355221 9.8978628,5.9823168 9.2068965,5.8032344 8.5130149,5.6318638 7.9238469,5.4904825 7.3351845,5.3425898 6.7400129,5.2123483 6.6012044,4.8630948 6.4145825,4.5354343 6.1986525,4.2279949 6.2140683,4.1510491 6.227799,4.0753035 6.2416579,4.0002434 l 0.059653,-0.3326303 c 0.020923,-0.1276714 0.042488,-0.2551712 0.059977,-0.3854127 0.108134,0.050041 0.230497,0.028616 0.3293746,-0.1247577 0.048512,-0.075232 0.064446,-0.1684571 0.056221,-0.2575703 C 6.7129419,2.5310829 6.2509399,2.2808816 6.111613,2.7204478 6.059022,2.8863342 6.138167,3.0957493 6.262935,3.2141664 6.250436,3.2424444 6.236575,3.2700304 6.225755,3.2988234 6.183073,3.4086716 6.154631,3.5229763 6.132701,3.6386517 6.10647,3.7980261 6.098759,3.9639131 6.122731,4.1258584 5.9271951,3.869145 5.7045868,3.6252839 5.4406748,3.4371193 5.4761687,3.3869095 5.5016882,3.3310409 5.5095643,3.2710612 5.5249795,3.1528152 5.4909108,3.0294284 5.4189122,2.934489 5.2813018,2.7533506 5.0019681,2.6633805 4.8624731,2.8777635 4.7726691,3.0158881 4.7089225,3.2492953 4.7353163,3.4141538 4.7912129,3.7637499 5.1973275,3.7032561 5.3990343,3.488357 5.6331264,3.7526109 5.8442504,4.0281748 6.0493837,4.3129927 6.2608579,4.6043231 6.4646175,4.9025081 6.6774584,5.1991508 6.5909127,5.1804711 6.5048852,5.1609365 6.4180025,5.1431118 6.065835,5.068908 5.7086997,5.010128 5.350191,4.9619727 L 5.0797698,4.9338691 4.8074633,4.9216987 c -0.090659,-0.00324 -0.1823406,0.00324 -0.272656,0.00459 -0.037501,0.00188 -0.075055,0.00669 -0.1124152,0.011649 -0.00194,-0.00344 -0.00388,-0.00615 -0.00388,-0.010278 l -0.00958,-0.026389 -0.020208,-0.05227 -0.043526,-0.1029936 C 4.315522,4.6776369 4.2864402,4.6087455 4.2528184,4.542425 4.1881779,4.4082422 4.117436,4.2773147 4.0422057,4.1487871 3.8927683,3.8908741 3.7208818,3.6459852 3.527919,3.4132639 3.3281033,3.1863692 3.1087469,2.969928 2.8251319,2.8083255 2.6837453,2.7318943 2.5195728,2.6551198 2.3224971,2.6743137 c -0.09665,0.00977 -0.1933062,0.048668 -0.2652786,0.1095056 -0.038733,0.027417 -0.064122,0.06495 -0.09494,0.096997 -0.025195,0.034101 -0.04508,0.068891 -0.067179,0.1029936 -0.082945,0.1396669 -0.1276682,0.3127518 -0.096993,0.4748679 0.029794,0.1622884 0.1204727,0.2959576 0.2178087,0.4126609 0.2011887,0.2280947 0.4313425,0.4363095 0.6885702,0.5961989 0.2584258,0.1580033 0.5404993,0.2642533 0.8254938,0.3502815 0.06069,0.018168 0.1218457,0.034619 0.1831956,0.05021 -0.136587,0.00136 -0.2729992,0.00925 -0.4083815,0.026562 C 3.1193698,4.9172151 2.9361807,4.9550851 2.7562366,5.005297 2.5757868,5.053452 2.3992756,5.1170291 2.2306468,5.19843 1.8932144,5.3622606 1.5868068,5.5838425 1.3088398,5.8304454 1.1705428,5.9548603 1.0403032,6.0926423 0.9463932,6.2634994 c -0.042814,0.086714 -0.081571,0.1819947 -0.086027,0.2872168 -0.00453,0.1028223 0.014055,0.214556 0.06615,0.3058969 0.020922,0.049525 0.054148,0.088427 0.082259,0.1329831 0.033098,0.037525 0.063734,0.077288 0.1005942,0.113448 0.075055,0.071289 0.1652023,0.1389814 0.2801886,0.1729127 0.1141307,0.034275 0.2395779,0.027593 0.3489096,-0.00345 C 1.844714,7.2380765 1.9406843,7.187695 2.0232855,7.1301142 2.3531721,6.8970497 2.5877821,6.6132598 2.8256435,6.3402673 3.0569956,6.0628179 3.2837165,5.7901674 3.5352899,5.5469921 3.6619347,5.4265188 3.7956004,5.3146137 3.9407499,5.2169322 4.0134159,5.1682642 4.088989,5.1235352 4.167989,5.083092 4.20996,5.06458 4.244081,5.045564 4.2936045,5.026885 c 0.025001,-0.0084 0.046634,-0.01971 0.067179,-0.030506 0.3247439,0.00615 0.6438402,0.06632 0.9603584,0.1365825 0.042489,0.00959 0.084485,0.021594 0.1268133,0.031705 C 5.167423,5.6787774 4.7513335,6.0763573 4.3647214,6.520035 4.1808394,6.7359623 4.0075861,6.9679982 3.8737454,7.2233405 3.8069093,7.2557302 3.7385316,7.2814329 3.6698172,7.3093685 L 3.3364977,7.4315559 C 3.1560483,7.500104 2.9752494,7.5696803 2.7973649,7.6598218 2.7903072,7.6478253 2.7851881,7.6348044 2.7759263,7.624174 2.5457727,7.3580357 2.0530865,7.4752534 2.0015035,7.8250206 1.9465134,8.1975801 2.3399594,8.5603715 2.6314633,8.2162604 2.7032676,8.1314272 2.7766129,8.0442035 2.8146588,7.9396671 2.8400484,7.8697463 2.8443233,7.790575 2.8241159,7.7199703 3.0210167,7.7054082 3.2112398,7.6572473 3.3961517,7.5919568 3.5107951,7.5470532 3.6244142,7.4961604 3.7301513,7.4284687 3.7522373,7.4139047 3.7747133,7.3981387 3.7968123,7.3816867 3.7034143,7.5895592 3.6405223,7.809256 3.6083057,8.0320387 3.329659,8.0112947 3.0650606,8.2980062 3.1324083,8.5841947 3.2043863,8.8904349 3.6910757,8.9898293 3.8753008,8.732088 3.9030868,8.693191 3.9215468,8.648629 3.9359908,8.6030457 3.9656548,8.5094777 3.9784798,8.4078542 3.9527668,8.3132575 3.9217414,8.1996393 3.8341787,8.104014 3.7251908,8.0594572 3.6974046,8.0481387 3.6692948,8.041463 3.6412167,8.0370054 3.7239854,7.7988008 3.8264717,7.5717345 3.9520866,7.359406 4.1070035,7.1001226 4.2943121,6.8624316 4.4946455,6.6314238 c 5.116e-4,-7.006e-4 0.00129,-0.00124 0.00129,-0.00188 -0.011141,0.074202 -0.015091,0.1496062 -0.013019,0.224324 0.00519,0.1381252 0.03083,0.2740218 0.065632,0.4064914 0.039055,0.1310981 0.087233,0.2591119 0.1497808,0.3802708 0.024354,0.047469 0.051946,0.093397 0.079862,0.1389827 -0.052464,0.080025 -0.081577,0.1835376 -0.082601,0.2594549 -0.00584,0.4510478 0.5583243,0.4484769 0.6279002,0.010456 C 5.3550381,7.8509021 5.1332721,7.6154382 4.9242009,7.6634223 4.89745,7.669551 4.8736798,7.6832995 4.8511988,7.7000946 4.8054039,7.5361018 4.7577977,7.3748419 4.7132424,7.2139248 4.6774246,7.0888245 4.6464061,6.9633809 4.6153878,6.8369097 4.5955034,6.7441979 4.5778859,6.6502868 4.5609162,6.5538052 4.7386323,6.3469607 4.9228514,6.1409734 5.084459,5.9139072 5.2494865,5.6878693 5.3833273,5.4354403 5.4664404,5.1691305 5.7635984,5.2407634 6.0586975,5.3221647 6.3539706,5.4051079 6.9930113,5.5881315 7.6341114,5.7735544 8.2798359,5.9468104 8.1249124,5.9666883 7.9706823,5.9937703 7.8195349,6.0354087 7.6203995,6.0866469 7.4262382,6.1574252 7.2387553,6.24311 7.0497366,6.3255396 6.869799,6.4293902 6.7028804,6.5510631 6.367851,6.7945812 6.0886861,7.1061326 5.8576837,7.4418477 5.7420044,7.609963 5.6417532,7.7919586 5.5862322,7.9958893 c -0.055702,0.1974193 -0.055896,0.4486484 0.087569,0.6381842 0.030186,0.050727 0.073689,0.08757 0.1131016,0.1304136 0.044239,0.032899 0.088599,0.074886 0.1353826,0.1000802 0.09117,0.058433 0.1917646,0.1110486 0.3098401,0.1379539 0.116534,0.027592 0.2503747,0.026734 0.3725638,-0.015604 C 6.7258484,8.9440797 6.8255808,8.8705599 6.9105849,8.7932723 7.2307039,8.4685254 7.3991578,8.1012776 7.5919525,7.7561373 7.7736065,7.4055127 7.9631429,7.0689407 8.1934653,6.7608164 8.3093127,6.6074398 8.435271,6.4614319 8.5769945,6.329305 c 0.07197,-0.06409 0.1427476,-0.1328123 0.2219214,-0.190564 0.020727,-0.015255 0.038214,-0.029475 0.057259,-0.044212 0.5540428,0.1346965 1.1127099,0.2529429 1.6742921,0.3569643 0.343774,0.064778 0.689599,0.1203027 1.036449,0.1670868 -0.147721,0.1362396 -0.310351,0.2519147 -0.471441,0.371874 -0.208041,0.1497781 -0.417112,0.3028119 -0.616247,0.4724696 -0.0013,0.00124 -0.0026,0.00259 -0.0046,0.00393 -0.08483,-0.038899 -0.178746,-0.057924 -0.270084,-0.068206 -0.122358,-0.014909 -0.2442032,-0.00788 -0.3639892,0.00584 -0.119617,0.016796 -0.237518,0.040951 -0.3516556,0.079173 -0.068204,0.022108 -0.1350387,0.049352 -0.2003326,0.080373 -0.066323,-0.2699079 -0.5648345,-0.2741927 -0.6623459,0.058266 -0.047802,0.1631445 0.00683,0.2986999 0.1612589,0.37119 0.1914211,0.089968 0.4584226,-0.094597 0.5012612,-0.3002421 0.00456,-0.022452 0.00648,-0.043528 0.00665,-0.063748 0.1943362,-0.00824 0.380615,-0.03359 0.566725,-0.055008 0.114131,-0.016104 0.2279192,-0.029646 0.3415392,-0.042158 0.07164,-0.00685 0.143776,-0.012689 0.217296,-0.016796 -0.175129,0.1576535 -0.341362,0.3295387 -0.4757152,0.5269573 -0.09494,0.1358969 -0.17017,0.2853323 -0.225697,0.4405942 -0.2897879,-0.1151614 -0.7512874,-0.047128 -0.677941,0.348225 0.065297,0.3521673 0.520285,0.7019345 0.791561,0.3439415 0.07849,-0.1035083 0.15732,-0.2195262 0.154923,-0.3494257 -0.0026,-0.1326404 -0.09374,-0.2502012 -0.21062,-0.3154924 0.212161,-0.3561084 0.4985222,-0.6498382 0.8131562,-0.9176907 0.191253,-0.1675996 0.394151,-0.325261 0.587975,-0.498517 0.157314,-0.139496 0.311375,-0.2930434 0.430138,-0.4697268 0.353197,0.046782 0.707761,0.084314 1.062838,0.1117338 0.717872,0.059633 1.435919,0.088255 2.153959,0.1146471 0.05686,0.00188 0.113782,0.0036 0.170689,0.00533 -0.0077,0.00124 -0.01562,0.00204 -0.02332,0.00312 -0.417113,0.062036 -0.833889,0.1412091 -1.239524,0.2700795 -0.404605,0.1326404 -0.796872,0.3106948 -1.168918,0.5228525 -0.183371,0.1081339 -0.368962,0.232892 -0.492861,0.4273972 -0.0605,0.096826 -0.09649,0.2150699 -0.09614,0.3348583 0,0.1206452 0.03893,0.2335785 0.08585,0.3372575 0.04813,0.105907 0.103338,0.1957056 0.191594,0.2939013 0.09049,0.087233 0.208895,0.1581752 0.332628,0.1809676 0.248658,0.056208 0.48481,0.00482 0.696278,-0.062889 0.424147,-0.1439521 0.800816,-0.3624492 1.149382,-0.610766 0.346001,-0.2524294 0.669723,-0.5290218 0.972361,-0.8260064 0.151664,-0.1480649 0.299043,-0.3002416 0.440254,-0.4579029 0.07181,-0.077631 0.139664,-0.1592032 0.207698,-0.2404327 l 0.101105,-0.1223583 0.02344,-0.029819 c 0.270597,-0.00204 0.541361,-0.00891 0.812126,-0.030164 0.720955,-0.059809 1.435232,-0.1970764 2.132539,-0.3890113 0.695249,-0.2011889 1.37045,-0.4666415 2.01052,-0.7961874 0.0072,-0.00393 0.01117,-0.012689 0.0084,-0.02074 -0.0033,-0.00909 -0.0127,-0.01388 -0.02176,-0.010798 -0.685999,0.2152413 -1.370625,0.409233 -2.062614,0.5703213 -0.04333,0.00943 -0.08689,0.01748 -0.130247,0.026732 L 18.789226,6.1560803 C 18.688458,6.0988436 18.590434,6.0381783 18.492411,5.9776844 18.297052,5.8553255 18.112484,5.7163436 17.92706,5.5785617 L 16.82343,4.7220516 C 16.445387,4.4425456 16.055692,4.1680102 15.598305,3.9705911 15.372783,3.877194 15.104415,3.7956215 14.82148,3.8701678 14.680442,3.9042693 14.558767,3.9971533 14.472395,4.0991189 l -0.06217,0.079174 -0.04851,0.084657 c -0.03497,0.053811 -0.05414,0.1192735 -0.07882,0.1789109 -0.0377,0.1273282 -0.04437,0.2645965 -0.01386,0.3917537 0.03019,0.1281851 0.09838,0.2373478 0.170689,0.336229 0.15423,0.1922782 0.34617,0.3401707 0.547183,0.4671563 0.401866,0.2553419 0.836634,0.4618437 1.29145,0.6081943 0.227926,0.070948 0.460987,0.1245865 0.696796,0.1586896 0.206675,0.031528 0.414715,0.053291 0.623275,0.063753 -0.213183,0.033246 -0.426712,0.065121 -0.640757,0.09494 l -0.528847,0.072318 -0.531937,0.053469 c -0.35525,0.029819 -0.712387,0.056551 -1.069696,0.051405 -0.263393,0 -0.526277,-0.012689 -0.78899,-0.030843 C 13.978533,6.4068 13.8687,6.11427 13.759193,5.8316797 13.644201,5.5295531 13.556974,5.225713 13.540012,4.9105622 c -0.02247,-0.314465 0.01802,-0.6338997 0.07231,-0.9505927 0.03407,-0.2020463 0.07884,-0.4034065 0.124923,-0.6052817 0.158861,0.089456 0.366048,0.093568 0.523368,-7.113e-4 0.0329,-0.01971 0.06361,-0.043014 0.08963,-0.071119 0.117563,-0.1269856 0.11807,-0.3194348 0.111903,-0.492348 -0.0033,-0.089285 -0.0074,-0.1819953 -0.04903,-0.2609972 -0.06648,-0.1259594 -0.211975,-0.1878241 -0.350959,-0.2195275 -0.590199,-0.1340114 -0.80784,0.6207048 -0.41523,0.9816118 z M 4.0192577,4.7506671 C 3.88679,4.6879437 3.7539728,4.6286513 3.6220169,4.5688413 L 2.8364536,4.2147909 C 2.5764863,4.1025412 2.3000672,3.9968074 2.0978487,3.7966467 2.0013673,3.6967376 1.9221924,3.5733507 1.9127683,3.441909 1.8994257,3.3108106 1.9602448,3.1886232 2.0476389,3.0923129 c 0.090996,-0.1096771 0.18885,-0.1489212 0.2863548,-0.1432655 0.099571,0.00551 0.2140456,0.062892 0.320806,0.1352094 0.2150753,0.1506369 0.4075199,0.3621065 0.5980862,0.570493 0.1938178,0.2083884 0.3783866,0.4299705 0.5684346,0.6500106 l 0.2841331,0.3336589 0.1453246,0.1665722 0.072491,0.0838 0.014898,0.016626 -0.020403,-0.010621 -0.099396,-0.049524 z M 3.362736,5.3388098 C 3.0532388,5.5585082 2.7953247,5.8315003 2.549069,6.1003826 L 2.1953599,6.5078999 C 2.0798556,6.6407142 1.9614365,6.7704411 1.8342801,6.8684658 1.7711941,6.920049 1.7054071,6.9551792 1.6418289,6.9846554 1.5779008,7.0089895 1.5172437,7.0153315 1.4540087,7.0088169 1.3909228,6.9999019 1.3251359,6.9668306 1.2595044,6.9245019 1.2271193,6.902221 1.1969365,6.8737739 1.1645645,6.8485832 1.1398871,6.8197928 1.1067897,6.7937486 1.0872745,6.7615281 0.9957609,6.6396834 0.9769127,6.4689983 1.0504203,6.3140797 1.1194846,6.1591608 1.2423598,6.02532 1.3797953,5.9153007 1.6603337,5.6945745 2.0068404,5.5775287 2.338275,5.4623659 2.6721062,5.3480636 3.0069607,5.2373581 3.3519324,5.1557854 3.5241623,5.1146568 3.6979273,5.0781545 3.8740951,5.0491919 c 0.010811,-0.00169 0.021763,-0.00292 0.032385,-0.00459 -0.01561,0.00584 -0.031867,0.010278 -0.047283,0.016795 C 3.6821685,5.1316523 3.5166228,5.2289916 3.3627357,5.3388383 Z M 8.4699232,6.1912074 C 8.293755,6.3005434 8.13455,6.4366097 7.9894005,6.5846738 7.6966983,6.8806328 7.471176,7.2319415 7.2715286,7.5808519 L 6.9891117,8.1040464 C 6.897599,8.2745605 6.7995752,8.4380483 6.683896,8.5645196 6.6252794,8.6250179 6.5627369,8.672656 6.4976178,8.7035022 6.4321555,8.7333187 6.3603504,8.7381253 6.2813505,8.7324597 6.2023439,8.7244041 6.1178583,8.6957877 6.034059,8.659632 5.9514579,8.6243345 5.8779435,8.580114 5.8205312,8.5177386 5.7608784,8.4575823 5.7199373,8.3804671 5.7010892,8.2942662 5.6782909,8.2087535 5.6798427,8.1143265 5.699796,8.0224715 5.7352894,7.8368777 5.8298607,7.6612228 5.9479362,7.5073313 6.1875142,7.1966378 6.5261445,6.9813948 6.8584279,6.7906595 7.1917468,6.5973532 7.5367124,6.4240973 7.9003637,6.2888867 8.0815056,6.2191383 8.267441,6.1615577 8.456291,6.1079188 c 0.073861,-0.020056 0.1487515,-0.038899 0.2238063,-0.056893 0.010811,0.00275 0.021567,0.00533 0.032189,0.00806 -0.083634,0.038047 -0.164004,0.083115 -0.242149,0.1321274 z m 9.9266478,0.085859 C 18.165563,6.2609574 17.935927,6.2369667 17.707489,6.2093727 17.250446,6.1519604 16.799393,6.067822 16.351432,5.9697979 15.904155,5.8763991 15.447113,5.7684359 15.044904,5.542398 14.846287,5.4289523 14.661886,5.2838013 14.534219,5.1016324 14.474048,5.009951 14.42385,4.9102131 14.414257,4.8060201 c -0.0118,-0.1033363 0.0058,-0.2044472 0.04488,-0.2983585 0.09409,-0.1857657 0.250375,-0.3465113 0.427229,-0.3696464 0.178739,-0.029303 0.385926,0.033246 0.581627,0.1278423 0.394671,0.1936489 0.761406,0.4822375 1.138761,0.7509463 0.379761,0.269052 0.760886,0.5465011 1.170635,0.786763 0.203761,0.1215018 0.416776,0.2296386 0.633898,0.3276628 0.108313,0.049864 0.221583,0.089454 0.334518,0.1269852 l 0.01129,0.00324 c -0.04663,0.00943 -0.09305,0.019533 -0.139664,0.028624 -0.07368,-0.00425 -0.147377,-0.00926 -0.220898,-0.013024 z M 11.272003,5.9689412 C 10.865689,5.7336491 10.480275,5.4699083 10.103599,5.1936603 9.9138928,5.0572494 9.7279578,4.914153 9.5528134,4.7576913 9.3769885,4.6024299 9.2110996,4.4334584 9.0753743,4.2422087 8.9420519,4.05113 8.8296304,3.8394875 8.7874711,3.6156772 8.7437498,3.3935808 8.800816,3.1617166 8.968782,3.0379871 9.0472667,2.9749208 9.150268,2.9264246 9.2500004,2.8974627 c 0.099739,-0.032904 0.1941681,-0.031531 0.2745408,-0.00447 0.1624566,0.052612 0.2950996,0.2340925 0.4039196,0.4280838 0.1098492,0.1960485 0.2018742,0.41249 0.2935572,0.6306444 0.09083,0.2190121 0.188849,0.4383661 0.292358,0.6572065 0.214214,0.4328827 0.46082,0.8649078 0.796872,1.23027 0.120991,0.1329841 0.252771,0.2565417 0.394152,0.3672476 -0.146349,-0.076429 -0.291673,-0.15406 -0.433397,-0.2375161 z m 4.70327,0.9805808 -0.250199,0.1915926 -0.497493,0.3821584 c -0.333314,0.2507136 -0.663886,0.5019427 -1.005599,0.7308943 -0.167942,0.1185897 -0.341028,0.2279228 -0.513769,0.3336586 -0.172917,0.1050492 -0.350795,0.2013615 -0.533135,0.2726528 -0.181479,0.070262 -0.370672,0.1158437 -0.537759,0.096479 -0.08585,-0.00508 -0.157834,-0.03993 -0.227753,-0.084999 -0.06082,-0.049351 -0.132986,-0.1288715 -0.182515,-0.2089008 -0.105217,-0.1580037 -0.152177,-0.3550805 -0.05383,-0.524909 0.09083,-0.1699974 0.265792,-0.2945852 0.445736,-0.3879823 0.368621,-0.1861094 0.785564,-0.2563706 1.18914,-0.3446267 0.405459,-0.08757 0.809729,-0.1862781 1.216388,-0.284818 0.203072,-0.049864 0.406489,-0.1002516 0.609394,-0.1556029 l 0.304355,-0.084831 c 0.0019,-5.14e-4 0.0027,-0.00102 0.0046,-0.00135 0.04177,3.427e-4 0.08362,-0.00102 0.125265,-0.00102 z"
       id="path4"
       style="stroke-width:0.171371" />
  </g>
</svg>
