<?xml version="1.0" encoding="UTF-8" standalone="no"?>
<!-- Generator: Adobe Illustrator 27.5.0, SVG Export Plug-In . SVG Version: 6.00 Build 0)  -->

<svg
   version="1.1"
   x="0px"
   y="0px"
   viewBox="0 0 500 100"
   xml:space="preserve"
   id="svg20"
   sodipodi:docname="flowers-1.svg"
   width="500"
   height="100"
   inkscape:version="1.3.2 (091e20e, 2023-11-25)"
   xmlns:inkscape="http://www.inkscape.org/namespaces/inkscape"
   xmlns:sodipodi="http://sodipodi.sourceforge.net/DTD/sodipodi-0.dtd"
   xmlns="http://www.w3.org/2000/svg"
   xmlns:svg="http://www.w3.org/2000/svg"><defs
   id="defs20">
	
	
	
	
	
	
	
	
	
	
</defs><sodipodi:namedview
   id="namedview20"
   pagecolor="#ffffff"
   bordercolor="#000000"
   borderopacity="0.25"
   inkscape:showpageshadow="2"
   inkscape:pageopacity="0.0"
   inkscape:pagecheckerboard="0"
   inkscape:deskcolor="#d1d1d1"
   showguides="true"
   inkscape:zoom="0.71202631"
   inkscape:cx="159.40422"
   inkscape:cy="124.99538"
   inkscape:window-width="1696"
   inkscape:window-height="901"
   inkscape:window-x="0"
   inkscape:window-y="44"
   inkscape:window-maximized="0"
   inkscape:current-layer="svg20" />
<g
   id="BACKGROUND">
</g>
<g
   id="g16"
   transform="translate(-1.1590535,-358.01497)">
		<path
   d="m 477.334,400.807 c -0.161,-0.699 -0.8,-1.312 -1.526,-1.527 -0.197,-0.065 -0.341,-0.09 -0.47,-0.11 l -0.414,-0.06 c -0.276,-0.044 -0.56,-0.017 -0.838,-0.015 -0.406,0.032 -0.802,0.116 -1.189,0.224 0.084,-0.126 0.183,-0.239 0.262,-0.37 0.487,-0.821 0.795,-1.772 0.94,-2.759 l 0.043,-0.373 c 0.008,-0.166 0.019,-0.335 0.003,-0.502 -0.044,-0.339 -0.127,-0.686 -0.325,-0.969 -0.357,-0.594 -0.981,-0.898 -1.553,-0.981 -0.586,-0.086 -1.161,0.091 -1.602,0.39 -0.208,0.165 -0.408,0.35 -0.544,0.549 -0.125,0.19 -0.265,0.368 -0.411,0.545 -0.545,0.718 -1.249,1.424 -1.647,2.33 -0.392,0.9 -0.427,1.912 -0.298,2.858 0.086,0.474 0.191,0.942 0.388,1.381 0.082,0.222 0.204,0.433 0.322,0.64 0.062,0.103 0.13,0.202 0.202,0.3 0.034,0.049 0.073,0.096 0.114,0.143 0.005,0.004 0.008,0.008 0.012,0.012 -3.103,2.206 -6.33,4.188 -9.68,5.924 0.038,-0.04 0.075,-0.078 0.114,-0.119 0.341,-0.366 0.63,-0.779 0.939,-1.176 0.276,-0.423 0.551,-0.85 0.78,-1.308 0.472,-0.907 0.744,-1.938 0.804,-2.988 0.058,-1.051 -0.175,-2.15 -0.918,-3.004 l -0.022,-0.025 -0.003,-0.004 c -0.09,-0.099 -0.243,-0.106 -0.342,-0.015 -0.742,0.678 -1.456,1.357 -2.1,2.113 -0.681,0.723 -1.28,1.553 -1.718,2.485 -0.419,0.941 -0.556,1.994 -0.506,3.009 0.05,0.781 0.182,1.521 0.49,2.241 -0.377,0.178 -0.746,0.373 -1.127,0.545 -4.7,2.022 -9.538,3.684 -14.505,4.871 -1.422,0.333 -2.849,0.641 -4.281,0.932 0.106,-0.148 0.211,-0.295 0.32,-0.449 0.284,-0.411 0.51,-0.862 0.758,-1.3 0.211,-0.459 0.422,-0.921 0.582,-1.407 0.335,-0.965 0.454,-2.025 0.361,-3.073 -0.096,-1.048 -0.486,-2.102 -1.345,-2.839 l -0.025,-0.022 -0.004,-0.003 c -0.104,-0.085 -0.256,-0.069 -0.341,0.034 -0.635,0.778 -1.244,1.554 -1.771,2.396 -0.569,0.814 -1.041,1.723 -1.339,2.708 -0.278,0.992 -0.261,2.054 -0.063,3.051 0.102,0.478 0.236,0.934 0.419,1.373 -2.766,0.504 -5.548,0.918 -8.352,1.187 -0.427,0.055 -0.857,0.096 -1.285,0.14 0.076,-1.381 0.663,-2.651 1.299,-3.874 0.891,-1.651 1.981,-3.231 3.048,-4.853 1.073,-1.619 2.14,-3.276 3.069,-5.044 0.085,-0.164 0.168,-0.331 0.251,-0.499 1.212,-0.267 2.366,-0.676 3.499,-1.132 1.083,-0.462 2.148,-0.965 3.158,-1.602 0.331,0.546 0.962,0.936 1.925,0.917 0.213,-0.004 0.426,-0.037 0.634,-0.084 2.692,-0.612 2.081,-3.898 -0.472,-3.992 -1.819,-0.067 -2.64,1.519 -2.274,2.733 -1.161,0.267 -2.266,0.665 -3.355,1.106 -0.955,0.409 -1.894,0.856 -2.797,1.39 0.52,-1.12 0.95,-2.302 1.123,-3.525 0.103,0.036 0.208,0.07 0.325,0.093 0.596,0.119 1.252,-0.077 1.662,-0.526 1.321,-1.446 0.479,-4.045 -1.658,-3.443 -1.744,0.491 -2.134,2.852 -0.69,3.709 -0.772,1.438 -1.717,2.718 -2.658,4.031 -0.415,0.568 -0.837,1.138 -1.257,1.708 -0.513,-0.544 -0.881,-1.186 -1.188,-1.85 -0.413,-0.942 -0.747,-1.93 -0.987,-2.954 -0.395,-1.547 -0.679,-3.129 -0.983,-4.737 0.142,0.002 0.287,-0.001 0.417,-0.057 0.111,-0.048 0.204,-0.129 0.293,-0.212 0.395,-0.368 0.745,-0.8 0.937,-1.305 0.664,-1.742 -1.309,-3.28 -2.76,-2.067 -1.297,1.084 -0.921,3.209 0.651,3.567 -0.033,0.6 -0.032,1.201 -0.002,1.801 0.053,1.093 0.223,2.181 0.479,3.255 0.269,1.069 0.67,2.127 1.272,3.083 0.42,0.674 0.991,1.323 1.687,1.727 -0.672,0.916 -1.338,1.842 -1.97,2.806 -1.087,1.648 -2.105,3.395 -2.804,5.331 -0.348,0.965 -0.59,1.995 -0.624,3.05 -0.005,0.506 0.056,1.021 0.187,1.509 -1.925,0.18 -3.86,0.281 -5.787,0.439 -1.276,0.072 -2.556,0.094 -3.833,0.144 -0.08,0.003 -0.159,0.005 -0.239,0.008 0.353,-0.303 0.673,-0.645 1.007,-0.974 0.328,-0.384 0.657,-0.771 0.943,-1.196 0.585,-0.838 0.988,-1.825 1.184,-2.858 0.193,-1.035 0.105,-2.155 -0.521,-3.098 l -0.018,-0.028 -0.003,-0.004 c -0.077,-0.109 -0.228,-0.136 -0.337,-0.06 -0.823,0.576 -1.62,1.156 -2.356,1.823 -0.769,0.628 -1.47,1.374 -2.026,2.241 -0.538,0.879 -0.81,1.905 -0.891,2.918 -0.029,0.44 -0.022,0.87 0.019,1.297 -0.199,0 -0.397,0.007 -0.596,0.004 -7.572,0.094 -15.14,-0.266 -22.693,-0.954 0.174,-0.104 0.355,-0.202 0.529,-0.312 0.91,-0.665 1.826,-1.365 2.555,-2.268 0.742,-0.882 1.338,-1.91 1.689,-3.031 0.344,-1.122 0.466,-2.316 0.12,-3.492 l -0.01,-0.035 -0.012,-0.032 c -0.057,-0.123 -0.203,-0.178 -0.326,-0.121 -1.039,0.476 -2.054,0.965 -2.96,1.644 -0.237,0.154 -0.473,0.311 -0.683,0.503 -0.22,0.179 -0.454,0.347 -0.666,0.539 -0.406,0.401 -0.822,0.807 -1.158,1.278 -0.679,0.937 -1.129,2.023 -1.399,3.131 -0.146,0.65 -0.243,1.288 -0.269,1.941 -3.943,-0.398 -7.882,-0.882 -11.815,-1.437 0.607,-1.201 1.445,-2.204 2.344,-3.183 1.212,-1.297 2.558,-2.523 3.832,-3.87 1.28,-1.338 2.501,-2.798 3.493,-4.428 0.749,-1.226 1.357,-2.566 1.688,-3.962 0.178,0.039 0.367,0.06 0.572,0.052 3.124,-0.128 2.73,-4.335 -0.039,-4.787 -2.747,-0.448 -2.964,3.517 -1.043,4.543 -0.764,1.153 -1.575,2.219 -2.446,3.243 -0.957,1.126 -1.989,2.195 -3.027,3.281 0.027,-0.423 0.027,-0.848 -0.032,-1.271 -0.019,-0.524 -0.189,-1.02 -0.299,-1.531 -0.178,-0.489 -0.35,-0.984 -0.594,-1.445 -0.481,-0.923 -1.093,-1.776 -1.834,-2.492 -0.111,-0.108 -0.229,-0.208 -0.345,-0.312 0.195,-0.163 0.359,-0.357 0.445,-0.598 0.598,-1.665 -1.623,-2.707 -2.921,-2.705 -1.379,0.002 -3.09,1.218 -1.9,2.709 0.389,0.488 1.025,0.695 1.629,0.851 0.286,0.074 0.578,0.141 0.872,0.18 0.309,0.041 0.619,0.05 0.927,-10e-4 0.108,-0.018 0.214,-0.054 0.32,-0.089 0.741,0.921 1.4,1.877 1.917,2.91 0.449,0.838 0.777,1.734 1.016,2.661 0.156,0.53 0.247,1.075 0.324,1.632 -0.057,0.06 -0.113,0.119 -0.171,0.179 -1.255,1.324 -2.53,2.695 -3.604,4.286 -0.809,1.188 -1.499,2.615 -1.661,4.07 -4.282,-0.611 -8.556,-1.303 -12.821,-2.056 0.215,-0.096 0.436,-0.185 0.653,-0.289 0.981,-0.556 1.972,-1.145 2.8,-1.956 0.839,-0.79 1.55,-1.743 2.028,-2.815 0.472,-1.075 0.731,-2.247 0.524,-3.454 l -0.006,-0.036 -0.008,-0.033 c -0.042,-0.129 -0.181,-0.2 -0.31,-0.158 -1.087,0.353 -2.152,0.721 -3.13,1.29 -0.253,0.126 -0.506,0.254 -0.736,0.42 -0.239,0.152 -0.491,0.292 -0.724,0.458 -0.45,0.351 -0.909,0.706 -1.298,1.135 -0.782,0.852 -1.355,1.879 -1.752,2.948 -0.237,0.676 -0.416,1.346 -0.512,2.045 -2.753,-0.501 -5.502,-1.023 -8.247,-1.564 -5.898,-1.191 -11.764,-2.557 -17.594,-4.065 0.014,-0.005 0.028,-0.007 0.042,-0.012 0.452,-0.179 0.868,-0.351 1.299,-0.545 0.827,-0.435 1.636,-0.939 2.332,-1.603 0.698,-0.654 1.285,-1.451 1.677,-2.346 0.394,-0.896 0.595,-1.874 0.404,-2.886 l -0.008,-0.044 -0.009,-0.032 c -0.043,-0.126 -0.181,-0.194 -0.307,-0.151 -0.896,0.306 -1.769,0.62 -2.58,1.085 -0.426,0.195 -0.807,0.468 -1.218,0.71 -0.378,0.284 -0.765,0.573 -1.093,0.924 -0.657,0.7 -1.128,1.557 -1.448,2.445 -0.234,0.694 -0.404,1.366 -0.435,2.102 -2.169,-0.571 -4.332,-1.163 -6.49,-1.779 -0.567,-1.263 -0.48,-2.586 -0.409,-3.939 0.082,-1.134 0.21,-2.296 0.29,-3.476 0.68,-0.175 1.343,-0.462 1.929,-0.88 0.863,-0.624 1.568,-1.444 2.127,-2.337 0.534,-0.909 0.928,-1.884 1.177,-2.889 0.116,-0.469 0.205,-0.945 0.261,-1.424 2.333,1.597 3.636,-1.742 1.292,-3.026 -2.274,-1.247 -3.205,1.177 -1.724,2.669 -0.188,0.514 -0.365,1.041 -0.568,1.539 -0.385,0.906 -0.789,1.794 -1.294,2.614 -0.498,0.823 -1.089,1.571 -1.766,2.249 -0.426,0.406 -0.902,0.75 -1.412,1.071 0.018,-0.314 0.036,-0.628 0.045,-0.944 0.013,-0.807 0.038,-1.695 -0.096,-2.558 -0.136,-0.857 -0.294,-1.71 -0.604,-2.513 -0.349,-0.981 -0.818,-1.914 -1.397,-2.766 0.325,-0.063 0.646,-0.155 0.959,-0.261 0.351,-0.12 0.716,-0.27 0.932,-0.572 1.514,-2.118 -2.1,-4.423 -4,-3.945 -2.343,0.591 -1.122,4.664 1.023,4.849 0.095,0.008 0.19,0.003 0.284,0.003 0.281,1.035 0.526,2.061 0.693,3.078 0.111,0.771 0.21,1.533 0.229,2.296 0.043,0.759 10e-4,1.505 -0.022,2.325 -0.051,1.606 -0.098,3.242 0.08,4.935 0.089,0.843 0.262,1.707 0.603,2.529 0.186,0.428 0.436,0.838 0.739,1.191 -1.325,-0.381 -2.653,-0.749 -3.973,-1.147 -2.47,-0.751 -4.934,-1.524 -7.393,-2.313 L 309,400.888 c 0.031,-0.011 0.061,-0.019 0.092,-0.031 0.461,-0.212 0.947,-0.391 1.398,-0.639 0.9,-0.499 1.76,-1.105 2.49,-1.866 0.723,-0.765 1.304,-1.671 1.7,-2.652 0.403,-0.982 0.606,-2.029 0.484,-3.117 l -0.005,-0.044 -0.008,-0.039 c -0.037,-0.131 -0.174,-0.206 -0.305,-0.169 -1.009,0.289 -1.972,0.649 -2.851,1.191 -0.872,0.534 -1.735,1.151 -2.424,1.953 -0.664,0.814 -1.136,1.764 -1.474,2.739 -0.239,0.735 -0.425,1.445 -0.491,2.217 l -2.947,-0.964 c -4.996,-1.471 -10.091,-2.826 -15.354,-3.24 l -1.969,-0.173 -0.195,-0.017 c 0.136,-0.079 0.275,-0.154 0.402,-0.248 0.817,-0.546 1.533,-1.247 2.15,-2.034 0.586,-0.813 1.013,-1.741 1.268,-2.708 0.267,-0.969 0.337,-1.97 0.134,-2.981 l -0.009,-0.046 -0.009,-0.031 c -0.045,-0.129 -0.186,-0.197 -0.315,-0.152 -0.951,0.331 -1.815,0.79 -2.599,1.38 -0.762,0.607 -1.493,1.299 -2.049,2.134 -0.544,0.84 -0.857,1.795 -1.071,2.749 -0.125,0.63 -0.209,1.238 -0.218,1.873 l -3.427,0.045 c -0.662,-0.014 -1.319,0.08 -1.976,0.155 l -1.973,0.226 -1.971,0.239 c -0.225,0.042 -0.448,0.098 -0.672,0.147 0.203,-1.17 0.408,-2.322 0.632,-3.457 0.315,-1.574 0.698,-3.114 1.127,-4.633 0.057,-0.207 0.128,-0.41 0.189,-0.616 0.298,-0.016 0.596,-0.034 0.896,-0.046 0.649,-0.083 1.302,-0.172 1.949,-0.293 1.286,-0.28 2.564,-0.644 3.776,-1.192 1.208,-0.546 2.381,-1.207 3.399,-2.077 0.658,-0.562 1.262,-1.209 1.744,-1.929 0.136,0.052 0.283,0.093 0.443,0.119 2.964,0.491 3.574,-3.389 0.655,-3.789 -2.319,-0.318 -3.001,2.527 -1.432,3.503 -0.591,0.544 -1.23,1.024 -1.878,1.475 -1.053,0.697 -2.177,1.281 -3.336,1.784 -1.147,0.538 -2.36,0.927 -3.568,1.351 l -2.549,0.771 c 0.361,-1.199 0.757,-2.386 1.225,-3.557 0.461,-1.251 1.049,-2.443 1.62,-3.706 0.348,0.191 0.766,0.304 1.266,0.28 3.057,-0.148 2.53,-4.175 -0.261,-4.238 -2.383,-0.054 -2.698,2.623 -1.317,3.748 -1.049,0.926 -1.987,1.998 -2.7,3.211 -0.899,1.442 -1.6,3.017 -2.044,4.657 -0.465,1.634 -0.716,3.324 -0.749,5.012 -0.022,1.255 0.064,2.52 0.333,3.749 -0.229,0.052 -0.459,0.1 -0.689,0.15 l -1.939,0.436 c -0.646,0.146 -1.297,0.273 -1.92,0.504 l -3.775,1.238 c -0.571,0.241 -1.142,0.483 -1.71,0.73 0.058,-0.104 0.121,-0.206 0.173,-0.314 0.388,-0.83 0.689,-1.72 0.8,-2.656 0.105,-0.935 0.019,-1.897 -0.248,-2.805 -0.26,-0.914 -0.71,-1.754 -1.414,-2.438 l -0.037,-0.036 -0.021,-0.018 c -0.106,-0.081 -0.258,-0.06 -0.338,0.046 -0.566,0.744 -1.075,1.502 -1.418,2.354 -0.349,0.838 -0.655,1.738 -0.716,2.682 -0.038,0.938 0.153,1.867 0.458,2.734 0.185,0.495 0.391,0.958 0.65,1.404 -1.133,0.534 -2.247,1.103 -3.323,1.745 -4.581,2.62 -8.746,5.903 -12.415,9.624 -0.89,0.957 -1.821,1.875 -2.67,2.864 l -2.488,3.012 -2.335,3.12 -2.159,3.236 c -0.041,0.065 -0.029,0.155 0.034,0.203 0.066,0.05 0.16,0.038 0.21,-0.028 6.402,-8.077 13.983,-15.266 22.943,-19.993 1.058,-0.564 2.136,-1.09 3.229,-1.581 0.207,0.448 0.44,0.88 0.725,1.285 0.514,0.748 1.103,1.494 1.862,2.058 0.767,0.541 1.651,0.886 2.544,1.101 0.916,0.201 1.775,0.317 2.775,0.157 -0.124,-0.344 -0.231,-0.845 -0.439,-1.331 -0.208,-0.4 -0.387,-0.824 -0.627,-1.215 -0.486,-0.776 -1.07,-1.513 -1.795,-2.115 -0.611,-0.501 -1.314,-0.891 -2.059,-1.165 2.59,-0.972 5.255,-1.736 7.975,-2.234 0.616,-0.125 1.229,-0.27 1.848,-0.379 l 1.877,-0.213 1.875,-0.227 c 0.625,-0.075 1.249,-0.171 1.881,-0.159 l 2.896,-0.082 c -0.054,0.44 -0.086,0.882 -0.075,1.327 0.008,0.981 0.051,2.009 0.371,2.977 0.322,0.961 0.858,1.835 1.489,2.607 0.659,0.773 1.328,1.442 2.287,1.961 0.085,-0.395 0.272,-0.907 0.369,-1.47 0.054,-0.493 0.13,-0.98 0.156,-1.477 0.02,-0.991 -0.03,-2.003 -0.297,-2.984 -0.257,-0.98 -0.696,-1.922 -1.299,-2.751 -0.046,-0.063 -0.099,-0.12 -0.147,-0.182 l 1.822,0.107 c 1.26,0.114 2.539,0.042 3.792,0.275 l 3.027,0.413 c -0.112,1.372 -0.026,2.753 0.179,4.115 0.249,1.566 0.655,3.124 1.296,4.607 -0.503,0.306 -0.965,0.69 -1.362,1.131 -0.615,0.696 -1.074,1.507 -1.449,2.342 -0.354,0.845 -0.604,1.724 -0.749,2.618 -0.049,0.304 -0.083,0.609 -0.109,0.916 -1.12,-0.054 -2.273,0.632 -2.228,1.932 0.022,0.629 0.404,1.233 0.964,1.521 1.772,0.914 4.309,-0.618 2.943,-2.585 -0.269,-0.387 -0.66,-0.639 -1.091,-0.769 l 0.276,-0.827 c 0.29,-0.819 0.566,-1.634 0.913,-2.413 0.334,-0.784 0.715,-1.539 1.154,-2.266 0.271,-0.42 0.575,-0.821 0.9,-1.216 0.014,0.03 0.024,0.061 0.038,0.09 0.759,1.617 1.771,3.156 3.114,4.394 1.025,0.925 2.241,1.644 3.528,2.039 -0.276,0.643 -0.29,1.448 0.101,2.177 0.117,0.218 0.289,0.408 0.503,0.533 0.169,0.099 0.359,0.157 0.552,0.189 2.085,0.345 3.564,-2.304 1.768,-3.653 -1.067,-0.801 -2.083,-0.476 -2.654,0.293 -1.015,-0.811 -1.888,-1.678 -2.655,-2.64 -0.984,-1.279 -1.74,-2.705 -2.442,-4.17 -1.217,-2.603 -2.069,-5.396 -2.98,-8.289 l 0.244,0.033 c 1.271,0.124 2.505,0.459 3.753,0.728 l 3.744,0.834 c 1.012,0.263 2.022,0.54 3.034,0.808 -0.225,0.739 -0.406,1.481 -0.448,2.25 -0.079,0.992 -0.102,2.04 0.174,3.039 0.281,0.992 0.797,1.899 1.416,2.698 0.646,0.801 1.312,1.494 2.269,2.039 0.127,-0.393 0.359,-0.89 0.51,-1.444 0.099,-0.492 0.22,-0.977 0.289,-1.477 0.101,-0.999 0.134,-2.029 -0.082,-3.042 -0.204,-1.01 -0.613,-1.989 -1.204,-2.845 -0.131,-0.193 -0.275,-0.376 -0.424,-0.553 3.146,0.847 6.29,1.707 9.428,2.582 3.711,1.032 7.419,2.074 11.129,3.111 -0.227,0.736 -0.405,1.473 -0.405,2.239 -0.016,0.872 0.073,1.789 0.418,2.637 0.362,0.834 0.951,1.535 1.601,2.128 0.676,0.592 1.349,1.077 2.263,1.397 0.109,-0.333 0.313,-0.779 0.432,-1.266 0.064,-0.426 0.175,-0.855 0.2,-1.294 0.063,-0.879 -0.029,-1.784 -0.302,-2.654 -0.297,-0.863 -0.807,-1.652 -1.452,-2.292 -0.063,-0.065 -0.134,-0.12 -0.2,-0.181 3.886,1.081 7.78,2.139 11.683,3.17 -0.447,1.324 -0.665,2.711 -0.734,4.101 -0.009,0.191 -0.005,0.384 -0.008,0.575 -0.724,0.575 -1.375,1.245 -1.968,1.959 -0.802,0.965 -1.467,2.043 -2.015,3.178 -0.542,1.138 -0.937,2.353 -1.136,3.598 -0.165,0.845 -0.189,1.71 -0.133,2.563 -1.112,-0.104 -2.29,0.335 -2.717,1.382 -0.119,0.292 -0.109,0.624 -0.04,0.932 0.247,1.107 1.285,1.986 2.417,2.049 1.693,0.094 3.417,-1.751 2.305,-3.34 -0.369,-0.528 -0.977,-0.85 -1.634,-0.98 0.15,-0.829 0.31,-1.642 0.565,-2.433 0.34,-1.148 0.749,-2.272 1.278,-3.344 0.831,-1.78 1.884,-3.448 3.072,-5.071 0.012,1.273 0.148,2.549 0.423,3.803 0.333,1.61 0.978,3.162 1.801,4.589 0.555,0.966 1.273,1.831 2.085,2.582 -0.343,0.553 -0.457,1.25 -0.175,1.922 0.113,0.27 0.28,0.514 0.466,0.74 0.545,0.662 1.396,1.21 2.224,0.986 1.826,-0.494 1.765,-3.535 0.341,-4.427 -0.827,-0.518 -1.739,-0.318 -2.377,0.227 -0.432,-0.903 -0.835,-1.786 -1.159,-2.706 -0.462,-1.317 -0.858,-2.64 -1.166,-3.995 0.014,-0.006 0.028,-0.012 0.042,-0.019 0.309,-0.17 0.595,-0.367 0.857,-0.568 0.535,-0.397 1.014,-0.81 1.526,-1.143 0.501,-0.351 1.029,-0.619 1.601,-0.828 0.195,-0.065 0.403,-0.106 0.608,-0.151 0.018,0.283 0.088,0.596 0.257,0.957 0.095,0.202 0.227,0.401 0.428,0.497 0.144,0.069 0.309,0.078 0.468,0.085 0.119,0.006 0.24,0.011 0.362,0.012 0.488,0.006 0.982,-0.046 1.358,-0.342 0.293,-0.23 0.468,-0.579 0.595,-0.929 0.773,-2.131 -2.848,-2.57 -3.411,-0.872 -0.271,-0.034 -0.546,-0.048 -0.824,-0.019 -0.721,0.075 -1.41,0.37 -2,0.76 -0.585,0.404 -1.078,0.894 -1.502,1.404 -0.18,0.194 -0.335,0.398 -0.494,0.595 -0.301,-1.41 -0.561,-2.838 -0.765,-4.296 l -0.498,-3.95 c 1.414,0.373 2.827,0.752 4.245,1.114 2.711,0.695 5.432,1.358 8.162,1.988 -0.226,0.757 -0.388,1.522 -0.383,2.314 -0.013,1.056 0.126,2.154 0.553,3.166 0.447,0.997 1.15,1.844 1.927,2.57 0.805,0.723 1.619,1.327 2.687,1.747 0.124,-0.423 0.343,-0.959 0.475,-1.535 0.068,-0.516 0.189,-1.036 0.212,-1.566 0.059,-1.061 -0.059,-2.147 -0.39,-3.19 -0.358,-1.03 -0.96,-1.976 -1.724,-2.748 6.27,1.373 12.588,2.544 18.957,3.431 1.817,0.268 3.639,0.501 5.464,0.72 -0.061,0.542 -0.077,1.086 -0.009,1.633 0.109,1.05 0.374,2.125 0.916,3.081 0.559,0.939 1.356,1.699 2.211,2.33 0.883,0.625 1.762,1.131 2.872,1.424 0.074,-0.434 0.23,-0.992 0.294,-1.58 0.008,-0.521 0.068,-1.051 0.03,-1.58 -0.064,-1.06 -0.307,-2.126 -0.757,-3.124 -0.3,-0.62 -0.7,-1.187 -1.162,-1.698 1.877,0.191 3.756,0.368 5.637,0.525 1.443,0.095 2.886,0.195 4.33,0.274 0.309,1.427 0.772,2.818 1.324,4.168 0.777,1.883 1.746,3.694 2.9,5.388 1.143,1.703 2.538,3.242 4.067,4.614 1.245,1.104 2.655,2.023 4.152,2.722 -0.708,0.458 -1.071,1.211 -0.595,2.343 0.34,0.81 1.092,1.394 1.914,1.705 0.249,0.094 0.513,0.168 0.779,0.151 0.22,-0.013 0.433,-0.088 0.633,-0.18 1.617,-0.747 3.146,-4.016 0.583,-4.507 -0.875,-0.168 -2.048,-0.105 -2.921,0.28 -1.209,-1.191 -2.376,-2.355 -3.436,-3.614 -1.247,-1.5 -2.432,-3.033 -3.526,-4.646 -0.071,-0.105 -0.139,-0.214 -0.21,-0.319 l 1.773,0.355 3.126,0.654 c 1.546,0.318 3.087,0.652 4.66,0.926 -0.297,0.59 0.022,1.354 0.466,1.875 0.206,0.242 0.441,0.467 0.726,0.607 0.56,0.275 1.265,0.175 1.773,-0.187 0.904,-0.644 1.462,-2.496 0.335,-3.221 -0.702,-0.451 -2.257,-0.065 -2.979,0.531 -0.54,-0.235 -1.088,-0.449 -1.643,-0.64 -1.024,-0.358 -2.074,-0.632 -3.134,-0.868 -1.752,-0.353 -3.563,-0.558 -5.362,-0.423 -0.924,-1.386 -1.826,-2.793 -2.689,-4.24 l -1.997,-3.438 c 0.916,0.045 1.832,0.082 2.75,0.094 1.302,0.03 2.603,0.087 3.906,0.095 l 3.911,-0.027 c 0.305,0 0.61,-0.014 0.915,-0.02 0.069,0.417 0.175,0.826 0.34,1.22 0.382,0.862 0.975,1.649 1.725,2.253 0.759,0.59 1.651,0.959 2.55,1.197 0.92,0.234 1.788,0.372 2.799,0.286 -0.014,-0.369 0.029,-0.918 -0.053,-1.409 -0.113,-0.442 -0.141,-0.922 -0.339,-1.351 -0.281,-0.903 -0.863,-1.708 -1.549,-2.381 -0.022,-0.02 -0.047,-0.036 -0.069,-0.056 0.5,-0.026 0.999,-0.051 1.498,-0.087 2.6,-0.252 5.207,-0.401 7.791,-0.823 3.029,-0.374 6.035,-0.93 9.016,-1.599 0.205,0.516 0.465,1.003 0.812,1.44 0.602,0.725 1.387,1.321 2.273,1.698 0.891,0.361 1.85,0.473 2.779,0.457 0.949,-0.025 1.821,-0.129 2.772,-0.487 -0.114,-0.352 -0.222,-0.892 -0.434,-1.341 -0.229,-0.395 -0.387,-0.849 -0.694,-1.207 -0.516,-0.793 -1.295,-1.409 -2.139,-1.87 -0.014,-0.007 -0.029,-0.011 -0.042,-0.018 0.332,-0.091 0.668,-0.172 0.999,-0.266 l 3.744,-1.173 c 0.868,-0.287 1.719,-0.625 2.57,-0.962 0.281,0.988 0.748,1.914 1.289,2.775 0.722,1.135 1.59,2.183 2.59,3.083 1.005,0.893 2.102,1.688 3.305,2.286 0.539,0.286 1.101,0.526 1.678,0.729 -0.292,0.457 -0.468,0.992 -0.463,1.568 0.003,0.389 0.013,0.8 0.218,1.13 0.212,0.341 0.596,0.536 0.979,0.659 0.864,0.277 1.817,0.267 2.674,-0.028 2.014,-0.693 2.295,-3.307 0.424,-4.373 -1.082,-0.616 -2.287,-0.394 -3.146,0.284 -0.505,-0.43 -1.009,-0.844 -1.5,-1.269 -0.841,-0.685 -1.632,-1.408 -2.431,-2.116 0.625,0.045 1.245,0.09 1.864,0.157 1.15,0.107 2.293,0.241 3.429,0.418 1.716,0.246 3.417,0.59 5.132,0.963 -0.158,0.975 0.253,2.045 1.498,2.538 2.702,1.068 4.357,-3.115 1.762,-4.265 -1.529,-0.678 -2.718,0.13 -3.135,1.242 -0.538,-0.243 -1.092,-0.453 -1.651,-0.64 -1.124,-0.382 -2.285,-0.648 -3.46,-0.827 -1.938,-0.285 -3.928,-0.295 -5.858,0.042 -1.597,-1.441 -3.102,-2.937 -4.677,-4.56 0.192,-0.075 0.383,-0.152 0.575,-0.225 l 1.826,-0.711 c 0.599,-0.262 1.186,-0.551 1.78,-0.825 1.179,-0.565 2.376,-1.086 3.534,-1.686 0.258,-0.144 0.515,-0.288 0.772,-0.431 0.123,0.647 0.329,1.267 0.66,1.837 0.49,0.805 1.18,1.509 2.002,2.01 0.829,0.487 1.761,0.737 2.683,0.856 0.942,0.113 1.821,0.137 2.813,-0.079 -0.062,-0.364 -0.09,-0.914 -0.235,-1.39 -0.169,-0.424 -0.259,-0.896 -0.511,-1.295 -0.395,-0.859 -1.077,-1.582 -1.845,-2.16 -0.786,-0.569 -1.723,-0.901 -2.657,-1.043 -0.191,-0.031 -0.382,-0.048 -0.573,-0.063 1.224,-0.715 2.428,-1.463 3.574,-2.301 2.165,-1.361 4.079,-3.073 6.046,-4.676 0.367,0.51 0.714,1.073 1.231,1.575 0.525,0.517 1.265,0.863 2.003,0.885 0.741,0.045 1.437,-0.239 2.014,-0.608 0.584,-0.37 1.101,-0.736 1.67,-0.983 0.453,-0.207 0.882,-0.529 1.209,-1.024 0.304,-0.484 0.501,-1.166 0.301,-1.853 z m -214.809,-0.084 c -0.127,-0.473 -0.252,-0.95 -0.346,-1.411 -0.184,-0.846 -0.293,-1.687 -0.374,-2.531 -0.084,-0.84 -0.086,-1.723 0.187,-2.553 0.222,-0.722 0.706,-1.313 1.239,-1.822 0.356,0.623 0.617,1.328 0.773,2.029 0.169,0.81 0.166,1.64 0.102,2.464 -0.052,0.831 -0.257,1.652 -0.474,2.482 l -0.315,0.988 c -0.264,0.116 -0.529,0.232 -0.792,0.354 z m 4.961,3.178 c 0.669,0.495 1.247,1.113 1.827,1.746 l 0.826,1.006 c 0.203,0.298 0.506,0.582 0.793,1.022 -0.778,-0.287 -1.676,-0.534 -2.466,-0.844 -0.81,-0.305 -1.575,-0.671 -2.328,-1.061 -0.751,-0.386 -1.494,-0.864 -2.041,-1.544 -0.307,-0.366 -0.511,-0.794 -0.658,-1.242 0.426,-0.188 0.855,-0.368 1.286,-0.544 0.217,0.063 0.431,0.132 0.638,0.209 0.77,0.296 1.465,0.751 2.123,1.252 z m 18.306,-9.586 c 0.307,-0.878 0.651,-1.73 1.048,-2.552 0.383,-0.824 0.838,-1.655 1.53,-2.289 0.612,-0.54 1.378,-0.849 2.158,-1.013 -0.045,0.781 -0.222,1.579 -0.469,2.321 -0.292,0.845 -0.736,1.621 -1.232,2.36 -0.515,0.729 -1.109,1.41 -1.776,2.042 -0.278,0.279 -0.586,0.529 -0.889,0.791 -0.267,-0.004 -0.533,0 -0.8,-0.002 l -0.102,10e-4 c 0.171,-0.559 0.341,-1.125 0.532,-1.659 z m 1.926,7.519 c 0.288,0.872 0.4,1.798 0.539,2.728 l 0.126,1.416 c 0.006,0.398 0.104,0.846 0.099,1.411 -0.509,-0.748 -1.133,-1.54 -1.624,-2.326 -0.511,-0.794 -0.941,-1.616 -1.342,-2.453 -0.421,-0.828 -0.745,-1.733 -0.821,-2.682 -0.047,-0.448 -10e-4,-0.892 0.093,-1.327 l 0.546,-0.016 c 0.261,-0.007 0.522,-0.019 0.782,-0.023 0.196,0.249 0.383,0.504 0.551,0.765 0.479,0.772 0.793,1.633 1.051,2.507 z m 21.1,-3.32 c 0.421,-0.887 0.906,-1.721 1.423,-2.537 0.515,-0.812 1.124,-1.603 1.931,-2.175 0.704,-0.512 1.554,-0.744 2.397,-0.863 -0.115,0.817 -0.395,1.639 -0.749,2.388 -0.414,0.849 -0.991,1.602 -1.618,2.308 -0.622,0.717 -1.367,1.327 -2.132,1.929 -0.389,0.292 -0.799,0.564 -1.203,0.851 -0.144,0.084 -0.288,0.186 -0.439,0.293 l -0.496,-0.162 c 0.284,-0.68 0.568,-1.382 0.886,-2.032 z m 1.493,7.658 c 0.24,0.892 0.277,1.833 0.339,2.78 l -0.003,1.435 c -0.033,0.404 0.014,0.865 -0.043,1.431 -0.509,-0.763 -1.122,-1.579 -1.599,-2.385 -0.496,-0.816 -0.903,-1.66 -1.267,-2.523 -0.382,-0.855 -0.648,-1.792 -0.638,-2.754 -0.018,-0.759 0.235,-1.481 0.557,-2.154 0.191,0.051 0.383,0.102 0.574,0.153 0.43,0.438 0.81,0.941 1.125,1.459 0.464,0.788 0.746,1.665 0.955,2.558 z m 21.351,-0.662 c 0.398,-0.788 0.869,-1.515 1.374,-2.219 0.483,-0.719 1.075,-1.41 1.834,-1.885 0.642,-0.443 1.407,-0.639 2.165,-0.764 -0.078,0.718 -0.342,1.449 -0.674,2.1 -0.398,0.746 -0.968,1.39 -1.573,1.994 -0.588,0.629 -1.295,1.148 -1.995,1.694 l -1.095,0.756 c -0.142,0.089 -0.29,0.2 -0.447,0.316 -0.143,-0.037 -0.285,-0.075 -0.428,-0.113 0.263,-0.631 0.529,-1.286 0.839,-1.879 z m 1.822,6.276 c 0.273,0.727 0.423,1.505 0.52,2.31 0.045,0.402 0.055,0.813 0.084,1.229 -0.011,0.345 0.054,0.73 0.03,1.229 -0.518,-0.6 -1.153,-1.223 -1.666,-1.846 -0.53,-0.63 -0.999,-1.284 -1.42,-1.965 -0.421,-0.673 -0.787,-1.433 -0.834,-2.262 -0.064,-0.735 0.211,-1.434 0.549,-2.067 0.596,0.364 1.147,0.846 1.598,1.368 0.505,0.594 0.86,1.285 1.139,2.004 z m 25.438,-0.237 c 0.475,-0.969 1.048,-1.867 1.679,-2.722 0.606,-0.873 1.352,-1.692 2.282,-2.265 0.811,-0.551 1.772,-0.798 2.722,-0.965 -0.064,0.912 -0.379,1.84 -0.801,2.664 -0.484,0.923 -1.178,1.723 -1.924,2.462 -0.732,0.76 -1.586,1.415 -2.461,2.052 -0.402,0.247 -0.803,0.532 -1.196,0.788 -0.362,-0.065 -0.723,-0.129 -1.085,-0.194 0.241,-0.621 0.494,-1.242 0.784,-1.82 z m 2.402,7.626 c 0.332,0.9 0.508,1.859 0.609,2.846 0.047,0.493 0.046,0.995 0.072,1.501 -0.025,0.435 0.025,0.91 -0.014,1.498 -0.673,-0.7 -1.449,-1.442 -2.09,-2.196 -0.658,-0.762 -1.24,-1.563 -1.746,-2.407 -0.504,-0.837 -0.919,-1.778 -0.969,-2.791 -0.061,-0.775 0.169,-1.521 0.49,-2.214 0.383,0.088 0.766,0.174 1.149,0.26 0.392,0.315 0.756,0.665 1.08,1.035 0.628,0.728 1.077,1.578 1.419,2.468 z m 25.033,-3.596 c 0.36,-1.018 0.825,-1.975 1.352,-2.898 0.501,-0.937 1.147,-1.837 2.004,-2.514 0.742,-0.641 1.668,-0.998 2.592,-1.274 0.042,0.913 -0.164,1.871 -0.487,2.739 -0.373,0.973 -0.971,1.848 -1.626,2.669 -0.639,0.84 -1.411,1.589 -2.207,2.323 -0.338,0.266 -0.671,0.562 -1.001,0.84 -0.387,-0.037 -0.775,-0.077 -1.162,-0.116 0.158,-0.602 0.328,-1.203 0.535,-1.769 z m 3.268,7.297 c 0.434,0.855 0.72,1.788 0.934,2.756 0.104,0.484 0.161,0.983 0.245,1.483 0.026,0.435 0.13,0.901 0.16,1.49 -0.75,-0.617 -1.606,-1.265 -2.331,-1.939 -0.742,-0.681 -1.413,-1.409 -2.013,-2.189 -0.597,-0.773 -1.118,-1.66 -1.285,-2.66 -0.103,-0.52 -0.066,-1.042 0.041,-1.552 0.837,0.099 1.673,0.198 2.511,0.288 0.014,0.012 0.029,0.023 0.043,0.036 0.708,0.65 1.252,1.442 1.695,2.287 z m 22.173,-4.376 c 0.039,-0.404 0.091,-0.807 0.173,-1.189 0.182,-0.919 0.476,-1.796 0.862,-2.639 0.377,-0.838 0.808,-1.723 1.51,-2.388 0.315,-0.366 0.734,-0.621 1.116,-0.907 0.311,-0.204 0.65,-0.361 0.983,-0.523 0.224,0.74 0.186,1.597 -0.007,2.368 -0.233,0.868 -0.645,1.694 -1.157,2.469 -0.231,0.402 -0.533,0.767 -0.794,1.158 -0.305,0.362 -0.581,0.75 -0.898,1.11 -0.15,0.163 -0.302,0.343 -0.451,0.52 -0.445,0.011 -0.891,0.016 -1.337,0.021 z m 6.098,5.707 c 0.241,0.352 0.372,0.765 0.566,1.156 0.135,0.371 0.305,0.706 0.468,1.208 -0.783,-0.33 -1.682,-0.618 -2.481,-0.953 -0.82,-0.327 -1.593,-0.718 -2.332,-1.144 -0.736,-0.412 -1.489,-0.922 -1.899,-1.706 -0.176,-0.344 -0.256,-0.715 -0.287,-1.09 0.884,-0.026 1.768,-0.064 2.652,-0.111 0.239,-0.013 0.478,-0.024 0.717,-0.035 0.374,0.224 0.727,0.477 1.051,0.761 0.602,0.536 1.155,1.161 1.545,1.914 z m 16.921,-7.849 c -0.089,-0.462 -0.16,-0.927 -0.189,-1.379 -0.075,-0.934 -0.031,-1.858 0.111,-2.774 0.135,-0.909 0.309,-1.878 0.802,-2.709 0.204,-0.438 0.537,-0.797 0.827,-1.177 0.243,-0.281 0.527,-0.524 0.803,-0.771 0.416,0.651 0.614,1.486 0.638,2.28 0.013,0.899 -0.16,1.806 -0.441,2.691 -0.113,0.45 -0.304,0.883 -0.449,1.33 -0.195,0.431 -0.355,0.88 -0.562,1.312 -0.162,0.319 -0.315,0.668 -0.467,0.991 -0.356,0.071 -0.714,0.139 -1.073,0.206 z m 7.39,3.644 c 0.328,0.273 0.566,0.635 0.859,0.958 0.231,0.32 0.486,0.596 0.779,1.035 -0.843,-0.104 -1.787,-0.137 -2.647,-0.242 -0.878,-0.091 -1.728,-0.257 -2.556,-0.465 -0.82,-0.196 -1.684,-0.482 -2.291,-1.124 -0.347,-0.374 -0.555,-0.832 -0.683,-1.315 1.05,-0.24 2.097,-0.489 3.14,-0.759 0.482,0.117 0.949,0.28 1.39,0.49 0.727,0.353 1.429,0.804 2.009,1.422 z m 14.718,-12.595 c 0.062,-0.935 0.239,-1.843 0.513,-2.729 0.265,-0.879 0.578,-1.814 1.187,-2.564 0.266,-0.404 0.647,-0.71 0.99,-1.044 0.282,-0.242 0.598,-0.442 0.907,-0.646 0.318,0.704 0.391,1.559 0.3,2.348 -0.118,0.891 -0.42,1.763 -0.827,2.598 -0.177,0.429 -0.429,0.829 -0.637,1.251 -0.255,0.398 -0.479,0.819 -0.747,1.217 -0.269,0.381 -0.535,0.834 -0.787,1.183 -0.016,0.022 -0.033,0.051 -0.048,0.074 -0.273,0.135 -0.548,0.266 -0.823,0.398 -0.05,-0.693 -0.084,-1.411 -0.028,-2.086 z m 2.751,3.382 c 0.813,0.192 1.565,0.542 2.237,0.992 0.668,0.453 1.297,1.002 1.781,1.698 0.285,0.318 0.468,0.71 0.711,1.073 0.182,0.35 0.394,0.661 0.62,1.138 -0.819,-0.225 -1.748,-0.395 -2.584,-0.624 -0.855,-0.218 -1.673,-0.506 -2.461,-0.832 -0.783,-0.313 -1.596,-0.721 -2.104,-1.445 -0.385,-0.559 -0.521,-1.229 -0.519,-1.892 0.19,-0.106 0.379,-0.211 0.568,-0.318 0.592,0.026 1.186,0.088 1.751,0.21 z m 9.572,-8.915 c -0.011,0.047 -0.028,0.115 -0.043,0.178 -0.023,0.025 -0.046,0.05 -0.069,0.075 l 0.018,-0.243 0.049,-0.65 c 0.035,-0.426 0.076,-0.838 0.12,-1.241 0.082,-0.811 0.251,-1.566 0.345,-2.358 0.091,-0.786 0.159,-1.678 0.579,-2.428 0.226,-0.363 0.458,-0.747 0.771,-0.872 0.316,-0.146 0.685,-0.093 0.941,0.08 0.264,0.171 0.403,0.438 0.424,0.645 0.017,0.104 0.005,0.202 -0.008,0.299 l -0.123,0.429 c -0.24,0.73 -0.609,1.422 -0.968,2.14 -0.35,0.724 -0.742,1.456 -1.146,2.213 -0.203,0.378 -0.411,0.76 -0.611,1.157 -0.098,0.181 -0.227,0.424 -0.279,0.576 z m 6.49,1.634 c -0.548,0.27 -1.192,0.338 -1.806,0.258 -0.618,-0.08 -1.163,-0.218 -1.651,-0.273 -0.489,-0.075 -0.959,-0.089 -1.493,-0.204 -0.451,-0.094 -0.904,-0.331 -1.249,-0.685 0.568,-0.576 1.396,-0.918 2.163,-1.084 0.846,-0.211 1.641,-0.38 2.436,-0.312 0.197,0.023 0.393,0.012 0.589,0.039 0.098,0.012 0.196,0.025 0.296,0.029 0.109,0.004 0.2,0.013 0.231,0.022 0.204,0.015 0.359,0.068 0.606,0.234 0.242,0.164 0.475,0.504 0.516,0.923 0.028,0.412 -0.224,0.857 -0.638,1.053 z m -127.835,0.837 c 0.429,0.253 0.942,0.32 1.44,0.337 0.755,0.025 1.532,-0.059 2.206,-0.398 1.285,-0.647 1.977,-2.118 2.123,-3.55 0.268,-2.63 -3.741,-3.934 -5.879,-3.189 -2.739,0.954 -2.088,4.642 -0.481,6.309 0.178,0.185 0.369,0.361 0.591,0.491 z m 54.249,8.027 c 0.538,0.252 1.095,0.481 1.683,0.565 1.088,0.156 2.179,-0.192 3.223,-0.536 0.131,-0.043 0.266,-0.088 0.372,-0.177 0.16,-0.134 0.228,-0.344 0.29,-0.543 0.339,-1.099 0.683,-2.223 0.643,-3.373 -0.209,-6.061 -11.739,-3.562 -9.025,1.741 0.565,1.102 1.692,1.797 2.814,2.323 z m 47.839,-12.324 c 0.428,-0.114 0.851,-0.269 1.212,-0.526 2.382,-1.695 0.717,-5.576 -2.15,-4.389 -2.624,1.087 -2.383,5.802 0.938,4.915 z m -129.038,13.435 c -1.903,-0.271 -4.35,1.082 -4.177,3.182 0.07,0.844 0.435,1.631 0.795,2.398 0.182,0.388 0.375,0.791 0.71,1.058 0.469,0.375 1.116,0.411 1.716,0.431 0.876,0.029 1.833,0.034 2.525,-0.504 0.485,-0.377 0.757,-0.962 0.957,-1.543 0.714,-2.063 -0.056,-4.671 -2.526,-5.022 z m 150.765,-5.03 c -2.666,-0.034 -3.845,3.994 -1.729,5.567 0.477,0.355 1.121,0.358 1.716,0.346 0.668,-0.013 1.372,-0.036 1.944,-0.383 2.899,-1.761 0.956,-5.493 -1.931,-5.53 z m -97.516,18.411 c -3.365,-0.614 -6.508,3.865 -4.906,6.843 0.548,1.019 1.581,1.729 2.7,2.024 1.119,0.295 2.314,0.203 3.428,-0.108 0.771,-0.215 1.539,-0.552 2.071,-1.15 0.967,-1.088 1.703,-3.411 0.871,-4.736 -0.792,-1.261 -2.688,-2.604 -4.164,-2.873 z m 55.98,-4.545 c -0.954,-0.064 -1.774,0.389 -2.505,0.957 -1.258,0.978 -1.425,1.787 -1.475,3.308 -0.011,0.328 -0.062,0.67 0.059,0.976 0.087,0.22 0.255,0.398 0.424,0.564 0.568,0.556 1.195,1.051 1.868,1.474 0.767,0.482 1.702,0.879 2.559,0.586 0.72,-0.246 1.197,-0.915 1.61,-1.554 0.402,-0.621 0.795,-1.26 1.011,-1.968 0.677,-2.213 -1.387,-4.198 -3.551,-4.343 z"
   id="path10" />
		<path
   d="m 263.219,424.53 -2.159,-3.236 -2.336,-3.12 -2.488,-3.012 c -0.849,-0.99 -1.78,-1.907 -2.67,-2.864 -3.669,-3.721 -7.834,-7.005 -12.415,-9.624 -1.076,-0.642 -2.19,-1.211 -3.323,-1.745 0.259,-0.446 0.464,-0.909 0.65,-1.404 0.305,-0.867 0.496,-1.796 0.458,-2.734 -0.061,-0.944 -0.368,-1.843 -0.716,-2.682 -0.343,-0.852 -0.852,-1.61 -1.418,-2.354 l -0.019,-0.022 c -0.093,-0.096 -0.246,-0.098 -0.341,-0.005 l -0.036,0.035 c -0.703,0.684 -1.153,1.523 -1.414,2.438 -0.267,0.908 -0.353,1.87 -0.248,2.805 0.111,0.936 0.412,1.826 0.8,2.656 0.052,0.108 0.114,0.21 0.173,0.314 -0.569,-0.246 -1.139,-0.489 -1.71,-0.73 l -3.775,-1.238 c -0.623,-0.231 -1.274,-0.358 -1.92,-0.504 l -1.939,-0.436 c -0.229,-0.05 -0.459,-0.098 -0.689,-0.15 0.269,-1.229 0.355,-2.494 0.333,-3.749 -0.033,-1.688 -0.284,-3.378 -0.749,-5.012 -0.444,-1.64 -1.145,-3.215 -2.044,-4.657 -0.713,-1.213 -1.651,-2.286 -2.7,-3.211 1.381,-1.125 1.066,-3.803 -1.317,-3.748 -2.791,0.064 -3.318,4.091 -0.261,4.238 0.5,0.024 0.918,-0.089 1.266,-0.28 0.571,1.264 1.159,2.455 1.62,3.706 0.468,1.171 0.865,2.359 1.225,3.557 l -2.549,-0.771 c -1.208,-0.424 -2.422,-0.813 -3.568,-1.351 -1.16,-0.503 -2.283,-1.087 -3.336,-1.784 -0.648,-0.451 -1.287,-0.931 -1.878,-1.475 1.569,-0.976 0.887,-3.821 -1.432,-3.503 -2.918,0.4 -2.308,4.28 0.655,3.789 0.16,-0.027 0.307,-0.068 0.443,-0.119 0.482,0.72 1.086,1.368 1.744,1.929 1.018,0.87 2.191,1.531 3.399,2.077 1.212,0.548 2.49,0.912 3.776,1.192 0.647,0.121 1.3,0.21 1.949,0.293 0.3,0.011 0.598,0.03 0.896,0.046 0.06,0.206 0.131,0.409 0.189,0.616 0.429,1.52 0.812,3.06 1.127,4.633 0.224,1.134 0.429,2.286 0.632,3.457 -0.224,-0.049 -0.447,-0.104 -0.672,-0.147 l -1.971,-0.239 -1.973,-0.226 c -0.658,-0.074 -1.314,-0.169 -1.976,-0.155 l -3.427,-0.045 c -0.009,-0.635 -0.093,-1.243 -0.218,-1.873 -0.214,-0.953 -0.526,-1.909 -1.071,-2.749 -0.556,-0.835 -1.287,-1.527 -2.05,-2.134 -0.784,-0.59 -1.648,-1.049 -2.599,-1.38 l -0.033,-0.009 c -0.134,-0.027 -0.264,0.06 -0.291,0.194 l -0.009,0.044 c -0.202,1.011 -0.133,2.011 0.134,2.981 0.255,0.967 0.682,1.895 1.268,2.708 0.617,0.788 1.333,1.489 2.15,2.034 0.127,0.094 0.266,0.169 0.402,0.248 l -0.195,0.017 -1.969,0.173 c -5.263,0.414 -10.358,1.769 -15.354,3.24 l -2.947,0.964 c -0.066,-0.772 -0.253,-1.482 -0.491,-2.217 -0.338,-0.975 -0.81,-1.925 -1.474,-2.739 -0.69,-0.802 -1.552,-1.419 -2.424,-1.953 -0.879,-0.543 -1.842,-0.903 -2.851,-1.191 l -0.04,-0.008 c -0.135,-0.015 -0.257,0.082 -0.272,0.217 l -0.005,0.043 c -0.122,1.088 0.08,2.135 0.484,3.117 0.396,0.981 0.977,1.887 1.699,2.652 0.729,0.761 1.59,1.368 2.49,1.866 0.451,0.248 0.937,0.427 1.398,0.639 0.031,0.012 0.061,0.02 0.092,0.031 l -3.029,0.991 c -2.459,0.789 -4.923,1.562 -7.393,2.313 -1.32,0.398 -2.648,0.766 -3.973,1.147 0.303,-0.353 0.552,-0.763 0.739,-1.191 0.341,-0.821 0.514,-1.685 0.603,-2.529 0.178,-1.693 0.131,-3.329 0.08,-4.935 -0.023,-0.82 -0.065,-1.566 -0.022,-2.325 0.019,-0.763 0.118,-1.525 0.229,-2.296 0.168,-1.017 0.413,-2.043 0.693,-3.078 0.095,0 0.189,0.006 0.284,-0.003 2.145,-0.186 3.366,-4.259 1.023,-4.849 -1.9,-0.479 -5.514,1.826 -4,3.945 0.216,0.301 0.581,0.452 0.932,0.572 0.313,0.107 0.634,0.198 0.959,0.261 -0.578,0.852 -1.048,1.785 -1.397,2.766 -0.31,0.803 -0.467,1.656 -0.604,2.513 -0.134,0.863 -0.109,1.751 -0.096,2.558 0.008,0.316 0.027,0.63 0.045,0.944 -0.51,-0.321 -0.986,-0.665 -1.412,-1.071 -0.677,-0.678 -1.268,-1.426 -1.766,-2.249 -0.505,-0.82 -0.909,-1.708 -1.294,-2.614 -0.203,-0.498 -0.381,-1.025 -0.568,-1.539 1.48,-1.492 0.55,-3.916 -1.724,-2.669 -2.344,1.285 -1.04,4.623 1.293,3.026 0.056,0.479 0.145,0.955 0.261,1.424 0.249,1.005 0.643,1.98 1.177,2.889 0.559,0.893 1.264,1.713 2.127,2.337 0.586,0.418 1.248,0.705 1.929,0.88 0.081,1.181 0.209,2.343 0.29,3.476 0.071,1.353 0.159,2.676 -0.408,3.939 -2.157,0.616 -4.32,1.208 -6.49,1.779 -0.031,-0.736 -0.202,-1.408 -0.435,-2.102 -0.319,-0.888 -0.791,-1.745 -1.448,-2.445 -0.328,-0.351 -0.715,-0.64 -1.093,-0.924 -0.411,-0.242 -0.793,-0.516 -1.219,-0.71 -0.81,-0.464 -1.683,-0.778 -2.58,-1.085 l -0.033,-0.009 c -0.131,-0.025 -0.258,0.061 -0.283,0.193 l -0.008,0.043 c -0.191,1.012 0.009,1.989 0.404,2.886 0.393,0.895 0.979,1.692 1.677,2.346 0.695,0.664 1.505,1.168 2.332,1.603 0.432,0.194 0.847,0.366 1.299,0.545 0.014,0.005 0.028,0.007 0.042,0.012 -5.83,1.508 -11.696,2.874 -17.594,4.065 -2.744,0.541 -5.494,1.063 -8.247,1.564 -0.096,-0.699 -0.274,-1.369 -0.512,-2.045 -0.397,-1.069 -0.97,-2.097 -1.752,-2.948 -0.389,-0.429 -0.848,-0.784 -1.298,-1.135 -0.233,-0.166 -0.485,-0.306 -0.724,-0.458 -0.23,-0.166 -0.483,-0.294 -0.736,-0.42 -0.978,-0.57 -2.043,-0.938 -3.13,-1.29 l -0.034,-0.008 c -0.134,-0.023 -0.261,0.067 -0.284,0.201 l -0.006,0.034 c -0.208,1.208 0.052,2.38 0.524,3.454 0.478,1.072 1.189,2.025 2.028,2.815 0.829,0.812 1.819,1.401 2.8,1.956 0.216,0.103 0.438,0.193 0.653,0.289 -4.265,0.753 -8.54,1.445 -12.821,2.056 -0.161,-1.456 -0.852,-2.882 -1.661,-4.07 -1.074,-1.591 -2.349,-2.962 -3.604,-4.286 -0.057,-0.06 -0.113,-0.119 -0.171,-0.179 0.077,-0.557 0.168,-1.101 0.324,-1.632 0.239,-0.927 0.566,-1.823 1.016,-2.661 0.517,-1.032 1.176,-1.989 1.917,-2.91 0.105,0.035 0.211,0.071 0.32,0.089 0.307,0.05 0.618,0.041 0.927,0.001 0.293,-0.039 0.585,-0.106 0.871,-0.18 0.604,-0.155 1.24,-0.363 1.629,-0.851 1.19,-1.491 -0.521,-2.707 -1.9,-2.709 -1.298,-0.002 -3.519,1.04 -2.921,2.705 0.086,0.24 0.251,0.435 0.445,0.598 -0.116,0.103 -0.234,0.204 -0.345,0.312 -0.741,0.716 -1.353,1.569 -1.834,2.492 -0.244,0.461 -0.416,0.956 -0.594,1.445 -0.11,0.511 -0.28,1.007 -0.299,1.531 -0.059,0.423 -0.06,0.849 -0.032,1.271 -1.038,-1.086 -2.07,-2.155 -3.027,-3.281 -0.871,-1.024 -1.682,-2.09 -2.446,-3.243 1.921,-1.027 1.704,-4.992 -1.043,-4.543 -2.768,0.452 -3.163,4.659 -0.039,4.787 0.204,0.008 0.393,-0.013 0.572,-0.052 0.331,1.395 0.939,2.736 1.688,3.962 0.992,1.63 2.212,3.09 3.492,4.428 1.274,1.347 2.62,2.574 3.832,3.87 0.899,0.979 1.738,1.982 2.344,3.183 -3.933,0.555 -7.872,1.038 -11.815,1.437 -0.026,-0.653 -0.123,-1.291 -0.269,-1.941 -0.27,-1.108 -0.721,-2.195 -1.399,-3.131 -0.337,-0.471 -0.752,-0.877 -1.158,-1.278 -0.212,-0.192 -0.446,-0.36 -0.666,-0.539 -0.209,-0.192 -0.446,-0.348 -0.683,-0.503 -0.905,-0.679 -1.921,-1.168 -2.96,-1.644 l -0.033,-0.012 c -0.13,-0.038 -0.267,0.036 -0.305,0.166 l -0.01,0.033 c -0.346,1.176 -0.224,2.37 0.12,3.492 0.351,1.12 0.947,2.149 1.689,3.031 0.729,0.902 1.645,1.602 2.555,2.268 0.174,0.11 0.355,0.208 0.529,0.312 -7.553,0.688 -15.121,1.048 -22.693,0.954 -0.199,0.003 -0.398,-0.004 -0.597,-0.004 0.042,-0.427 0.049,-0.857 0.02,-1.297 -0.081,-1.013 -0.354,-2.039 -0.891,-2.918 -0.555,-0.867 -1.257,-1.613 -2.026,-2.241 -0.737,-0.667 -1.533,-1.247 -2.356,-1.823 l -0.005,-0.003 c -0.112,-0.074 -0.262,-0.043 -0.336,0.068 l -0.018,0.027 c -0.626,0.943 -0.715,2.063 -0.521,3.098 0.196,1.033 0.599,2.02 1.184,2.858 0.286,0.425 0.615,0.812 0.943,1.196 0.334,0.329 0.654,0.671 1.007,0.974 -0.08,-0.003 -0.159,-0.005 -0.239,-0.008 -1.277,-0.05 -2.557,-0.072 -3.833,-0.144 -1.927,-0.158 -3.862,-0.259 -5.787,-0.439 0.131,-0.487 0.192,-1.002 0.187,-1.509 -0.035,-1.055 -0.276,-2.085 -0.624,-3.05 -0.699,-1.937 -1.717,-3.683 -2.804,-5.331 -0.631,-0.964 -1.298,-1.89 -1.97,-2.806 0.695,-0.404 1.267,-1.052 1.687,-1.727 0.601,-0.956 1.003,-2.015 1.272,-3.083 0.257,-1.074 0.426,-2.162 0.479,-3.255 0.03,-0.6 0.031,-1.201 -0.002,-1.801 1.572,-0.358 1.948,-2.483 0.651,-3.567 -1.451,-1.213 -3.424,0.325 -2.76,2.067 0.192,0.505 0.542,0.936 0.937,1.305 0.088,0.083 0.182,0.164 0.293,0.212 0.13,0.056 0.274,0.06 0.417,0.057 -0.305,1.608 -0.589,3.19 -0.983,4.737 -0.24,1.024 -0.574,2.011 -0.987,2.954 -0.307,0.664 -0.675,1.306 -1.188,1.85 -0.42,-0.571 -0.842,-1.141 -1.257,-1.708 -0.94,-1.314 -1.886,-2.594 -2.658,-4.031 1.444,-0.857 1.054,-3.218 -0.69,-3.709 -2.137,-0.602 -2.979,1.996 -1.658,3.443 0.41,0.449 1.067,0.644 1.662,0.526 0.116,-0.023 0.222,-0.057 0.324,-0.093 0.173,1.223 0.604,2.406 1.123,3.525 -0.903,-0.534 -1.842,-0.981 -2.797,-1.39 -1.088,-0.44 -2.194,-0.839 -3.354,-1.106 0.366,-1.214 -0.455,-2.8 -2.274,-2.733 -2.553,0.094 -3.163,3.38 -0.472,3.992 0.208,0.047 0.42,0.08 0.634,0.084 0.962,0.02 1.594,-0.371 1.925,-0.917 1.01,0.636 2.076,1.14 3.159,1.602 1.134,0.456 2.287,0.865 3.499,1.132 0.083,0.167 0.167,0.335 0.251,0.499 0.93,1.769 1.997,3.426 3.069,5.044 1.067,1.622 2.157,3.202 3.048,4.853 0.636,1.223 1.224,2.494 1.299,3.874 -0.429,-0.044 -0.858,-0.085 -1.285,-0.14 -2.803,-0.269 -5.586,-0.683 -8.352,-1.187 0.183,-0.439 0.318,-0.895 0.419,-1.373 0.198,-0.997 0.215,-2.058 -0.063,-3.051 -0.298,-0.985 -0.77,-1.894 -1.339,-2.708 -0.527,-0.842 -1.136,-1.618 -1.771,-2.396 l -0.004,-0.005 c -0.087,-0.102 -0.24,-0.113 -0.341,-0.026 l -0.024,0.021 c -0.859,0.737 -1.249,1.791 -1.345,2.839 -0.093,1.047 0.026,2.107 0.361,3.073 0.16,0.486 0.37,0.948 0.582,1.407 0.249,0.438 0.474,0.889 0.758,1.3 0.109,0.155 0.214,0.301 0.32,0.449 -1.431,-0.291 -2.859,-0.598 -4.28,-0.932 -4.967,-1.187 -9.805,-2.849 -14.505,-4.871 -0.38,-0.172 -0.749,-0.366 -1.127,-0.545 0.308,-0.72 0.44,-1.46 0.49,-2.241 0.05,-1.015 -0.086,-2.068 -0.506,-3.009 -0.438,-0.932 -1.037,-1.762 -1.718,-2.485 -0.644,-0.757 -1.359,-1.436 -2.1,-2.113 l -0.004,-0.004 c -0.101,-0.088 -0.254,-0.077 -0.342,0.024 l -0.021,0.024 c -0.743,0.854 -0.976,1.953 -0.918,3.004 0.06,1.05 0.332,2.081 0.804,2.988 0.229,0.458 0.504,0.885 0.78,1.308 0.31,0.397 0.598,0.81 0.939,1.176 0.039,0.041 0.076,0.079 0.114,0.119 -3.349,-1.735 -6.576,-3.718 -9.679,-5.923 0.004,-0.004 0.006,-0.008 0.012,-0.012 0.041,-0.047 0.08,-0.093 0.114,-0.143 0.071,-0.098 0.139,-0.197 0.202,-0.3 0.117,-0.207 0.24,-0.418 0.321,-0.64 0.197,-0.439 0.302,-0.906 0.388,-1.381 0.129,-0.946 0.094,-1.959 -0.298,-2.858 -0.397,-0.905 -1.102,-1.612 -1.647,-2.33 -0.146,-0.176 -0.286,-0.354 -0.411,-0.545 -0.136,-0.199 -0.336,-0.384 -0.544,-0.549 -0.44,-0.299 -1.016,-0.477 -1.602,-0.39 -0.572,0.083 -1.196,0.387 -1.553,0.981 -0.198,0.283 -0.281,0.631 -0.325,0.969 -0.016,0.168 -0.005,0.337 0.003,0.502 l 0.043,0.373 c 0.144,0.987 0.452,1.938 0.939,2.759 0.078,0.131 0.177,0.244 0.261,0.37 -0.387,-0.108 -0.783,-0.192 -1.189,-0.224 -0.278,-0.002 -0.562,-0.03 -0.838,0.015 l -0.414,0.06 c -0.128,0.02 -0.273,0.045 -0.47,0.11 -0.726,0.215 -1.365,0.828 -1.526,1.527 -0.2,0.686 -0.003,1.369 0.303,1.858 0.326,0.495 0.756,0.817 1.208,1.024 0.57,0.246 1.087,0.612 1.67,0.983 0.578,0.369 1.273,0.653 2.014,0.608 0.738,-0.021 1.479,-0.368 2.003,-0.885 0.517,-0.502 0.863,-1.066 1.23,-1.575 1.967,1.604 3.881,3.315 6.046,4.676 1.147,0.838 2.35,1.586 3.575,2.301 -0.191,0.015 -0.382,0.032 -0.574,0.063 -0.935,0.142 -1.871,0.474 -2.657,1.043 -0.768,0.578 -1.449,1.301 -1.844,2.16 -0.252,0.4 -0.342,0.872 -0.511,1.295 -0.145,0.475 -0.173,1.025 -0.235,1.39 0.992,0.216 1.871,0.192 2.813,0.079 0.922,-0.119 1.854,-0.369 2.683,-0.856 0.822,-0.501 1.512,-1.205 2.002,-2.01 0.33,-0.571 0.536,-1.191 0.659,-1.837 0.258,0.143 0.515,0.287 0.772,0.431 1.158,0.6 2.355,1.121 3.534,1.686 0.593,0.274 1.181,0.563 1.78,0.825 l 1.825,0.711 c 0.192,0.072 0.383,0.15 0.575,0.225 -1.575,1.622 -3.08,3.118 -4.677,4.56 -1.93,-0.337 -3.92,-0.327 -5.858,-0.042 -1.174,0.179 -2.336,0.445 -3.46,0.827 -0.559,0.187 -1.112,0.397 -1.65,0.64 -0.417,-1.112 -1.606,-1.92 -3.135,-1.242 -2.595,1.15 -0.94,5.332 1.762,4.265 1.245,-0.492 1.656,-1.562 1.498,-2.538 1.715,-0.373 3.416,-0.717 5.132,-0.963 1.137,-0.177 2.279,-0.311 3.429,-0.418 0.618,-0.067 1.239,-0.112 1.864,-0.157 -0.799,0.708 -1.59,1.431 -2.431,2.116 -0.491,0.425 -0.995,0.839 -1.5,1.269 -0.858,-0.678 -2.064,-0.9 -3.146,-0.284 -1.871,1.066 -1.59,3.68 0.424,4.373 0.858,0.295 1.811,0.305 2.674,0.028 0.382,-0.123 0.767,-0.317 0.979,-0.659 0.205,-0.331 0.214,-0.742 0.218,-1.13 0.005,-0.576 -0.171,-1.112 -0.463,-1.568 0.576,-0.203 1.139,-0.443 1.678,-0.729 1.203,-0.598 2.3,-1.392 3.305,-2.286 1.001,-0.9 1.868,-1.948 2.59,-3.083 0.541,-0.861 1.008,-1.787 1.289,-2.775 0.851,0.337 1.703,0.675 2.571,0.962 l 3.744,1.173 c 0.331,0.094 0.667,0.175 0.999,0.266 -0.014,0.007 -0.029,0.011 -0.042,0.018 -0.843,0.46 -1.623,1.077 -2.139,1.87 -0.307,0.359 -0.465,0.813 -0.694,1.207 -0.212,0.449 -0.32,0.989 -0.434,1.341 0.95,0.358 1.823,0.462 2.772,0.487 0.93,0.016 1.888,-0.096 2.779,-0.457 0.886,-0.377 1.671,-0.973 2.273,-1.698 0.347,-0.438 0.607,-0.925 0.812,-1.44 2.981,0.669 5.987,1.225 9.016,1.599 2.583,0.422 5.191,0.571 7.791,0.823 0.499,0.036 0.999,0.061 1.498,0.087 -0.022,0.02 -0.047,0.036 -0.069,0.056 -0.686,0.673 -1.269,1.478 -1.549,2.381 -0.198,0.429 -0.226,0.909 -0.339,1.351 -0.082,0.49 -0.039,1.039 -0.053,1.409 1.012,0.086 1.88,-0.052 2.8,-0.286 0.899,-0.238 1.79,-0.607 2.549,-1.197 0.75,-0.604 1.343,-1.391 1.725,-2.253 0.164,-0.394 0.27,-0.803 0.34,-1.22 0.305,0.007 0.61,0.02 0.915,0.02 l 3.911,0.027 c 1.303,-0.008 2.604,-0.065 3.906,-0.095 0.918,-0.013 1.834,-0.05 2.75,-0.094 l -1.997,3.438 c -0.863,1.447 -1.765,2.854 -2.689,4.24 -1.799,-0.135 -3.61,0.07 -5.362,0.423 -1.06,0.236 -2.109,0.51 -3.134,0.868 -0.555,0.191 -1.103,0.405 -1.643,0.64 -0.722,-0.595 -2.276,-0.982 -2.979,-0.531 -1.127,0.724 -0.569,2.577 0.335,3.221 0.508,0.362 1.213,0.462 1.773,0.187 0.285,-0.14 0.52,-0.365 0.726,-0.607 0.444,-0.52 0.764,-1.285 0.466,-1.875 1.573,-0.273 3.115,-0.608 4.66,-0.926 l 3.126,-0.654 1.773,-0.355 c -0.071,0.105 -0.139,0.214 -0.21,0.319 -1.095,1.613 -2.28,3.146 -3.527,4.646 -1.06,1.258 -2.227,2.423 -3.436,3.614 -0.872,-0.385 -2.046,-0.448 -2.921,-0.28 -2.563,0.491 -1.035,3.76 0.583,4.507 0.2,0.092 0.413,0.167 0.633,0.18 0.266,0.016 0.529,-0.057 0.779,-0.151 0.822,-0.311 1.574,-0.895 1.914,-1.705 0.475,-1.133 0.113,-1.886 -0.595,-2.343 1.497,-0.699 2.908,-1.618 4.152,-2.722 1.529,-1.372 2.924,-2.911 4.067,-4.614 1.154,-1.694 2.122,-3.505 2.9,-5.388 0.552,-1.35 1.015,-2.74 1.325,-4.168 1.444,-0.079 2.887,-0.179 4.33,-0.274 1.881,-0.156 3.76,-0.334 5.637,-0.525 -0.462,0.511 -0.862,1.078 -1.162,1.698 -0.45,0.997 -0.692,2.063 -0.757,3.124 -0.039,0.529 0.022,1.06 0.029,1.58 0.065,0.588 0.22,1.146 0.294,1.58 1.11,-0.293 1.989,-0.799 2.871,-1.424 0.855,-0.631 1.652,-1.391 2.211,-2.33 0.542,-0.956 0.807,-2.031 0.916,-3.081 0.067,-0.547 0.051,-1.09 -0.01,-1.633 1.825,-0.219 3.647,-0.452 5.464,-0.72 6.369,-0.887 12.688,-2.058 18.957,-3.431 -0.765,0.772 -1.366,1.718 -1.724,2.748 -0.331,1.043 -0.449,2.13 -0.39,3.19 0.023,0.53 0.144,1.05 0.212,1.566 0.132,0.576 0.351,1.112 0.475,1.535 1.068,-0.419 1.883,-1.023 2.687,-1.747 0.776,-0.726 1.48,-1.573 1.927,-2.57 0.427,-1.012 0.566,-2.111 0.553,-3.166 0.005,-0.791 -0.157,-1.557 -0.383,-2.314 2.73,-0.63 5.451,-1.293 8.162,-1.988 1.418,-0.362 2.831,-0.741 4.245,-1.114 l -0.498,3.95 c -0.204,1.458 -0.463,2.885 -0.765,4.295 -0.159,-0.197 -0.314,-0.401 -0.494,-0.595 -0.423,-0.51 -0.917,-0.999 -1.502,-1.404 -0.591,-0.39 -1.28,-0.685 -2,-0.76 -0.278,-0.029 -0.553,-0.015 -0.824,0.019 -0.564,-1.699 -4.184,-1.259 -3.411,0.872 0.127,0.35 0.302,0.699 0.595,0.929 0.376,0.296 0.87,0.348 1.358,0.342 0.122,-10e-4 0.243,-0.006 0.362,-0.012 0.16,-0.008 0.324,-0.016 0.468,-0.085 0.202,-0.096 0.334,-0.295 0.428,-0.497 0.169,-0.361 0.239,-0.674 0.257,-0.957 0.205,0.045 0.413,0.086 0.608,0.151 0.571,0.209 1.1,0.477 1.601,0.828 0.512,0.333 0.991,0.746 1.526,1.143 0.262,0.201 0.548,0.398 0.857,0.568 0.013,0.006 0.028,0.012 0.042,0.019 -0.309,1.355 -0.704,2.678 -1.166,3.995 -0.323,0.92 -0.727,1.804 -1.159,2.706 -0.637,-0.545 -1.55,-0.745 -2.377,-0.227 -1.424,0.892 -1.485,3.933 0.341,4.427 0.828,0.224 1.678,-0.323 2.224,-0.986 0.186,-0.226 0.353,-0.47 0.467,-0.74 0.282,-0.672 0.168,-1.368 -0.175,-1.921 0.811,-0.751 1.53,-1.617 2.085,-2.583 0.823,-1.426 1.468,-2.978 1.801,-4.589 0.275,-1.254 0.411,-2.531 0.423,-3.803 1.188,1.622 2.241,3.291 3.072,5.071 0.53,1.071 0.938,2.195 1.278,3.344 0.255,0.791 0.414,1.603 0.565,2.433 -0.658,0.13 -1.265,0.453 -1.634,0.98 -1.112,1.588 0.611,3.433 2.305,3.34 1.132,-0.063 2.169,-0.942 2.417,-2.049 0.069,-0.308 0.079,-0.64 -0.04,-0.932 -0.427,-1.047 -1.605,-1.486 -2.717,-1.382 0.056,-0.853 0.031,-1.717 -0.133,-2.563 -0.199,-1.245 -0.593,-2.46 -1.136,-3.598 -0.548,-1.135 -1.213,-2.213 -2.015,-3.178 -0.592,-0.714 -1.243,-1.384 -1.968,-1.96 -0.003,-0.192 0.001,-0.384 -0.008,-0.575 -0.07,-1.39 -0.287,-2.777 -0.734,-4.101 3.903,-1.031 7.797,-2.089 11.683,-3.17 -0.066,0.061 -0.137,0.116 -0.2,0.181 -0.644,0.64 -1.155,1.43 -1.452,2.292 -0.273,0.87 -0.364,1.775 -0.302,2.654 0.025,0.439 0.136,0.868 0.2,1.294 0.118,0.487 0.322,0.933 0.432,1.266 0.914,-0.32 1.587,-0.805 2.263,-1.397 0.649,-0.594 1.238,-1.295 1.6,-2.128 0.345,-0.848 0.434,-1.765 0.418,-2.637 -0.001,-0.766 -0.179,-1.502 -0.406,-2.239 3.71,-1.037 7.418,-2.079 11.129,-3.111 3.138,-0.875 6.283,-1.735 9.428,-2.582 -0.149,0.177 -0.293,0.36 -0.424,0.553 -0.592,0.856 -1.001,1.835 -1.204,2.845 -0.216,1.013 -0.183,2.044 -0.082,3.042 0.069,0.5 0.191,0.984 0.289,1.477 0.151,0.554 0.383,1.051 0.51,1.444 0.957,-0.545 1.623,-1.237 2.269,-2.039 0.619,-0.799 1.135,-1.706 1.416,-2.698 0.276,-1 0.253,-2.047 0.174,-3.039 -0.042,-0.769 -0.223,-1.511 -0.448,-2.25 1.011,-0.268 2.022,-0.545 3.034,-0.808 l 3.744,-0.834 c 1.248,-0.269 2.482,-0.603 3.753,-0.728 l 0.244,-0.033 c -0.912,2.892 -1.763,5.685 -2.98,8.289 -0.702,1.464 -1.458,2.891 -2.442,4.17 -0.768,0.963 -1.641,1.83 -2.655,2.64 -0.57,-0.769 -1.587,-1.095 -2.654,-0.293 -1.796,1.349 -0.317,3.998 1.768,3.653 0.193,-0.032 0.383,-0.09 0.552,-0.189 0.213,-0.125 0.386,-0.315 0.503,-0.533 0.391,-0.729 0.377,-1.534 0.101,-2.177 1.287,-0.395 2.503,-1.114 3.528,-2.039 1.342,-1.238 2.355,-2.777 3.114,-4.394 0.014,-0.03 0.024,-0.061 0.038,-0.09 0.325,0.395 0.629,0.795 0.9,1.216 0.439,0.727 0.82,1.482 1.154,2.266 0.348,0.779 0.623,1.594 0.913,2.413 l 0.276,0.827 c -0.432,0.13 -0.823,0.382 -1.091,0.769 -1.366,1.967 1.171,3.499 2.943,2.585 0.559,-0.288 0.942,-0.892 0.964,-1.521 0.045,-1.301 -1.107,-1.986 -2.228,-1.932 -0.026,-0.306 -0.06,-0.612 -0.109,-0.916 -0.144,-0.894 -0.394,-1.773 -0.748,-2.618 -0.375,-0.835 -0.834,-1.646 -1.449,-2.342 -0.398,-0.441 -0.859,-0.826 -1.362,-1.131 0.641,-1.483 1.047,-3.041 1.296,-4.607 0.205,-1.362 0.291,-2.743 0.179,-4.115 l 3.027,-0.413 c 1.253,-0.233 2.532,-0.161 3.792,-0.275 l 1.822,-0.107 c -0.048,0.062 -0.101,0.119 -0.147,0.182 -0.603,0.828 -1.042,1.771 -1.299,2.751 -0.267,0.982 -0.317,1.994 -0.297,2.984 0.027,0.497 0.102,0.984 0.156,1.477 0.096,0.562 0.284,1.075 0.368,1.47 0.96,-0.519 1.629,-1.188 2.287,-1.961 0.632,-0.771 1.168,-1.646 1.489,-2.607 0.32,-0.968 0.363,-1.996 0.371,-2.977 0.012,-0.445 -0.021,-0.887 -0.075,-1.327 l 2.896,0.082 c 0.633,-0.012 1.256,0.084 1.881,0.159 l 1.875,0.227 1.877,0.213 c 0.619,0.108 1.232,0.254 1.848,0.379 2.719,0.499 5.384,1.262 7.975,2.234 -0.746,0.274 -1.449,0.664 -2.059,1.165 -0.726,0.602 -1.309,1.339 -1.795,2.115 -0.24,0.39 -0.419,0.815 -0.627,1.215 -0.208,0.486 -0.315,0.986 -0.439,1.331 1,0.16 1.859,0.043 2.775,-0.157 0.893,-0.215 1.777,-0.559 2.544,-1.101 0.759,-0.564 1.348,-1.31 1.862,-2.058 0.285,-0.405 0.518,-0.836 0.725,-1.285 1.093,0.491 2.171,1.018 3.229,1.581 8.961,4.726 16.541,11.916 22.943,19.993 0.048,0.06 0.137,0.077 0.203,0.034 0.075,-0.049 0.093,-0.142 0.047,-0.211 z M 29.123,403.29 c -0.533,0.115 -1.004,0.129 -1.493,0.204 -0.488,0.054 -1.033,0.193 -1.651,0.273 -0.614,0.08 -1.258,0.012 -1.806,-0.258 -0.414,-0.196 -0.666,-0.641 -0.638,-1.053 0.041,-0.419 0.274,-0.759 0.516,-0.923 0.247,-0.166 0.403,-0.219 0.607,-0.234 0.031,-0.009 0.122,-0.018 0.231,-0.022 0.1,-0.004 0.197,-0.017 0.296,-0.029 0.196,-0.026 0.392,-0.015 0.589,-0.039 0.795,-0.068 1.589,0.101 2.436,0.312 0.767,0.166 1.595,0.507 2.163,1.084 -0.346,0.354 -0.8,0.591 -1.25,0.685 z m 1.584,-1.238 c -0.015,-0.063 -0.032,-0.131 -0.043,-0.178 -0.052,-0.152 -0.182,-0.395 -0.278,-0.577 -0.201,-0.397 -0.409,-0.779 -0.611,-1.157 -0.404,-0.757 -0.796,-1.489 -1.146,-2.213 -0.359,-0.718 -0.728,-1.41 -0.968,-2.14 l -0.123,-0.429 c -0.014,-0.097 -0.025,-0.195 -0.008,-0.299 0.021,-0.207 0.16,-0.474 0.424,-0.645 0.256,-0.173 0.625,-0.226 0.941,-0.08 0.313,0.125 0.545,0.509 0.771,0.872 0.42,0.75 0.488,1.642 0.579,2.428 0.094,0.792 0.264,1.547 0.345,2.358 0.045,0.404 0.086,0.815 0.12,1.241 l 0.049,0.65 0.018,0.243 c -0.024,-0.024 -0.047,-0.049 -0.07,-0.074 z m 11.328,10.736 c -0.508,0.724 -1.321,1.132 -2.104,1.445 -0.788,0.326 -1.605,0.614 -2.461,0.832 -0.836,0.229 -1.765,0.398 -2.584,0.624 0.226,-0.477 0.438,-0.787 0.62,-1.138 0.243,-0.363 0.426,-0.755 0.711,-1.073 0.484,-0.696 1.113,-1.244 1.781,-1.698 0.672,-0.45 1.424,-0.8 2.237,-0.992 0.565,-0.122 1.159,-0.184 1.751,-0.211 0.189,0.106 0.379,0.212 0.568,0.318 0.002,0.664 -0.134,1.334 -0.519,1.893 z m 0.923,-3.295 c -0.275,-0.131 -0.549,-0.263 -0.822,-0.398 -0.016,-0.023 -0.032,-0.052 -0.048,-0.074 -0.252,-0.349 -0.518,-0.802 -0.787,-1.183 -0.267,-0.398 -0.491,-0.818 -0.746,-1.217 -0.208,-0.422 -0.461,-0.822 -0.637,-1.251 -0.407,-0.835 -0.709,-1.707 -0.827,-2.598 -0.091,-0.789 -0.017,-1.644 0.3,-2.348 0.309,0.204 0.625,0.404 0.907,0.646 0.342,0.334 0.724,0.641 0.99,1.044 0.609,0.75 0.922,1.685 1.187,2.564 0.274,0.886 0.451,1.794 0.513,2.729 0.054,0.675 0.02,1.393 -0.03,2.086 z m 20.602,10.672 c -0.608,0.642 -1.471,0.928 -2.292,1.124 -0.827,0.208 -1.677,0.374 -2.556,0.465 -0.86,0.105 -1.804,0.138 -2.647,0.242 0.293,-0.439 0.548,-0.715 0.779,-1.035 0.294,-0.324 0.531,-0.685 0.86,-0.958 0.58,-0.618 1.282,-1.069 2.008,-1.421 0.441,-0.21 0.908,-0.373 1.39,-0.49 1.043,0.269 2.09,0.519 3.14,0.759 -0.126,0.481 -0.335,0.94 -0.682,1.314 z m 1.723,-5.186 c -0.028,0.452 -0.1,0.917 -0.189,1.379 -0.358,-0.067 -0.716,-0.136 -1.074,-0.206 -0.152,-0.323 -0.306,-0.672 -0.467,-0.991 -0.207,-0.432 -0.367,-0.881 -0.562,-1.312 -0.145,-0.448 -0.336,-0.88 -0.449,-1.33 -0.281,-0.885 -0.453,-1.792 -0.441,-2.691 0.024,-0.794 0.222,-1.629 0.638,-2.28 0.276,0.247 0.56,0.49 0.803,0.771 0.29,0.38 0.623,0.739 0.827,1.177 0.494,0.831 0.668,1.8 0.802,2.709 0.143,0.916 0.186,1.84 0.112,2.774 z m 22.411,7.79 c -0.41,0.784 -1.163,1.294 -1.899,1.706 -0.739,0.426 -1.512,0.817 -2.332,1.144 -0.799,0.335 -1.699,0.624 -2.481,0.953 0.162,-0.502 0.332,-0.837 0.468,-1.208 0.194,-0.391 0.325,-0.804 0.566,-1.156 0.39,-0.753 0.943,-1.378 1.546,-1.914 0.323,-0.284 0.677,-0.536 1.05,-0.761 0.239,0.012 0.478,0.022 0.718,0.035 0.884,0.046 1.768,0.085 2.652,0.111 -0.031,0.375 -0.112,0.746 -0.288,1.09 z m -0.918,-4.293 c -0.149,-0.177 -0.301,-0.357 -0.451,-0.52 -0.316,-0.36 -0.593,-0.748 -0.898,-1.11 -0.261,-0.391 -0.563,-0.756 -0.794,-1.158 -0.512,-0.775 -0.924,-1.601 -1.157,-2.469 -0.193,-0.771 -0.23,-1.628 -0.007,-2.368 0.333,0.163 0.672,0.319 0.983,0.523 0.383,0.287 0.801,0.542 1.117,0.907 0.701,0.665 1.132,1.551 1.51,2.388 0.386,0.843 0.68,1.72 0.862,2.639 0.083,0.383 0.134,0.785 0.174,1.189 -0.448,-0.002 -0.894,-0.007 -1.339,-0.021 z m 25.15,-1.853 c -0.795,-0.734 -1.567,-1.483 -2.207,-2.323 -0.656,-0.821 -1.253,-1.695 -1.626,-2.669 -0.323,-0.867 -0.529,-1.826 -0.487,-2.739 0.924,0.276 1.85,0.633 2.592,1.274 0.857,0.677 1.503,1.577 2.004,2.514 0.528,0.923 0.993,1.88 1.352,2.898 0.207,0.566 0.377,1.167 0.535,1.768 -0.387,0.038 -0.775,0.079 -1.163,0.116 -0.329,-0.277 -0.662,-0.573 -1,-0.839 z m 2.65,5.194 c -0.168,1 -0.688,1.887 -1.285,2.66 -0.6,0.78 -1.271,1.508 -2.013,2.189 -0.725,0.674 -1.581,1.322 -2.331,1.939 0.03,-0.589 0.134,-1.055 0.16,-1.49 0.084,-0.5 0.141,-0.999 0.245,-1.483 0.214,-0.968 0.501,-1.901 0.934,-2.756 0.443,-0.844 0.986,-1.637 1.694,-2.287 0.014,-0.012 0.029,-0.023 0.043,-0.036 0.838,-0.09 1.675,-0.189 2.511,-0.288 0.109,0.51 0.145,1.032 0.042,1.552 z m 24.916,-9.043 c -0.875,-0.637 -1.728,-1.292 -2.461,-2.052 -0.746,-0.74 -1.441,-1.539 -1.924,-2.462 -0.421,-0.824 -0.737,-1.752 -0.801,-2.664 0.95,0.167 1.911,0.415 2.722,0.965 0.93,0.573 1.676,1.393 2.282,2.265 0.631,0.856 1.203,1.753 1.679,2.722 0.291,0.578 0.543,1.199 0.784,1.819 -0.361,0.065 -0.723,0.13 -1.085,0.194 -0.393,-0.255 -0.794,-0.54 -1.196,-0.787 z m 3.233,4.852 c -0.051,1.013 -0.466,1.954 -0.969,2.791 -0.506,0.844 -1.088,1.645 -1.746,2.407 -0.642,0.754 -1.417,1.496 -2.09,2.196 -0.039,-0.589 0.011,-1.063 -0.014,-1.498 0.026,-0.506 0.025,-1.008 0.072,-1.501 0.101,-0.986 0.277,-1.946 0.609,-2.846 0.342,-0.89 0.791,-1.74 1.418,-2.468 0.324,-0.37 0.688,-0.72 1.08,-1.035 0.383,-0.086 0.766,-0.172 1.149,-0.26 0.322,0.693 0.553,1.439 0.491,2.214 z m 24.394,-11.197 c -0.7,-0.546 -1.407,-1.065 -1.995,-1.694 -0.605,-0.604 -1.175,-1.248 -1.573,-1.994 -0.333,-0.651 -0.597,-1.382 -0.674,-2.1 0.758,0.125 1.523,0.321 2.165,0.764 0.759,0.476 1.351,1.166 1.834,1.885 0.505,0.704 0.976,1.431 1.374,2.219 0.31,0.593 0.576,1.248 0.84,1.878 -0.143,0.037 -0.285,0.075 -0.428,0.113 -0.157,-0.116 -0.305,-0.227 -0.447,-0.316 z m 2.593,4.052 c -0.047,0.829 -0.413,1.589 -0.834,2.262 -0.421,0.681 -0.889,1.335 -1.42,1.965 -0.514,0.623 -1.148,1.246 -1.666,1.846 -0.024,-0.499 0.041,-0.883 0.03,-1.229 0.03,-0.416 0.039,-0.827 0.084,-1.229 0.097,-0.805 0.247,-1.583 0.52,-2.31 0.28,-0.719 0.635,-1.41 1.139,-2.004 0.452,-0.522 1.002,-1.004 1.598,-1.368 0.338,0.633 0.614,1.332 0.549,2.067 z m 20.13,-10.917 c -0.765,-0.602 -1.51,-1.212 -2.132,-1.929 -0.627,-0.706 -1.204,-1.459 -1.618,-2.308 -0.353,-0.749 -0.634,-1.571 -0.749,-2.388 0.843,0.12 1.693,0.352 2.397,0.863 0.807,0.572 1.416,1.363 1.931,2.175 0.516,0.816 1.001,1.651 1.423,2.537 0.318,0.649 0.602,1.352 0.886,2.031 l -0.496,0.162 c -0.151,-0.107 -0.295,-0.209 -0.439,-0.293 -0.405,-0.286 -0.814,-0.559 -1.203,-0.85 z m 2.969,4.591 c 0.01,0.962 -0.257,1.9 -0.638,2.754 -0.364,0.863 -0.772,1.707 -1.267,2.523 -0.477,0.807 -1.09,1.623 -1.599,2.385 -0.057,-0.566 -0.01,-1.026 -0.043,-1.431 l -0.003,-1.435 c 0.062,-0.947 0.099,-1.888 0.339,-2.78 0.209,-0.893 0.491,-1.77 0.956,-2.559 0.314,-0.518 0.694,-1.021 1.125,-1.459 0.191,-0.051 0.382,-0.102 0.574,-0.153 0.322,0.674 0.574,1.396 0.556,2.155 z m 18.273,-11.012 c -0.496,-0.739 -0.939,-1.515 -1.232,-2.36 -0.247,-0.742 -0.424,-1.54 -0.469,-2.321 0.78,0.164 1.547,0.472 2.158,1.013 0.691,0.634 1.147,1.464 1.53,2.289 0.397,0.823 0.741,1.674 1.048,2.552 0.191,0.534 0.361,1.1 0.531,1.66 l -0.102,-10e-4 c -0.267,10e-4 -0.534,-0.002 -0.8,0.002 -0.303,-0.262 -0.611,-0.513 -0.889,-0.791 -0.666,-0.633 -1.259,-1.315 -1.775,-2.043 z m 4.133,6.785 c -0.076,0.949 -0.4,1.854 -0.821,2.682 -0.401,0.837 -0.832,1.659 -1.342,2.453 -0.491,0.786 -1.116,1.578 -1.624,2.326 -0.005,-0.566 0.092,-1.013 0.098,-1.411 l 0.126,-1.416 c 0.139,-0.931 0.251,-1.856 0.539,-2.728 0.258,-0.875 0.572,-1.735 1.052,-2.506 0.168,-0.261 0.355,-0.516 0.551,-0.765 0.261,0.004 0.522,0.016 0.782,0.023 l 0.546,0.016 c 0.094,0.434 0.141,0.878 0.093,1.326 z m 20.599,4.297 c -0.548,0.68 -1.291,1.158 -2.041,1.544 -0.753,0.391 -1.518,0.756 -2.328,1.061 -0.79,0.31 -1.687,0.557 -2.466,0.844 0.287,-0.44 0.589,-0.724 0.793,-1.022 l 0.826,-1.006 c 0.58,-0.633 1.157,-1.251 1.826,-1.746 0.657,-0.501 1.352,-0.956 2.124,-1.253 0.207,-0.077 0.421,-0.146 0.638,-0.209 0.431,0.176 0.86,0.356 1.286,0.544 -0.147,0.449 -0.35,0.877 -0.658,1.243 z m 1.57,-3.502 c -0.263,-0.121 -0.528,-0.238 -0.792,-0.356 l -0.316,-0.988 c -0.216,-0.831 -0.422,-1.651 -0.473,-2.482 -0.064,-0.824 -0.068,-1.654 0.102,-2.464 0.156,-0.701 0.418,-1.406 0.773,-2.029 0.533,0.51 1.018,1.101 1.24,1.822 0.273,0.829 0.271,1.713 0.187,2.553 -0.081,0.845 -0.19,1.685 -0.374,2.531 -0.094,0.463 -0.22,0.939 -0.347,1.413 z M 48.709,399.522 c 0.361,0.257 0.784,0.412 1.212,0.526 3.321,0.887 3.562,-3.828 0.938,-4.915 -2.868,-1.187 -4.533,2.694 -2.15,4.389 z m 43.771,12.701 c 0.106,0.089 0.241,0.134 0.372,0.177 1.044,0.344 2.135,0.692 3.223,0.536 0.588,-0.084 1.145,-0.313 1.683,-0.565 1.122,-0.526 2.249,-1.221 2.814,-2.324 2.714,-5.303 -8.817,-7.802 -9.025,-1.741 -0.04,1.15 0.304,2.274 0.643,3.373 0.062,0.2 0.131,0.411 0.29,0.544 z m 55.882,-7.939 c 0.675,0.339 1.452,0.423 2.206,0.398 0.498,-0.017 1.01,-0.084 1.44,-0.337 0.221,-0.131 0.413,-0.306 0.592,-0.491 1.607,-1.667 2.258,-5.355 -0.481,-6.309 -2.139,-0.745 -6.147,0.559 -5.879,3.189 0.146,1.431 0.837,2.903 2.122,3.55 z m -76.127,18.993 c -0.731,-0.569 -1.551,-1.021 -2.505,-0.957 -2.164,0.145 -4.229,2.129 -3.552,4.344 0.216,0.708 0.609,1.346 1.011,1.968 0.413,0.639 0.89,1.308 1.61,1.554 0.857,0.293 1.792,-0.104 2.559,-0.586 0.673,-0.423 1.3,-0.918 1.868,-1.474 0.169,-0.166 0.337,-0.343 0.424,-0.564 0.121,-0.306 0.07,-0.647 0.059,-0.976 -0.05,-1.522 -0.216,-2.332 -1.474,-3.309 z M 28.193,408.453 c -2.886,0.036 -4.83,3.769 -1.931,5.53 0.571,0.347 1.275,0.37 1.944,0.383 0.595,0.012 1.238,0.008 1.716,-0.346 2.116,-1.572 0.937,-5.6 -1.729,-5.567 z m 150.765,5.03 c -2.47,0.352 -3.239,2.959 -2.527,5.023 0.2,0.58 0.473,1.166 0.957,1.543 0.692,0.538 1.649,0.533 2.525,0.504 0.6,-0.02 1.247,-0.056 1.716,-0.431 0.335,-0.268 0.528,-0.67 0.71,-1.058 0.36,-0.767 0.725,-1.554 0.795,-2.398 0.174,-2.101 -2.273,-3.454 -4.176,-3.183 z m -53.248,13.381 c -1.476,0.269 -3.372,1.612 -4.164,2.872 -0.832,1.325 -0.096,3.648 0.871,4.736 0.532,0.598 1.3,0.935 2.071,1.15 1.114,0.311 2.31,0.403 3.428,0.108 1.119,-0.295 2.152,-1.005 2.7,-2.024 1.601,-2.977 -1.541,-7.456 -4.906,-6.842 z"
   id="path11" />
		<path
   d="m 246.897,397.949 c 0.07,0.844 0.435,1.631 0.795,2.398 0.182,0.388 0.375,0.791 0.71,1.058 0.469,0.375 1.116,0.411 1.716,0.431 0.876,0.029 1.833,0.034 2.525,-0.504 0.485,-0.377 0.757,-0.962 0.957,-1.543 0.712,-2.064 -0.057,-4.672 -2.527,-5.023 -1.902,-0.27 -4.35,1.083 -4.176,3.183 z"
   id="path12" />
		<path
   d="m 273.479,411.246 c -0.753,0.388 -1.34,1.027 -1.911,1.653 -0.289,0.317 -0.587,0.649 -0.706,1.061 -0.167,0.577 0.047,1.188 0.259,1.751 0.309,0.821 0.67,1.706 1.433,2.139 0.534,0.304 1.179,0.331 1.792,0.293 2.179,-0.133 4.293,-1.842 3.672,-4.258 -0.479,-1.86 -2.666,-3.603 -4.539,-2.639 z"
   id="path13" />
		<path
   d="m 226.789,412.579 c -0.753,0.388 -1.34,1.027 -1.911,1.653 -0.289,0.317 -0.587,0.65 -0.706,1.061 -0.167,0.577 0.047,1.188 0.259,1.751 0.309,0.821 0.671,1.706 1.433,2.139 0.534,0.304 1.179,0.331 1.792,0.293 2.179,-0.133 4.293,-1.842 3.672,-4.258 -0.479,-1.861 -2.666,-3.603 -4.539,-2.639 z"
   id="path14" />
		<path
   d="m 235.705,385.748 c 1.774,2.424 4.924,0.078 3.119,-2.249 -1.633,-2.105 -4.618,0.2 -3.119,2.249 z"
   id="path15" />
		<path
   d="m 267.959,388.471 c 2.998,0.193 3.217,-3.729 0.274,-3.835 -2.662,-0.097 -2.807,3.672 -0.274,3.835 z"
   id="path16" />
	</g>

</svg>
