<?xml version="1.0" encoding="UTF-8" standalone="no"?>
<svg
   aria-hidden="true"
   role="img"
   class="iconify iconify--logos"
   width="31.88"
   height="32"
   preserveAspectRatio="xMidYMid meet"
   viewBox="0 0 256 257"
   version="1.1"
   id="svg6"
   sodipodi:docname="vite.svg"
   inkscape:version="1.3.2 (091e20e, 2023-11-25)"
   xmlns:inkscape="http://www.inkscape.org/namespaces/inkscape"
   xmlns:sodipodi="http://sodipodi.sourceforge.net/DTD/sodipodi-0.dtd"
   xmlns="http://www.w3.org/2000/svg"
   xmlns:svg="http://www.w3.org/2000/svg">
  <sodipodi:namedview
     id="namedview6"
     pagecolor="#ffffff"
     bordercolor="#000000"
     borderopacity="0.25"
     inkscape:showpageshadow="2"
     inkscape:pageopacity="0.0"
     inkscape:pagecheckerboard="0"
     inkscape:deskcolor="#d1d1d1"
     inkscape:zoom="7.375"
     inkscape:cx="15.932203"
     inkscape:cy="15.932203"
     inkscape:window-width="1800"
     inkscape:window-height="1126"
     inkscape:window-x="0"
     inkscape:window-y="43"
     inkscape:window-maximized="0"
     inkscape:current-layer="svg6" />
  <defs
     id="defs5">
    <linearGradient
       id="IconifyId1813088fe1fbc01fb466"
       x1="-.828%"
       x2="57.636%"
       y1="7.652%"
       y2="78.411%">
      <stop
         offset="0%"
         stop-color="#41D1FF"
         id="stop1" />
      <stop
         offset="100%"
         stop-color="#BD34FE"
         id="stop2" />
    </linearGradient>
    <linearGradient
       id="IconifyId1813088fe1fbc01fb467"
       x1="43.376%"
       x2="50.316%"
       y1="2.242%"
       y2="89.03%">
      <stop
         offset="0%"
         stop-color="#FFEA83"
         id="stop3" />
      <stop
         offset="8.333%"
         stop-color="#FFDD35"
         id="stop4" />
      <stop
         offset="100%"
         stop-color="#FFA800"
         id="stop5" />
    </linearGradient>
  </defs>
  <path
     d="m 238.07991,203.18144 c -0.11216,0.38936 -0.15363,0.79069 -0.22283,1.18596 -5.55707,0.4778 -11.10705,1.20607 -16.57059,2.49938 -3.27986,0.71734 -6.54124,1.62888 -9.76772,2.67855 0.44706,-3.41522 0.91006,-6.43407 1.40581,-9.66436 0.37836,-2.82137 0.8005,-5.63507 0.93486,-8.66248 1.76635,0.0981 3.68253,-0.2177 5.6551,-1.16138 12.09966,-5.78118 1.0387,-20.27773 -9.42138,-15.07266 -8.8308,4.39144 -5.60495,13.76111 1.41649,15.86095 -0.43441,0.73885 -0.85501,1.48524 -1.19716,2.25858 -0.8823,1.94429 -1.43766,4.0116 -1.78768,6.1299 -0.25832,2.13192 -0.35101,4.31469 0.0482,6.48323 0.27002,1.4798 0.74932,2.95918 1.49463,4.2937 -4.48433,1.54194 -8.87403,3.4285 -13.03139,5.86291 -5.48137,3.21992 -10.33161,7.41067 -14.57195,12.03729 0.52547,-1.5546 0.99016,-3.13109 1.35649,-4.72406 0.8425,-3.59019 1.21471,-7.24201 1.46346,-10.89123 0.15325,-3.65068 0.12115,-7.30233 -0.23727,-10.93852 -0.19986,-2.13967 -0.53092,-4.27268 -0.95158,-6.39514 0.2535,-0.0904 0.51544,-0.16492 0.75956,-0.27384 1.71507,-0.77209 3.33493,-1.88031 4.36539,-3.45289 4.72203,-7.20438 -2.5287,-17.41734 -10.72836,-15.3577 -8.78424,2.20604 -10.53361,14.89856 -2.11344,19.17989 1.79481,0.91354 3.86358,0.92866 5.85263,0.48089 -0.74906,5.55929 -1.05846,11.04067 -1.38976,16.52821 -0.29789,6.20392 -0.55041,12.31042 -0.76208,18.63562 -0.73798,0.88841 -1.5085,1.75196 -2.2036,2.6562 -4.90714,6.27683 -9.36955,12.69269 -14.54899,18.69787 -4.50699,-10.70773 -8.50555,-21.63366 -11.96145,-32.71966 -0.90844,-2.93811 -1.71366,-5.89926 -2.59039,-8.84387 0.15364,-1.14537 0.35022,-2.09835 0.51789,-3.19643 0.41514,-3.01484 1.31064,-5.94836 2.01109,-8.86301 1.52033,-5.83971 4.06187,-11.32815 6.72757,-16.66988 5.46695,-10.66217 12.60701,-20.41463 20.25613,-29.92069 7.51687,-9.64884 15.67488,-18.91845 22.56524,-30.05162 1.72671,-2.76036 3.24069,-5.84236 4.40709,-9.15749 1.09458,-3.33874 1.69216,-7.32413 0.68138,-11.19412 -0.95499,-3.868103 -3.40093,-7.181393 -6.16684,-9.264433 -2.70111,-2.20092 -5.60882,-3.9328 -9.03112,-5.00516 -3.32887,-1.12448 -7.11655,-1.2033 -10.41265,-0.12365 -3.29249,1.05721 -6.19287,2.81998 -8.67144,4.92317 -4.90889,4.29176 -8.55084,9.558293 -11.76776,14.974433 -6.3878,10.87382 -11.37545,22.62083 -14.71593,34.86148 -3.11333,12.28523 -4.21127,25.01259 -3.91393,37.61762 0.0358,1.98285 0.20256,3.95941 0.33207,5.94019 -1.77663,-6.51659 -3.55909,-13.03489 -5.25811,-19.57568 -4.62278,-17.94591 -8.57934,-36.06439 -12.74886,-54.15996 -3.63601,-15.316323 -7.11511,-30.697343 -11.07977,-46.022133 6.46718,-7.31584 11.87277,-15.48663 16.46572,-24.09956 1.96454,-0.54554 3.88148,-1.11606 5.78407,-1.67555 l 8.41058,-2.52029 c 3.20505,-1.01309 6.41363,-2.00929 9.63796,-3.13213 0.10873,3.09381 2.04131,5.67886 6.75686,6.17124 2.31318,0.24189 4.66117,-0.48278 6.63038,-1.71909 8.15054,-5.11417 8.52924,-18.759599 -3.29509,-16.83141 -4.46246,0.7274 -8.38818,5.01933 -9.66915,9.30106 -0.80217,0.042 -1.6043,0.0444 -2.39869,0.13145 -3.0472,0.29956 -6.03059,0.98151 -8.96939,1.83048 -4.00223,1.26207 -7.93808,3.02985 -11.41079,5.48578 3.65639,-7.54493 6.69718,-15.56663 7.96222,-23.892239 1.58039,0.23359 3.17492,0.169575 4.65769,-0.351629 2.92192,-1.030164 5.38237,-3.267713 6.73831,-6.0507257 2.5842,-5.315407 1.39207,-12.846274 -5.21435,-13.564293 -4.2556,-0.460973 -10.41416,0.800141 -13.92599,3.346414 -7.44802,5.397896 -1.28036,14.1021107 6.06799,16.2561907 -3.37875,8.527192 -7.2892,16.654682 -11.48445,24.751882 -4.27181,8.32062 -8.79305,16.54283 -13.17195,24.95746 -0.58257,-2.22539 -1.13916,-4.44879 -1.74549,-6.67195 -2.41223,-9.03422 -5.24031,-18.00261 -8.33078,-26.87816 l -2.521685,-6.59834 -2.91311,-6.455079 c -0.98873,-2.139547 -2.21467,-4.188806 -3.30577,-6.266505 -0.48363,-0.847251 -1.03578,-1.6613457 -1.5891,-2.4691837 0.0569,-0.08527 0.0971,-0.161989 0.19277,-0.210621 l 0.49928,-0.531734 0.97455,-1.081768 1.87675,-2.217489 c 1.23665,-1.490184 2.49235,-2.972696 3.63519,-4.53026801 2.351965,-3.07292199 4.556865,-6.24908099 6.653475,-9.50113099 4.22511,-6.4904153 7.88492,-13.3484173 11.01534,-20.5521863 2.91495,-7.294271 5.3583,-14.918844 5.77641,-23.389516 0.11255,-4.174289 -0.034,-8.880798 -2.79143,-13.223927 -1.36057,-2.125786 -3.39642,-3.909936 -5.65121,-4.864429 -1.09004,-0.576153 -2.25801,-0.724273 -3.3625,-1.062612 -1.08612,-0.183983 -2.12591,-0.236521 -3.17574,-0.348746 -4.21088,-0.283851 -8.747915,0.710394 -12.145925,3.323739 -3.41235,2.594969 -5.44688,6.265428 -7.01,9.891147 -2.92667,7.340182 -5.05261,15.118518 -5.74066,22.9574 -0.63024,7.844528 0.21673,15.629924 1.56659,23.245772 0.29098,1.620026 0.62724,3.230695 0.98571,4.8357903 -1.63425,-3.1502333 -3.4178,-6.2197833 -5.40768,-9.1549243 -2.70022,-4.03279 -5.72762,-7.834875 -9.00302,-11.416906 -3.233714,-3.617924 -6.778677,-6.963582 -10.644287,-9.917365 -7.757179,-5.899528 -16.489001,-10.402258 -25.467097,-13.952086 -4.506835,-1.745958 -9.22896,-3.148253 -14.2915,-3.320318 -2.51248,0.02517 -5.175938,0.244659 -7.66733,1.376029 -2.436661,1.101511 -4.8086704,2.843414 -6.3147374,5.122816 -0.902518,1.066108 -1.414412,2.292794 -2.117405,3.467242 -0.481496,1.207554 -1.043748,2.384322 -1.449428,3.663055 -0.771846,2.57635 -1.283227,5.460326 -0.72051,8.52394 0.544684,3.047829 2.171576,5.877389 4.174068,8.047523 2.044836,2.058862 4.3388274,3.692328 6.6428364,4.93145 9.273503,4.912221 18.60489,7.020661 27.724142,9.33117 9.146175,2.1073383 18.126785,4.1636093 26.715744,7.1418263 4.278704,1.522095 8.441184,3.307467 12.408724,5.52595499 1.98081,1.11336301 3.90442,2.34036601 5.76895,3.69706701 0.9216,0.755721 1.76279,1.323521 2.77686,2.252332 0.48811,0.480984 1.00414,0.849741 1.49546,1.19932 3.66797,7.5999657 6.01748,15.7028907 8.10278,23.8644807 0.27626,1.09746 0.49077,2.21183 0.75308,3.31164 -15.20925,-0.47034 -29.307855,-5.4504 -44.129162,-9.20623 -7.163034,-1.72882 -14.574761,-3.02224 -22.064282,-3.12858 -1.53507,-1.16927 -2.933234,-2.452709 -4.387085,-3.717759 L 21.1271,12.749495 C 17.420698,9.3708783 13.68637,5.9962413 9.5095156,2.9304533 9.7047426,2.6260793 9.9465666,2.3546393 10.084302,2.0152013 13.55296,-6.4427897 5.0545786,-16.488215 -3.6585804,-13.579756 c -9.2814666,3.096895 -13.0745336,16.4742913 -1.67725,19.1937513 2.809037,0.669054 5.69159398,1.345755 8.561251,1.001064 1.918732,-0.231879 3.804136,-1.061806 5.203695,-2.358717 2.6480154,4.393437 5.9965054,8.2378417 9.6797424,11.7581287 2.386132,2.130597 4.899076,4.167197 7.708942,5.823976 0.596754,0.34107 1.225955,0.67709 1.866641,0.99632 -5.91458,0.27413 -11.745301,1.39419 -17.287602,3.2615 -2.7887824,-6.702639 -12.5397754,-9.471947 -18.3835674,-4.55264 -6.2542846,5.26194 -2.8474946,17.71006 5.288848,18.9562 1.227688,0.18765 2.47726898,0.0926 3.703418,-0.10726 2.51705,-0.4103 5.023275,-1.30546 6.914371,-3.01153 2.2697054,-2.05238 3.4589084,-5.2042 3.2128824,-8.25347 -0.06377,-0.77691 -0.23872,-1.50685 -0.464906,-2.21004 6.492983,-0.87644 12.959134,-1.16514 19.35504,-0.74475 7.828181,0.54865 15.535922,2.10153 23.24157,4.03475 0.02201,0.002 0.0438,0.0147 0.05864,0.007 -1.850776,0.61243 -3.645076,1.40566 -5.352765,2.33044 -3.140951,1.74108 -5.990278,3.93002 -8.652635,6.29118 -2.580702,2.44363 -4.982837,5.06254 -7.057433,7.93412 -0.814608,1.12156 -1.555496,2.30008 -2.284634,3.4821 -2.470649,-0.27715 -5.211758,0.26262 -6.983591,1.12968 -10.524161,5.15725 -3.84465,18.20483 7.125407,14.6779 4.974381,-1.59933 7.830408,-9.50296 4.264842,-13.78635 -0.455965,-0.5482 -1.053573,-0.93787 -1.706694,-1.26194 3.264119,-2.98584 6.443628,-5.98163 9.651012,-8.90264 2.479616,-2.29822 5.023539,-4.48922 7.591262,-6.69227 1.915799,-1.5488 3.885992,-3.05916 5.923376,-4.58463 6.880159,1.69248 13.816723,3.54574 20.976603,4.62752 7.17616,1.17315 14.59814,1.31366 21.74666,0.11532 1.826355,7.72888 3.402105,15.52466 4.944155,23.34257 3.25591,16.96111 6.48036,33.99805 10.04107,50.999433 -2.27864,-3.358 -4.71616,-6.61538 -7.45493,-9.63051 -3.52439,-4.014883 -7.443395,-7.685183 -11.629555,-11.025753 -4.12872,-3.41437 -8.64745,-6.36687 -13.42656,-8.80845 -9.57617,-4.90879 -20.073918,-7.72429 -30.566605,-9.13982 -5.254446,-0.70886 -10.649576,-0.89722 -16.028343,0.2087 -5.229937,1.02531 -11.055894,3.96874 -13.766046,9.51839 -0.821693,1.29497 -1.165283,2.73572 -1.695941,4.15206 -0.243609,1.41152 -0.696298,2.9325 -0.731361,4.31261 -0.28473,2.79904 -0.324021,5.7483 0.437785,8.80106 0.727816,3.025143 2.318204,6.117593 4.733412,8.453213 2.414671,2.30592 5.289189,3.7551 8.078215,4.81869 11.284161,3.61 21.773889,3.2056 32.036748,3.62484 10.259266,0.0967 20.285316,0.54091 30.130456,2.2644 4.91475,0.88569 9.777325,2.09226 14.503105,3.82712 2.33017,0.91628 4.75371,1.75057 7.02146,2.90821 0.59682,0.30148 1.13163,0.53999 1.69675,0.80854 3.37877,14.42365 7.19312,28.76148 11.37148,42.99998 2.53224,8.72905 5.30307,17.39705 8.28851,25.98629 -4.8915,-1.82565 -9.48123,-4.23821 -14.15223,-6.56478 -5.91313,-3.06504 -11.9138,-6.11579 -18.18324,-8.74112 -0.0439,-0.0153 -0.0904,-0.0298 -0.14504,-0.0606 -0.0937,-2.42288 -0.75468,-4.82316 -1.58808,-7.0611 -1.09015,-3.01129 -2.682855,-5.75326 -4.406455,-8.36901 -1.79295,-2.57573 -3.7363,-5.02533 -5.96163,-7.22262 -1.31277,-1.32162 -2.72856,-2.5512 -4.2138,-3.70076 5.47843,-4.70452 -0.27181,-16.31069 -9.12265,-14.66999 -4.34271,0.80624 -6.84394,3.66327 -6.71225,8.09364 0.16054,5.49298 7.57198,9.5166 12.84164,8.09659 0.57399,-0.15784 1.08509,-0.36058 1.55578,-0.5939 2.47135,4.40821 5.24479,8.42884 7.92509,12.49167 1.7125,2.45667 3.36162,4.93547 4.98488,7.42245 0.999445,1.58031 1.981205,3.18395 2.939095,4.84002 -5.709505,-2.20972 -11.644515,-4.04623 -17.797305,-4.84412 -4.26424,-0.60617 -8.61102,-0.59659 -12.86165,-0.062 -0.73085,-8.06881 -7.723161,-17.9684 -16.027097,-11.62909 -7.397317,5.64594 -10.166324,20.29711 1.315385,22.38478 3.320412,0.6049 6.934766,1.07088 9.917803,-0.50893 3.044209,-1.61665 4.699909,-5.10885 4.841939,-8.58431 10.74438,0.73944 20.91343,3.93087 30.814355,8.08137 6.12928,2.46675 12.16477,5.32007 18.45531,7.78008 5.07954,2.0098 10.44666,3.77932 15.93586,4.45915 3.06001,8.73629 6.35043,17.39577 9.88131,25.94847 7.04121,17.34054 14.80331,34.32126 22.61699,51.27564 0.6236,1.34014 1.2517,2.67982 1.87932,4.01926 -0.11904,-0.16396 -0.23065,-0.33816 -0.34595,-0.50397 -6.33244,-8.94105 -13.05822,-17.67322 -20.80524,-25.56397 -7.82234,-7.82267 -16.55268,-14.82642 -25.83623,-20.96124 -4.6583,-2.98184 -9.72802,-5.82007 -15.69064,-6.40982 -2.95441,-0.26629 -6.1177,0.28693 -8.890375,1.70064 -2.79664,1.41567 -4.95771,3.64327 -6.81052,5.94746 -1.89025,2.35841 -3.32402,4.69188 -4.56467,7.88993 -0.96034,3.12123 -1.21544,6.69837 -0.29191,9.83405 1.61481,6.42364 5.57704,11.29484 9.62797,15.40231 8.313835,8.14292 17.798625,14.31054 27.644875,19.47681 9.91148,5.05855 20.12166,9.31714 30.55715,12.84769 5.21192,1.77827 10.46881,3.40898 15.78049,4.83237 2.64217,0.75368 5.32928,1.36943 8.01056,1.99334 l 4.02273,0.90796 0.96626,0.19351 c 3.22246,6.24872 6.55889,12.44461 10.22875,18.47177 9.8461,16.01046 21.40942,30.95725 34.04084,44.86919 12.82178,13.75565 26.89798,26.2925 42.04771,37.26289 0.17562,0.12078 0.42519,0.10988 0.57933,-0.0485 0.17199,-0.18326 0.17275,-0.45727 -0.005,-0.63111 -13.03897,-13.37635 -25.56929,-26.97017 -37.42326,-41.1208 -0.72704,-0.89375 -1.42474,-1.80907 -2.14797,-2.70554 l 0.0397,-3.97415 c 0.14446,-3.0075 0.40044,-5.99159 0.65254,-8.97371 0.54402,-5.96432 1.59998,-11.87358 2.61811,-17.78857 l 6.9045,-35.63326 c 2.0432,-12.04306 3.83443,-24.29788 3.04378,-37.21699 -0.48126,-6.32371 -1.7394,-13.50184 -6.7874,-19.18578 -2.44543,-2.86921 -6.02629,-4.59983 -9.40342,-5.40551 l -2.5648,-0.51213 -2.53164,-0.13128 c -1.65771,-0.17905 -3.40012,0.14466 -5.07217,0.27225 -3.39393,0.62015 -6.65417,2.07626 -9.24378,4.27557 -2.61716,2.20394 -4.34751,5.06557 -5.79116,7.90202 -2.64742,5.83136 -3.82345,12.01605 -4.40839,18.16574 -1.2035,12.31175 -0.88881,24.81308 1.0555,37.07337 1.02988,6.11598 2.52124,12.14792 4.49767,18.01431 1.69429,5.16083 3.63095,10.23873 5.83568,15.19607 -3.27215,-4.55163 -6.51658,-9.12739 -9.7194,-13.73921 l -7.88193,-11.41049 -7.48119,-11.70329 c -4.85974,-7.88506 -9.67007,-15.8501 -13.74346,-24.19317 -3.09064,-6.10565 -5.88121,-12.34839 -8.54307,-18.65131 6.30338,-4.92832 11.79566,-10.90686 17.06134,-16.76127 5.65423,-6.21074 11.67392,-11.798 18.78035,-15.88917 7.02587,-4.21083 14.90569,-7.02048 22.88393,-9.47806 5.08336,-1.58106 10.27638,-2.90603 15.49673,-4.2066 -0.20964,4.73219 2.12625,9.58319 6.15771,12.12373 0.84294,0.53133 1.7435,0.96977 2.70032,1.24317 4.3231,1.23513 8.79017,-1.01131 12.72605,-3.18324 2.03098,-1.12415 4.13197,-2.30708 5.47479,-4.19911 2.13977,-3.01904 1.8666,-7.11765 0.97066,-10.71142 -3.81893,-15.25376 -23.8676,-11.44297 -27.62681,1.8929 z M 91.283445,-2.8811127 c -0.1003,-3.806702 -0.28445,-7.5812493 -0.44636,-11.3418933 l -1.01068,-22.364387 c -0.44842,-7.343383 -1.24095,-14.991657 1.02607,-22.027954 1.18387,-3.408842 3.11505,-6.691997 6.05137,-8.452786 2.88242,-1.847607 6.428445,-1.871527 9.686485,-0.975776 3.61014,0.822403 5.66807,2.630253 6.6811,4.956838 1.04063,2.372791 1.05371,5.699731 0.63009,9.02308 -0.96817,6.753203 -3.61206,13.6956 -6.2065,20.558268 -2.55635,6.938075 -5.52706,13.816576 -8.397725,20.803981 l -4.40043,10.5015823 -2.15604,5.323299 -1.09193,2.663704 -0.21062,0.540455 0.007,-0.597583 -0.0194,-2.885197 z m -21.33722,-8.3173983 c -8.724421,-4.596434 -18.078973,-7.371775 -27.201443,-9.92511 L 29.147796,-24.54104 c -4.434047,-1.119031 -8.830759,-2.341858 -12.595093,-4.139202 -1.936006,-0.857096 -3.52229,-1.969872 -4.951608,-3.097796 -1.314209,-1.196365 -2.1729704,-2.528021 -2.7639544,-4.070298 -0.533617,-1.567003 -0.538943,-3.480043 -0.327857,-5.4981 0.136592,-1.012156 0.441767,-2.04562 0.645841,-3.091616 0.377824,-0.909874 0.593186,-1.982701 1.1110894,-2.813164 1.750625,-3.551074 5.486054,-5.990815 9.939721,-6.104678 4.40155,-0.216973 8.945893,1.061 13.108891,2.955886 8.40846,3.913087 15.187598,10.571953 21.746201,16.903523 6.566797,6.397249 13.062226,12.860398 19.001068,19.899944 2.97434,3.509803 5.85945,7.1094763 8.59798,10.8533343 0.16624,0.230903 0.32304,0.470235 0.4864,0.69686 -0.31854,-0.293331 -0.61216,-0.618109 -0.94412,-0.898977 -3.70585,-3.279294 -7.90476,-5.974588 -12.25681,-8.2528443 z M 110.11488,117.19201 c -4.60167,-2.80078 -9.62392,-4.89465 -14.759325,-6.52194 -10.29513,-3.31226 -21.08502,-4.41778 -31.515693,-4.95163 L 48.39792,105.31098 c -5.026456,-0.12058 -9.966429,-0.47441 -14.255512,-1.67194 -2.090211,-0.64889 -3.928359,-1.53966 -5.407523,-2.68723 -1.4593,-1.167603 -2.413278,-2.775703 -3.208948,-4.673453 -0.740327,-1.92596 -1.06833,-4.22018 -1.213518,-6.58697 -0.151002,-2.32893 0.01223,-4.55194 0.783649,-6.61472 0.694513,-2.08866 2.001686,-3.94258 3.778725,-5.39097 1.714758,-1.5319 3.921836,-2.60394 6.285245,-3.21924 4.718678,-1.355 9.900186,-1.22389 14.85302,-0.29259 10.013312,1.90792 18.976308,7.23196 27.296707,12.69645 8.39218,5.45831 16.45621,11.42189 23.857585,18.265043 3.74234,3.38058 7.25888,7.01505 10.71823,10.76333 1.33161,1.47682 2.64717,2.99173 3.94497,4.52041 0.063,0.2829 0.12957,0.56248 0.1909,0.84076 -1.8633,-1.49226 -3.85108,-2.82648 -5.90419,-4.06283 z m 114.48925,231.11468 c -2.33724,-5.54396 -4.47567,-11.14863 -6.51651,-16.76776 -4.03209,-11.26827 -7.37438,-22.7113 -10.35849,-34.2456 -3.0833,-11.46418 -5.94357,-23.3256 -5.42338,-35.30143 0.29917,-5.93527 1.50014,-11.91304 4.22489,-17.01004 1.41921,-2.47059 3.14217,-4.80456 5.44489,-6.2495 2.25695,-1.48612 4.80728,-2.26455 7.44278,-2.46061 5.41027,0.002 10.9703,1.73792 13.58181,5.56605 2.77659,3.79944 3.75779,9.33616 3.86135,14.98265 0.14218,11.42106 -2.24427,23.30854 -4.04526,35.20895 -1.78072,11.96024 -3.74005,24.0506 -4.50151,36.36812 -0.42554,6.14903 -0.43273,12.35578 -0.15727,18.53904 0.11503,3.09589 0.52646,6.1861 0.98164,9.24445 l 0.0574,0.29973 c -0.76576,-0.97025 -1.54463,-1.92778 -2.30234,-2.90165 -0.76603,-1.75782 -1.5147,-3.52497 -2.29013,-5.27339 z m -76.4573,-168.76843 c 0.68657,-12.17958 2.27783,-24.20852 4.26153,-36.18164 0.93608,-5.99819 2.0714,-11.98742 3.64315,-17.88331 1.53595,-5.8976 3.50628,-11.72574 6.34699,-17.11609 2.86495,-5.33263 6.45183,-10.422083 11.14521,-14.025543 4.63536,-3.61958 10.67975,-5.01744 15.51882,-2.57572 2.38286,1.07932 4.71564,2.89791 6.55725,4.86993 1.93311,1.92595 3.00931,4.130993 3.32509,6.311623 0.68669,4.38323 -1.96371,9.58748 -5.18368,14.38631 -3.25558,4.84682 -7.19303,9.51976 -11.17419,14.20487 -4.01108,4.6754 -7.9457,9.52148 -11.80402,14.48876 -7.52096,10.04511 -14.64194,20.831 -19.16807,32.90811 -1.66296,4.36511 -2.98081,8.86972 -3.88809,13.44604 0.0545,-4.2893 0.14886,-8.56895 0.4203,-12.83349 z m 32.45772,120.53151 -7.37711,-3.55166 -14.69632,-7.04799 c -9.72286,-4.78458 -19.42547,-9.49958 -28.74242,-14.7342 -4.71964,-2.50151 -9.28505,-5.23084 -13.76304,-7.9944 -4.46411,-2.77571 -8.78394,-5.76891 -12.57613,-9.15916 -3.758195,-3.38238 -7.034805,-7.23314 -8.546515,-11.33359 -0.88961,-2.04966 -0.92642,-4.12724 -0.70212,-6.27686 0.43032,-1.98893 1.42685,-4.59489 2.70085,-6.68207 2.42803,-4.29305 6.445375,-7.69411 11.536145,-7.40713 5.00645,0.11065 9.94751,2.70459 14.22398,5.77992 8.63956,6.36107 15.16069,15.20169 21.94213,23.52129 6.7876,8.37131 13.81943,16.58434 20.87542,24.85472 3.53874,4.12227 7.09367,8.24638 10.75765,12.30037 l 5.53773,6.05979 c 0.0342,0.0378 0.0554,0.0506 0.0853,0.0906 0.48218,0.97227 1.00487,1.92638 1.49352,2.89174 z"
     id="path4"
     style="stroke-width:4.45248" />
</svg>
